<?xml version="1.0" encoding="utf-8"?>
<!-- Generator: Adobe Illustrator 25.2.0, SVG Export Plug-In . SVG Version: 6.00 Build 0)  -->
<svg version="1.1" id="Camada_1" xmlns="http://www.w3.org/2000/svg" xmlns:xlink="http://www.w3.org/1999/xlink" x="0px" y="0px"
	 viewBox="0 0 1024 1024" style="enable-background:new 0 0 1024 1024;" xml:space="preserve">
<style type="text/css">
	.st0{fill:#85FC6C;}
</style>
<g>
	<path class="st0" d="M105.99,355.54c-44.88,0-78.71,33.83-78.71,78.71s33.83,78.71,78.71,78.71s78.72-33.83,78.72-78.71
		S150.87,355.54,105.99,355.54z"/>
	<path class="st0" d="M105.99,663c-44.88,0-78.71,33.84-78.71,78.72s33.83,78.71,78.71,78.71s78.72-33.83,78.72-78.71
		S150.87,663,105.99,663z"/>
	<path class="st0" d="M651.15,172.92c-1.15-1.82-3.14-2.92-5.3-2.92h-69.8c-2.41,0-4.61,1.38-5.65,3.56L249.69,845.03
		c-0.93,1.94-0.8,4.22,0.35,6.04c1.15,1.82,3.14,2.92,5.3,2.92h69.8c2.41,0,4.61-1.38,5.65-3.56l320.72-671.48
		C652.44,177.02,652.3,174.75,651.15,172.92z"/>
	<path class="st0" d="M995.75,172.92c-1.15-1.82-3.14-2.92-5.3-2.92h-69.8c-2.41,0-4.61,1.38-5.65,3.56L594.28,845.03
		c-0.93,1.94-0.8,4.22,0.35,6.04c1.15,1.82,3.14,2.92,5.3,2.92h69.8c2.41,0,4.61-1.38,5.65-3.56L996.1,178.97
		C997.03,177.02,996.9,174.75,995.75,172.92z"/>
</g>
</svg>
