<?xml version="1.0" encoding="utf-8"?>
<!-- Generator: Adobe Illustrator 25.2.0, SVG Export Plug-In . SVG Version: 6.00 Build 0)  -->
<svg version="1.1" id="Camada_1" xmlns="http://www.w3.org/2000/svg" xmlns:xlink="http://www.w3.org/1999/xlink" x="0px" y="0px"
	 viewBox="0 0 4478.74 1238.74" style="enable-background:new 0 0 4478.74 1238.74;" xml:space="preserve">
<style type="text/css">
	.st0{fill:#97C132;}
	.st1{fill:#E73344;}
	.st2{fill:#24214A;}
	.st3{fill:#22ADE3;}
	.st4{fill:#23204A;}
</style>
<g>
	<g>
		<path class="st0" d="M618.3,929.83c-117.5,0-231.67-62.2-292.52-172.21c-88.94-160.78-30.32-364.03,130.68-453.09
			c124.32-68.31,278.82-50.45,384.57,44.38l28.03,25.14l-50.27,56.05l-28.02-25.13c-81.97-73.52-201.71-87.38-297.95-34.5
			c-124.58,68.91-170,226.27-101.16,350.71c68.97,124.67,226.33,170.1,350.77,101.24l32.94-18.22l36.44,65.88l-32.94,18.22
			C727.95,916.47,672.77,929.83,618.3,929.83"/>
	</g>
	<g>
		<path class="st1" d="M618.84,1037.34c-40.7,0-81.65-5.7-121.89-17.23c-113.09-32.39-206.86-106.82-264.02-209.6
			C115.6,598.39,192.44,330.07,404.17,212.28c184.28-102.08,416.26-59.09,551.67,102.2l24.2,28.83l-57.66,48.4l-24.2-28.83
			c-112.29-133.76-304.69-169.41-457.47-84.77C265.23,375.73,201.53,598.19,298.77,774c47.36,85.15,125.12,146.88,218.91,173.73
			c93.81,26.87,192.36,15.58,277.49-31.77l32.9-18.3l36.6,65.79l-32.9,18.3C765.57,1018.58,692.62,1037.34,618.84,1037.34"/>
	</g>
	<g>
		<path class="st2" d="M788.46,435.85c-84.69-84.69-220.1-88.39-309.3-11.22l53.59,53.59c59.54-47.85,147.07-44.18,202.3,11.04
			c55.22,55.22,58.89,142.76,11.04,202.29l53.59,53.59C876.85,655.95,873.15,520.54,788.46,435.85"/>
	</g>
	<g>
		<path class="st3" d="M520.41,703.9c-55.22-55.22-58.89-142.76-11.04-202.3l-53.59-53.59c-77.17,89.2-73.48,224.61,11.22,309.3
			c84.69,84.69,220.1,88.38,309.3,11.22l-53.59-53.59C663.17,762.79,575.64,759.12,520.41,703.9"/>
	</g>
	<g>
		<path class="st4" d="M1167.05,676.48c0,54.83-39.39,112.65-115.88,112.65h-140.3V417.76h101.36c65.89,0,107.82,48.38,107.82,98.37
			c0,39.4-26.03,63.82-35.02,63.82C1120.75,579.95,1167.05,616.81,1167.05,676.48z M985.29,490.33v72.57h30.18
			c17.74,0,35.02-15.2,35.02-36.86c0-20.96-16.36-35.71-33.64-35.71H985.29z M1094.25,671.18c0-21.43-14.74-42.85-50.22-42.85
			h-58.74v88h58.98C1068.45,716.33,1094.25,699.75,1094.25,671.18z"/>
		<path class="st4" d="M1189.6,725.09l59.67-41.93c16.36,26.26,40.08,38.25,72.11,38.25c35.02,0,58.52-14.29,58.52-34.1
			c0-27.18-44.46-48.61-83.4-67.96c-41.7-20.73-87.54-43.54-87.54-102.75c0-64.28,54.37-106.67,122.56-106.67
			c50.68,0,92.61,20.96,109.43,65.89l-55.06,38.47c-11.06-22.12-32.48-31.1-53.22-31.1c-27.88,0-48.61,16.13-48.61,35.25
			c0,22.12,28.1,29.72,70.72,49.76c61.51,29.03,100.21,60.36,100.21,117.5c0,67.73-55.29,110.81-134.77,110.81
			C1259.4,796.5,1214.48,771.17,1189.6,725.09z"/>
		<path class="st4" d="M1574.75,491.26v72.57h128.09v74.41h-128.09v76.71h149.28v74.18h-223.92V417.76h223.92v73.49H1574.75z"/>
		<path class="st4" d="M1971.89,789.13L1853.7,613.59v175.55h-74.64l-0.23-371.37h121.18c69.34,0,126.25,53.45,126.25,120.26
			c0,47.69-28.8,89.39-68.65,103.44l105.51,147.67H1971.89z M1853.47,585.02l47.92,0.23c25.34,0.23,47.92-20.27,47.92-46.77
			c0-26.49-22.81-46.77-47.92-46.77h-47.92V585.02z"/>
		<path class="st4" d="M2393.26,417.76l-173.7,380.58h-2.77l-173.01-380.58h79.02l95.14,215.63l95.38-215.63H2393.26z"/>
		<path class="st4" d="M2563.86,737.3h-148.59l-23.73,51.84h-80.63l177.39-380.58h2.3l177.62,380.58h-80.86L2563.86,737.3z
			 M2534.83,673.71l-45.16-99.29l-45.38,99.29H2534.83z"/>
		<path class="st4" d="M2894.49,491.72h-91.23v297.42h-74.87V491.72h-91.46v-73.95h257.56V491.72z"/>
		<path class="st4" d="M2920.26,603.91c0-106.66,86.85-193.75,193.06-193.75c106.2,0,193.28,87.08,193.28,193.75
			c0,105.75-87.08,192.36-193.51,192.36C3007.11,796.27,2920.26,709.66,2920.26,603.91z M3231.04,603.45
			c0-64.97-52.99-117.95-117.95-117.95c-64.74,0-117.49,52.99-117.49,117.95c0,64.5,52.76,117.26,117.49,117.26
			C3178.05,720.71,3231.04,667.96,3231.04,603.45z M3076.69,387.13l43.08-75.33h64.5l-54.83,75.33H3076.69z"/>
		<path class="st4" d="M3547.98,789.13L3429.8,613.59v175.55h-74.64l-0.23-371.37h121.18c69.35,0,126.25,53.45,126.25,120.26
			c0,47.69-28.8,89.39-68.65,103.44l105.51,147.67H3547.98z M3429.57,585.02l47.92,0.23c25.34,0.23,47.92-20.27,47.92-46.77
			c0-26.49-22.81-46.77-47.92-46.77h-47.92V585.02z"/>
		<path class="st4" d="M3674.66,417.76h74.64v371.37h-74.64V417.76z"/>
		<path class="st4" d="M3797.66,603.91c0-106.66,86.85-193.75,193.06-193.75c106.2,0,193.28,87.08,193.28,193.75
			c0,105.75-87.08,192.36-193.52,192.36C3884.51,796.27,3797.66,709.66,3797.66,603.91z M4108.43,603.45
			c0-64.97-52.99-117.95-117.95-117.95c-64.73,0-117.49,52.99-117.49,117.95c0,64.5,52.76,117.26,117.49,117.26
			C4055.45,720.71,4108.43,667.96,4108.43,603.45z"/>
	</g>
	<g>
		<path class="st4" d="M965.79,966.92h-40.8l-5.47,12.29h-9.13l34.54-75.9h0.93l34.59,75.9h-9.18L965.79,966.92z M962.55,959.59
			l-17.11-38.43l-17.15,38.43H962.55z"/>
		<path class="st4" d="M1000.8,950.18v-45.71h8.48v45.67c0,12.56,8.16,21.7,19.2,21.7s19.19-9.18,19.19-21.7v-45.67h8.48v45.71
			c0,17.43-11.78,30.18-27.68,30.18C1012.62,980.36,1000.8,967.61,1000.8,950.18z"/>
		<path class="st4" d="M1136.39,912.81h-21.65v66.39h-8.44v-66.39h-21.74v-8.34h51.84V912.81z"/>
		<path class="st4" d="M1157.92,941.88c0-21.19,17.3-38.48,38.39-38.48c21.14,0,38.44,17.3,38.44,38.48
			c0,21.05-17.29,38.3-38.48,38.3C1175.21,980.18,1157.92,962.93,1157.92,941.88z M1226.21,941.84c0-16.46-13.45-29.95-29.95-29.95
			c-16.41,0-29.81,13.49-29.81,29.95c0,16.41,13.4,29.81,29.81,29.81C1212.77,971.65,1226.21,958.25,1226.21,941.84z"/>
		<path class="st4" d="M1308.82,979.21l-20.86-29.16H1274v29.16h-8.44l-0.05-74.74h22.07c13.86,0,25.18,10.66,25.18,23.83
			c0,9.69-6.63,18.03-15.72,20.77l22.21,30.14H1308.82z M1287.86,942.95c8.9,0,16.23-6.77,16.23-14.84c0-8.62-7.42-15.3-16.23-15.3
			h-13.91v30.09L1287.86,942.95z"/>
		<path class="st4" d="M1346.85,904.47h8.44v74.74h-8.44V904.47z"/>
		<path class="st4" d="M1448.99,941.88c0,22.81-14.84,37.32-38.11,37.32h-20.82v-74.74l20.82-0.05
			C1434.16,904.42,1448.99,918.98,1448.99,941.88z M1440.51,941.88c0-17.66-11.59-29.07-29.67-29.07h-12.33v57.95h12.47
			C1428.96,970.77,1440.51,959.46,1440.51,941.88z"/>
		<path class="st4" d="M1521.64,966.92h-40.8l-5.47,12.29h-9.13l34.54-75.9h0.93l34.59,75.9h-9.18L1521.64,966.92z M1518.4,959.59
			l-17.11-38.43l-17.15,38.43H1518.4z"/>
		<path class="st4" d="M1623.3,941.88c0,22.81-14.84,37.32-38.11,37.32h-20.82v-74.74l20.82-0.05
			C1608.46,904.42,1623.3,918.98,1623.3,941.88z M1614.81,941.88c0-17.66-11.59-29.07-29.67-29.07h-12.33v57.95h12.47
			C1603.27,970.77,1614.81,959.46,1614.81,941.88z"/>
		<path class="st4" d="M1662.5,912.77v23.65h30.74v8.44h-30.74v25.97h35.47v8.39h-43.91v-74.74h43.91v8.3H1662.5z"/>
		<path class="st4" d="M1836.06,941.88c0,22.81-14.84,37.32-38.11,37.32h-20.82v-74.74l20.82-0.05
			C1821.22,904.42,1836.06,918.98,1836.06,941.88z M1827.57,941.88c0-17.66-11.59-29.07-29.67-29.07h-12.33v57.95h12.47
			C1816.03,970.77,1827.57,959.46,1827.57,941.88z"/>
		<path class="st4" d="M1908.71,966.92h-40.8l-5.47,12.29h-9.13l34.54-75.9h0.93l34.59,75.9h-9.18L1908.71,966.92z M1905.46,959.59
			l-17.11-38.43l-17.15,38.43H1905.46z"/>
		<path class="st4" d="M2071.47,903.08v76.13h-8.44v-50.72l-28.1,49.47h-0.09l-28.14-49.56v50.81h-8.44v-76.13h0.97l35.65,59.44
			l35.65-59.44H2071.47z"/>
		<path class="st4" d="M2102.24,941.88c0-21.19,17.3-38.48,38.39-38.48c21.14,0,38.44,17.3,38.44,38.48
			c0,21.05-17.29,38.3-38.48,38.3C2119.54,980.18,2102.24,962.93,2102.24,941.88z M2170.54,941.84c0-16.46-13.45-29.95-29.95-29.95
			c-16.41,0-29.81,13.49-29.81,29.95c0,16.41,13.4,29.81,29.81,29.81C2157.09,971.65,2170.54,958.25,2170.54,941.84z"/>
		<path class="st4" d="M2261.16,956.4c0,11.82-9.37,22.81-23.65,22.81h-27.68v-74.74h20.4c12.47,0,21.47,8.81,21.47,18.64
			c0,8.11-5.89,14-9.69,14C2251.61,937.11,2261.16,945.13,2261.16,956.4z M2218.23,912.68v22.62h12.43
			c8.11,0.04,13.12-4.91,13.12-11.22c0-6.4-5.98-11.4-13.07-11.4H2218.23z M2252.91,955.84c0-7-6.63-13.08-16.51-13.03h-18.17v28.14
			h18.59C2245.35,970.95,2252.91,964.51,2252.91,955.84z"/>
		<path class="st4" d="M2290.34,904.47h8.44v74.74h-8.44V904.47z"/>
		<path class="st4" d="M2378.62,970.81v8.39h-45.06v-74.74h8.44v66.35H2378.62z"/>
		<path class="st4" d="M2407.89,904.47h8.44v74.74h-8.44V904.47z"/>
		<path class="st4" d="M2510.03,941.88c0,22.81-14.84,37.32-38.11,37.32h-20.82v-74.74l20.82-0.05
			C2495.2,904.42,2510.03,918.98,2510.03,941.88z M2501.55,941.88c0-17.66-11.59-29.07-29.67-29.07h-12.34v57.95h12.47
			C2490,970.77,2501.55,959.46,2501.55,941.88z"/>
		<path class="st4" d="M2582.69,966.92h-40.8l-5.47,12.29h-9.14l34.54-75.9h0.92l34.59,75.9h-9.18L2582.69,966.92z M2579.44,959.59
			l-17.11-38.43l-17.16,38.43H2579.44z"/>
		<path class="st4" d="M2684.34,941.88c0,22.81-14.84,37.32-38.11,37.32h-20.82v-74.74l20.82-0.05
			C2669.5,904.42,2684.34,918.98,2684.34,941.88z M2675.85,941.88c0-17.66-11.59-29.07-29.67-29.07h-12.33v57.95h12.47
			C2664.31,970.77,2675.85,959.46,2675.85,941.88z"/>
		<path class="st4" d="M2723.54,912.77v23.65h30.74v8.44h-30.74v25.97h35.47v8.39h-43.91v-74.74h43.91v8.3H2723.54z"/>
		<path class="st4" d="M2846.61,912.77v23.65h30.74v8.44h-30.74v25.97h35.47v8.39h-43.91v-74.74h43.91v8.3H2846.61z"/>
		<path class="st4" d="M3020.17,941.88c0,22.81-14.84,37.32-38.11,37.32h-20.82v-74.74l20.82-0.05
			C3005.33,904.42,3020.17,918.98,3020.17,941.88z M3011.68,941.88c0-17.66-11.59-29.07-29.67-29.07h-12.33v57.95h12.47
			C3000.14,970.77,3011.68,959.46,3011.68,941.88z"/>
		<path class="st4" d="M3046.99,941.88c0-21.19,17.29-38.48,38.39-38.48c21.14,0,38.43,17.3,38.43,38.48
			c0,21.05-17.29,38.3-38.48,38.3C3064.28,980.18,3046.99,962.93,3046.99,941.88z M3115.28,941.84c0-16.46-13.45-29.95-29.95-29.95
			c-16.41,0-29.81,13.49-29.81,29.95c0,16.41,13.4,29.81,29.81,29.81C3101.83,971.65,3115.28,958.25,3115.28,941.84z"/>
		<path class="st4" d="M3149.85,965.85l6.49-4.78c3.39,6.4,11.03,10.66,18.96,10.66c9.78,0,17.76-5.28,17.76-12.66
			c0-8.39-10.71-12.42-20.26-16.04c-9.18-3.57-19.42-8.07-19.42-19.61c0-11.5,10.34-20.08,23.46-20.08
			c11.08,0,18.64,6.07,21.42,13.45l-6.35,4.27c-2.41-5.61-8.44-9.41-15.16-9.41c-8.02,0-14.88,5.29-14.88,11.96
			c0,7.23,8.21,9.87,17.85,13.59c11.22,4.54,21.84,9.73,21.84,21.74c0,12.89-11.92,21.28-26.29,21.28
			C3162.97,980.23,3153.42,973.83,3149.85,965.85z"/>
		<path class="st4" d="M3324.76,912.81h-21.65v66.39h-8.44v-66.39h-21.74v-8.34h51.84V912.81z"/>
		<path class="st4" d="M3397.33,979.21l-20.86-29.16h-13.96v29.16h-8.44l-0.04-74.74h22.07c13.86,0,25.18,10.66,25.18,23.83
			c0,9.69-6.63,18.03-15.72,20.77l22.21,30.14H3397.33z M3376.38,942.95c8.9,0,16.23-6.77,16.23-14.84c0-8.62-7.42-15.3-16.23-15.3
			h-13.91v30.09L3376.38,942.95z"/>
		<path class="st4" d="M3484.1,966.92h-40.8l-5.47,12.29h-9.13l34.54-75.9h0.93l34.59,75.9h-9.18L3484.1,966.92z M3480.85,959.59
			l-17.11-38.43l-17.15,38.43H3480.85z"/>
		<path class="st4" d="M3586.91,904.28v76.08h-0.42l-51.23-56.89v55.82h-8.44v-75.99h0.46l51.18,56.85v-55.87H3586.91z"/>
		<path class="st4" d="M3616.98,965.85l6.49-4.78c3.39,6.4,11.03,10.66,18.96,10.66c9.78,0,17.76-5.28,17.76-12.66
			c0-8.39-10.71-12.42-20.26-16.04c-9.18-3.57-19.43-8.07-19.43-19.61c0-11.5,10.34-20.08,23.46-20.08
			c11.08,0,18.64,6.07,21.42,13.45l-6.35,4.27c-2.41-5.61-8.44-9.41-15.16-9.41c-8.02,0-14.88,5.29-14.88,11.96
			c0,7.23,8.21,9.87,17.85,13.59c11.22,4.54,21.84,9.73,21.84,21.74c0,12.89-11.92,21.28-26.29,21.28
			C3630.1,980.23,3620.55,973.83,3616.98,965.85z"/>
		<path class="st4" d="M3698.74,904.47h23.69c14.47,0,26.29,10.85,26.29,24.11c0,12.7-11.82,23.04-26.29,23.04h-15.25v27.59h-8.44
			V904.47z M3740.28,928.48c0-8.62-8.02-15.67-17.85-15.67h-15.25v30.46l15.25,0.05C3732.26,943.37,3740.28,936.69,3740.28,928.48z"
			/>
		<path class="st4" d="M3773.96,941.88c0-21.19,17.29-38.48,38.39-38.48c21.14,0,38.43,17.3,38.43,38.48
			c0,21.05-17.29,38.3-38.48,38.3C3791.25,980.18,3773.96,962.93,3773.96,941.88z M3842.26,941.84c0-16.46-13.45-29.95-29.95-29.95
			c-16.41,0-29.81,13.49-29.81,29.95c0,16.41,13.4,29.81,29.81,29.81C3828.81,971.65,3842.26,958.25,3842.26,941.84z"/>
		<path class="st4" d="M3924.86,979.21l-20.87-29.16h-13.95v29.16h-8.44l-0.05-74.74h22.07c13.86,0,25.18,10.66,25.18,23.83
			c0,9.69-6.63,18.03-15.72,20.77l22.21,30.14H3924.86z M3903.9,942.95c8.9,0,16.23-6.77,16.23-14.84c0-8.62-7.42-15.3-16.23-15.3
			h-13.91v30.09L3903.9,942.95z"/>
		<path class="st4" d="M4007.41,912.81h-21.65v66.39h-8.44v-66.39h-21.74v-8.34h51.84V912.81z"/>
		<path class="st4" d="M4045.12,912.77v23.65h30.74v8.44h-30.74v25.97h35.47v8.39h-43.91v-74.74h43.91v8.3H4045.12z"/>
		<path class="st4" d="M4108.19,965.85l6.49-4.78c3.39,6.4,11.04,10.66,18.97,10.66c9.78,0,17.76-5.28,17.76-12.66
			c0-8.39-10.71-12.42-20.26-16.04c-9.18-3.57-19.43-8.07-19.43-19.61c0-11.5,10.34-20.08,23.46-20.08
			c11.08,0,18.64,6.07,21.42,13.45l-6.35,4.27c-2.41-5.61-8.44-9.41-15.16-9.41c-8.02,0-14.88,5.29-14.88,11.96
			c0,7.23,8.21,9.87,17.85,13.59c11.22,4.54,21.84,9.73,21.84,21.74c0,12.89-11.91,21.28-26.29,21.28
			C4121.31,980.23,4111.76,973.83,4108.19,965.85z"/>
	</g>
</g>
</svg>
