<svg width="775" height="269" viewBox="0 0 775 269" fill="none" xmlns="http://www.w3.org/2000/svg">
<g clip-path="url(#clip0_0_1)">
<g filter="url(#filter0_d_0_1)">
<g filter="url(#filter1_d_0_1)">
<mask id="path-1-outside-1_0_1" maskUnits="userSpaceOnUse" x="-1" y="4" width="785" height="266" fill="black">
<rect fill="white" x="-1" y="4" width="785" height="266"/>
<path d="M57.6752 98.5685V112.493H78.6831V125.436H57.6752V140.537H81.4353V153.97H41.988V85.1348H81.4353V98.5685H57.6752Z"/>
<path d="M114.646 138.281L125.746 99.2549H142.442L124.278 153.97H104.922L86.7575 99.2549H103.546L114.646 138.281Z"/>
<path d="M197.299 125.73C197.299 127.299 197.208 128.933 197.024 130.633H161.522C161.766 134.032 162.775 136.647 164.549 138.478C166.384 140.243 168.616 141.125 171.246 141.125C175.16 141.125 177.882 139.36 179.411 135.83H196.107C195.251 139.425 193.691 142.661 191.428 145.538C189.227 148.414 186.444 150.669 183.08 152.303C179.716 153.938 175.955 154.755 171.796 154.755C166.781 154.755 162.317 153.611 158.403 151.323C154.488 149.035 151.431 145.766 149.229 141.517C147.027 137.268 145.926 132.3 145.926 126.613C145.926 120.925 146.997 115.957 149.137 111.708C151.339 107.459 154.397 104.19 158.311 101.902C162.225 99.6145 166.72 98.4705 171.796 98.4705C176.75 98.4705 181.154 99.5818 185.007 101.804C188.86 104.027 191.856 107.197 193.997 111.316C196.199 115.434 197.299 120.239 197.299 125.73ZM181.245 121.318C181.245 118.441 180.328 116.153 178.493 114.454C176.658 112.754 174.365 111.904 171.613 111.904C168.983 111.904 166.751 112.721 164.916 114.356C163.142 115.99 162.042 118.311 161.613 121.318H181.245Z"/>
<path d="M236.766 98.6666C242.76 98.6666 247.53 100.758 251.077 104.942C254.686 109.061 256.49 114.748 256.49 122.004V153.97H240.894V124.259C240.894 120.599 240.007 117.755 238.234 115.728C236.46 113.702 234.075 112.689 231.078 112.689C228.082 112.689 225.696 113.702 223.923 115.728C222.149 117.755 221.262 120.599 221.262 124.259V153.97H205.575V99.2549H221.262V106.511C222.852 104.092 224.993 102.197 227.684 100.824C230.375 99.3857 233.402 98.6666 236.766 98.6666Z"/>
<path d="M295.921 139.752V153.97H287.94C282.252 153.97 277.818 152.5 274.638 149.558C271.458 146.551 269.868 141.681 269.868 134.947V113.179H263.63V99.2549H269.868V85.9192H285.555V99.2549H295.829V113.179H285.555V135.144C285.555 136.778 285.922 137.955 286.656 138.674C287.39 139.393 288.613 139.752 290.325 139.752H295.921Z"/>
<path d="M397.031 85.1348V153.97H381.344V112.689L366.941 153.97H354.282L339.787 112.591V153.97H324.1V85.1348H342.631L360.703 132.79L378.592 85.1348H397.031Z"/>
<path d="M405.193 126.515C405.193 120.893 406.172 115.957 408.129 111.708C410.147 107.459 412.869 104.19 416.293 101.902C419.718 99.6145 423.541 98.4705 427.761 98.4705C431.369 98.4705 434.519 99.2549 437.21 100.824C439.962 102.393 442.072 104.452 443.54 107.001V99.2549H459.227V153.97H443.54V146.224C442.011 148.773 439.87 150.833 437.118 152.402C434.427 153.97 431.277 154.755 427.669 154.755C423.51 154.755 419.718 153.611 416.293 151.323C412.869 148.97 410.147 145.668 408.129 141.419C406.172 137.105 405.193 132.137 405.193 126.515ZM443.54 126.613C443.54 122.429 442.439 119.128 440.237 116.709C438.096 114.29 435.467 113.081 432.348 113.081C429.229 113.081 426.568 114.29 424.366 116.709C422.226 119.062 421.156 122.331 421.156 126.515C421.156 130.698 422.226 134.032 424.366 136.516C426.568 138.935 429.229 140.144 432.348 140.144C435.467 140.144 438.096 138.935 440.237 136.516C442.439 134.098 443.54 130.796 443.54 126.613Z"/>
<path d="M501.767 98.6666C507.76 98.6666 512.531 100.758 516.078 104.942C519.686 109.061 521.49 114.748 521.49 122.004V153.97H505.895V124.259C505.895 120.599 505.008 117.755 503.234 115.728C501.461 113.702 499.076 112.689 496.079 112.689C493.082 112.689 490.697 113.702 488.923 115.728C487.15 117.755 486.263 120.599 486.263 124.259V153.97H470.576V99.2549H486.263V106.511C487.853 104.092 489.994 102.197 492.685 100.824C495.376 99.3857 498.403 98.6666 501.767 98.6666Z"/>
<path d="M529.272 126.515C529.272 120.893 530.251 115.957 532.208 111.708C534.226 107.459 536.948 104.19 540.372 101.902C543.797 99.6145 547.62 98.4705 551.84 98.4705C555.448 98.4705 558.598 99.2549 561.289 100.824C564.041 102.393 566.151 104.452 567.619 107.001V99.2549H583.306V153.97H567.619V146.224C566.09 148.773 563.949 150.833 561.197 152.402C558.506 153.97 555.356 154.755 551.748 154.755C547.589 154.755 543.797 153.611 540.372 151.323C536.948 148.97 534.226 145.668 532.208 141.419C530.251 137.105 529.272 132.137 529.272 126.515ZM567.619 126.613C567.619 122.429 566.518 119.128 564.316 116.709C562.176 114.29 559.546 113.081 556.427 113.081C553.308 113.081 550.647 114.29 548.445 116.709C546.305 119.062 545.235 122.331 545.235 126.515C545.235 130.698 546.305 134.032 548.445 136.516C550.647 138.935 553.308 140.144 556.427 140.144C559.546 140.144 562.176 138.935 564.316 136.516C566.518 134.098 567.619 130.796 567.619 126.613Z"/>
<path d="M614.103 98.4705C617.712 98.4705 620.861 99.2549 623.552 100.824C626.304 102.393 628.414 104.452 629.882 107.001V99.2549H645.569V153.872C645.569 158.906 644.621 163.449 642.725 167.502C640.891 171.621 638.047 174.889 634.194 177.308C630.402 179.727 625.662 180.936 619.974 180.936C612.391 180.936 606.244 179.008 601.535 175.151C596.826 171.359 594.135 166.195 593.462 159.658H608.966C609.455 161.75 610.617 163.384 612.452 164.561C614.287 165.803 616.55 166.424 619.241 166.424C622.482 166.424 625.051 165.41 626.947 163.384C628.904 161.423 629.882 158.252 629.882 153.872V146.126C628.353 148.675 626.243 150.767 623.552 152.402C620.861 153.97 617.712 154.755 614.103 154.755C609.883 154.755 606.061 153.611 602.636 151.323C599.211 148.97 596.49 145.668 594.471 141.419C592.514 137.105 591.536 132.137 591.536 126.515C591.536 120.893 592.514 115.957 594.471 111.708C596.49 107.459 599.211 104.19 602.636 101.902C606.061 99.6145 609.883 98.4705 614.103 98.4705ZM629.882 126.613C629.882 122.429 628.781 119.128 626.58 116.709C624.439 114.29 621.809 113.081 618.69 113.081C615.571 113.081 612.911 114.29 610.709 116.709C608.568 119.062 607.498 122.331 607.498 126.515C607.498 130.698 608.568 134.032 610.709 136.516C612.911 138.935 615.571 140.144 618.69 140.144C621.809 140.144 624.439 138.935 626.58 136.516C628.781 134.098 629.882 130.796 629.882 126.613Z"/>
<path d="M705.172 125.73C705.172 127.299 705.081 128.933 704.897 130.633H669.395C669.639 134.032 670.648 136.647 672.422 138.478C674.257 140.243 676.489 141.125 679.119 141.125C683.033 141.125 685.755 139.36 687.283 135.83H703.98C703.124 139.425 701.564 142.661 699.301 145.538C697.099 148.414 694.317 150.669 690.953 152.303C687.589 153.938 683.828 154.755 679.669 154.755C674.654 154.755 670.19 153.611 666.276 151.323C662.361 149.035 659.303 145.766 657.102 141.517C654.9 137.268 653.799 132.3 653.799 126.613C653.799 120.925 654.869 115.957 657.01 111.708C659.212 107.459 662.27 104.19 666.184 101.902C670.098 99.6145 674.593 98.4705 679.669 98.4705C684.623 98.4705 689.026 99.5818 692.879 101.804C696.732 104.027 699.729 107.197 701.87 111.316C704.072 115.434 705.172 120.239 705.172 125.73ZM689.118 121.318C689.118 118.441 688.201 116.153 686.366 114.454C684.531 112.754 682.238 111.904 679.486 111.904C676.856 111.904 674.624 112.721 672.789 114.356C671.015 115.99 669.914 118.311 669.486 121.318H689.118Z"/>
<path d="M729.135 108.374C730.97 105.367 733.263 103.014 736.016 101.314C738.768 99.5491 741.826 98.6666 745.189 98.6666V116.415H740.878C736.964 116.415 734.028 117.33 732.071 119.16C730.114 120.925 729.135 124.063 729.135 128.574V153.97H713.448V99.2549H729.135V108.374Z"/>
<path d="M546.679 247.999C547.206 247.013 547.977 246.209 548.994 245.585C550.01 244.962 551.167 244.65 552.466 244.65C553.858 244.65 555.11 245.002 556.22 245.706C557.33 246.41 558.205 247.406 558.845 248.693C559.485 249.96 559.805 251.439 559.805 253.128C559.805 254.798 559.485 256.286 558.845 257.594C558.205 258.901 557.321 259.917 556.192 260.641C555.081 261.365 553.839 261.727 552.466 261.727C551.13 261.727 549.953 261.415 548.937 260.792C547.94 260.168 547.187 259.374 546.679 258.408V261.455H544.11V239.129H546.679V247.999ZM557.18 253.128C557.18 251.881 556.944 250.795 556.474 249.87C556.003 248.944 555.364 248.24 554.554 247.758C553.764 247.275 552.889 247.034 551.929 247.034C550.988 247.034 550.113 247.285 549.304 247.788C548.514 248.271 547.874 248.985 547.385 249.93C546.914 250.855 546.679 251.931 546.679 253.158C546.679 254.405 546.914 255.502 547.385 256.447C547.874 257.372 548.514 258.086 549.304 258.589C550.113 259.072 550.988 259.313 551.929 259.313C552.889 259.313 553.764 259.072 554.554 258.589C555.364 258.086 556.003 257.372 556.474 256.447C556.944 255.502 557.18 254.395 557.18 253.128Z"/>
<path d="M576.509 244.922L567.194 269.24H564.541L567.589 261.274L561.351 244.922H564.202L569.057 258.318L573.855 244.922H576.509Z"/>
<path d="M602.085 261.455H599.516L589.185 244.71V261.455H586.616V240.396H589.185L599.516 257.111V240.396H602.085V261.455Z"/>
<path d="M613.21 261.727C611.761 261.727 610.443 261.375 609.258 260.671C608.091 259.967 607.169 258.971 606.492 257.684C605.833 256.377 605.504 254.868 605.504 253.158C605.504 251.469 605.842 249.98 606.52 248.693C607.216 247.386 608.157 246.39 609.343 245.706C610.528 245.002 611.855 244.65 613.323 244.65C614.79 244.65 616.117 245.002 617.303 245.706C618.488 246.39 619.42 247.376 620.097 248.663C620.793 249.95 621.142 251.449 621.142 253.158C621.142 254.868 620.784 256.377 620.069 257.684C619.373 258.971 618.422 259.967 617.218 260.671C616.014 261.375 614.678 261.727 613.21 261.727ZM613.21 259.313C614.132 259.313 614.997 259.082 615.807 258.619C616.616 258.157 617.265 257.463 617.754 256.538C618.262 255.612 618.516 254.486 618.516 253.158C618.516 251.831 618.272 250.704 617.782 249.779C617.293 248.854 616.653 248.17 615.863 247.728C615.073 247.265 614.216 247.034 613.294 247.034C612.353 247.034 611.488 247.265 610.697 247.728C609.926 248.17 609.305 248.854 608.835 249.779C608.364 250.704 608.129 251.831 608.129 253.158C608.129 254.506 608.355 255.642 608.806 256.568C609.277 257.493 609.898 258.187 610.669 258.65C611.441 259.092 612.288 259.313 613.21 259.313Z"/>
<path d="M631.265 261.727C629.816 261.727 628.499 261.375 627.313 260.671C626.147 259.967 625.224 258.971 624.547 257.684C623.888 256.377 623.559 254.868 623.559 253.158C623.559 251.469 623.898 249.98 624.575 248.693C625.272 247.386 626.212 246.39 627.398 245.706C628.584 245.002 629.91 244.65 631.378 244.65C632.846 244.65 634.172 245.002 635.358 245.706C636.544 246.39 637.475 247.376 638.152 248.663C638.849 249.95 639.197 251.449 639.197 253.158C639.197 254.868 638.839 256.377 638.124 257.684C637.428 258.971 636.478 259.967 635.273 260.671C634.069 261.375 632.733 261.727 631.265 261.727ZM631.265 259.313C632.187 259.313 633.053 259.082 633.862 258.619C634.671 258.157 635.32 257.463 635.81 256.538C636.318 255.612 636.572 254.486 636.572 253.158C636.572 251.831 636.327 250.704 635.838 249.779C635.349 248.854 634.709 248.17 633.918 247.728C633.128 247.265 632.272 247.034 631.35 247.034C630.409 247.034 629.543 247.265 628.753 247.728C627.981 248.17 627.36 248.854 626.89 249.779C626.419 250.704 626.184 251.831 626.184 253.158C626.184 254.506 626.41 255.642 626.862 256.568C627.332 257.493 627.953 258.187 628.725 258.65C629.496 259.092 630.343 259.313 631.265 259.313Z"/>
<path d="M645.143 247.969C645.651 247.024 646.404 246.239 647.401 245.616C648.417 244.972 649.593 244.65 650.929 244.65C652.303 244.65 653.545 245.002 654.655 245.706C655.784 246.41 656.669 247.406 657.309 248.693C657.949 249.96 658.268 251.439 658.268 253.128C658.268 254.798 657.949 256.286 657.309 257.594C656.669 258.901 655.784 259.917 654.655 260.641C653.545 261.365 652.303 261.727 650.929 261.727C649.612 261.727 648.445 261.415 647.429 260.792C646.432 260.148 645.67 259.354 645.143 258.408V269.3H642.574V244.922H645.143V247.969ZM655.643 253.128C655.643 251.881 655.408 250.795 654.938 249.87C654.467 248.944 653.827 248.24 653.018 247.758C652.228 247.275 651.353 247.034 650.393 247.034C649.452 247.034 648.577 247.285 647.768 247.788C646.978 248.271 646.338 248.985 645.849 249.93C645.378 250.855 645.143 251.931 645.143 253.158C645.143 254.405 645.378 255.502 645.849 256.447C646.338 257.372 646.978 258.086 647.768 258.589C648.577 259.072 649.452 259.313 650.393 259.313C651.353 259.313 652.228 259.072 653.018 258.589C653.827 258.086 654.467 257.372 654.938 256.447C655.408 255.502 655.643 254.395 655.643 253.128Z"/>
</mask>
<path d="M57.6752 98.5685V112.493H78.6831V125.436H57.6752V140.537H81.4353V153.97H41.988V85.1348H81.4353V98.5685H57.6752Z" fill="white"/>
<path d="M114.646 138.281L125.746 99.2549H142.442L124.278 153.97H104.922L86.7575 99.2549H103.546L114.646 138.281Z" fill="white"/>
<path d="M197.299 125.73C197.299 127.299 197.208 128.933 197.024 130.633H161.522C161.766 134.032 162.775 136.647 164.549 138.478C166.384 140.243 168.616 141.125 171.246 141.125C175.16 141.125 177.882 139.36 179.411 135.83H196.107C195.251 139.425 193.691 142.661 191.428 145.538C189.227 148.414 186.444 150.669 183.08 152.303C179.716 153.938 175.955 154.755 171.796 154.755C166.781 154.755 162.317 153.611 158.403 151.323C154.488 149.035 151.431 145.766 149.229 141.517C147.027 137.268 145.926 132.3 145.926 126.613C145.926 120.925 146.997 115.957 149.137 111.708C151.339 107.459 154.397 104.19 158.311 101.902C162.225 99.6145 166.72 98.4705 171.796 98.4705C176.75 98.4705 181.154 99.5818 185.007 101.804C188.86 104.027 191.856 107.197 193.997 111.316C196.199 115.434 197.299 120.239 197.299 125.73ZM181.245 121.318C181.245 118.441 180.328 116.153 178.493 114.454C176.658 112.754 174.365 111.904 171.613 111.904C168.983 111.904 166.751 112.721 164.916 114.356C163.142 115.99 162.042 118.311 161.613 121.318H181.245Z" fill="white"/>
<path d="M236.766 98.6666C242.76 98.6666 247.53 100.758 251.077 104.942C254.686 109.061 256.49 114.748 256.49 122.004V153.97H240.894V124.259C240.894 120.599 240.007 117.755 238.234 115.728C236.46 113.702 234.075 112.689 231.078 112.689C228.082 112.689 225.696 113.702 223.923 115.728C222.149 117.755 221.262 120.599 221.262 124.259V153.97H205.575V99.2549H221.262V106.511C222.852 104.092 224.993 102.197 227.684 100.824C230.375 99.3857 233.402 98.6666 236.766 98.6666Z" fill="white"/>
<path d="M295.921 139.752V153.97H287.94C282.252 153.97 277.818 152.5 274.638 149.558C271.458 146.551 269.868 141.681 269.868 134.947V113.179H263.63V99.2549H269.868V85.9192H285.555V99.2549H295.829V113.179H285.555V135.144C285.555 136.778 285.922 137.955 286.656 138.674C287.39 139.393 288.613 139.752 290.325 139.752H295.921Z" fill="white"/>
<path d="M397.031 85.1348V153.97H381.344V112.689L366.941 153.97H354.282L339.787 112.591V153.97H324.1V85.1348H342.631L360.703 132.79L378.592 85.1348H397.031Z" fill="white"/>
<path d="M405.193 126.515C405.193 120.893 406.172 115.957 408.129 111.708C410.147 107.459 412.869 104.19 416.293 101.902C419.718 99.6145 423.541 98.4705 427.761 98.4705C431.369 98.4705 434.519 99.2549 437.21 100.824C439.962 102.393 442.072 104.452 443.54 107.001V99.2549H459.227V153.97H443.54V146.224C442.011 148.773 439.87 150.833 437.118 152.402C434.427 153.97 431.277 154.755 427.669 154.755C423.51 154.755 419.718 153.611 416.293 151.323C412.869 148.97 410.147 145.668 408.129 141.419C406.172 137.105 405.193 132.137 405.193 126.515ZM443.54 126.613C443.54 122.429 442.439 119.128 440.237 116.709C438.096 114.29 435.467 113.081 432.348 113.081C429.229 113.081 426.568 114.29 424.366 116.709C422.226 119.062 421.156 122.331 421.156 126.515C421.156 130.698 422.226 134.032 424.366 136.516C426.568 138.935 429.229 140.144 432.348 140.144C435.467 140.144 438.096 138.935 440.237 136.516C442.439 134.098 443.54 130.796 443.54 126.613Z" fill="white"/>
<path d="M501.767 98.6666C507.76 98.6666 512.531 100.758 516.078 104.942C519.686 109.061 521.49 114.748 521.49 122.004V153.97H505.895V124.259C505.895 120.599 505.008 117.755 503.234 115.728C501.461 113.702 499.076 112.689 496.079 112.689C493.082 112.689 490.697 113.702 488.923 115.728C487.15 117.755 486.263 120.599 486.263 124.259V153.97H470.576V99.2549H486.263V106.511C487.853 104.092 489.994 102.197 492.685 100.824C495.376 99.3857 498.403 98.6666 501.767 98.6666Z" fill="white"/>
<path d="M529.272 126.515C529.272 120.893 530.251 115.957 532.208 111.708C534.226 107.459 536.948 104.19 540.372 101.902C543.797 99.6145 547.62 98.4705 551.84 98.4705C555.448 98.4705 558.598 99.2549 561.289 100.824C564.041 102.393 566.151 104.452 567.619 107.001V99.2549H583.306V153.97H567.619V146.224C566.09 148.773 563.949 150.833 561.197 152.402C558.506 153.97 555.356 154.755 551.748 154.755C547.589 154.755 543.797 153.611 540.372 151.323C536.948 148.97 534.226 145.668 532.208 141.419C530.251 137.105 529.272 132.137 529.272 126.515ZM567.619 126.613C567.619 122.429 566.518 119.128 564.316 116.709C562.176 114.29 559.546 113.081 556.427 113.081C553.308 113.081 550.647 114.29 548.445 116.709C546.305 119.062 545.235 122.331 545.235 126.515C545.235 130.698 546.305 134.032 548.445 136.516C550.647 138.935 553.308 140.144 556.427 140.144C559.546 140.144 562.176 138.935 564.316 136.516C566.518 134.098 567.619 130.796 567.619 126.613Z" fill="white"/>
<path d="M614.103 98.4705C617.712 98.4705 620.861 99.2549 623.552 100.824C626.304 102.393 628.414 104.452 629.882 107.001V99.2549H645.569V153.872C645.569 158.906 644.621 163.449 642.725 167.502C640.891 171.621 638.047 174.889 634.194 177.308C630.402 179.727 625.662 180.936 619.974 180.936C612.391 180.936 606.244 179.008 601.535 175.151C596.826 171.359 594.135 166.195 593.462 159.658H608.966C609.455 161.75 610.617 163.384 612.452 164.561C614.287 165.803 616.55 166.424 619.241 166.424C622.482 166.424 625.051 165.41 626.947 163.384C628.904 161.423 629.882 158.252 629.882 153.872V146.126C628.353 148.675 626.243 150.767 623.552 152.402C620.861 153.97 617.712 154.755 614.103 154.755C609.883 154.755 606.061 153.611 602.636 151.323C599.211 148.97 596.49 145.668 594.471 141.419C592.514 137.105 591.536 132.137 591.536 126.515C591.536 120.893 592.514 115.957 594.471 111.708C596.49 107.459 599.211 104.19 602.636 101.902C606.061 99.6145 609.883 98.4705 614.103 98.4705ZM629.882 126.613C629.882 122.429 628.781 119.128 626.58 116.709C624.439 114.29 621.809 113.081 618.69 113.081C615.571 113.081 612.911 114.29 610.709 116.709C608.568 119.062 607.498 122.331 607.498 126.515C607.498 130.698 608.568 134.032 610.709 136.516C612.911 138.935 615.571 140.144 618.69 140.144C621.809 140.144 624.439 138.935 626.58 136.516C628.781 134.098 629.882 130.796 629.882 126.613Z" fill="white"/>
<path d="M705.172 125.73C705.172 127.299 705.081 128.933 704.897 130.633H669.395C669.639 134.032 670.648 136.647 672.422 138.478C674.257 140.243 676.489 141.125 679.119 141.125C683.033 141.125 685.755 139.36 687.283 135.83H703.98C703.124 139.425 701.564 142.661 699.301 145.538C697.099 148.414 694.317 150.669 690.953 152.303C687.589 153.938 683.828 154.755 679.669 154.755C674.654 154.755 670.19 153.611 666.276 151.323C662.361 149.035 659.303 145.766 657.102 141.517C654.9 137.268 653.799 132.3 653.799 126.613C653.799 120.925 654.869 115.957 657.01 111.708C659.212 107.459 662.27 104.19 666.184 101.902C670.098 99.6145 674.593 98.4705 679.669 98.4705C684.623 98.4705 689.026 99.5818 692.879 101.804C696.732 104.027 699.729 107.197 701.87 111.316C704.072 115.434 705.172 120.239 705.172 125.73ZM689.118 121.318C689.118 118.441 688.201 116.153 686.366 114.454C684.531 112.754 682.238 111.904 679.486 111.904C676.856 111.904 674.624 112.721 672.789 114.356C671.015 115.99 669.914 118.311 669.486 121.318H689.118Z" fill="white"/>
<path d="M729.135 108.374C730.97 105.367 733.263 103.014 736.016 101.314C738.768 99.5491 741.826 98.6666 745.189 98.6666V116.415H740.878C736.964 116.415 734.028 117.33 732.071 119.16C730.114 120.925 729.135 124.063 729.135 128.574V153.97H713.448V99.2549H729.135V108.374Z" fill="white"/>
<path d="M546.679 247.999C547.206 247.013 547.977 246.209 548.994 245.585C550.01 244.962 551.167 244.65 552.466 244.65C553.858 244.65 555.11 245.002 556.22 245.706C557.33 246.41 558.205 247.406 558.845 248.693C559.485 249.96 559.805 251.439 559.805 253.128C559.805 254.798 559.485 256.286 558.845 257.594C558.205 258.901 557.321 259.917 556.192 260.641C555.081 261.365 553.839 261.727 552.466 261.727C551.13 261.727 549.953 261.415 548.937 260.792C547.94 260.168 547.187 259.374 546.679 258.408V261.455H544.11V239.129H546.679V247.999ZM557.18 253.128C557.18 251.881 556.944 250.795 556.474 249.87C556.003 248.944 555.364 248.24 554.554 247.758C553.764 247.275 552.889 247.034 551.929 247.034C550.988 247.034 550.113 247.285 549.304 247.788C548.514 248.271 547.874 248.985 547.385 249.93C546.914 250.855 546.679 251.931 546.679 253.158C546.679 254.405 546.914 255.502 547.385 256.447C547.874 257.372 548.514 258.086 549.304 258.589C550.113 259.072 550.988 259.313 551.929 259.313C552.889 259.313 553.764 259.072 554.554 258.589C555.364 258.086 556.003 257.372 556.474 256.447C556.944 255.502 557.18 254.395 557.18 253.128Z" fill="white"/>
<path d="M576.509 244.922L567.194 269.24H564.541L567.589 261.274L561.351 244.922H564.202L569.057 258.318L573.855 244.922H576.509Z" fill="white"/>
<path d="M602.085 261.455H599.516L589.185 244.71V261.455H586.616V240.396H589.185L599.516 257.111V240.396H602.085V261.455Z" fill="white"/>
<path d="M613.21 261.727C611.761 261.727 610.443 261.375 609.258 260.671C608.091 259.967 607.169 258.971 606.492 257.684C605.833 256.377 605.504 254.868 605.504 253.158C605.504 251.469 605.842 249.98 606.52 248.693C607.216 247.386 608.157 246.39 609.343 245.706C610.528 245.002 611.855 244.65 613.323 244.65C614.79 244.65 616.117 245.002 617.303 245.706C618.488 246.39 619.42 247.376 620.097 248.663C620.793 249.95 621.142 251.449 621.142 253.158C621.142 254.868 620.784 256.377 620.069 257.684C619.373 258.971 618.422 259.967 617.218 260.671C616.014 261.375 614.678 261.727 613.21 261.727ZM613.21 259.313C614.132 259.313 614.997 259.082 615.807 258.619C616.616 258.157 617.265 257.463 617.754 256.538C618.262 255.612 618.516 254.486 618.516 253.158C618.516 251.831 618.272 250.704 617.782 249.779C617.293 248.854 616.653 248.17 615.863 247.728C615.073 247.265 614.216 247.034 613.294 247.034C612.353 247.034 611.488 247.265 610.697 247.728C609.926 248.17 609.305 248.854 608.835 249.779C608.364 250.704 608.129 251.831 608.129 253.158C608.129 254.506 608.355 255.642 608.806 256.568C609.277 257.493 609.898 258.187 610.669 258.65C611.441 259.092 612.288 259.313 613.21 259.313Z" fill="white"/>
<path d="M631.265 261.727C629.816 261.727 628.499 261.375 627.313 260.671C626.147 259.967 625.224 258.971 624.547 257.684C623.888 256.377 623.559 254.868 623.559 253.158C623.559 251.469 623.898 249.98 624.575 248.693C625.272 247.386 626.212 246.39 627.398 245.706C628.584 245.002 629.91 244.65 631.378 244.65C632.846 244.65 634.172 245.002 635.358 245.706C636.544 246.39 637.475 247.376 638.152 248.663C638.849 249.95 639.197 251.449 639.197 253.158C639.197 254.868 638.839 256.377 638.124 257.684C637.428 258.971 636.478 259.967 635.273 260.671C634.069 261.375 632.733 261.727 631.265 261.727ZM631.265 259.313C632.187 259.313 633.053 259.082 633.862 258.619C634.671 258.157 635.32 257.463 635.81 256.538C636.318 255.612 636.572 254.486 636.572 253.158C636.572 251.831 636.327 250.704 635.838 249.779C635.349 248.854 634.709 248.17 633.918 247.728C633.128 247.265 632.272 247.034 631.35 247.034C630.409 247.034 629.543 247.265 628.753 247.728C627.981 248.17 627.36 248.854 626.89 249.779C626.419 250.704 626.184 251.831 626.184 253.158C626.184 254.506 626.41 255.642 626.862 256.568C627.332 257.493 627.953 258.187 628.725 258.65C629.496 259.092 630.343 259.313 631.265 259.313Z" fill="white"/>
<path d="M645.143 247.969C645.651 247.024 646.404 246.239 647.401 245.616C648.417 244.972 649.593 244.65 650.929 244.65C652.303 244.65 653.545 245.002 654.655 245.706C655.784 246.41 656.669 247.406 657.309 248.693C657.949 249.96 658.268 251.439 658.268 253.128C658.268 254.798 657.949 256.286 657.309 257.594C656.669 258.901 655.784 259.917 654.655 260.641C653.545 261.365 652.303 261.727 650.929 261.727C649.612 261.727 648.445 261.415 647.429 260.792C646.432 260.148 645.67 259.354 645.143 258.408V269.3H642.574V244.922H645.143V247.969ZM655.643 253.128C655.643 251.881 655.408 250.795 654.938 249.87C654.467 248.944 653.827 248.24 653.018 247.758C652.228 247.275 651.353 247.034 650.393 247.034C649.452 247.034 648.577 247.285 647.768 247.788C646.978 248.271 646.338 248.985 645.849 249.93C645.378 250.855 645.143 251.931 645.143 253.158C645.143 254.405 645.378 255.502 645.849 256.447C646.338 257.372 646.978 258.086 647.768 258.589C648.577 259.072 649.452 259.313 650.393 259.313C651.353 259.313 652.228 259.072 653.018 258.589C653.827 258.086 654.467 257.372 654.938 256.447C655.408 255.502 655.643 254.395 655.643 253.128Z" fill="white"/>
<path d="M0 5.2H783.3V4.8H0V5.2ZM0.000111857 250.631L515.143 250.343L515.143 249.943L-0.000111857 250.231L0.000111857 250.631ZM686.27 250.341H783.3V249.941H686.27V250.341ZM57.6752 98.5685V98.1685H57.2752V98.5685H57.6752ZM57.6752 112.493H57.2752V112.893H57.6752V112.493ZM78.6831 112.493H79.0831V112.093H78.6831V112.493ZM78.6831 125.436V125.836H79.0831V125.436H78.6831ZM57.6752 125.436V125.036H57.2752V125.436H57.6752ZM57.6752 140.537H57.2752V140.937H57.6752V140.537ZM81.4353 140.537H81.8353V140.137H81.4353V140.537ZM81.4353 153.97V154.37H81.8353V153.97H81.4353ZM41.988 153.97H41.588V154.37H41.988V153.97ZM41.988 85.1348V84.7348H41.588V85.1348H41.988ZM81.4353 85.1348H81.8353V84.7348H81.4353V85.1348ZM81.4353 98.5685V98.9685H81.8353V98.5685H81.4353ZM114.646 138.281L114.261 138.391L114.646 139.744L115.031 138.391L114.646 138.281ZM125.746 99.2549V98.8549H125.444L125.361 99.1455L125.746 99.2549ZM142.442 99.2549L142.822 99.3809L142.997 98.8549H142.442V99.2549ZM124.278 153.97V154.37H124.567L124.658 154.096L124.278 153.97ZM104.922 153.97L104.542 154.096L104.633 154.37H104.922V153.97ZM86.7575 99.2549V98.8549H86.2033L86.3779 99.3809L86.7575 99.2549ZM103.546 99.2549L103.93 99.1455L103.848 98.8549H103.546V99.2549ZM197.024 130.633V131.033H197.383L197.422 130.676L197.024 130.633ZM161.522 130.633V130.233H161.092L161.123 130.662L161.522 130.633ZM164.549 138.478L164.262 138.756L164.272 138.766L164.549 138.478ZM179.411 135.83V135.43H179.148L179.044 135.671L179.411 135.83ZM196.107 135.83L196.496 135.923L196.613 135.43H196.107V135.83ZM191.428 145.538L191.114 145.29L191.111 145.294L191.428 145.538ZM158.403 151.323L158.201 151.668L158.201 151.668L158.403 151.323ZM149.229 141.517L149.584 141.333L149.584 141.333L149.229 141.517ZM149.137 111.708L148.782 111.524L148.78 111.528L149.137 111.708ZM158.311 101.902L158.513 102.248L158.513 102.248L158.311 101.902ZM185.007 101.804L184.807 102.151L184.807 102.151L185.007 101.804ZM193.997 111.316L193.642 111.5L193.644 111.504L193.997 111.316ZM181.245 121.318V121.718H181.645V121.318H181.245ZM178.493 114.454L178.765 114.16L178.765 114.16L178.493 114.454ZM164.916 114.356L164.65 114.057L164.645 114.061L164.916 114.356ZM161.613 121.318L161.217 121.261L161.152 121.718H161.613V121.318ZM251.077 104.942L250.772 105.201L250.776 105.206L251.077 104.942ZM256.49 153.97V154.37H256.89V153.97H256.49ZM240.894 153.97H240.494V154.37H240.894V153.97ZM238.234 115.728L237.933 115.992L237.933 115.992L238.234 115.728ZM223.923 115.728L224.224 115.992L224.224 115.992L223.923 115.728ZM221.262 153.97V154.37H221.662V153.97H221.262ZM205.575 153.97H205.175V154.37H205.575V153.97ZM205.575 99.2549V98.8549H205.175V99.2549H205.575ZM221.262 99.2549H221.662V98.8549H221.262V99.2549ZM221.262 106.511H220.862V107.848L221.597 106.731L221.262 106.511ZM227.684 100.824L227.866 101.18L227.873 101.177L227.684 100.824ZM295.921 139.752H296.321V139.352H295.921V139.752ZM295.921 153.97V154.37H296.321V153.97H295.921ZM274.638 149.558L274.363 149.849L274.366 149.852L274.638 149.558ZM269.868 113.179H270.268V112.779H269.868V113.179ZM263.63 113.179H263.23V113.579H263.63V113.179ZM263.63 99.2549V98.8549H263.23V99.2549H263.63ZM269.868 99.2549V99.6549H270.268V99.2549H269.868ZM269.868 85.9192V85.5192H269.468V85.9192H269.868ZM285.555 85.9192H285.955V85.5192H285.555V85.9192ZM285.555 99.2549H285.155V99.6549H285.555V99.2549ZM295.829 99.2549H296.229V98.8549H295.829V99.2549ZM295.829 113.179V113.579H296.229V113.179H295.829ZM285.555 113.179V112.779H285.155V113.179H285.555ZM286.656 138.674L286.376 138.959L286.376 138.959L286.656 138.674ZM397.031 85.1348H397.431V84.7348H397.031V85.1348ZM397.031 153.97V154.37H397.431V153.97H397.031ZM381.344 153.97H380.944V154.37H381.344V153.97ZM381.344 112.689H381.744L380.967 112.557L381.344 112.689ZM366.941 153.97V154.37H367.225L367.319 154.102L366.941 153.97ZM354.282 153.97L353.904 154.103L353.998 154.37H354.282V153.97ZM339.787 112.591L340.164 112.458L339.387 112.591H339.787ZM339.787 153.97V154.37H340.187V153.97H339.787ZM324.1 153.97H323.7V154.37H324.1V153.97ZM324.1 85.1348V84.7348H323.7V85.1348H324.1ZM342.631 85.1348L343.005 84.993L342.907 84.7348H342.631V85.1348ZM360.703 132.79L360.329 132.932L360.705 133.923L361.078 132.931L360.703 132.79ZM378.592 85.1348V84.7348H378.315L378.218 84.9942L378.592 85.1348ZM408.129 111.708L407.767 111.536L407.765 111.541L408.129 111.708ZM416.293 101.902L416.516 102.235L416.516 102.235L416.293 101.902ZM437.21 100.824L437.008 101.169L437.012 101.171L437.21 100.824ZM443.54 107.001L443.193 107.201L443.94 108.498V107.001H443.54ZM443.54 99.2549V98.8549H443.14V99.2549H443.54ZM459.227 99.2549H459.627V98.8549H459.227V99.2549ZM459.227 153.97V154.37H459.627V153.97H459.227ZM443.54 153.97H443.14V154.37H443.54V153.97ZM443.54 146.224H443.94V144.779L443.197 146.018L443.54 146.224ZM437.118 152.402L436.92 152.054L436.917 152.056L437.118 152.402ZM416.293 151.323L416.067 151.653L416.071 151.656L416.293 151.323ZM408.129 141.419L407.764 141.584L407.767 141.591L408.129 141.419ZM440.237 116.709L439.937 116.974L439.941 116.978L440.237 116.709ZM424.366 116.709L424.071 116.44L424.07 116.44L424.366 116.709ZM424.366 136.516L424.063 136.778L424.071 136.786L424.366 136.516ZM440.237 136.516L439.941 136.247L439.937 136.251L440.237 136.516ZM516.078 104.942L515.773 105.201L515.777 105.206L516.078 104.942ZM521.49 153.97V154.37H521.89V153.97H521.49ZM505.895 153.97H505.495V154.37H505.895V153.97ZM503.234 115.728L502.933 115.992L502.933 115.992L503.234 115.728ZM488.923 115.728L489.224 115.992L489.224 115.992L488.923 115.728ZM486.263 153.97V154.37H486.663V153.97H486.263ZM470.576 153.97H470.176V154.37H470.576V153.97ZM470.576 99.2549V98.8549H470.176V99.2549H470.576ZM486.263 99.2549H486.663V98.8549H486.263V99.2549ZM486.263 106.511H485.863V107.848L486.597 106.731L486.263 106.511ZM492.685 100.824L492.866 101.18L492.873 101.177L492.685 100.824ZM532.208 111.708L531.846 111.536L531.844 111.541L532.208 111.708ZM540.372 101.902L540.595 102.235L540.595 102.235L540.372 101.902ZM561.289 100.824L561.087 101.169L561.091 101.171L561.289 100.824ZM567.619 107.001L567.272 107.201L568.019 108.498V107.001H567.619ZM567.619 99.2549V98.8549H567.219V99.2549H567.619ZM583.306 99.2549H583.706V98.8549H583.306V99.2549ZM583.306 153.97V154.37H583.706V153.97H583.306ZM567.619 153.97H567.219V154.37H567.619V153.97ZM567.619 146.224H568.019V144.779L567.276 146.018L567.619 146.224ZM561.197 152.402L560.999 152.054L560.996 152.056L561.197 152.402ZM540.372 151.323L540.146 151.653L540.15 151.656L540.372 151.323ZM532.208 141.419L531.843 141.584L531.846 141.591L532.208 141.419ZM564.316 116.709L564.016 116.974L564.02 116.978L564.316 116.709ZM548.445 116.709L548.15 116.44L548.15 116.44L548.445 116.709ZM548.445 136.516L548.142 136.778L548.15 136.786L548.445 136.516ZM564.316 136.516L564.02 136.247L564.017 136.251L564.316 136.516ZM623.552 100.824L623.351 101.169L623.354 101.171L623.552 100.824ZM629.882 107.001L629.535 107.201L630.282 108.498V107.001H629.882ZM629.882 99.2549V98.8549H629.482V99.2549H629.882ZM645.569 99.2549H645.969V98.8549H645.569V99.2549ZM642.725 167.502L642.363 167.333L642.36 167.339L642.725 167.502ZM634.194 177.308L633.981 176.969L633.979 176.971L634.194 177.308ZM601.535 175.151L601.789 174.841L601.786 174.839L601.535 175.151ZM593.462 159.658V159.258H593.019L593.064 159.699L593.462 159.658ZM608.966 159.658L609.355 159.567L609.283 159.258H608.966V159.658ZM612.452 164.561L612.676 164.229L612.668 164.224L612.452 164.561ZM626.947 163.384L626.663 163.101L626.654 163.111L626.947 163.384ZM629.882 146.126H630.282V144.681L629.539 145.92L629.882 146.126ZM623.552 152.402L623.754 152.747L623.76 152.743L623.552 152.402ZM602.636 151.323L602.409 151.653L602.414 151.656L602.636 151.323ZM594.471 141.419L594.107 141.584L594.11 141.591L594.471 141.419ZM594.471 111.708L594.11 111.536L594.108 111.541L594.471 111.708ZM602.636 101.902L602.858 102.235L602.858 102.235L602.636 101.902ZM626.58 116.709L626.28 116.974L626.284 116.978L626.58 116.709ZM610.709 116.709L610.413 116.44L610.413 116.44L610.709 116.709ZM610.709 136.516L610.406 136.778L610.413 136.786L610.709 136.516ZM626.58 136.516L626.284 136.247L626.28 136.251L626.58 136.516ZM704.897 130.633V131.033H705.256L705.295 130.676L704.897 130.633ZM669.395 130.633V130.233H668.965L668.996 130.662L669.395 130.633ZM672.422 138.478L672.134 138.756L672.145 138.766L672.422 138.478ZM687.283 135.83V135.43H687.021L686.916 135.671L687.283 135.83ZM703.98 135.83L704.369 135.923L704.486 135.43H703.98V135.83ZM699.301 145.538L698.987 145.29L698.984 145.294L699.301 145.538ZM666.276 151.323L666.074 151.668L666.074 151.668L666.276 151.323ZM657.102 141.517L657.457 141.333L657.457 141.333L657.102 141.517ZM657.01 111.708L656.655 111.524L656.653 111.528L657.01 111.708ZM666.184 101.902L666.386 102.248L666.386 102.248L666.184 101.902ZM692.879 101.804L692.68 102.151L692.68 102.151L692.879 101.804ZM701.87 111.316L701.515 111.5L701.517 111.504L701.87 111.316ZM689.118 121.318V121.718H689.518V121.318H689.118ZM686.366 114.454L686.638 114.16L686.638 114.16L686.366 114.454ZM672.789 114.356L672.523 114.057L672.518 114.061L672.789 114.356ZM669.486 121.318L669.09 121.261L669.025 121.718H669.486V121.318ZM729.135 108.374H728.735V109.798L729.477 108.583L729.135 108.374ZM736.016 101.314L736.226 101.654L736.232 101.651L736.016 101.314ZM745.189 98.6666H745.589V98.2666H745.189V98.6666ZM745.189 116.415V116.815H745.589V116.415H745.189ZM732.071 119.16L732.339 119.457L732.344 119.453L732.071 119.16ZM729.135 153.97V154.37H729.535V153.97H729.135ZM713.448 153.97H713.048V154.37H713.448V153.97ZM713.448 99.2549V98.8549H713.048V99.2549H713.448ZM729.135 99.2549H729.535V98.8549H729.135V99.2549ZM546.679 247.999H546.279L547.032 248.188L546.679 247.999ZM548.994 245.585L549.203 245.926L549.203 245.926L548.994 245.585ZM556.22 245.706L556.434 245.368L556.434 245.368L556.22 245.706ZM558.845 248.693L558.487 248.871L558.488 248.873L558.845 248.693ZM558.845 257.594L559.204 257.769L559.204 257.769L558.845 257.594ZM556.192 260.641L555.976 260.304L555.973 260.306L556.192 260.641ZM548.937 260.792L548.725 261.131L548.728 261.133L548.937 260.792ZM546.679 258.408L547.033 258.222L546.279 258.408H546.679ZM546.679 261.455V261.855H547.079V261.455H546.679ZM544.11 261.455H543.71V261.855H544.11V261.455ZM544.11 239.129V238.729H543.71V239.129H544.11ZM546.679 239.129H547.079V238.729H546.679V239.129ZM556.474 249.87L556.83 249.688L556.83 249.688L556.474 249.87ZM554.554 247.758L554.346 248.099L554.349 248.101L554.554 247.758ZM549.304 247.788L549.513 248.129L549.515 248.128L549.304 247.788ZM547.385 249.93L547.029 249.746L547.028 249.749L547.385 249.93ZM547.385 256.447L547.027 256.625L547.031 256.634L547.385 256.447ZM549.304 258.589L549.089 258.927L549.099 258.933L549.304 258.589ZM554.554 258.589L554.763 258.931L554.766 258.929L554.554 258.589ZM556.474 256.447L556.83 256.628L556.832 256.625L556.474 256.447ZM576.509 244.922L576.882 245.065L577.09 244.522H576.509V244.922ZM567.194 269.24V269.64H567.469L567.567 269.383L567.194 269.24ZM564.541 269.24L564.167 269.097L563.959 269.64H564.541V269.24ZM567.589 261.274L567.963 261.417L568.017 261.275L567.963 261.132L567.589 261.274ZM561.351 244.922V244.522H560.77L560.977 245.064L561.351 244.922ZM564.202 244.922L564.578 244.785L564.482 244.522H564.202V244.922ZM569.057 258.318L568.681 258.454L569.059 259.498L569.433 258.453L569.057 258.318ZM573.855 244.922V244.522H573.574L573.479 244.787L573.855 244.922ZM602.085 261.455V261.855H602.485V261.455H602.085ZM599.516 261.455L599.176 261.665L599.293 261.855H599.516V261.455ZM589.185 244.71L589.525 244.5L588.785 243.3V244.71H589.185ZM589.185 261.455V261.855H589.585V261.455H589.185ZM586.616 261.455H586.216V261.855H586.616V261.455ZM586.616 240.396V239.996H586.216V240.396H586.616ZM589.185 240.396L589.525 240.186L589.408 239.996H589.185V240.396ZM599.516 257.111L599.176 257.321L599.916 258.519V257.111H599.516ZM599.516 240.396V239.996H599.116V240.396H599.516ZM602.085 240.396H602.485V239.996H602.085V240.396ZM609.258 260.671L609.051 261.013L609.054 261.015L609.258 260.671ZM606.492 257.684L606.134 257.864L606.138 257.87L606.492 257.684ZM606.52 248.693L606.167 248.505L606.166 248.507L606.52 248.693ZM609.343 245.706L609.542 246.053L609.547 246.05L609.343 245.706ZM617.303 245.706L617.098 246.05L617.103 246.053L617.303 245.706ZM620.097 248.663L619.743 248.849L619.745 248.853L620.097 248.663ZM620.069 257.684L619.718 257.492L619.717 257.494L620.069 257.684ZM617.218 260.671L617.42 261.016L617.42 261.016L617.218 260.671ZM617.754 256.538L617.404 256.345L617.401 256.351L617.754 256.538ZM615.863 247.728L615.661 248.073L615.668 248.077L615.863 247.728ZM610.697 247.728L610.896 248.075L610.9 248.073L610.697 247.728ZM608.835 249.779L609.191 249.96L609.191 249.96L608.835 249.779ZM608.806 256.568L608.447 256.743L608.45 256.749L608.806 256.568ZM610.669 258.65L610.464 258.993L610.47 258.996L610.669 258.65ZM627.313 260.671L627.107 261.013L627.109 261.015L627.313 260.671ZM624.547 257.684L624.19 257.864L624.193 257.87L624.547 257.684ZM624.575 248.693L624.222 248.505L624.221 248.507L624.575 248.693ZM627.398 245.706L627.598 246.053L627.602 246.05L627.398 245.706ZM635.358 245.706L635.154 246.05L635.158 246.053L635.358 245.706ZM638.152 248.663L637.798 248.849L637.801 248.853L638.152 248.663ZM638.124 257.684L637.773 257.492L637.772 257.494L638.124 257.684ZM635.273 260.671L635.475 261.016L635.475 261.016L635.273 260.671ZM635.81 256.538L635.459 256.345L635.456 256.351L635.81 256.538ZM633.918 247.728L633.716 248.073L633.723 248.077L633.918 247.728ZM628.753 247.728L628.952 248.075L628.955 248.073L628.753 247.728ZM626.89 249.779L627.246 249.96L627.246 249.96L626.89 249.779ZM626.862 256.568L626.502 256.743L626.505 256.749L626.862 256.568ZM628.725 258.65L628.519 258.993L628.526 258.996L628.725 258.65ZM645.143 247.969H644.743L645.495 248.158L645.143 247.969ZM647.401 245.616L647.613 245.955L647.615 245.953L647.401 245.616ZM654.655 245.706L654.441 246.044L654.444 246.046L654.655 245.706ZM657.309 248.693L656.951 248.871L656.952 248.873L657.309 248.693ZM657.309 257.594L657.668 257.769L657.668 257.769L657.309 257.594ZM654.655 260.641L654.439 260.304L654.437 260.306L654.655 260.641ZM647.429 260.792L647.212 261.128L647.22 261.133L647.429 260.792ZM645.143 258.408L645.492 258.213L644.743 256.869V258.408H645.143ZM645.143 269.3V269.7H645.543V269.3H645.143ZM642.574 269.3H642.174V269.7H642.574V269.3ZM642.574 244.922V244.522H642.174V244.922H642.574ZM645.143 244.922H645.543V244.522H645.143V244.922ZM654.938 249.87L655.294 249.688L655.294 249.688L654.938 249.87ZM653.018 247.758L652.81 248.099L652.813 248.101L653.018 247.758ZM647.768 247.788L647.976 248.129L647.979 248.128L647.768 247.788ZM645.849 249.93L645.493 249.746L645.492 249.749L645.849 249.93ZM645.849 256.447L645.49 256.625L645.495 256.634L645.849 256.447ZM647.768 258.589L647.553 258.927L647.563 258.933L647.768 258.589ZM653.018 258.589L653.227 258.931L653.229 258.929L653.018 258.589ZM654.938 256.447L655.294 256.628L655.296 256.625L654.938 256.447ZM57.2752 98.5685V112.493H58.0752V98.5685H57.2752ZM57.6752 112.893H78.6831V112.093H57.6752V112.893ZM78.2831 112.493V125.436H79.0831V112.493H78.2831ZM78.6831 125.036H57.6752V125.836H78.6831V125.036ZM57.2752 125.436V140.537H58.0752V125.436H57.2752ZM57.6752 140.937H81.4353V140.137H57.6752V140.937ZM81.0353 140.537V153.97H81.8353V140.537H81.0353ZM81.4353 153.57H41.988V154.37H81.4353V153.57ZM42.388 153.97V85.1348H41.588V153.97H42.388ZM41.988 85.5348H81.4353V84.7348H41.988V85.5348ZM81.0353 85.1348V98.5685H81.8353V85.1348H81.0353ZM81.4353 98.1685H57.6752V98.9685H81.4353V98.1685ZM115.031 138.391L126.131 99.3644L125.361 99.1455L114.261 138.172L115.031 138.391ZM125.746 99.6549H142.442V98.8549H125.746V99.6549ZM142.063 99.1289L123.899 153.844L124.658 154.096L142.822 99.3809L142.063 99.1289ZM124.278 153.57H104.922V154.37H124.278V153.57ZM105.301 153.844L87.1371 99.1289L86.3779 99.3809L104.542 154.096L105.301 153.844ZM86.7575 99.6549H103.546V98.8549H86.7575V99.6549ZM103.161 99.3644L114.261 138.391L115.031 138.172L103.93 99.1455L103.161 99.3644ZM196.899 125.73C196.899 127.284 196.809 128.903 196.627 130.59L197.422 130.676C197.607 128.963 197.699 127.315 197.699 125.73H196.899ZM197.024 130.233H161.522V131.033H197.024V130.233ZM161.123 130.662C161.372 134.123 162.404 136.838 164.262 138.756L164.836 138.199C163.147 136.456 162.161 133.942 161.921 130.604L161.123 130.662ZM164.272 138.766C166.184 140.605 168.516 141.525 171.246 141.525V140.725C168.716 140.725 166.584 139.88 164.826 138.189L164.272 138.766ZM171.246 141.525C173.264 141.525 175.002 141.069 176.44 140.137C177.879 139.204 178.988 137.813 179.778 135.989L179.044 135.671C178.304 137.377 177.288 138.633 176.005 139.466C174.721 140.298 173.142 140.725 171.246 140.725V141.525ZM179.411 136.23H196.107V135.43H179.411V136.23ZM195.718 135.737C194.875 139.277 193.341 142.46 191.114 145.29L191.743 145.785C194.042 142.863 195.626 139.574 196.496 135.923L195.718 135.737ZM191.111 145.294C188.948 148.12 186.215 150.336 182.905 151.944L183.255 152.663C186.673 151.003 189.505 148.708 191.746 145.781L191.111 145.294ZM182.905 151.944C179.602 153.549 175.901 154.355 171.796 154.355V155.155C176.009 155.155 179.831 154.327 183.255 152.663L182.905 151.944ZM171.796 154.355C166.845 154.355 162.451 153.226 158.604 150.978L158.201 151.668C162.182 153.996 166.718 155.155 171.796 155.155V154.355ZM158.604 150.978C154.759 148.73 151.753 145.519 149.584 141.333L148.874 141.701C151.108 146.014 154.218 149.34 158.201 151.668L158.604 150.978ZM149.584 141.333C147.417 137.151 146.326 132.248 146.326 126.613H145.526C145.526 132.352 146.637 137.386 148.874 141.701L149.584 141.333ZM146.326 126.613C146.326 120.976 147.387 116.071 149.494 111.888L148.78 111.528C146.606 115.843 145.526 120.875 145.526 126.613H146.326ZM149.492 111.892C151.661 107.706 154.668 104.495 158.513 102.248L158.109 101.557C154.126 103.885 151.016 107.212 148.782 111.524L149.492 111.892ZM158.513 102.248C162.359 99.9997 166.782 98.8705 171.796 98.8705V98.0705C166.658 98.0705 162.091 99.2292 158.109 101.557L158.513 102.248ZM171.796 98.8705C176.688 98.8705 181.021 99.9672 184.807 102.151L185.206 101.458C181.286 99.1964 176.812 98.0705 171.796 98.0705V98.8705ZM184.807 102.151C188.591 104.334 191.535 107.447 193.642 111.5L194.352 111.131C192.178 106.948 189.128 103.72 185.206 101.458L184.807 102.151ZM193.644 111.504C195.81 115.555 196.899 120.293 196.899 125.73H197.699C197.699 120.185 196.587 115.313 194.35 111.127L193.644 111.504ZM181.645 121.318C181.645 118.348 180.694 115.947 178.765 114.16L178.221 114.747C179.962 116.359 180.845 118.534 180.845 121.318H181.645ZM178.765 114.16C176.849 112.385 174.455 111.504 171.613 111.504V112.304C174.275 112.304 176.468 113.123 178.221 114.747L178.765 114.16ZM171.613 111.504C168.892 111.504 166.563 112.353 164.65 114.057L165.182 114.654C166.938 113.09 169.074 112.304 171.613 112.304V111.504ZM164.645 114.061C162.787 115.773 161.655 118.187 161.217 121.261L162.009 121.374C162.428 118.434 163.497 116.207 165.187 114.65L164.645 114.061ZM161.613 121.718H181.245V120.918H161.613V121.718ZM236.766 99.0666C242.654 99.0666 247.309 101.116 250.772 105.201L251.382 104.684C247.751 100.401 242.865 98.2666 236.766 98.2666V99.0666ZM250.776 105.206C254.302 109.23 256.09 114.813 256.09 122.004H256.89C256.89 114.683 255.069 108.891 251.378 104.679L250.776 105.206ZM256.09 122.004V153.97H256.89V122.004H256.09ZM256.49 153.57H240.894V154.37H256.49V153.57ZM241.294 153.97V124.259H240.494V153.97H241.294ZM241.294 124.259C241.294 120.537 240.392 117.587 238.535 115.465L237.933 115.992C239.623 117.923 240.494 120.66 240.494 124.259H241.294ZM238.535 115.465C236.676 113.341 234.176 112.289 231.078 112.289V113.089C233.974 113.089 236.244 114.063 237.933 115.992L238.535 115.465ZM231.078 112.289C227.981 112.289 225.48 113.341 223.622 115.465L224.224 115.992C225.912 114.063 228.182 113.089 231.078 113.089V112.289ZM223.622 115.465C221.765 117.587 220.862 120.537 220.862 124.259H221.662C221.662 120.66 222.534 117.923 224.224 115.992L223.622 115.465ZM220.862 124.259V153.97H221.662V124.259H220.862ZM221.262 153.57H205.575V154.37H221.262V153.57ZM205.975 153.97V99.2549H205.175V153.97H205.975ZM205.575 99.6549H221.262V98.8549H205.575V99.6549ZM220.862 99.2549V106.511H221.662V99.2549H220.862ZM221.597 106.731C223.147 104.373 225.234 102.523 227.866 101.18L227.502 100.468C224.752 101.87 222.558 103.812 220.928 106.291L221.597 106.731ZM227.873 101.177C230.5 99.7725 233.461 99.0666 236.766 99.0666V98.2666C233.343 98.2666 230.25 98.9988 227.496 100.471L227.873 101.177ZM295.521 139.752V153.97H296.321V139.752H295.521ZM295.921 153.57H287.94V154.37H295.921V153.57ZM287.94 153.57C282.321 153.57 277.995 152.118 274.91 149.264L274.366 149.852C277.641 152.881 282.184 154.37 287.94 154.37V153.57ZM274.913 149.267C271.847 146.368 270.268 141.629 270.268 134.947H269.468C269.468 141.732 271.069 146.733 274.363 149.849L274.913 149.267ZM270.268 134.947V113.179H269.468V134.947H270.268ZM269.868 112.779H263.63V113.579H269.868V112.779ZM264.03 113.179V99.2549H263.23V113.179H264.03ZM263.63 99.6549H269.868V98.8549H263.63V99.6549ZM270.268 99.2549V85.9192H269.468V99.2549H270.268ZM269.868 86.3192H285.555V85.5192H269.868V86.3192ZM285.155 85.9192V99.2549H285.955V85.9192H285.155ZM285.555 99.6549H295.829V98.8549H285.555V99.6549ZM295.429 99.2549V113.179H296.229V99.2549H295.429ZM295.829 112.779H285.555V113.579H295.829V112.779ZM285.155 113.179V135.144H285.955V113.179H285.155ZM285.155 135.144C285.155 136.824 285.53 138.131 286.376 138.959L286.936 138.388C286.313 137.778 285.955 136.732 285.955 135.144H285.155ZM286.376 138.959C287.221 139.788 288.574 140.152 290.325 140.152V139.352C288.652 139.352 287.558 138.998 286.936 138.388L286.376 138.959ZM290.325 140.152H295.921V139.352H290.325V140.152ZM396.631 85.1348V153.97H397.431V85.1348H396.631ZM397.031 153.57H381.344V154.37H397.031V153.57ZM381.744 153.97V112.689H380.944V153.97H381.744ZM380.967 112.557L366.564 153.839L367.319 154.102L381.722 112.82L380.967 112.557ZM366.941 153.57H354.282V154.37H366.941V153.57ZM354.659 153.838L340.164 112.458L339.409 112.723L353.904 154.103L354.659 153.838ZM339.387 112.591V153.97H340.187V112.591H339.387ZM339.787 153.57H324.1V154.37H339.787V153.57ZM324.5 153.97V85.1348H323.7V153.97H324.5ZM324.1 85.5348H342.631V84.7348H324.1V85.5348ZM342.257 85.2766L360.329 132.932L361.077 132.648L343.005 84.993L342.257 85.2766ZM361.078 132.931L378.967 85.2754L378.218 84.9942L360.329 132.65L361.078 132.931ZM378.592 85.5348H397.031V84.7348H378.592V85.5348ZM405.593 126.515C405.593 120.939 406.564 116.063 408.492 111.875L407.765 111.541C405.78 115.852 404.793 120.846 404.793 126.515H405.593ZM408.49 111.88C410.482 107.686 413.159 104.477 416.516 102.235L416.071 101.57C412.578 103.903 409.812 107.232 407.767 111.536L408.49 111.88ZM416.516 102.235C419.873 99.9921 423.618 98.8705 427.761 98.8705V98.0705C423.464 98.0705 419.564 99.2368 416.071 101.57L416.516 102.235ZM427.761 98.8705C431.31 98.8705 434.388 99.6415 437.008 101.169L437.411 100.478C434.65 98.8684 431.428 98.0705 427.761 98.0705V98.8705ZM437.012 101.171C439.707 102.708 441.763 104.718 443.193 107.201L443.886 106.802C442.38 104.186 440.217 102.078 437.408 100.476L437.012 101.171ZM443.94 107.001V99.2549H443.14V107.001H443.94ZM443.54 99.6549H459.227V98.8549H443.54V99.6549ZM458.827 99.2549V153.97H459.627V99.2549H458.827ZM459.227 153.57H443.54V154.37H459.227V153.57ZM443.94 153.97V146.224H443.14V153.97H443.94ZM443.197 146.018C441.705 148.505 439.616 150.517 436.92 152.054L437.316 152.749C440.124 151.148 442.316 149.042 443.883 146.43L443.197 146.018ZM436.917 152.056C434.296 153.584 431.218 154.355 427.669 154.355V155.155C431.337 155.155 434.558 154.357 437.319 152.747L436.917 152.056ZM427.669 154.355C423.588 154.355 419.874 153.234 416.516 150.99L416.071 151.656C419.563 153.988 423.432 155.155 427.669 155.155V154.355ZM416.52 150.993C413.161 148.685 410.482 145.442 408.49 141.248L407.767 141.591C409.812 145.895 412.577 149.254 416.067 151.653L416.52 150.993ZM408.493 141.254C406.564 137 405.593 132.09 405.593 126.515H404.793C404.793 132.183 405.78 137.209 407.765 141.584L408.493 141.254ZM443.94 126.613C443.94 122.358 442.819 118.951 440.533 116.44L439.941 116.978C442.059 119.305 443.14 122.5 443.14 126.613H443.94ZM440.537 116.444C438.323 113.943 435.586 112.681 432.348 112.681V113.481C435.348 113.481 437.87 114.638 439.937 116.974L440.537 116.444ZM432.348 112.681C429.11 112.681 426.344 113.942 424.071 116.44L424.662 116.978C426.792 114.638 429.347 113.481 432.348 113.481V112.681ZM424.07 116.44C421.844 118.888 420.756 122.263 420.756 126.515H421.556C421.556 122.398 422.608 119.237 424.662 116.978L424.07 116.44ZM420.756 126.515C420.756 130.767 421.845 134.203 424.063 136.778L424.669 136.255C422.607 133.862 421.556 130.63 421.556 126.515H420.756ZM424.071 136.786C426.344 139.283 429.11 140.544 432.348 140.544V139.744C429.347 139.744 426.792 138.587 424.662 136.247L424.071 136.786ZM432.348 140.544C435.586 140.544 438.323 139.283 440.537 136.781L439.937 136.251C437.87 138.588 435.348 139.744 432.348 139.744V140.544ZM440.533 136.786C442.819 134.274 443.94 130.867 443.94 126.613H443.14C443.14 130.726 442.059 133.921 439.941 136.247L440.533 136.786ZM501.767 99.0666C507.655 99.0666 512.309 101.116 515.773 105.201L516.383 104.684C512.752 100.401 507.865 98.2666 501.767 98.2666V99.0666ZM515.777 105.206C519.303 109.23 521.09 114.813 521.09 122.004H521.89C521.89 114.683 520.069 108.891 516.379 104.679L515.777 105.206ZM521.09 122.004V153.97H521.89V122.004H521.09ZM521.49 153.57H505.895V154.37H521.49V153.57ZM506.295 153.97V124.259H505.495V153.97H506.295ZM506.295 124.259C506.295 120.537 505.393 117.587 503.535 115.465L502.933 115.992C504.623 117.923 505.495 120.66 505.495 124.259H506.295ZM503.535 115.465C501.677 113.341 499.176 112.289 496.079 112.289V113.089C498.975 113.089 501.245 114.063 502.933 115.992L503.535 115.465ZM496.079 112.289C492.981 112.289 490.481 113.341 488.622 115.465L489.224 115.992C490.913 114.063 493.183 113.089 496.079 113.089V112.289ZM488.622 115.465C486.765 117.587 485.863 120.537 485.863 124.259H486.663C486.663 120.66 487.534 117.923 489.224 115.992L488.622 115.465ZM485.863 124.259V153.97H486.663V124.259H485.863ZM486.263 153.57H470.576V154.37H486.263V153.57ZM470.976 153.97V99.2549H470.176V153.97H470.976ZM470.576 99.6549H486.263V98.8549H470.576V99.6549ZM485.863 99.2549V106.511H486.663V99.2549H485.863ZM486.597 106.731C488.147 104.373 490.234 102.523 492.866 101.18L492.503 100.468C489.753 101.87 487.559 103.812 485.929 106.291L486.597 106.731ZM492.873 101.177C495.5 99.7725 498.462 99.0666 501.767 99.0666V98.2666C498.344 98.2666 495.251 98.9988 492.496 100.471L492.873 101.177ZM529.672 126.515C529.672 120.939 530.643 116.063 532.571 111.875L531.844 111.541C529.859 115.852 528.872 120.846 528.872 126.515H529.672ZM532.569 111.88C534.561 107.686 537.238 104.477 540.595 102.235L540.15 101.57C536.657 103.903 533.891 107.232 531.846 111.536L532.569 111.88ZM540.595 102.235C543.952 99.9921 547.697 98.8705 551.84 98.8705V98.0705C547.543 98.0705 543.643 99.2368 540.15 101.57L540.595 102.235ZM551.84 98.8705C555.389 98.8705 558.467 99.6415 561.087 101.169L561.49 100.478C558.729 98.8684 555.507 98.0705 551.84 98.0705V98.8705ZM561.091 101.171C563.786 102.708 565.842 104.718 567.272 107.201L567.965 106.802C566.459 104.186 564.296 102.078 561.487 100.476L561.091 101.171ZM568.019 107.001V99.2549H567.219V107.001H568.019ZM567.619 99.6549H583.306V98.8549H567.619V99.6549ZM582.906 99.2549V153.97H583.706V99.2549H582.906ZM583.306 153.57H567.619V154.37H583.306V153.57ZM568.019 153.97V146.224H567.219V153.97H568.019ZM567.276 146.018C565.784 148.505 563.695 150.517 560.999 152.054L561.395 152.749C564.203 151.148 566.395 149.042 567.962 146.43L567.276 146.018ZM560.996 152.056C558.375 153.584 555.297 154.355 551.748 154.355V155.155C555.416 155.155 558.637 154.357 561.398 152.747L560.996 152.056ZM551.748 154.355C547.667 154.355 543.953 153.234 540.595 150.99L540.15 151.656C543.642 153.988 547.511 155.155 551.748 155.155V154.355ZM540.599 150.993C537.24 148.685 534.561 145.442 532.569 141.248L531.846 141.591C533.891 145.895 536.656 149.254 540.146 151.653L540.599 150.993ZM532.572 141.254C530.643 137 529.672 132.09 529.672 126.515H528.872C528.872 132.183 529.859 137.209 531.844 141.584L532.572 141.254ZM568.019 126.613C568.019 122.358 566.898 118.951 564.612 116.44L564.02 116.978C566.138 119.305 567.219 122.5 567.219 126.613H568.019ZM564.616 116.444C562.402 113.943 559.665 112.681 556.427 112.681V113.481C559.427 113.481 561.949 114.638 564.017 116.974L564.616 116.444ZM556.427 112.681C553.189 112.681 550.423 113.942 548.15 116.44L548.741 116.978C550.871 114.638 553.426 113.481 556.427 113.481V112.681ZM548.15 116.44C545.923 118.888 544.835 122.263 544.835 126.515H545.635C545.635 122.398 546.687 119.237 548.741 116.978L548.15 116.44ZM544.835 126.515C544.835 130.767 545.924 134.203 548.142 136.778L548.748 136.255C546.686 133.862 545.635 130.63 545.635 126.515H544.835ZM548.15 136.786C550.423 139.283 553.189 140.544 556.427 140.544V139.744C553.426 139.744 550.871 138.587 548.741 136.247L548.15 136.786ZM556.427 140.544C559.665 140.544 562.402 139.283 564.616 136.781L564.017 136.251C561.949 138.588 559.427 139.744 556.427 139.744V140.544ZM564.612 136.786C566.898 134.274 568.019 130.867 568.019 126.613H567.219C567.219 130.726 566.138 133.921 564.02 136.247L564.612 136.786ZM614.103 98.8705C617.652 98.8705 620.73 99.6415 623.351 101.169L623.754 100.478C620.992 98.8684 617.771 98.0705 614.103 98.0705V98.8705ZM623.354 101.171C626.049 102.708 628.106 104.718 629.535 107.201L630.229 106.802C628.723 104.186 626.559 102.078 623.75 100.476L623.354 101.171ZM630.282 107.001V99.2549H629.482V107.001H630.282ZM629.882 99.6549H645.569V98.8549H629.882V99.6549ZM645.169 99.2549V153.872H645.969V99.2549H645.169ZM645.169 153.872C645.169 158.855 644.231 163.339 642.363 167.333L643.088 167.672C645.011 163.559 645.969 158.957 645.969 153.872H645.169ZM642.36 167.339C640.558 171.385 637.767 174.592 633.981 176.969L634.406 177.647C638.326 175.186 641.223 171.857 643.091 167.665L642.36 167.339ZM633.979 176.971C630.266 179.339 625.606 180.536 619.974 180.536V181.336C625.718 181.336 630.538 180.114 634.409 177.645L633.979 176.971ZM619.974 180.536C612.46 180.536 606.41 178.626 601.789 174.841L601.282 175.46C606.079 179.389 612.322 181.336 619.974 181.336V180.536ZM601.786 174.839C597.168 171.121 594.523 166.058 593.86 159.617L593.064 159.699C593.747 166.332 596.484 171.598 601.284 175.462L601.786 174.839ZM593.462 160.058H608.966V159.258H593.462V160.058ZM608.576 159.749C609.09 161.944 610.315 163.665 612.236 164.897L612.668 164.224C610.919 163.102 609.821 161.556 609.355 159.567L608.576 159.749ZM612.228 164.892C614.142 166.187 616.487 166.824 619.241 166.824V166.024C616.612 166.024 614.432 165.418 612.676 164.229L612.228 164.892ZM619.241 166.824C622.572 166.824 625.254 165.778 627.239 163.657L626.654 163.111C624.847 165.043 622.392 166.024 619.241 166.024V166.824ZM627.23 163.666C629.295 161.597 630.282 158.299 630.282 153.872H629.482C629.482 158.206 628.512 161.249 626.663 163.101L627.23 163.666ZM630.282 153.872V146.126H629.482V153.872H630.282ZM629.539 145.92C628.045 148.411 625.983 150.457 623.345 152.06L623.76 152.743C626.503 151.077 628.661 148.94 630.225 146.332L629.539 145.92ZM623.351 152.056C620.73 153.584 617.652 154.355 614.103 154.355V155.155C617.771 155.155 620.992 154.357 623.754 152.747L623.351 152.056ZM614.103 154.355C609.96 154.355 606.216 153.233 602.858 150.99L602.414 151.656C605.906 153.989 609.806 155.155 614.103 155.155V154.355ZM602.862 150.993C599.503 148.685 596.825 145.442 594.833 141.248L594.11 141.591C596.154 145.895 598.919 149.254 602.409 151.653L602.862 150.993ZM594.836 141.254C592.906 137 591.936 132.09 591.936 126.515H591.136C591.136 132.183 592.122 137.209 594.107 141.584L594.836 141.254ZM591.936 126.515C591.936 120.939 592.906 116.063 594.835 111.875L594.108 111.541C592.122 115.852 591.136 120.846 591.136 126.515H591.936ZM594.833 111.88C596.824 107.686 599.501 104.477 602.858 102.235L602.414 101.57C598.921 103.903 596.155 107.232 594.11 111.536L594.833 111.88ZM602.858 102.235C606.216 99.9921 609.96 98.8705 614.103 98.8705V98.0705C609.806 98.0705 605.906 99.2368 602.414 101.57L602.858 102.235ZM630.282 126.613C630.282 122.358 629.161 118.951 626.875 116.44L626.284 116.978C628.401 119.305 629.482 122.5 629.482 126.613H630.282ZM626.879 116.444C624.666 113.943 621.928 112.681 618.69 112.681V113.481C621.69 113.481 624.212 114.638 626.28 116.974L626.879 116.444ZM618.69 112.681C615.452 112.681 612.686 113.942 610.413 116.44L611.005 116.978C613.135 114.638 615.69 113.481 618.69 113.481V112.681ZM610.413 116.44C608.187 118.888 607.098 122.263 607.098 126.515H607.898C607.898 122.398 608.95 119.237 611.005 116.978L610.413 116.44ZM607.098 126.515C607.098 130.767 608.187 134.203 610.406 136.778L611.012 136.255C608.95 133.862 607.898 130.63 607.898 126.515H607.098ZM610.413 136.786C612.686 139.283 615.452 140.544 618.69 140.544V139.744C615.69 139.744 613.135 138.587 611.005 136.247L610.413 136.786ZM618.69 140.544C621.928 140.544 624.666 139.283 626.879 136.781L626.28 136.251C624.212 138.588 621.69 139.744 618.69 139.744V140.544ZM626.875 136.786C629.161 134.274 630.282 130.867 630.282 126.613H629.482C629.482 130.726 628.401 133.921 626.284 136.247L626.875 136.786ZM704.772 125.73C704.772 127.284 704.682 128.903 704.499 130.59L705.295 130.676C705.48 128.963 705.572 127.315 705.572 125.73H704.772ZM704.897 130.233H669.395V131.033H704.897V130.233ZM668.996 130.662C669.245 134.123 670.276 136.838 672.135 138.756L672.709 138.199C671.02 136.456 670.034 133.942 669.794 130.604L668.996 130.662ZM672.145 138.766C674.057 140.605 676.389 141.525 679.119 141.525V140.725C676.589 140.725 674.457 139.88 672.699 138.189L672.145 138.766ZM679.119 141.525C681.137 141.525 682.875 141.069 684.313 140.137C685.752 139.204 686.861 137.813 687.651 135.989L686.916 135.671C686.177 137.377 685.161 138.633 683.878 139.466C682.594 140.298 681.015 140.725 679.119 140.725V141.525ZM687.283 136.23H703.98V135.43H687.283V136.23ZM703.591 135.737C702.748 139.277 701.213 142.46 698.987 145.29L699.616 145.785C701.915 142.863 703.499 139.574 704.369 135.923L703.591 135.737ZM698.984 145.294C696.821 148.12 694.088 150.336 690.778 151.944L691.128 152.663C694.546 151.003 697.378 148.708 699.619 145.781L698.984 145.294ZM690.778 151.944C687.475 153.549 683.774 154.355 679.669 154.355V155.155C683.882 155.155 687.704 154.327 691.128 152.663L690.778 151.944ZM679.669 154.355C674.717 154.355 670.324 153.226 666.477 150.978L666.074 151.668C670.055 153.996 674.591 155.155 679.669 155.155V154.355ZM666.477 150.978C662.632 148.73 659.626 145.519 657.457 141.333L656.747 141.701C658.981 146.014 662.09 149.34 666.074 151.668L666.477 150.978ZM657.457 141.333C655.29 137.151 654.199 132.248 654.199 126.613H653.399C653.399 132.352 654.51 137.386 656.747 141.701L657.457 141.333ZM654.199 126.613C654.199 120.976 655.26 116.071 657.367 111.888L656.653 111.528C654.479 115.843 653.399 120.875 653.399 126.613H654.199ZM657.365 111.892C659.534 107.706 662.541 104.495 666.386 102.248L665.982 101.557C661.999 103.885 658.889 107.212 656.655 111.524L657.365 111.892ZM666.386 102.248C670.231 99.9997 674.655 98.8705 679.669 98.8705V98.0705C674.531 98.0705 669.964 99.2292 665.982 101.557L666.386 102.248ZM679.669 98.8705C684.561 98.8705 688.894 99.9672 692.68 102.151L693.079 101.458C689.159 99.1964 684.685 98.0705 679.669 98.0705V98.8705ZM692.68 102.151C696.464 104.334 699.408 107.447 701.515 111.5L702.225 111.131C700.051 106.948 697.001 103.72 693.079 101.458L692.68 102.151ZM701.517 111.504C703.683 115.555 704.772 120.293 704.772 125.73H705.572C705.572 120.185 704.46 115.313 702.223 111.127L701.517 111.504ZM689.518 121.318C689.518 118.348 688.567 115.947 686.638 114.16L686.094 114.747C687.835 116.359 688.718 118.534 688.718 121.318H689.518ZM686.638 114.16C684.722 112.385 682.328 111.504 679.486 111.504V112.304C682.148 112.304 684.341 113.123 686.094 114.747L686.638 114.16ZM679.486 111.504C676.765 111.504 674.436 112.353 672.523 114.057L673.055 114.654C674.811 113.09 676.947 112.304 679.486 112.304V111.504ZM672.518 114.061C670.66 115.773 669.528 118.187 669.09 121.261L669.882 121.374C670.301 118.434 671.37 116.207 673.06 114.65L672.518 114.061ZM669.486 121.718H689.118V120.918H669.486V121.718ZM729.477 108.583C731.282 105.624 733.532 103.318 736.226 101.654L735.805 100.974C732.995 102.709 730.658 105.11 728.794 108.166L729.477 108.583ZM736.232 101.651C738.917 99.9284 741.9 99.0666 745.189 99.0666V98.2666C741.751 98.2666 738.618 99.1698 735.8 100.977L736.232 101.651ZM744.789 98.6666V116.415H745.589V98.6666H744.789ZM745.189 116.015H740.878V116.815H745.189V116.015ZM740.878 116.015C736.908 116.015 733.857 116.942 731.798 118.868L732.344 119.453C734.199 117.718 737.019 116.815 740.878 116.815V116.015ZM731.803 118.863C729.718 120.744 728.735 124.026 728.735 128.574H729.535C729.535 124.1 730.509 121.107 732.339 119.457L731.803 118.863ZM728.735 128.574V153.97H729.535V128.574H728.735ZM729.135 153.57H713.448V154.37H729.135V153.57ZM713.848 153.97V99.2549H713.048V153.97H713.848ZM713.448 99.6549H729.135V98.8549H713.448V99.6549ZM728.735 99.2549V108.374H729.535V99.2549H728.735ZM547.032 248.188C547.523 247.269 548.243 246.515 549.203 245.926L548.784 245.244C547.712 245.903 546.889 246.758 546.326 247.81L547.032 248.188ZM549.203 245.926C550.151 245.345 551.234 245.05 552.466 245.05V244.25C551.1 244.25 549.869 244.579 548.784 245.244L549.203 245.926ZM552.466 245.05C553.787 245.05 554.963 245.383 556.006 246.044L556.434 245.368C555.256 244.621 553.929 244.25 552.466 244.25V245.05ZM556.006 246.044C557.048 246.705 557.876 247.643 558.487 248.871L559.203 248.515C558.534 247.169 557.612 246.115 556.434 245.368L556.006 246.044ZM558.488 248.873C559.095 250.075 559.405 251.489 559.405 253.128H560.205C560.205 251.388 559.875 249.846 559.202 248.513L558.488 248.873ZM559.405 253.128C559.405 254.746 559.095 256.173 558.486 257.418L559.204 257.769C559.875 256.4 560.205 254.85 560.205 253.128H559.405ZM558.486 257.418C557.875 258.665 557.038 259.623 555.976 260.304L556.407 260.978C557.603 260.211 558.535 259.137 559.204 257.769L558.486 257.418ZM555.973 260.306C554.93 260.986 553.765 261.327 552.466 261.327V262.127C553.914 262.127 555.232 261.744 556.41 260.976L555.973 260.306ZM552.466 261.327C551.194 261.327 550.092 261.031 549.146 260.451L548.728 261.133C549.814 261.799 551.065 262.127 552.466 262.127V261.327ZM549.149 260.453C548.207 259.863 547.506 259.12 547.033 258.222L546.325 258.594C546.869 259.627 547.673 260.473 548.725 261.131L549.149 260.453ZM546.279 258.408V261.455H547.079V258.408H546.279ZM546.679 261.055H544.11V261.855H546.679V261.055ZM544.51 261.455V239.129H543.71V261.455H544.51ZM544.11 239.529H546.679V238.729H544.11V239.529ZM546.279 239.129V247.999H547.079V239.129H546.279ZM557.58 253.128C557.58 251.831 557.335 250.68 556.83 249.688L556.117 250.051C556.554 250.91 556.78 251.932 556.78 253.128H557.58ZM556.83 249.688C556.329 248.703 555.64 247.939 554.759 247.414L554.349 248.101C555.087 248.541 555.677 249.186 556.117 250.051L556.83 249.688ZM554.763 247.416C553.907 246.894 552.96 246.634 551.929 246.634V247.434C552.818 247.434 553.621 247.656 554.346 248.099L554.763 247.416ZM551.929 246.634C550.913 246.634 549.965 246.906 549.093 247.448L549.515 248.128C550.262 247.664 551.064 247.434 551.929 247.434V246.634ZM549.096 247.447C548.234 247.973 547.547 248.746 547.029 249.746L547.74 250.114C548.201 249.224 548.794 248.568 549.513 248.129L549.096 247.447ZM547.028 249.749C546.524 250.74 546.279 251.88 546.279 253.158H547.079C547.079 251.983 547.304 250.971 547.741 250.111L547.028 249.749ZM546.279 253.158C546.279 254.456 546.524 255.615 547.027 256.625L547.743 256.269C547.304 255.388 547.079 254.355 547.079 253.158H546.279ZM547.031 256.634C547.549 257.613 548.234 258.382 549.089 258.927L549.519 258.252C548.794 257.79 548.199 257.131 547.738 256.26L547.031 256.634ZM549.099 258.933C549.97 259.452 550.916 259.713 551.929 259.713V258.913C551.061 258.913 550.256 258.692 549.509 258.246L549.099 258.933ZM551.929 259.713C552.96 259.713 553.907 259.453 554.763 258.931L554.346 258.248C553.621 258.691 552.818 258.913 551.929 258.913V259.713ZM554.766 258.929C555.642 258.384 556.33 257.613 556.83 256.628L556.117 256.266C555.677 257.132 555.085 257.789 554.343 258.249L554.766 258.929ZM556.832 256.625C557.335 255.615 557.58 254.445 557.58 253.128H556.78C556.78 254.346 556.554 255.389 556.116 256.269L556.832 256.625ZM576.135 244.779L566.82 269.097L567.567 269.383L576.882 245.065L576.135 244.779ZM567.194 268.84H564.541V269.64H567.194V268.84ZM564.914 269.383L567.963 261.417L567.216 261.131L564.167 269.097L564.914 269.383ZM567.963 261.132L561.725 244.779L560.977 245.064L567.215 261.417L567.963 261.132ZM561.351 245.322H564.202V244.522H561.351V245.322ZM563.826 245.058L568.681 258.454L569.433 258.181L564.578 244.785L563.826 245.058ZM569.433 258.453L574.232 245.057L573.479 244.787L568.68 258.183L569.433 258.453ZM573.855 245.322H576.509V244.522H573.855V245.322ZM602.085 261.055H599.516V261.855H602.085V261.055ZM599.856 261.245L589.525 244.5L588.845 244.92L599.176 261.665L599.856 261.245ZM588.785 244.71V261.455H589.585V244.71H588.785ZM589.185 261.055H586.616V261.855H589.185V261.055ZM587.016 261.455V240.396H586.216V261.455H587.016ZM586.616 240.796H589.185V239.996H586.616V240.796ZM588.845 240.606L599.176 257.321L599.856 256.901L589.525 240.186L588.845 240.606ZM599.916 257.111V240.396H599.116V257.111H599.916ZM599.516 240.796H602.085V239.996H599.516V240.796ZM601.685 240.396V261.455H602.485V240.396H601.685ZM613.21 261.327C611.829 261.327 610.583 260.992 609.462 260.327L609.054 261.015C610.304 261.758 611.693 262.127 613.21 262.127V261.327ZM609.465 260.329C608.365 259.665 607.491 258.725 606.846 257.498L606.138 257.87C606.847 259.218 607.818 260.269 609.051 261.013L609.465 260.329ZM606.849 257.504C606.223 256.261 605.904 254.816 605.904 253.158H605.104C605.104 254.92 605.443 256.492 606.134 257.864L606.849 257.504ZM605.904 253.158C605.904 251.523 606.231 250.101 606.874 248.879L606.166 248.507C605.454 249.86 605.104 251.414 605.104 253.158H605.904ZM606.873 248.881C607.537 247.634 608.427 246.696 609.542 246.053L609.143 245.36C607.887 246.084 606.895 247.137 606.167 248.505L606.873 248.881ZM609.547 246.05C610.667 245.385 611.922 245.05 613.323 245.05V244.25C611.788 244.25 610.39 244.619 609.138 245.362L609.547 246.05ZM613.323 245.05C614.723 245.05 615.979 245.385 617.098 246.05L617.507 245.362C616.256 244.619 614.858 244.25 613.323 244.25V245.05ZM617.103 246.053C618.219 246.696 619.099 247.624 619.743 248.849L620.451 248.477C619.741 247.127 618.758 246.084 617.503 245.36L617.103 246.053ZM619.745 248.853C620.405 250.073 620.742 251.504 620.742 253.158H621.542C621.542 251.393 621.182 249.827 620.449 248.473L619.745 248.853ZM620.742 253.158C620.742 254.811 620.396 256.252 619.718 257.492L620.42 257.876C621.172 256.502 621.542 254.925 621.542 253.158H620.742ZM619.717 257.494C619.054 258.72 618.154 259.66 617.016 260.326L617.42 261.016C618.691 260.274 619.691 259.223 620.421 257.874L619.717 257.494ZM617.016 260.326C615.876 260.992 614.61 261.327 613.21 261.327V262.127C614.745 262.127 616.151 261.758 617.42 261.016L617.016 260.326ZM613.21 259.713C614.202 259.713 615.136 259.463 616.005 258.967L615.608 258.272C614.859 258.701 614.061 258.913 613.21 258.913V259.713ZM616.005 258.967C616.888 258.462 617.588 257.708 618.108 256.725L617.401 256.351C616.942 257.217 616.344 257.852 615.608 258.272L616.005 258.967ZM618.105 256.73C618.653 255.733 618.916 254.536 618.916 253.158H618.116C618.116 254.436 617.872 255.492 617.404 256.345L618.105 256.73ZM618.916 253.158C618.916 251.783 618.663 250.588 618.136 249.592L617.429 249.966C617.881 250.82 618.116 251.879 618.116 253.158H618.916ZM618.136 249.592C617.617 248.61 616.926 247.864 616.058 247.379L615.668 248.077C616.381 248.476 616.97 249.098 617.429 249.966L618.136 249.592ZM616.065 247.382C615.213 246.884 614.287 246.634 613.294 246.634V247.434C614.146 247.434 614.932 247.646 615.661 248.073L616.065 247.382ZM613.294 246.634C612.285 246.634 611.349 246.883 610.495 247.382L610.9 248.073C611.627 247.647 612.422 247.434 613.294 247.434V246.634ZM610.498 247.381C609.649 247.868 608.978 248.615 608.478 249.598L609.191 249.96C609.632 249.093 610.203 248.472 610.896 248.075L610.498 247.381ZM608.478 249.598C607.972 250.593 607.729 251.785 607.729 253.158H608.529C608.529 251.877 608.756 250.816 609.191 249.96L608.478 249.598ZM607.729 253.158C607.729 254.549 607.962 255.749 608.447 256.743L609.166 256.392C608.748 255.536 608.529 254.463 608.529 253.158H607.729ZM608.45 256.749C608.949 257.731 609.618 258.486 610.464 258.993L610.875 258.306C610.177 257.888 609.605 257.255 609.163 256.386L608.45 256.749ZM610.47 258.996C611.305 259.475 612.22 259.713 613.21 259.713V258.913C612.355 258.913 611.577 258.709 610.868 258.303L610.47 258.996ZM631.265 261.327C629.884 261.327 628.638 260.992 627.518 260.327L627.109 261.015C628.36 261.758 629.748 262.127 631.265 262.127V261.327ZM627.52 260.329C626.42 259.665 625.547 258.725 624.901 257.498L624.193 257.87C624.902 259.218 625.873 260.269 627.107 261.013L627.52 260.329ZM624.904 257.504C624.278 256.261 623.959 254.816 623.959 253.158H623.159C623.159 254.92 623.499 256.492 624.19 257.864L624.904 257.504ZM623.959 253.158C623.959 251.523 624.287 250.101 624.929 248.879L624.221 248.507C623.509 249.86 623.159 251.414 623.159 253.158H623.959ZM624.928 248.881C625.592 247.634 626.483 246.696 627.598 246.053L627.198 245.36C625.942 246.084 624.951 247.137 624.222 248.505L624.928 248.881ZM627.602 246.05C628.722 245.385 629.977 245.05 631.378 245.05V244.25C629.843 244.25 628.445 244.619 627.194 245.362L627.602 246.05ZM631.378 245.05C632.779 245.05 634.034 245.385 635.154 246.05L635.562 245.362C634.311 244.619 632.913 244.25 631.378 244.25V245.05ZM635.158 246.053C636.274 246.696 637.154 247.624 637.798 248.849L638.506 248.477C637.796 247.127 636.813 246.084 635.558 245.36L635.158 246.053ZM637.801 248.853C638.46 250.073 638.797 251.504 638.797 253.158H639.597C639.597 251.393 639.237 249.827 638.504 248.473L637.801 248.853ZM638.797 253.158C638.797 254.811 638.452 256.252 637.773 257.492L638.475 257.876C639.227 256.502 639.597 254.925 639.597 253.158H638.797ZM637.772 257.494C637.109 258.72 636.209 259.66 635.071 260.326L635.475 261.016C636.746 260.274 637.747 259.223 638.476 257.874L637.772 257.494ZM635.071 260.326C633.932 260.992 632.666 261.327 631.265 261.327V262.127C632.8 262.127 634.206 261.758 635.475 261.016L635.071 260.326ZM631.265 259.713C632.258 259.713 633.192 259.463 634.061 258.967L633.663 258.272C632.914 258.701 632.117 258.913 631.265 258.913V259.713ZM634.061 258.967C634.943 258.462 635.643 257.708 636.163 256.725L635.456 256.351C634.998 257.217 634.399 257.852 633.663 258.272L634.061 258.967ZM636.16 256.73C636.708 255.733 636.972 254.536 636.972 253.158H636.172C636.172 254.436 635.927 255.492 635.459 256.345L636.16 256.73ZM636.972 253.158C636.972 251.783 636.718 250.588 636.191 249.592L635.484 249.966C635.936 250.82 636.172 251.879 636.172 253.158H636.972ZM636.191 249.592C635.672 248.61 634.981 247.864 634.114 247.379L633.723 248.077C634.436 248.476 635.025 249.098 635.484 249.966L636.191 249.592ZM634.12 247.382C633.268 246.884 632.342 246.634 631.35 246.634V247.434C632.201 247.434 632.988 247.646 633.716 248.073L634.12 247.382ZM631.35 246.634C630.34 246.634 629.404 246.883 628.551 247.382L628.955 248.073C629.682 247.647 630.478 247.434 631.35 247.434V246.634ZM628.554 247.381C627.704 247.868 627.033 248.615 626.533 249.598L627.246 249.96C627.688 249.093 628.259 248.472 628.952 248.075L628.554 247.381ZM626.533 249.598C626.027 250.593 625.784 251.785 625.784 253.158H626.584C626.584 251.877 626.811 250.816 627.246 249.96L626.533 249.598ZM625.784 253.158C625.784 254.549 626.017 255.749 626.502 256.743L627.221 256.392C626.803 255.536 626.584 254.463 626.584 253.158H625.784ZM626.505 256.749C627.004 257.731 627.673 258.486 628.519 258.993L628.93 258.306C628.233 257.888 627.66 257.255 627.218 256.386L626.505 256.749ZM628.526 258.996C629.36 259.475 630.276 259.713 631.265 259.713V258.913C630.41 258.913 629.632 258.709 628.924 258.303L628.526 258.996ZM645.495 248.158C645.967 247.28 646.669 246.545 647.613 245.955L647.189 245.276C646.138 245.933 645.335 246.767 644.791 247.78L645.495 248.158ZM647.615 245.953C648.56 245.355 649.66 245.05 650.929 245.05V244.25C649.526 244.25 648.274 244.589 647.187 245.278L647.615 245.953ZM650.929 245.05C652.231 245.05 653.398 245.382 654.441 246.044L654.87 245.368C653.692 244.622 652.375 244.25 650.929 244.25V245.05ZM654.444 246.046C655.505 246.707 656.341 247.645 656.951 248.871L657.667 248.515C656.997 247.167 656.064 246.113 654.867 245.367L654.444 246.046ZM656.952 248.873C657.558 250.075 657.868 251.489 657.868 253.128H658.668C658.668 251.388 658.339 249.846 657.666 248.513L656.952 248.873ZM657.868 253.128C657.868 254.746 657.559 256.173 656.949 257.418L657.668 257.769C658.338 256.4 658.668 254.85 658.668 253.128H657.868ZM656.949 257.418C656.339 258.665 655.502 259.623 654.439 260.304L654.871 260.978C656.067 260.211 656.999 259.137 657.668 257.769L656.949 257.418ZM654.437 260.306C653.394 260.986 652.229 261.327 650.929 261.327V262.127C652.378 262.127 653.696 261.744 654.874 260.976L654.437 260.306ZM650.929 261.327C649.678 261.327 648.585 261.032 647.638 260.451L647.22 261.133C648.306 261.799 649.546 262.127 650.929 262.127V261.327ZM647.646 260.456C646.698 259.844 645.984 259.096 645.492 258.213L644.793 258.603C645.355 259.611 646.165 260.452 647.212 261.128L647.646 260.456ZM644.743 258.408V269.3H645.543V258.408H644.743ZM645.143 268.9H642.574V269.7H645.143V268.9ZM642.974 269.3V244.922H642.174V269.3H642.974ZM642.574 245.322H645.143V244.522H642.574V245.322ZM644.743 244.922V247.969H645.543V244.922H644.743ZM656.043 253.128C656.043 251.831 655.798 250.68 655.294 249.688L654.581 250.051C655.018 250.91 655.243 251.932 655.243 253.128H656.043ZM655.294 249.688C654.793 248.703 654.104 247.939 653.223 247.414L652.813 248.101C653.551 248.541 654.141 249.186 654.581 250.051L655.294 249.688ZM653.227 247.416C652.371 246.894 651.424 246.634 650.393 246.634V247.434C651.282 247.434 652.085 247.656 652.81 248.099L653.227 247.416ZM650.393 246.634C649.377 246.634 648.429 246.906 647.557 247.448L647.979 248.128C648.726 247.664 649.528 247.434 650.393 247.434V246.634ZM647.559 247.447C646.698 247.973 646.011 248.746 645.493 249.746L646.204 250.114C646.665 249.224 647.257 248.568 647.976 248.129L647.559 247.447ZM645.492 249.749C644.988 250.74 644.743 251.88 644.743 253.158H645.543C645.543 251.983 645.768 250.971 646.205 250.111L645.492 249.749ZM644.743 253.158C644.743 254.456 644.988 255.615 645.49 256.625L646.207 256.269C645.768 255.388 645.543 254.355 645.543 253.158H644.743ZM645.495 256.634C646.013 257.613 646.698 258.382 647.553 258.927L647.983 258.252C647.258 257.79 646.663 257.131 646.202 256.26L645.495 256.634ZM647.563 258.933C648.434 259.452 649.38 259.713 650.393 259.713V258.913C649.524 258.913 648.72 258.692 647.973 258.246L647.563 258.933ZM650.393 259.713C651.424 259.713 652.371 259.453 653.227 258.931L652.81 258.248C652.085 258.691 651.282 258.913 650.393 258.913V259.713ZM653.229 258.929C654.106 258.384 654.794 257.613 655.294 256.628L654.581 256.266C654.141 257.132 653.549 257.789 652.807 258.249L653.229 258.929ZM655.296 256.625C655.799 255.615 656.043 254.445 656.043 253.128H655.243C655.243 254.346 655.017 255.389 654.58 256.269L655.296 256.625Z" fill="white" mask="url(#path-1-outside-1_0_1)"/>
</g>
</g>
</g>
<defs>
<filter id="filter0_d_0_1" x="-0.8" y="4.79999" width="784.9" height="266.5" filterUnits="userSpaceOnUse" color-interpolation-filters="sRGB">
<feFlood flood-opacity="0" result="BackgroundImageFix"/>
<feColorMatrix in="SourceAlpha" type="matrix" values="0 0 0 0 0 0 0 0 0 0 0 0 0 0 0 0 0 0 127 0" result="hardAlpha"/>
<feOffset dy="0.8"/>
<feGaussianBlur stdDeviation="0.4"/>
<feComposite in2="hardAlpha" operator="out"/>
<feColorMatrix type="matrix" values="0 0 0 0 0 0 0 0 0 0 0 0 0 0 0 0 0 0 0.25 0"/>
<feBlend mode="normal" in2="BackgroundImageFix" result="effect1_dropShadow_0_1"/>
<feBlend mode="normal" in="SourceGraphic" in2="effect1_dropShadow_0_1" result="shape"/>
</filter>
<filter id="filter1_d_0_1" x="-1.6" y="4.79999" width="786.5" height="268.1" filterUnits="userSpaceOnUse" color-interpolation-filters="sRGB">
<feFlood flood-opacity="0" result="BackgroundImageFix"/>
<feColorMatrix in="SourceAlpha" type="matrix" values="0 0 0 0 0 0 0 0 0 0 0 0 0 0 0 0 0 0 127 0" result="hardAlpha"/>
<feOffset dy="1.6"/>
<feGaussianBlur stdDeviation="0.8"/>
<feComposite in2="hardAlpha" operator="out"/>
<feColorMatrix type="matrix" values="0 0 0 0 0 0 0 0 0 0 0 0 0 0 0 0 0 0 0.25 0"/>
<feBlend mode="normal" in2="BackgroundImageFix" result="effect1_dropShadow_0_1"/>
<feBlend mode="normal" in="SourceGraphic" in2="effect1_dropShadow_0_1" result="shape"/>
</filter>
<clipPath id="clip0_0_1">
<rect width="775" height="269" fill="white"/>
</clipPath>
</defs>
</svg>
