<?xml version="1.0" encoding="utf-8"?>
<!-- Generator: Adobe Illustrator 25.2.0, SVG Export Plug-In . SVG Version: 6.00 Build 0)  -->
<svg version="1.1" id="Camada_1" xmlns="http://www.w3.org/2000/svg" xmlns:xlink="http://www.w3.org/1999/xlink" x="0px" y="0px"
	 viewBox="0 0 3909.74 1331.74" style="enable-background:new 0 0 3909.74 1331.74;" xml:space="preserve">
<style type="text/css">
	.st0{clip-path:url(#SVGID_2_);}
	.st1{fill:#97C132;}
	.st2{fill:#E73344;}
	.st3{fill:#FFFFFF;}
	.st4{fill:#22ADE3;}
</style>
<g>
	<g>
		<defs>
			<rect id="SVGID_1_" x="-277" y="-2567.26" width="7229" height="4066.31"/>
		</defs>
		<clipPath id="SVGID_2_">
			<use xlink:href="#SVGID_1_"  style="overflow:visible;"/>
		</clipPath>
		<g class="st0">
			<path class="st1" d="M595.08,981.07c-107.45,0-211.85-56.88-267.5-157.48c-81.33-147.03-27.72-332.9,119.5-414.34
				c113.69-62.46,254.98-46.13,351.68,40.58l25.63,22.99l-45.97,51.25l-25.63-22.98c-74.96-67.23-184.46-79.91-272.47-31.55
				c-113.92,63.02-155.46,206.92-92.5,320.72c63.07,114,206.97,155.55,320.77,92.58l30.12-16.66l33.32,60.25l-30.12,16.66
				C695.35,968.85,644.89,981.07,595.08,981.07"/>
		</g>
		<g class="st0">
			<path class="st2" d="M595.57,1079.38c-37.22,0-74.67-5.21-111.46-15.75c-103.42-29.62-189.17-97.69-241.44-191.67
				c-107.3-193.98-37.03-439.36,156.59-547.07c168.52-93.35,380.66-54.04,504.49,93.46l22.13,26.36l-52.73,44.26l-22.13-26.36
				C748.33,340.3,572.39,307.69,432.67,385.09c-160.47,89.26-218.72,292.7-129.8,453.47c43.31,77.87,114.42,134.32,200.19,158.88
				c85.78,24.57,175.91,14.25,253.76-29.05l30.08-16.73l33.47,60.16l-30.08,16.74C729.75,1062.23,663.04,1079.38,595.57,1079.38"/>
		</g>
		<g class="st0">
			<path class="st3" d="M750.68,529.34c-77.44-77.45-201.27-80.83-282.85-10.26l49.01,49.01c54.45-43.76,134.49-40.4,184.99,10.1
				c50.5,50.5,53.86,130.55,10.1,184.99l49.01,49.01C831.51,730.61,828.13,606.78,750.68,529.34"/>
		</g>
		<g class="st0">
			<path class="st4" d="M505.56,774.46c-50.5-50.5-53.86-130.55-10.1-185l-49-49c-70.57,81.57-67.19,205.4,10.26,282.85
				s201.27,80.83,282.85,10.26l-49.01-49C636.11,828.32,556.06,824.96,505.56,774.46"/>
		</g>
	</g>
	<g>
		<path class="st3" d="M1096.89,749.39c0,50.14-36.02,103.02-105.97,103.02h-128.3V512.8h92.7c60.25,0,98.59,44.24,98.59,89.96
			c0,36.03-23.81,58.36-32.02,58.36C1054.55,661.11,1096.89,694.82,1096.89,749.39z M930.67,579.16v66.36h27.6
			c16.22,0,32.02-13.9,32.02-33.71c0-19.17-14.96-32.65-30.76-32.65H930.67z M1030.32,744.54c0-19.59-13.48-39.18-45.93-39.18
			h-53.72v80.48h53.93C1006.73,785.83,1030.32,770.66,1030.32,744.54z"/>
		<path class="st3" d="M1117.51,793.84l54.56-38.34c14.96,24.02,36.66,34.97,65.94,34.97c32.02,0,53.51-13.06,53.51-31.18
			c0-24.86-40.66-44.45-76.26-62.15c-38.13-18.96-80.06-39.82-80.06-93.96c0-58.78,49.72-97.54,112.08-97.54
			c46.35,0,84.69,19.17,100.07,60.25L1297,601.07c-10.11-20.23-29.71-28.44-48.67-28.44c-25.49,0-44.45,14.75-44.45,32.23
			c0,20.23,25.7,27.18,64.68,45.5c56.25,26.55,91.64,55.2,91.64,107.45c0,61.94-50.56,101.33-123.24,101.33
			C1181.34,859.14,1140.26,835.97,1117.51,793.84z"/>
		<path class="st3" d="M1469.72,580.01v66.36h117.13v68.05h-117.13v70.15h136.51v67.84h-204.77V512.8h204.77v67.21H1469.72z"/>
		<path class="st3" d="M1832.89,852.41l-108.08-160.53v160.53h-68.26l-0.21-339.61h110.81c63.41,0,115.45,48.88,115.45,109.97
			c0,43.61-26.33,81.74-62.78,94.59l96.49,135.04H1832.89z M1724.61,665.75l43.82,0.21c23.17,0.21,43.82-18.54,43.82-42.77
			c0-24.23-20.86-42.77-43.82-42.77h-43.82V665.75z"/>
		<path class="st3" d="M2218.23,512.8l-158.85,348.03h-2.53L1898.64,512.8h72.26l87.01,197.19l87.22-197.19H2218.23z"/>
		<path class="st3" d="M2374.23,805h-135.88l-21.7,47.4h-73.74l162.22-348.03h2.11l162.43,348.03h-73.95L2374.23,805z
			 M2347.69,746.86l-41.29-90.8l-41.5,90.8H2347.69z"/>
		<path class="st3" d="M2676.59,580.43h-83.43v271.98h-68.47V580.43h-83.64V512.8h235.53V580.43z"/>
		<path class="st3" d="M2700.16,683.02c0-97.54,79.42-177.17,176.54-177.17s176.75,79.63,176.75,177.17
			c0,96.7-79.63,175.91-176.96,175.91C2779.58,858.94,2700.16,779.72,2700.16,683.02z M2984.35,682.6
			c0-59.41-48.46-107.86-107.86-107.86c-59.2,0-107.44,48.45-107.44,107.86c0,58.99,48.24,107.23,107.44,107.23
			C2935.9,789.84,2984.35,741.59,2984.35,682.6z M2843.2,484.78l39.4-68.89h58.99l-50.14,68.89H2843.2z"/>
		<path class="st3" d="M3274.2,852.41l-108.08-160.53v160.53h-68.26l-0.21-339.61h110.81c63.41,0,115.45,48.88,115.45,109.97
			c0,43.61-26.33,81.74-62.78,94.59l96.49,135.04H3274.2z M3165.91,665.75l43.82,0.21c23.17,0.21,43.82-18.54,43.82-42.77
			c0-24.23-20.86-42.77-43.82-42.77h-43.82V665.75z"/>
		<path class="st3" d="M3390.04,512.8h68.26v339.61h-68.26V512.8z"/>
		<path class="st3" d="M3502.52,683.02c0-97.54,79.42-177.17,176.54-177.17c97.12,0,176.75,79.63,176.75,177.17
			c0,96.7-79.64,175.91-176.97,175.91C3581.94,858.94,3502.52,779.72,3502.52,683.02z M3786.71,682.6
			c0-59.41-48.45-107.86-107.86-107.86c-59.2,0-107.44,48.45-107.44,107.86c0,58.99,48.24,107.23,107.44,107.23
			C3738.26,789.84,3786.71,741.59,3786.71,682.6z"/>
	</g>
	<g>
		<path class="st3" d="M912.85,1014.98h-37.31l-5,11.24h-8.35l31.59-69.41h0.85l31.63,69.41h-8.39L912.85,1014.98z M909.88,1008.29
			l-15.65-35.15l-15.69,35.15H909.88z"/>
		<path class="st3" d="M944.86,999.68v-41.8h7.76v41.76c0,11.49,7.46,19.84,17.55,19.84c10.09,0,17.55-8.4,17.55-19.84v-41.76h7.76
			v41.8c0,15.94-10.77,27.6-25.31,27.6C955.67,1027.28,944.86,1015.62,944.86,999.68z"/>
		<path class="st3" d="M1068.85,965.51h-19.8v60.72h-7.72v-60.72h-19.88v-7.63h47.4V965.51z"/>
		<path class="st3" d="M1088.54,992.09c0-19.37,15.82-35.19,35.11-35.19c19.33,0,35.15,15.82,35.15,35.19
			c0,19.25-15.81,35.02-35.19,35.02C1104.36,1027.11,1088.54,1011.34,1088.54,992.09z M1150.99,992.05
			c0-15.05-12.3-27.39-27.39-27.39c-15.01,0-27.26,12.34-27.26,27.39c0,15.01,12.25,27.26,27.26,27.26
			C1138.7,1019.31,1150.99,1007.06,1150.99,992.05z"/>
		<path class="st3" d="M1226.53,1026.22l-19.08-26.67h-12.76v26.67h-7.72l-0.04-68.35h20.18c12.68,0,23.02,9.75,23.02,21.79
			c0,8.86-6.06,16.49-14.37,18.99l20.31,27.56H1226.53z M1207.37,993.07c8.14,0,14.84-6.19,14.84-13.57
			c0-7.89-6.78-13.99-14.84-13.99h-12.72v27.52L1207.37,993.07z"/>
		<path class="st3" d="M1261.32,957.88h7.72v68.35h-7.72V957.88z"/>
		<path class="st3" d="M1354.72,992.09c0,20.86-13.57,34.13-34.85,34.13h-19.04v-68.35l19.04-0.04
			C1341.15,957.83,1354.72,971.15,1354.72,992.09z M1346.96,992.09c0-16.15-10.6-26.58-27.14-26.58h-11.28v53h11.41
			C1336.41,1018.5,1346.96,1008.16,1346.96,992.09z"/>
		<path class="st3" d="M1421.16,1014.98h-37.31l-5,11.24h-8.35l31.59-69.41h0.85l31.63,69.41h-8.39L1421.16,1014.98z
			 M1418.19,1008.29l-15.65-35.15l-15.69,35.15H1418.19z"/>
		<path class="st3" d="M1514.12,992.09c0,20.86-13.57,34.13-34.85,34.13h-19.04v-68.35l19.04-0.04
			C1500.55,957.83,1514.12,971.15,1514.12,992.09z M1506.36,992.09c0-16.15-10.6-26.58-27.14-26.58h-11.28v53h11.41
			C1495.8,1018.5,1506.36,1008.16,1506.36,992.09z"/>
		<path class="st3" d="M1549.97,965.47v21.62h28.11v7.71h-28.11v23.75h32.44v7.67h-40.15v-68.35h40.15v7.59H1549.97z"/>
		<path class="st3" d="M1708.68,992.09c0,20.86-13.57,34.13-34.85,34.13h-19.04v-68.35l19.04-0.04
			C1695.11,957.83,1708.68,971.15,1708.68,992.09z M1700.92,992.09c0-16.15-10.6-26.58-27.14-26.58h-11.28v53h11.41
			C1690.37,1018.5,1700.92,1008.16,1700.92,992.09z"/>
		<path class="st3" d="M1775.12,1014.98h-37.31l-5,11.24h-8.35l31.59-69.41h0.85l31.63,69.41h-8.39L1775.12,1014.98z
			 M1772.15,1008.29l-15.65-35.15l-15.69,35.15H1772.15z"/>
		<path class="st3" d="M1923.96,956.6v69.62h-7.72v-46.38l-25.69,45.24h-0.08l-25.74-45.32v46.47h-7.72V956.6h0.89l32.6,54.36
			l32.6-54.36H1923.96z"/>
		<path class="st3" d="M1952.1,992.09c0-19.37,15.82-35.19,35.11-35.19c19.33,0,35.15,15.82,35.15,35.19
			c0,19.25-15.81,35.02-35.19,35.02C1967.92,1027.11,1952.1,1011.34,1952.1,992.09z M2014.55,992.05c0-15.05-12.3-27.39-27.39-27.39
			c-15.01,0-27.26,12.34-27.26,27.39c0,15.01,12.25,27.26,27.26,27.26C2002.26,1019.31,2014.55,1007.06,2014.55,992.05z"/>
		<path class="st3" d="M2097.43,1005.36c0,10.81-8.57,20.86-21.62,20.86h-25.31v-68.35h18.65c11.41,0,19.63,8.06,19.63,17.04
			c0,7.42-5.38,12.81-8.86,12.81C2088.69,987.72,2097.43,995.06,2097.43,1005.36z M2058.17,965.38v20.69h11.36
			c7.42,0.04,12-4.49,12-10.26c0-5.85-5.47-10.43-11.96-10.43H2058.17z M2089.88,1004.85c0-6.4-6.06-11.96-15.1-11.91h-16.62v25.73
			h17C2082.97,1018.67,2089.88,1012.78,2089.88,1004.85z"/>
		<path class="st3" d="M2124.11,957.88h7.72v68.35h-7.72V957.88z"/>
		<path class="st3" d="M2204.84,1018.55v7.67h-41.21v-68.35h7.72v60.67H2204.84z"/>
		<path class="st3" d="M2231.61,957.88h7.72v68.35h-7.72V957.88z"/>
		<path class="st3" d="M2325.02,992.09c0,20.86-13.57,34.13-34.85,34.13h-19.04v-68.35l19.04-0.04
			C2311.45,957.83,2325.02,971.15,2325.02,992.09z M2317.26,992.09c0-16.15-10.6-26.58-27.14-26.58h-11.28v53h11.41
			C2306.7,1018.5,2317.26,1008.16,2317.26,992.09z"/>
		<path class="st3" d="M2391.45,1014.98h-37.31l-5,11.24h-8.35l31.59-69.41h0.85l31.63,69.41h-8.39L2391.45,1014.98z
			 M2388.49,1008.29l-15.65-35.15l-15.69,35.15H2388.49z"/>
		<path class="st3" d="M2484.41,992.09c0,20.86-13.57,34.13-34.85,34.13h-19.04v-68.35l19.04-0.04
			C2470.85,957.83,2484.41,971.15,2484.41,992.09z M2476.66,992.09c0-16.15-10.6-26.58-27.14-26.58h-11.28v53h11.41
			C2466.1,1018.5,2476.66,1008.16,2476.66,992.09z"/>
		<path class="st3" d="M2520.26,965.47v21.62h28.11v7.71h-28.11v23.75h32.44v7.67h-40.15v-68.35h40.15v7.59H2520.26z"/>
		<path class="st3" d="M2632.8,965.47v21.62h28.11v7.71h-28.11v23.75h32.44v7.67h-40.15v-68.35h40.15v7.59H2632.8z"/>
		<path class="st3" d="M2791.52,992.09c0,20.86-13.57,34.13-34.85,34.13h-19.04v-68.35l19.04-0.04
			C2777.95,957.83,2791.52,971.15,2791.52,992.09z M2783.76,992.09c0-16.15-10.6-26.58-27.14-26.58h-11.28v53h11.41
			C2773.2,1018.5,2783.76,1008.16,2783.76,992.09z"/>
		<path class="st3" d="M2816.05,992.09c0-19.37,15.82-35.19,35.11-35.19c19.33,0,35.15,15.82,35.15,35.19
			c0,19.25-15.81,35.02-35.19,35.02C2831.86,1027.11,2816.05,1011.34,2816.05,992.09z M2878.5,992.05
			c0-15.05-12.3-27.39-27.39-27.39c-15.01,0-27.26,12.34-27.26,27.39c0,15.01,12.25,27.26,27.26,27.26
			C2866.2,1019.31,2878.5,1007.06,2878.5,992.05z"/>
		<path class="st3" d="M2910.11,1014.01l5.94-4.37c3.1,5.85,10.09,9.75,17.34,9.75c8.95,0,16.24-4.83,16.24-11.57
			c0-7.67-9.79-11.36-18.53-14.67c-8.39-3.27-17.76-7.38-17.76-17.94c0-10.52,9.46-18.36,21.45-18.36c10.13,0,17.04,5.55,19.59,12.3
			l-5.81,3.9c-2.2-5.13-7.72-8.61-13.87-8.61c-7.33,0-13.61,4.84-13.61,10.94c0,6.61,7.51,9.03,16.32,12.42
			c10.26,4.15,19.97,8.9,19.97,19.88c0,11.79-10.9,19.46-24.04,19.46C2922.11,1027.16,2913.38,1021.3,2910.11,1014.01z"/>
		<path class="st3" d="M3070.06,965.51h-19.8v60.72h-7.72v-60.72h-19.88v-7.63h47.4V965.51z"/>
		<path class="st3" d="M3136.43,1026.22l-19.08-26.67h-12.76v26.67h-7.72l-0.04-68.35h20.18c12.68,0,23.02,9.75,23.02,21.79
			c0,8.86-6.06,16.49-14.37,18.99l20.31,27.56H3136.43z M3117.27,993.07c8.14,0,14.84-6.19,14.84-13.57
			c0-7.89-6.78-13.99-14.84-13.99h-12.72v27.52L3117.27,993.07z"/>
		<path class="st3" d="M3215.77,1014.98h-37.31l-5,11.24h-8.35l31.59-69.41h0.85l31.63,69.41h-8.39L3215.77,1014.98z
			 M3212.81,1008.29l-15.65-35.15l-15.69,35.15H3212.81z"/>
		<path class="st3" d="M3309.79,957.71v69.57h-0.38l-46.85-52.02v51.05h-7.72v-69.49h0.42l46.81,51.98v-51.09H3309.79z"/>
		<path class="st3" d="M3337.29,1014.01l5.94-4.37c3.1,5.85,10.09,9.75,17.34,9.75c8.95,0,16.24-4.83,16.24-11.57
			c0-7.67-9.8-11.36-18.53-14.67c-8.4-3.27-17.77-7.38-17.77-17.94c0-10.52,9.45-18.36,21.45-18.36c10.13,0,17.04,5.55,19.59,12.3
			l-5.81,3.9c-2.2-5.13-7.71-8.61-13.86-8.61c-7.34,0-13.61,4.84-13.61,10.94c0,6.61,7.5,9.03,16.33,12.42
			c10.26,4.15,19.97,8.9,19.97,19.88c0,11.79-10.9,19.46-24.04,19.46C3349.29,1027.16,3340.56,1021.3,3337.29,1014.01z"/>
		<path class="st3" d="M3412.06,957.88h21.67c13.23,0,24.04,9.92,24.04,22.05c0,11.62-10.81,21.07-24.04,21.07h-13.95v25.23h-7.72
			V957.88z M3450.05,979.84c0-7.89-7.34-14.33-16.32-14.33h-13.95v27.86l13.95,0.04C3442.72,993.45,3450.05,987.34,3450.05,979.84z"
			/>
		<path class="st3" d="M3480.85,992.09c0-19.37,15.81-35.19,35.11-35.19c19.33,0,35.15,15.82,35.15,35.19
			c0,19.25-15.81,35.02-35.19,35.02C3496.66,1027.11,3480.85,1011.34,3480.85,992.09z M3543.3,992.05
			c0-15.05-12.3-27.39-27.39-27.39c-15.01,0-27.26,12.34-27.26,27.39c0,15.01,12.25,27.26,27.26,27.26
			C3531.01,1019.31,3543.3,1007.06,3543.3,992.05z"/>
		<path class="st3" d="M3618.84,1026.22l-19.08-26.67H3587v26.67h-7.72l-0.04-68.35h20.18c12.68,0,23.02,9.75,23.02,21.79
			c0,8.86-6.06,16.49-14.37,18.99l20.31,27.56H3618.84z M3599.67,993.07c8.14,0,14.84-6.19,14.84-13.57
			c0-7.89-6.78-13.99-14.84-13.99h-12.72v27.52L3599.67,993.07z"/>
		<path class="st3" d="M3694.33,965.51h-19.8v60.72h-7.72v-60.72h-19.88v-7.63h47.4V965.51z"/>
		<path class="st3" d="M3728.81,965.47v21.62h28.11v7.71h-28.11v23.75h32.43v7.67h-40.15v-68.35h40.15v7.59H3728.81z"/>
		<path class="st3" d="M3786.49,1014.01l5.93-4.37c3.1,5.85,10.09,9.75,17.34,9.75c8.95,0,16.24-4.83,16.24-11.57
			c0-7.67-9.79-11.36-18.53-14.67c-8.39-3.27-17.77-7.38-17.77-17.94c0-10.52,9.46-18.36,21.45-18.36c10.13,0,17.05,5.55,19.59,12.3
			l-5.81,3.9c-2.21-5.13-7.72-8.61-13.87-8.61c-7.34,0-13.61,4.84-13.61,10.94c0,6.61,7.5,9.03,16.32,12.42
			c10.26,4.15,19.97,8.9,19.97,19.88c0,11.79-10.89,19.46-24.04,19.46C3798.49,1027.16,3789.76,1021.3,3786.49,1014.01z"/>
	</g>
</g>
</svg>
