<svg width="775" height="244" viewBox="0 0 775 244" fill="none" xmlns="http://www.w3.org/2000/svg">
<g clip-path="url(#clip0_0_1)">
<g filter="url(#filter0_d_0_1)">
<g filter="url(#filter1_d_0_1)">
<mask id="path-1-outside-1_0_1" maskUnits="userSpaceOnUse" x="-1.30005" y="-1.29999" width="776" height="246" fill="black">
<rect fill="white" x="-1.30005" y="-1.29999" width="776" height="246"/>
<path d="M56.7571 86.2235V99.0991H77.54V111.068H56.7571V125.032H80.2626V137.454H41.238V73.8012H80.2626V86.2235H56.7571Z"/>
<path d="M113.117 122.946L124.099 86.8582H140.616L122.647 137.454H103.497L85.5278 86.8582H102.136L113.117 122.946Z"/>
<path d="M194.885 111.34C194.885 112.791 194.794 114.302 194.613 115.874H159.491C159.733 119.017 160.731 121.435 162.486 123.128C164.301 124.76 166.509 125.576 169.111 125.576C172.983 125.576 175.675 123.944 177.188 120.679H193.705C192.858 124.004 191.316 126.996 189.077 129.656C186.899 132.316 184.146 134.401 180.818 135.913C177.491 137.424 173.77 138.179 169.655 138.179C164.694 138.179 160.277 137.122 156.405 135.006C152.533 132.89 149.508 129.868 147.33 125.938C145.152 122.009 144.063 117.415 144.063 112.156C144.063 106.897 145.121 102.303 147.239 98.3737C149.417 94.4445 152.442 91.4221 156.314 89.3064C160.187 87.1906 164.634 86.1328 169.655 86.1328C174.556 86.1328 178.912 87.1604 182.724 89.2157C186.536 91.271 189.5 94.2027 191.618 98.011C193.796 101.819 194.885 106.262 194.885 111.34ZM179.003 107.26C179.003 104.6 178.096 102.484 176.28 100.913C174.465 99.3409 172.197 98.5551 169.474 98.5551C166.872 98.5551 164.664 99.3107 162.849 100.822C161.094 102.333 160.005 104.479 159.582 107.26H179.003Z"/>
<path d="M233.929 86.3141C239.858 86.3141 244.578 88.2485 248.087 92.1172C251.656 95.9255 253.441 101.185 253.441 107.894V137.454H238.013V109.98C238.013 106.595 237.136 103.965 235.381 102.091C233.626 100.217 231.267 99.2804 228.302 99.2804C225.337 99.2804 222.978 100.217 221.223 102.091C219.469 103.965 218.591 106.595 218.591 109.98V137.454H203.072V86.8582H218.591V93.568C220.164 91.3314 222.282 89.5784 224.944 88.309C227.606 86.9791 230.601 86.3141 233.929 86.3141Z"/>
<path d="M292.45 124.306V137.454H284.555C278.928 137.454 274.541 136.094 271.395 133.374C268.249 130.593 266.676 126.09 266.676 119.863V99.7338H260.504V86.8582H266.676V74.5266H282.195V86.8582H292.359V99.7338H282.195V120.045C282.195 121.556 282.558 122.644 283.284 123.309C284.01 123.974 285.22 124.306 286.914 124.306H292.45Z"/>
<path d="M392.477 73.8012V137.454H376.958V99.2804L362.709 137.454H350.185L335.846 99.1898V137.454H320.327V73.8012H338.659L356.538 117.869L374.235 73.8012H392.477Z"/>
<path d="M400.551 112.065C400.551 106.867 401.519 102.303 403.455 98.3737C405.452 94.4445 408.144 91.4221 411.533 89.3064C414.921 87.1906 418.702 86.1328 422.877 86.1328C426.447 86.1328 429.563 86.8582 432.225 88.309C434.947 89.7597 437.035 91.6639 438.487 94.0214V86.8582H454.006V137.454H438.487V130.291C436.974 132.648 434.857 134.552 432.134 136.003C429.472 137.454 426.356 138.179 422.786 138.179C418.672 138.179 414.921 137.122 411.533 135.006C408.144 132.83 405.452 129.777 403.455 125.848C401.519 121.858 400.551 117.264 400.551 112.065ZM438.487 112.156C438.487 108.287 437.398 105.235 435.22 102.998C433.102 100.761 430.5 99.6431 427.415 99.6431C424.329 99.6431 421.697 100.761 419.519 102.998C417.401 105.174 416.343 108.197 416.343 112.065C416.343 115.934 417.401 119.017 419.519 121.314C421.697 123.551 424.329 124.669 427.415 124.669C430.5 124.669 433.102 123.551 435.22 121.314C437.398 119.078 438.487 116.025 438.487 112.156Z"/>
<path d="M496.09 86.3141C502.019 86.3141 506.738 88.2485 510.248 92.1172C513.817 95.9255 515.602 101.185 515.602 107.894V137.454H500.174V109.98C500.174 106.595 499.296 103.965 497.542 102.091C495.787 100.217 493.428 99.2804 490.463 99.2804C487.498 99.2804 485.139 100.217 483.384 102.091C481.63 103.965 480.752 106.595 480.752 109.98V137.454H465.233V86.8582H480.752V93.568C482.325 91.3314 484.443 89.5784 487.105 88.309C489.767 86.9791 492.762 86.3141 496.09 86.3141Z"/>
<path d="M523.301 112.065C523.301 106.867 524.269 102.303 526.205 98.3737C528.201 94.4445 530.894 91.4221 534.282 89.3064C537.67 87.1906 541.452 86.1328 545.626 86.1328C549.196 86.1328 552.312 86.8582 554.974 88.309C557.697 89.7597 559.784 91.6639 561.236 94.0214V86.8582H576.755V137.454H561.236V130.291C559.724 132.648 557.606 134.552 554.883 136.003C552.221 137.454 549.105 138.179 545.536 138.179C541.421 138.179 537.67 137.122 534.282 135.006C530.894 132.83 528.201 129.777 526.205 125.848C524.269 121.858 523.301 117.264 523.301 112.065ZM561.236 112.156C561.236 108.287 560.147 105.235 557.969 102.998C555.851 100.761 553.25 99.6431 550.164 99.6431C547.078 99.6431 544.447 100.761 542.268 102.998C540.151 105.174 539.092 108.197 539.092 112.065C539.092 115.934 540.151 119.017 542.268 121.314C544.447 123.551 547.078 124.669 550.164 124.669C553.25 124.669 555.851 123.551 557.969 121.314C560.147 119.078 561.236 116.025 561.236 112.156Z"/>
<path d="M607.223 86.1328C610.792 86.1328 613.908 86.8582 616.57 88.309C619.293 89.7597 621.38 91.6639 622.832 94.0214V86.8582H638.352V137.363C638.352 142.018 637.414 146.219 635.538 149.967C633.723 153.775 630.91 156.798 627.098 159.034C623.347 161.271 618.658 162.389 613.031 162.389C605.529 162.389 599.448 160.606 594.789 157.039C590.13 153.533 587.468 148.758 586.803 142.713H602.14C602.624 144.647 603.774 146.159 605.589 147.247C607.404 148.395 609.643 148.97 612.305 148.97C615.512 148.97 618.053 148.033 619.928 146.159C621.864 144.345 622.832 141.413 622.832 137.363V130.2C621.32 132.558 619.233 134.492 616.57 136.003C613.908 137.454 610.792 138.179 607.223 138.179C603.048 138.179 599.266 137.122 595.878 135.006C592.49 132.83 589.798 129.777 587.801 125.848C585.865 121.858 584.897 117.264 584.897 112.065C584.897 106.867 585.865 102.303 587.801 98.3737C589.798 94.4445 592.49 91.4221 595.878 89.3064C599.266 87.1906 603.048 86.1328 607.223 86.1328ZM622.832 112.156C622.832 108.287 621.743 105.235 619.565 102.998C617.448 100.761 614.846 99.6431 611.76 99.6431C608.675 99.6431 606.043 100.761 603.865 102.998C601.747 105.174 600.688 108.197 600.688 112.065C600.688 115.934 601.747 119.017 603.865 121.314C606.043 123.551 608.675 124.669 611.76 124.669C614.846 124.669 617.448 123.551 619.565 121.314C621.743 119.078 622.832 116.025 622.832 112.156Z"/>
<path d="M697.316 111.34C697.316 112.791 697.225 114.302 697.044 115.874H661.922C662.164 119.017 663.162 121.435 664.916 123.128C666.732 124.76 668.94 125.576 671.542 125.576C675.414 125.576 678.106 123.944 679.619 120.679H696.136C695.289 124.004 693.746 126.996 691.508 129.656C689.33 132.316 686.577 134.401 683.249 135.913C679.921 137.424 676.2 138.179 672.086 138.179C667.125 138.179 662.708 137.122 658.836 135.006C654.964 132.89 651.939 129.868 649.76 125.938C647.582 122.009 646.493 117.415 646.493 112.156C646.493 106.897 647.552 102.303 649.67 98.3737C651.848 94.4445 654.873 91.4221 658.745 89.3064C662.617 87.1906 667.064 86.1328 672.086 86.1328C676.987 86.1328 681.343 87.1604 685.155 89.2157C688.966 91.271 691.931 94.2027 694.049 98.011C696.227 101.819 697.316 106.262 697.316 111.34ZM681.434 107.26C681.434 104.6 680.526 102.484 678.711 100.913C676.896 99.3409 674.627 98.5551 671.905 98.5551C669.303 98.5551 667.095 99.3107 665.279 100.822C663.525 102.333 662.436 104.479 662.012 107.26H681.434Z"/>
<path d="M721.022 95.2908C722.837 92.5102 725.106 90.334 727.829 88.7623C730.551 87.1302 733.576 86.3141 736.904 86.3141V102.726H732.639C728.767 102.726 725.862 103.572 723.926 105.265C721.99 106.897 721.022 109.799 721.022 113.97V137.454H705.503V86.8582H721.022V95.2908Z"/>
<path d="M540.521 224.403C541.042 223.492 541.806 222.748 542.811 222.171C543.816 221.594 544.961 221.306 546.246 221.306C547.623 221.306 548.861 221.632 549.959 222.283C551.058 222.934 551.924 223.854 552.557 225.045C553.189 226.216 553.506 227.583 553.506 229.146C553.506 230.69 553.189 232.066 552.557 233.275C551.924 234.484 551.049 235.423 549.932 236.093C548.833 236.762 547.605 237.097 546.246 237.097C544.924 237.097 543.76 236.809 542.755 236.232C541.768 235.656 541.024 234.921 540.521 234.028V236.846H537.98V216.2H540.521V224.403ZM550.909 229.146C550.909 227.993 550.676 226.988 550.211 226.133C549.745 225.277 549.112 224.626 548.312 224.18C547.53 223.733 546.664 223.51 545.715 223.51C544.784 223.51 543.918 223.743 543.118 224.208C542.336 224.654 541.703 225.314 541.219 226.188C540.754 227.044 540.521 228.039 540.521 229.174C540.521 230.327 540.754 231.341 541.219 232.215C541.703 233.07 542.336 233.731 543.118 234.196C543.918 234.642 544.784 234.865 545.715 234.865C546.664 234.865 547.53 234.642 548.312 234.196C549.112 233.731 549.745 233.07 550.211 232.215C550.676 231.341 550.909 230.318 550.909 229.146Z"/>
<path d="M570.031 221.557L560.816 244.044H558.191L561.207 236.679L555.036 221.557H557.856L562.659 233.945L567.406 221.557H570.031Z"/>
<path d="M595.333 236.846H592.792L582.571 221.362V236.846H580.03V217.372H582.571L592.792 232.829V217.372H595.333V236.846Z"/>
<path d="M606.339 237.097C604.905 237.097 603.602 236.772 602.429 236.121C601.275 235.47 600.363 234.549 599.693 233.359C599.041 232.15 598.715 230.755 598.715 229.174C598.715 227.611 599.05 226.235 599.721 225.045C600.409 223.836 601.34 222.915 602.513 222.283C603.686 221.632 604.998 221.306 606.45 221.306C607.903 221.306 609.215 221.632 610.388 222.283C611.561 222.915 612.482 223.826 613.152 225.017C613.841 226.207 614.186 227.593 614.186 229.174C614.186 230.755 613.832 232.15 613.124 233.359C612.436 234.549 611.495 235.47 610.304 236.121C609.113 236.772 607.791 237.097 606.339 237.097ZM606.339 234.865C607.251 234.865 608.107 234.651 608.908 234.224C609.708 233.796 610.351 233.154 610.835 232.298C611.337 231.443 611.589 230.401 611.589 229.174C611.589 227.946 611.347 226.905 610.863 226.049C610.378 225.193 609.746 224.561 608.964 224.152C608.182 223.724 607.335 223.51 606.422 223.51C605.492 223.51 604.635 223.724 603.853 224.152C603.09 224.561 602.476 225.193 602.01 226.049C601.545 226.905 601.312 227.946 601.312 229.174C601.312 230.42 601.536 231.471 601.982 232.326C602.448 233.182 603.062 233.824 603.826 234.251C604.589 234.661 605.427 234.865 606.339 234.865Z"/>
<path d="M624.201 237.097C622.767 237.097 621.464 236.772 620.291 236.121C619.137 235.47 618.225 234.549 617.555 233.359C616.903 232.15 616.577 230.755 616.577 229.174C616.577 227.611 616.912 226.235 617.583 225.045C618.271 223.836 619.202 222.915 620.375 222.283C621.548 221.632 622.86 221.306 624.312 221.306C625.764 221.306 627.077 221.632 628.25 222.283C629.423 222.915 630.344 223.826 631.014 225.017C631.703 226.207 632.047 227.593 632.047 229.174C632.047 230.755 631.694 232.15 630.986 233.359C630.297 234.549 629.357 235.47 628.166 236.121C626.974 236.772 625.653 237.097 624.201 237.097ZM624.201 234.865C625.113 234.865 625.969 234.651 626.77 234.224C627.57 233.796 628.212 233.154 628.696 232.298C629.199 231.443 629.45 230.401 629.45 229.174C629.45 227.946 629.208 226.905 628.724 226.049C628.24 225.193 627.607 224.561 626.826 224.152C626.044 223.724 625.197 223.51 624.284 223.51C623.354 223.51 622.497 223.724 621.715 224.152C620.952 224.561 620.338 225.193 619.872 226.049C619.407 226.905 619.174 227.946 619.174 229.174C619.174 230.42 619.398 231.471 619.844 232.326C620.31 233.182 620.924 233.824 621.687 234.251C622.451 234.661 623.288 234.865 624.201 234.865Z"/>
<path d="M637.93 224.375C638.432 223.501 639.177 222.775 640.164 222.199C641.169 221.604 642.332 221.306 643.654 221.306C645.013 221.306 646.242 221.632 647.34 222.283C648.457 222.934 649.332 223.854 649.965 225.045C650.598 226.216 650.915 227.583 650.915 229.146C650.915 230.69 650.598 232.066 649.965 233.275C649.332 234.484 648.457 235.423 647.34 236.093C646.242 236.762 645.013 237.097 643.654 237.097C642.351 237.097 641.197 236.809 640.192 236.232C639.205 235.637 638.451 234.902 637.93 234.028V244.1H635.389V221.557H637.93V224.375ZM648.318 229.146C648.318 227.993 648.085 226.988 647.62 226.133C647.154 225.277 646.521 224.626 645.721 224.18C644.939 223.733 644.073 223.51 643.124 223.51C642.193 223.51 641.327 223.743 640.527 224.208C639.745 224.654 639.112 225.314 638.628 226.188C638.162 227.044 637.93 228.039 637.93 229.174C637.93 230.327 638.162 231.341 638.628 232.215C639.112 233.07 639.745 233.731 640.527 234.196C641.327 234.642 642.193 234.865 643.124 234.865C644.073 234.865 644.939 234.642 645.721 234.196C646.521 233.731 647.154 233.07 647.62 232.215C648.085 231.341 648.318 230.318 648.318 229.146Z"/>
</mask>
<path d="M56.7571 86.2235V99.0991H77.54V111.068H56.7571V125.032H80.2626V137.454H41.238V73.8012H80.2626V86.2235H56.7571Z" fill="white"/>
<path d="M113.117 122.946L124.099 86.8582H140.616L122.647 137.454H103.497L85.5278 86.8582H102.136L113.117 122.946Z" fill="white"/>
<path d="M194.885 111.34C194.885 112.791 194.794 114.302 194.613 115.874H159.491C159.733 119.017 160.731 121.435 162.486 123.128C164.301 124.76 166.509 125.576 169.111 125.576C172.983 125.576 175.675 123.944 177.188 120.679H193.705C192.858 124.004 191.316 126.996 189.077 129.656C186.899 132.316 184.146 134.401 180.818 135.913C177.491 137.424 173.77 138.179 169.655 138.179C164.694 138.179 160.277 137.122 156.405 135.006C152.533 132.89 149.508 129.868 147.33 125.938C145.152 122.009 144.063 117.415 144.063 112.156C144.063 106.897 145.121 102.303 147.239 98.3737C149.417 94.4445 152.442 91.4221 156.314 89.3064C160.187 87.1906 164.634 86.1328 169.655 86.1328C174.556 86.1328 178.912 87.1604 182.724 89.2157C186.536 91.271 189.5 94.2027 191.618 98.011C193.796 101.819 194.885 106.262 194.885 111.34ZM179.003 107.26C179.003 104.6 178.096 102.484 176.28 100.913C174.465 99.3409 172.197 98.5551 169.474 98.5551C166.872 98.5551 164.664 99.3107 162.849 100.822C161.094 102.333 160.005 104.479 159.582 107.26H179.003Z" fill="white"/>
<path d="M233.929 86.3141C239.858 86.3141 244.578 88.2485 248.087 92.1172C251.656 95.9255 253.441 101.185 253.441 107.894V137.454H238.013V109.98C238.013 106.595 237.136 103.965 235.381 102.091C233.626 100.217 231.267 99.2804 228.302 99.2804C225.337 99.2804 222.978 100.217 221.223 102.091C219.469 103.965 218.591 106.595 218.591 109.98V137.454H203.072V86.8582H218.591V93.568C220.164 91.3314 222.282 89.5784 224.944 88.309C227.606 86.9791 230.601 86.3141 233.929 86.3141Z" fill="white"/>
<path d="M292.45 124.306V137.454H284.555C278.928 137.454 274.541 136.094 271.395 133.374C268.249 130.593 266.676 126.09 266.676 119.863V99.7338H260.504V86.8582H266.676V74.5266H282.195V86.8582H292.359V99.7338H282.195V120.045C282.195 121.556 282.558 122.644 283.284 123.309C284.01 123.974 285.22 124.306 286.914 124.306H292.45Z" fill="white"/>
<path d="M392.477 73.8012V137.454H376.958V99.2804L362.709 137.454H350.185L335.846 99.1898V137.454H320.327V73.8012H338.659L356.538 117.869L374.235 73.8012H392.477Z" fill="white"/>
<path d="M400.551 112.065C400.551 106.867 401.519 102.303 403.455 98.3737C405.452 94.4445 408.144 91.4221 411.533 89.3064C414.921 87.1906 418.702 86.1328 422.877 86.1328C426.447 86.1328 429.563 86.8582 432.225 88.309C434.947 89.7597 437.035 91.6639 438.487 94.0214V86.8582H454.006V137.454H438.487V130.291C436.974 132.648 434.857 134.552 432.134 136.003C429.472 137.454 426.356 138.179 422.786 138.179C418.672 138.179 414.921 137.122 411.533 135.006C408.144 132.83 405.452 129.777 403.455 125.848C401.519 121.858 400.551 117.264 400.551 112.065ZM438.487 112.156C438.487 108.287 437.398 105.235 435.22 102.998C433.102 100.761 430.5 99.6431 427.415 99.6431C424.329 99.6431 421.697 100.761 419.519 102.998C417.401 105.174 416.343 108.197 416.343 112.065C416.343 115.934 417.401 119.017 419.519 121.314C421.697 123.551 424.329 124.669 427.415 124.669C430.5 124.669 433.102 123.551 435.22 121.314C437.398 119.078 438.487 116.025 438.487 112.156Z" fill="white"/>
<path d="M496.09 86.3141C502.019 86.3141 506.738 88.2485 510.248 92.1172C513.817 95.9255 515.602 101.185 515.602 107.894V137.454H500.174V109.98C500.174 106.595 499.296 103.965 497.542 102.091C495.787 100.217 493.428 99.2804 490.463 99.2804C487.498 99.2804 485.139 100.217 483.384 102.091C481.63 103.965 480.752 106.595 480.752 109.98V137.454H465.233V86.8582H480.752V93.568C482.325 91.3314 484.443 89.5784 487.105 88.309C489.767 86.9791 492.762 86.3141 496.09 86.3141Z" fill="white"/>
<path d="M523.301 112.065C523.301 106.867 524.269 102.303 526.205 98.3737C528.201 94.4445 530.894 91.4221 534.282 89.3064C537.67 87.1906 541.452 86.1328 545.626 86.1328C549.196 86.1328 552.312 86.8582 554.974 88.309C557.697 89.7597 559.784 91.6639 561.236 94.0214V86.8582H576.755V137.454H561.236V130.291C559.724 132.648 557.606 134.552 554.883 136.003C552.221 137.454 549.105 138.179 545.536 138.179C541.421 138.179 537.67 137.122 534.282 135.006C530.894 132.83 528.201 129.777 526.205 125.848C524.269 121.858 523.301 117.264 523.301 112.065ZM561.236 112.156C561.236 108.287 560.147 105.235 557.969 102.998C555.851 100.761 553.25 99.6431 550.164 99.6431C547.078 99.6431 544.447 100.761 542.268 102.998C540.151 105.174 539.092 108.197 539.092 112.065C539.092 115.934 540.151 119.017 542.268 121.314C544.447 123.551 547.078 124.669 550.164 124.669C553.25 124.669 555.851 123.551 557.969 121.314C560.147 119.078 561.236 116.025 561.236 112.156Z" fill="white"/>
<path d="M607.223 86.1328C610.792 86.1328 613.908 86.8582 616.57 88.309C619.293 89.7597 621.38 91.6639 622.832 94.0214V86.8582H638.352V137.363C638.352 142.018 637.414 146.219 635.538 149.967C633.723 153.775 630.91 156.798 627.098 159.034C623.347 161.271 618.658 162.389 613.031 162.389C605.529 162.389 599.448 160.606 594.789 157.039C590.13 153.533 587.468 148.758 586.803 142.713H602.14C602.624 144.647 603.774 146.159 605.589 147.247C607.404 148.395 609.643 148.97 612.305 148.97C615.512 148.97 618.053 148.033 619.928 146.159C621.864 144.345 622.832 141.413 622.832 137.363V130.2C621.32 132.558 619.233 134.492 616.57 136.003C613.908 137.454 610.792 138.179 607.223 138.179C603.048 138.179 599.266 137.122 595.878 135.006C592.49 132.83 589.798 129.777 587.801 125.848C585.865 121.858 584.897 117.264 584.897 112.065C584.897 106.867 585.865 102.303 587.801 98.3737C589.798 94.4445 592.49 91.4221 595.878 89.3064C599.266 87.1906 603.048 86.1328 607.223 86.1328ZM622.832 112.156C622.832 108.287 621.743 105.235 619.565 102.998C617.448 100.761 614.846 99.6431 611.76 99.6431C608.675 99.6431 606.043 100.761 603.865 102.998C601.747 105.174 600.688 108.197 600.688 112.065C600.688 115.934 601.747 119.017 603.865 121.314C606.043 123.551 608.675 124.669 611.76 124.669C614.846 124.669 617.448 123.551 619.565 121.314C621.743 119.078 622.832 116.025 622.832 112.156Z" fill="white"/>
<path d="M697.316 111.34C697.316 112.791 697.225 114.302 697.044 115.874H661.922C662.164 119.017 663.162 121.435 664.916 123.128C666.732 124.76 668.94 125.576 671.542 125.576C675.414 125.576 678.106 123.944 679.619 120.679H696.136C695.289 124.004 693.746 126.996 691.508 129.656C689.33 132.316 686.577 134.401 683.249 135.913C679.921 137.424 676.2 138.179 672.086 138.179C667.125 138.179 662.708 137.122 658.836 135.006C654.964 132.89 651.939 129.868 649.76 125.938C647.582 122.009 646.493 117.415 646.493 112.156C646.493 106.897 647.552 102.303 649.67 98.3737C651.848 94.4445 654.873 91.4221 658.745 89.3064C662.617 87.1906 667.064 86.1328 672.086 86.1328C676.987 86.1328 681.343 87.1604 685.155 89.2157C688.966 91.271 691.931 94.2027 694.049 98.011C696.227 101.819 697.316 106.262 697.316 111.34ZM681.434 107.26C681.434 104.6 680.526 102.484 678.711 100.913C676.896 99.3409 674.627 98.5551 671.905 98.5551C669.303 98.5551 667.095 99.3107 665.279 100.822C663.525 102.333 662.436 104.479 662.012 107.26H681.434Z" fill="white"/>
<path d="M721.022 95.2908C722.837 92.5102 725.106 90.334 727.829 88.7623C730.551 87.1302 733.576 86.3141 736.904 86.3141V102.726H732.639C728.767 102.726 725.862 103.572 723.926 105.265C721.99 106.897 721.022 109.799 721.022 113.97V137.454H705.503V86.8582H721.022V95.2908Z" fill="white"/>
<path d="M540.521 224.403C541.042 223.492 541.806 222.748 542.811 222.171C543.816 221.594 544.961 221.306 546.246 221.306C547.623 221.306 548.861 221.632 549.959 222.283C551.058 222.934 551.924 223.854 552.557 225.045C553.189 226.216 553.506 227.583 553.506 229.146C553.506 230.69 553.189 232.066 552.557 233.275C551.924 234.484 551.049 235.423 549.932 236.093C548.833 236.762 547.605 237.097 546.246 237.097C544.924 237.097 543.76 236.809 542.755 236.232C541.768 235.656 541.024 234.921 540.521 234.028V236.846H537.98V216.2H540.521V224.403ZM550.909 229.146C550.909 227.993 550.676 226.988 550.211 226.133C549.745 225.277 549.112 224.626 548.312 224.18C547.53 223.733 546.664 223.51 545.715 223.51C544.784 223.51 543.918 223.743 543.118 224.208C542.336 224.654 541.703 225.314 541.219 226.188C540.754 227.044 540.521 228.039 540.521 229.174C540.521 230.327 540.754 231.341 541.219 232.215C541.703 233.07 542.336 233.731 543.118 234.196C543.918 234.642 544.784 234.865 545.715 234.865C546.664 234.865 547.53 234.642 548.312 234.196C549.112 233.731 549.745 233.07 550.211 232.215C550.676 231.341 550.909 230.318 550.909 229.146Z" fill="white"/>
<path d="M570.031 221.557L560.816 244.044H558.191L561.207 236.679L555.036 221.557H557.856L562.659 233.945L567.406 221.557H570.031Z" fill="white"/>
<path d="M595.333 236.846H592.792L582.571 221.362V236.846H580.03V217.372H582.571L592.792 232.829V217.372H595.333V236.846Z" fill="white"/>
<path d="M606.339 237.097C604.905 237.097 603.602 236.772 602.429 236.121C601.275 235.47 600.363 234.549 599.693 233.359C599.041 232.15 598.715 230.755 598.715 229.174C598.715 227.611 599.05 226.235 599.721 225.045C600.409 223.836 601.34 222.915 602.513 222.283C603.686 221.632 604.998 221.306 606.45 221.306C607.903 221.306 609.215 221.632 610.388 222.283C611.561 222.915 612.482 223.826 613.152 225.017C613.841 226.207 614.186 227.593 614.186 229.174C614.186 230.755 613.832 232.15 613.124 233.359C612.436 234.549 611.495 235.47 610.304 236.121C609.113 236.772 607.791 237.097 606.339 237.097ZM606.339 234.865C607.251 234.865 608.107 234.651 608.908 234.224C609.708 233.796 610.351 233.154 610.835 232.298C611.337 231.443 611.589 230.401 611.589 229.174C611.589 227.946 611.347 226.905 610.863 226.049C610.378 225.193 609.746 224.561 608.964 224.152C608.182 223.724 607.335 223.51 606.422 223.51C605.492 223.51 604.635 223.724 603.853 224.152C603.09 224.561 602.476 225.193 602.01 226.049C601.545 226.905 601.312 227.946 601.312 229.174C601.312 230.42 601.536 231.471 601.982 232.326C602.448 233.182 603.062 233.824 603.826 234.251C604.589 234.661 605.427 234.865 606.339 234.865Z" fill="white"/>
<path d="M624.201 237.097C622.767 237.097 621.464 236.772 620.291 236.121C619.137 235.47 618.225 234.549 617.555 233.359C616.903 232.15 616.577 230.755 616.577 229.174C616.577 227.611 616.912 226.235 617.583 225.045C618.271 223.836 619.202 222.915 620.375 222.283C621.548 221.632 622.86 221.306 624.312 221.306C625.764 221.306 627.077 221.632 628.25 222.283C629.423 222.915 630.344 223.826 631.014 225.017C631.703 226.207 632.047 227.593 632.047 229.174C632.047 230.755 631.694 232.15 630.986 233.359C630.297 234.549 629.357 235.47 628.166 236.121C626.974 236.772 625.653 237.097 624.201 237.097ZM624.201 234.865C625.113 234.865 625.969 234.651 626.77 234.224C627.57 233.796 628.212 233.154 628.696 232.298C629.199 231.443 629.45 230.401 629.45 229.174C629.45 227.946 629.208 226.905 628.724 226.049C628.24 225.193 627.607 224.561 626.826 224.152C626.044 223.724 625.197 223.51 624.284 223.51C623.354 223.51 622.497 223.724 621.715 224.152C620.952 224.561 620.338 225.193 619.872 226.049C619.407 226.905 619.174 227.946 619.174 229.174C619.174 230.42 619.398 231.471 619.844 232.326C620.31 233.182 620.924 233.824 621.687 234.251C622.451 234.661 623.288 234.865 624.201 234.865Z" fill="white"/>
<path d="M637.93 224.375C638.432 223.501 639.177 222.775 640.164 222.199C641.169 221.604 642.332 221.306 643.654 221.306C645.013 221.306 646.242 221.632 647.34 222.283C648.457 222.934 649.332 223.854 649.965 225.045C650.598 226.216 650.915 227.583 650.915 229.146C650.915 230.69 650.598 232.066 649.965 233.275C649.332 234.484 648.457 235.423 647.34 236.093C646.242 236.762 645.013 237.097 643.654 237.097C642.351 237.097 641.197 236.809 640.192 236.232C639.205 235.637 638.451 234.902 637.93 234.028V244.1H635.389V221.557H637.93V224.375ZM648.318 229.146C648.318 227.993 648.085 226.988 647.62 226.133C647.154 225.277 646.521 224.626 645.721 224.18C644.939 223.733 644.073 223.51 643.124 223.51C642.193 223.51 641.327 223.743 640.527 224.208C639.745 224.654 639.112 225.314 638.628 226.188C638.162 227.044 637.93 228.039 637.93 229.174C637.93 230.327 638.162 231.341 638.628 232.215C639.112 233.07 639.745 233.731 640.527 234.196C641.327 234.642 642.193 234.865 643.124 234.865C644.073 234.865 644.939 234.642 645.721 234.196C646.521 233.731 647.154 233.07 647.62 232.215C648.085 231.341 648.318 230.318 648.318 229.146Z" fill="white"/>
<path d="M-0.300049 -0.0999878H774.606V-0.499988H-0.300049V-0.0999878ZM-0.299944 226.852L509.323 226.586L509.323 226.186L-0.300153 226.452L-0.299944 226.852ZM678.616 226.584H774.606V226.184H678.616V226.584ZM56.7571 86.2235V85.8235H56.3571V86.2235H56.7571ZM56.7571 99.0991H56.3571V99.4991H56.7571V99.0991ZM77.54 99.0991H77.94V98.6991H77.54V99.0991ZM77.54 111.068V111.468H77.94V111.068H77.54ZM56.7571 111.068V110.668H56.3571V111.068H56.7571ZM56.7571 125.032H56.3571V125.432H56.7571V125.032ZM80.2626 125.032H80.6626V124.632H80.2626V125.032ZM80.2626 137.454V137.854H80.6626V137.454H80.2626ZM41.238 137.454H40.838V137.854H41.238V137.454ZM41.238 73.8012V73.4012H40.838V73.8012H41.238ZM80.2626 73.8012H80.6626V73.4012H80.2626V73.8012ZM80.2626 86.2235V86.6235H80.6626V86.2235H80.2626ZM113.117 122.946L112.735 123.063L113.117 124.32L113.5 123.063L113.117 122.946ZM124.099 86.8582V86.4582H123.802L123.716 86.7417L124.099 86.8582ZM140.616 86.8582L140.993 86.992L141.183 86.4582H140.616V86.8582ZM122.647 137.454V137.854H122.929L123.023 137.588L122.647 137.454ZM103.497 137.454L103.12 137.588L103.215 137.854H103.497V137.454ZM85.5278 86.8582V86.4582H84.9613L85.1509 86.992L85.5278 86.8582ZM102.136 86.8582L102.519 86.7417L102.432 86.4582H102.136V86.8582ZM194.613 115.874V116.274H194.969L195.01 115.92L194.613 115.874ZM159.491 115.874V115.474H159.059L159.092 115.904L159.491 115.874ZM162.486 123.128L162.208 123.416L162.218 123.425L162.486 123.128ZM177.188 120.679V120.279H176.933L176.825 120.511L177.188 120.679ZM193.705 120.679L194.093 120.778L194.22 120.279H193.705V120.679ZM189.077 129.656L188.771 129.398L188.767 129.403L189.077 129.656ZM156.405 135.006L156.213 135.357L156.213 135.357L156.405 135.006ZM147.33 125.938L147.68 125.745L147.68 125.745L147.33 125.938ZM147.239 98.3737L146.889 98.1798L146.887 98.1839L147.239 98.3737ZM156.314 89.3064L156.506 89.6574L156.506 89.6574L156.314 89.3064ZM182.724 89.2157L182.534 89.5678L182.534 89.5678L182.724 89.2157ZM191.618 98.011L191.268 98.2054L191.271 98.2096L191.618 98.011ZM179.003 107.26V107.66H179.403V107.26H179.003ZM176.28 100.913L176.542 100.61L176.542 100.61L176.28 100.913ZM162.849 100.822L162.593 100.514L162.588 100.519L162.849 100.822ZM159.582 107.26L159.186 107.199L159.116 107.66H159.582V107.26ZM248.087 92.1172L247.79 92.386L247.795 92.3908L248.087 92.1172ZM253.441 137.454V137.854H253.841V137.454H253.441ZM238.013 137.454H237.613V137.854H238.013V137.454ZM235.381 102.091L235.089 102.365L235.089 102.365L235.381 102.091ZM221.223 102.091L221.515 102.365L221.515 102.365L221.223 102.091ZM218.591 137.454V137.854H218.991V137.454H218.591ZM203.072 137.454H202.672V137.854H203.072V137.454ZM203.072 86.8582V86.4582H202.672V86.8582H203.072ZM218.591 86.8582H218.991V86.4582H218.591V86.8582ZM218.591 93.568H218.191V94.832L218.919 93.7981L218.591 93.568ZM224.944 88.309L225.116 88.6701L225.123 88.6668L224.944 88.309ZM292.45 124.306H292.85V123.906H292.45V124.306ZM292.45 137.454V137.854H292.85V137.454H292.45ZM271.395 133.374L271.13 133.673L271.133 133.676L271.395 133.374ZM266.676 99.7338H267.076V99.3338H266.676V99.7338ZM260.504 99.7338H260.104V100.134H260.504V99.7338ZM260.504 86.8582V86.4582H260.104V86.8582H260.504ZM266.676 86.8582V87.2582H267.076V86.8582H266.676ZM266.676 74.5266V74.1266H266.276V74.5266H266.676ZM282.195 74.5266H282.595V74.1266H282.195V74.5266ZM282.195 86.8582H281.795V87.2582H282.195V86.8582ZM292.359 86.8582H292.759V86.4582H292.359V86.8582ZM292.359 99.7338V100.134H292.759V99.7338H292.359ZM282.195 99.7338V99.3338H281.795V99.7338H282.195ZM283.284 123.309L283.014 123.604L283.014 123.604L283.284 123.309ZM392.477 73.8012H392.877V73.4012H392.477V73.8012ZM392.477 137.454V137.854H392.877V137.454H392.477ZM376.958 137.454H376.558V137.854H376.958V137.454ZM376.958 99.2804H377.358L376.583 99.1406L376.958 99.2804ZM362.709 137.454V137.854H362.987L363.084 137.594L362.709 137.454ZM350.185 137.454L349.811 137.594L349.908 137.854H350.185V137.454ZM335.846 99.1898L336.22 99.0494L335.446 99.1898H335.846ZM335.846 137.454V137.854H336.246V137.454H335.846ZM320.327 137.454H319.927V137.854H320.327V137.454ZM320.327 73.8012V73.4012H319.927V73.8012H320.327ZM338.659 73.8012L339.03 73.6508L338.929 73.4012H338.659V73.8012ZM356.538 117.869L356.167 118.019L356.54 118.937L356.909 118.018L356.538 117.869ZM374.235 73.8012V73.4012H373.965L373.864 73.6521L374.235 73.8012ZM403.455 98.3737L403.099 98.1925L403.097 98.1969L403.455 98.3737ZM411.533 89.3064L411.744 89.6456L411.744 89.6456L411.533 89.3064ZM432.225 88.309L432.033 88.6602L432.037 88.662L432.225 88.309ZM438.487 94.0214L438.146 94.2312L438.887 95.4335V94.0214H438.487ZM438.487 86.8582V86.4582H438.087V86.8582H438.487ZM454.006 86.8582H454.406V86.4582H454.006V86.8582ZM454.006 137.454V137.854H454.406V137.454H454.006ZM438.487 137.454H438.087V137.854H438.487V137.454ZM438.487 130.291H438.887V128.927L438.15 130.075L438.487 130.291ZM432.134 136.003L431.946 135.65L431.943 135.652L432.134 136.003ZM411.533 135.006L411.316 135.342L411.321 135.345L411.533 135.006ZM403.455 125.848L403.095 126.022L403.099 126.029L403.455 125.848ZM435.22 102.998L434.929 103.273L434.933 103.277L435.22 102.998ZM419.519 102.998L419.232 102.719L419.232 102.719L419.519 102.998ZM419.519 121.314L419.225 121.585L419.232 121.593L419.519 121.314ZM435.22 121.314L434.933 121.035L434.929 121.039L435.22 121.314ZM510.248 92.1172L509.951 92.386L509.956 92.3908L510.248 92.1172ZM515.602 137.454V137.854H516.002V137.454H515.602ZM500.174 137.454H499.774V137.854H500.174V137.454ZM497.542 102.091L497.25 102.365L497.25 102.365L497.542 102.091ZM483.384 102.091L483.676 102.365L483.676 102.365L483.384 102.091ZM480.752 137.454V137.854H481.152V137.454H480.752ZM465.233 137.454H464.833V137.854H465.233V137.454ZM465.233 86.8582V86.4582H464.833V86.8582H465.233ZM480.752 86.8582H481.152V86.4582H480.752V86.8582ZM480.752 93.568H480.352V94.832L481.079 93.7981L480.752 93.568ZM487.105 88.309L487.277 88.6701L487.284 88.6668L487.105 88.309ZM526.205 98.3737L525.848 98.1925L525.846 98.1969L526.205 98.3737ZM534.282 89.3064L534.494 89.6456L534.494 89.6456L534.282 89.3064ZM554.974 88.309L554.783 88.6602L554.786 88.662L554.974 88.309ZM561.236 94.0214L560.896 94.2312L561.636 95.4335V94.0214H561.236ZM561.236 86.8582V86.4582H560.836V86.8582H561.236ZM576.755 86.8582H577.155V86.4582H576.755V86.8582ZM576.755 137.454V137.854H577.155V137.454H576.755ZM561.236 137.454H560.836V137.854H561.236V137.454ZM561.236 130.291H561.636V128.927L560.9 130.075L561.236 130.291ZM554.883 136.003L554.695 135.65L554.692 135.652L554.883 136.003ZM534.282 135.006L534.066 135.342L534.07 135.345L534.282 135.006ZM526.205 125.848L525.845 126.022L525.848 126.029L526.205 125.848ZM557.969 102.998L557.679 103.273L557.682 103.277L557.969 102.998ZM542.268 102.998L541.982 102.719L541.982 102.719L542.268 102.998ZM542.268 121.314L541.974 121.585L541.982 121.593L542.268 121.314ZM557.969 121.314L557.682 121.035L557.679 121.039L557.969 121.314ZM616.57 88.309L616.379 88.6602L616.382 88.662L616.57 88.309ZM622.832 94.0214L622.492 94.2312L623.232 95.4335V94.0214H622.832ZM622.832 86.8582V86.4582H622.432V86.8582H622.832ZM638.352 86.8582H638.752V86.4582H638.352V86.8582ZM635.538 149.967L635.18 149.788L635.177 149.795L635.538 149.967ZM627.098 159.034L626.895 158.689L626.893 158.691L627.098 159.034ZM594.789 157.039L595.032 156.722L595.03 156.72L594.789 157.039ZM586.803 142.713V142.313H586.356L586.405 142.757L586.803 142.713ZM602.14 142.713L602.528 142.616L602.453 142.313H602.14V142.713ZM605.589 147.247L605.803 146.909L605.795 146.904L605.589 147.247ZM619.928 146.159L619.655 145.867L619.646 145.876L619.928 146.159ZM622.832 130.2H623.232V128.836L622.496 129.984L622.832 130.2ZM616.57 136.003L616.762 136.355L616.768 136.351L616.57 136.003ZM595.878 135.006L595.662 135.342L595.666 135.345L595.878 135.006ZM587.801 125.848L587.441 126.022L587.444 126.029L587.801 125.848ZM587.801 98.3737L587.444 98.1925L587.442 98.1969L587.801 98.3737ZM595.878 89.3064L596.09 89.6456L596.09 89.6456L595.878 89.3064ZM619.565 102.998L619.275 103.273L619.279 103.277L619.565 102.998ZM603.865 102.998L603.578 102.719L603.578 102.719L603.865 102.998ZM603.865 121.314L603.571 121.585L603.578 121.593L603.865 121.314ZM619.565 121.314L619.279 121.035L619.275 121.039L619.565 121.314ZM697.044 115.874V116.274H697.4L697.441 115.92L697.044 115.874ZM661.922 115.874V115.474H661.49L661.523 115.904L661.922 115.874ZM664.916 123.128L664.639 123.416L664.649 123.425L664.916 123.128ZM679.619 120.679V120.279H679.363L679.256 120.511L679.619 120.679ZM696.136 120.679L696.524 120.778L696.651 120.279H696.136V120.679ZM691.508 129.656L691.202 129.398L691.198 129.403L691.508 129.656ZM658.836 135.006L658.644 135.357L658.644 135.357L658.836 135.006ZM649.76 125.938L650.11 125.745L650.11 125.745L649.76 125.938ZM649.67 98.3737L649.32 98.1798L649.318 98.1839L649.67 98.3737ZM658.745 89.3064L658.937 89.6574L658.937 89.6574L658.745 89.3064ZM685.155 89.2157L684.965 89.5678L684.965 89.5678L685.155 89.2157ZM694.049 98.011L693.699 98.2054L693.702 98.2096L694.049 98.011ZM681.434 107.26V107.66H681.834V107.26H681.434ZM678.711 100.913L678.973 100.61L678.973 100.61L678.711 100.913ZM665.279 100.822L665.024 100.514L665.018 100.519L665.279 100.822ZM662.012 107.26L661.617 107.199L661.547 107.66H662.012V107.26ZM721.022 95.2908H720.622V96.6354L721.357 95.5095L721.022 95.2908ZM727.829 88.7623L728.029 89.1088L728.034 89.1054L727.829 88.7623ZM736.904 86.3141H737.304V85.9141H736.904V86.3141ZM736.904 102.726V103.126H737.304V102.726H736.904ZM723.926 105.265L724.184 105.571L724.19 105.566L723.926 105.265ZM721.022 137.454V137.854H721.422V137.454H721.022ZM705.503 137.454H705.103V137.854H705.503V137.454ZM705.503 86.8582V86.4582H705.103V86.8582H705.503ZM721.022 86.8582H721.422V86.4582H721.022V86.8582ZM540.521 224.403H540.121V225.908L540.868 224.602L540.521 224.403ZM542.811 222.171L543.01 222.518L543.01 222.518L542.811 222.171ZM549.959 222.283L550.163 221.938L550.163 221.938L549.959 222.283ZM552.557 225.045L552.203 225.232L552.205 225.235L552.557 225.045ZM552.557 233.275L552.911 233.46L552.911 233.46L552.557 233.275ZM549.932 236.093L549.726 235.75L549.723 235.751L549.932 236.093ZM542.755 236.232L542.553 236.578L542.556 236.579L542.755 236.232ZM540.521 234.028L540.87 233.832L540.121 232.502V234.028H540.521ZM540.521 236.846V237.246H540.921V236.846H540.521ZM537.98 236.846H537.58V237.246H537.98V236.846ZM537.98 216.2V215.8H537.58V216.2H537.98ZM540.521 216.2H540.921V215.8H540.521V216.2ZM550.211 226.133L550.562 225.942L550.562 225.942L550.211 226.133ZM548.312 224.18L548.114 224.527L548.117 224.529L548.312 224.18ZM543.118 224.208L543.316 224.555L543.319 224.553L543.118 224.208ZM541.219 226.188L540.869 225.995L540.868 225.997L541.219 226.188ZM541.219 232.215L540.866 232.403L540.871 232.412L541.219 232.215ZM543.118 234.196L542.913 234.54L542.923 234.545L543.118 234.196ZM548.312 234.196L548.51 234.543L548.513 234.542L548.312 234.196ZM550.211 232.215L550.562 232.406L550.564 232.403L550.211 232.215ZM570.031 221.557L570.401 221.709L570.627 221.157H570.031V221.557ZM560.816 244.044V244.444H561.084L561.186 244.196L560.816 244.044ZM558.191 244.044L557.821 243.893L557.595 244.444H558.191V244.044ZM561.207 236.679L561.577 236.83L561.639 236.679L561.577 236.528L561.207 236.679ZM555.036 221.557V221.157H554.44L554.665 221.708L555.036 221.557ZM557.856 221.557L558.229 221.413L558.13 221.157H557.856V221.557ZM562.659 233.945L562.286 234.089L562.661 235.057L563.033 234.088L562.659 233.945ZM567.406 221.557V221.157H567.131L567.033 221.414L567.406 221.557ZM595.333 236.846V237.246H595.733V236.846H595.333ZM592.792 236.846L592.458 237.066L592.577 237.246H592.792V236.846ZM582.571 221.362L582.905 221.142L582.171 220.03V221.362H582.571ZM582.571 236.846V237.246H582.971V236.846H582.571ZM580.03 236.846H579.63V237.246H580.03V236.846ZM580.03 217.372V216.972H579.63V217.372H580.03ZM582.571 217.372L582.905 217.152L582.786 216.972H582.571V217.372ZM592.792 232.829L592.458 233.049L593.192 234.159V232.829H592.792ZM592.792 217.372V216.972H592.392V217.372H592.792ZM595.333 217.372H595.733V216.972H595.333V217.372ZM602.429 236.121L602.233 236.469L602.235 236.47L602.429 236.121ZM599.693 233.359L599.34 233.548L599.344 233.555L599.693 233.359ZM599.721 225.045L599.373 224.847L599.372 224.848L599.721 225.045ZM602.513 222.283L602.703 222.635L602.707 222.632L602.513 222.283ZM610.388 222.283L610.194 222.632L610.198 222.635L610.388 222.283ZM613.152 225.017L612.804 225.213L612.806 225.217L613.152 225.017ZM613.124 233.359L612.779 233.157L612.778 233.158L613.124 233.359ZM610.304 236.121L610.496 236.472L610.496 236.472L610.304 236.121ZM610.835 232.298L610.49 232.096L610.486 232.102L610.835 232.298ZM608.964 224.152L608.772 224.503L608.778 224.506L608.964 224.152ZM603.853 224.152L604.042 224.504L604.045 224.503L603.853 224.152ZM602.01 226.049L602.362 226.24L602.362 226.24L602.01 226.049ZM601.982 232.326L601.628 232.512L601.631 232.518L601.982 232.326ZM603.826 234.251L603.63 234.6L603.637 234.604L603.826 234.251ZM620.291 236.121L620.095 236.469L620.097 236.47L620.291 236.121ZM617.555 233.359L617.202 233.548L617.206 233.555L617.555 233.359ZM617.583 225.045L617.235 224.847L617.234 224.848L617.583 225.045ZM620.375 222.283L620.565 222.635L620.569 222.632L620.375 222.283ZM628.25 222.283L628.056 222.632L628.06 222.635L628.25 222.283ZM631.014 225.017L630.666 225.213L630.668 225.217L631.014 225.017ZM630.986 233.359L630.641 233.157L630.64 233.158L630.986 233.359ZM628.166 236.121L628.358 236.472L628.358 236.472L628.166 236.121ZM628.696 232.298L628.352 232.096L628.348 232.102L628.696 232.298ZM626.826 224.152L626.633 224.503L626.64 224.506L626.826 224.152ZM621.715 224.152L621.904 224.504L621.907 224.503L621.715 224.152ZM619.872 226.049L620.224 226.24L620.224 226.24L619.872 226.049ZM619.844 232.326L619.49 232.512L619.493 232.518L619.844 232.326ZM621.687 234.251L621.492 234.6L621.498 234.604L621.687 234.251ZM637.93 224.375H637.53V225.873L638.276 224.574L637.93 224.375ZM640.164 222.199L640.365 222.544L640.367 222.543L640.164 222.199ZM647.34 222.283L647.136 222.627L647.139 222.628L647.34 222.283ZM649.965 225.045L649.612 225.232L649.613 225.235L649.965 225.045ZM649.965 233.275L650.32 233.46L650.32 233.46L649.965 233.275ZM647.34 236.093L647.135 235.75L647.132 235.751L647.34 236.093ZM640.192 236.232L639.985 236.575L639.993 236.579L640.192 236.232ZM637.93 234.028L638.273 233.823L637.53 232.576V234.028H637.93ZM637.93 244.1V244.5H638.33V244.1H637.93ZM635.389 244.1H634.989V244.5H635.389V244.1ZM635.389 221.557V221.157H634.989V221.557H635.389ZM637.93 221.557H638.33V221.157H637.93V221.557ZM647.62 226.133L647.971 225.942L647.971 225.942L647.62 226.133ZM645.721 224.18L645.522 224.527L645.526 224.529L645.721 224.18ZM640.527 224.208L640.725 224.555L640.728 224.553L640.527 224.208ZM638.628 226.188L638.278 225.995L638.276 225.997L638.628 226.188ZM638.628 232.215L638.275 232.403L638.28 232.412L638.628 232.215ZM640.527 234.196L640.322 234.54L640.332 234.545L640.527 234.196ZM645.721 234.196L645.919 234.543L645.922 234.542L645.721 234.196ZM647.62 232.215L647.971 232.406L647.973 232.403L647.62 232.215ZM56.3571 86.2235V99.0991H57.1571V86.2235H56.3571ZM56.7571 99.4991H77.54V98.6991H56.7571V99.4991ZM77.14 99.0991V111.068H77.94V99.0991H77.14ZM77.54 110.668H56.7571V111.468H77.54V110.668ZM56.3571 111.068V125.032H57.1571V111.068H56.3571ZM56.7571 125.432H80.2626V124.632H56.7571V125.432ZM79.8626 125.032V137.454H80.6626V125.032H79.8626ZM80.2626 137.054H41.238V137.854H80.2626V137.054ZM41.638 137.454V73.8012H40.838V137.454H41.638ZM41.238 74.2012H80.2626V73.4012H41.238V74.2012ZM79.8626 73.8012V86.2235H80.6626V73.8012H79.8626ZM80.2626 85.8235H56.7571V86.6235H80.2626V85.8235ZM113.5 123.063L124.481 86.9746L123.716 86.7417L112.735 122.83L113.5 123.063ZM124.099 87.2582H140.616V86.4582H124.099V87.2582ZM140.239 86.7243L122.27 137.32L123.023 137.588L140.993 86.992L140.239 86.7243ZM122.647 137.054H103.497V137.854H122.647V137.054ZM103.874 137.32L85.9047 86.7243L85.1509 86.992L103.12 137.588L103.874 137.32ZM85.5278 87.2582H102.136V86.4582H85.5278V87.2582ZM101.753 86.9746L112.735 123.063L113.5 122.83L102.519 86.7417L101.753 86.9746ZM194.485 111.34C194.485 112.774 194.396 114.27 194.216 115.828L195.01 115.92C195.193 114.334 195.285 112.807 195.285 111.34H194.485ZM194.613 115.474H159.491V116.274H194.613V115.474ZM159.092 115.904C159.339 119.116 160.364 121.637 162.208 123.415L162.763 122.84C161.098 121.233 160.126 118.918 159.89 115.843L159.092 115.904ZM162.218 123.425C164.112 125.128 166.418 125.976 169.111 125.976V125.176C166.601 125.176 164.49 124.392 162.753 122.83L162.218 123.425ZM169.111 125.976C171.103 125.976 172.82 125.556 174.242 124.694C175.665 123.831 176.766 122.541 177.551 120.848L176.825 120.511C176.097 122.082 175.096 123.24 173.827 124.01C172.556 124.78 170.991 125.176 169.111 125.176V125.976ZM177.188 121.079H193.705V120.279H177.188V121.079ZM193.318 120.581C192.486 123.846 190.971 126.784 188.771 129.399L189.383 129.914C191.66 127.208 193.231 124.162 194.093 120.778L193.318 120.581ZM188.767 129.403C186.631 132.012 183.928 134.061 180.653 135.548L180.984 136.277C184.364 134.742 187.167 132.62 189.386 129.91L188.767 129.403ZM180.653 135.548C177.383 137.033 173.72 137.779 169.655 137.779V138.579C173.819 138.579 177.598 137.814 180.984 136.277L180.653 135.548ZM169.655 137.779C164.753 137.779 160.403 136.735 156.597 134.655L156.213 135.357C160.151 137.509 164.636 138.579 169.655 138.579V137.779ZM156.597 134.655C152.793 132.576 149.822 129.609 147.68 125.745L146.98 126.132C149.194 130.127 152.273 133.204 156.213 135.357L156.597 134.655ZM147.68 125.745C145.54 121.884 144.463 117.359 144.463 112.156H143.663C143.663 117.471 144.764 122.134 146.98 126.132L147.68 125.745ZM144.463 112.156C144.463 106.951 145.51 102.425 147.591 98.5635L146.887 98.1839C144.733 102.181 143.663 106.843 143.663 112.156H144.463ZM147.589 98.5676C149.731 94.7035 152.702 91.7361 156.506 89.6574L156.123 88.9553C152.183 91.1081 149.103 94.1856 146.889 98.1798L147.589 98.5676ZM156.506 89.6574C160.312 87.578 164.691 86.5328 169.655 86.5328V85.7328C164.576 85.7328 160.061 86.8033 156.123 88.9553L156.506 89.6574ZM169.655 86.5328C174.499 86.5328 178.788 87.5479 182.534 89.5678L182.914 88.8636C179.037 86.7729 174.614 85.7328 169.655 85.7328V86.5328ZM182.534 89.5678C186.278 91.5866 189.188 94.4634 191.268 98.2054L191.968 97.8166C189.813 93.942 186.793 90.9554 182.914 88.8636L182.534 89.5678ZM191.271 98.2096C193.409 101.948 194.485 106.321 194.485 111.34H195.285C195.285 106.204 194.183 101.69 191.965 97.8124L191.271 98.2096ZM179.403 107.26C179.403 104.498 178.455 102.267 176.542 100.61L176.019 101.215C177.736 102.702 178.603 104.702 178.603 107.26H179.403ZM176.542 100.61C174.645 98.9671 172.279 98.1551 169.474 98.1551V98.9551C172.114 98.9551 174.286 99.7147 176.019 101.215L176.542 100.61ZM169.474 98.1551C166.789 98.1551 164.487 98.9373 162.593 100.514L163.105 101.129C164.841 99.6841 166.956 98.9551 169.474 98.9551V98.1551ZM162.588 100.519C160.746 102.105 159.621 104.346 159.186 107.199L159.977 107.32C160.389 104.613 161.442 102.561 163.11 101.125L162.588 100.519ZM159.582 107.66H179.003V106.86H159.582V107.66ZM233.929 86.7141C239.762 86.7141 244.368 88.6126 247.79 92.386L248.383 91.8485C244.787 87.8844 239.954 85.9141 233.929 85.9141V86.7141ZM247.795 92.3908C251.277 96.1056 253.041 101.256 253.041 107.894H253.841C253.841 101.113 252.036 95.7455 248.379 91.8437L247.795 92.3908ZM253.041 107.894V137.454H253.841V107.894H253.041ZM253.441 137.054H238.013V137.854H253.441V137.054ZM238.413 137.454V109.98H237.613V137.454H238.413ZM238.413 109.98C238.413 106.526 237.517 103.787 235.673 101.818L235.089 102.365C236.754 104.143 237.613 106.663 237.613 109.98H238.413ZM235.673 101.818C233.831 99.8505 231.359 98.8804 228.302 98.8804V99.6804C231.175 99.6804 233.422 100.584 235.089 102.365L235.673 101.818ZM228.302 98.8804C225.246 98.8804 222.773 99.8505 220.931 101.818L221.515 102.365C223.182 100.584 225.429 99.6804 228.302 99.6804V98.8804ZM220.931 101.818C219.087 103.787 218.191 106.526 218.191 109.98H218.991C218.991 106.663 219.85 104.143 221.515 102.365L220.931 101.818ZM218.191 109.98V137.454H218.991V109.98H218.191ZM218.591 137.054H203.072V137.854H218.591V137.054ZM203.472 137.454V86.8582H202.672V137.454H203.472ZM203.072 87.2582H218.591V86.4582H203.072V87.2582ZM218.191 86.8582V93.568H218.991V86.8582H218.191ZM218.919 93.7981C220.449 91.6222 222.511 89.9122 225.116 88.67L224.772 87.9479C222.053 89.2445 219.88 91.0407 218.264 93.3379L218.919 93.7981ZM225.123 88.6668C227.723 87.3678 230.656 86.7141 233.929 86.7141V85.9141C230.547 85.9141 227.489 86.5904 224.765 87.9511L225.123 88.6668ZM292.05 124.306V137.454H292.85V124.306H292.05ZM292.45 137.054H284.555V137.854H292.45V137.054ZM284.555 137.054C278.99 137.054 274.708 135.709 271.657 133.071L271.133 133.676C274.375 136.479 278.866 137.854 284.555 137.854V137.054ZM271.66 133.074C268.634 130.4 267.076 126.031 267.076 119.863H266.276C266.276 126.148 267.864 130.786 271.13 133.673L271.66 133.074ZM267.076 119.863V99.7338H266.276V119.863H267.076ZM266.676 99.3338H260.504V100.134H266.676V99.3338ZM260.904 99.7338V86.8582H260.104V99.7338H260.904ZM260.504 87.2582H266.676V86.4582H260.504V87.2582ZM267.076 86.8582V74.5266H266.276V86.8582H267.076ZM266.676 74.9266H282.195V74.1266H266.676V74.9266ZM281.795 74.5266V86.8582H282.595V74.5266H281.795ZM282.195 87.2582H292.359V86.4582H282.195V87.2582ZM291.959 86.8582V99.7338H292.759V86.8582H291.959ZM292.359 99.3338H282.195V100.134H292.359V99.3338ZM281.795 99.7338V120.045H282.595V99.7338H281.795ZM281.795 120.045C281.795 121.609 282.169 122.831 283.014 123.604L283.554 123.014C282.946 122.457 282.595 121.503 282.595 120.045H281.795ZM283.014 123.604C283.851 124.371 285.186 124.706 286.914 124.706V123.906C285.254 123.906 284.169 123.577 283.554 123.014L283.014 123.604ZM286.914 124.706H292.45V123.906H286.914V124.706ZM392.077 73.8012V137.454H392.877V73.8012H392.077ZM392.477 137.054H376.958V137.854H392.477V137.054ZM377.358 137.454V99.2804H376.558V137.454H377.358ZM376.583 99.1406L362.335 137.314L363.084 137.594L377.333 99.4203L376.583 99.1406ZM362.709 137.054H350.185V137.854H362.709V137.054ZM350.56 137.314L336.22 99.0494L335.471 99.3301L349.811 137.594L350.56 137.314ZM335.446 99.1898V137.454H336.246V99.1898H335.446ZM335.846 137.054H320.327V137.854H335.846V137.054ZM320.727 137.454V73.8012H319.927V137.454H320.727ZM320.327 74.2012H338.659V73.4012H320.327V74.2012ZM338.289 73.9516L356.167 118.019L356.909 117.718L339.03 73.6508L338.289 73.9516ZM356.909 118.018L374.606 73.9503L373.864 73.6521L356.167 117.719L356.909 118.018ZM374.235 74.2012H392.477V73.4012H374.235V74.2012ZM400.951 112.065C400.951 106.917 401.91 102.415 403.814 98.5505L403.097 98.1969C401.129 102.19 400.151 106.817 400.151 112.065H400.951ZM403.812 98.5549C405.779 94.6837 408.424 91.7189 411.744 89.6456L411.321 88.9671C407.865 91.1252 405.125 94.2054 403.099 98.1925L403.812 98.5549ZM411.744 89.6456C415.066 87.5714 418.774 86.5328 422.877 86.5328V85.7328C418.631 85.7328 414.775 86.8098 411.321 88.9671L411.744 89.6456ZM422.877 86.5328C426.392 86.5328 429.439 87.2467 432.033 88.6602L432.416 87.9577C429.686 86.4697 426.502 85.7328 422.877 85.7328V86.5328ZM432.037 88.662C434.704 90.0833 436.735 91.9408 438.146 94.2312L438.827 93.8116C437.334 91.387 435.191 89.4362 432.413 87.9559L432.037 88.662ZM438.887 94.0214V86.8582H438.087V94.0214H438.887ZM438.487 87.2582H454.006V86.4582H438.487V87.2582ZM453.606 86.8582V137.454H454.406V86.8582H453.606ZM454.006 137.054H438.487V137.854H454.006V137.054ZM438.887 137.454V130.291H438.087V137.454H438.887ZM438.15 130.075C436.678 132.369 434.614 134.228 431.946 135.65L432.322 136.356C435.099 134.877 437.27 132.928 438.823 130.507L438.15 130.075ZM431.943 135.652C429.349 137.066 426.301 137.779 422.786 137.779V138.579C426.411 138.579 429.595 137.842 432.325 136.354L431.943 135.652ZM422.786 137.779C418.745 137.779 415.067 136.741 411.744 134.667L411.321 135.345C414.774 137.502 418.599 138.579 422.786 138.579V137.779ZM411.749 134.669C408.426 132.535 405.78 129.539 403.812 125.667L403.099 126.029C405.124 130.015 407.863 133.124 411.316 135.342L411.749 134.669ZM403.815 125.673C401.91 121.747 400.951 117.214 400.951 112.065H400.151C400.151 117.314 401.129 121.97 403.096 126.022L403.815 125.673ZM438.887 112.156C438.887 108.209 437.773 105.047 435.506 102.719L434.933 103.277C437.022 105.422 438.087 108.365 438.087 112.156H438.887ZM435.51 102.723C433.317 100.406 430.61 99.2431 427.415 99.2431V100.043C430.391 100.043 432.887 101.116 434.929 103.273L435.51 102.723ZM427.415 99.2431C424.22 99.2431 421.485 100.406 419.232 102.719L419.806 103.277C421.909 101.117 424.438 100.043 427.415 100.043V99.2431ZM419.232 102.719C417.024 104.989 415.943 108.122 415.943 112.065H416.743C416.743 108.271 417.779 105.36 419.806 103.277L419.232 102.719ZM415.943 112.065C415.943 116.01 417.024 119.198 419.225 121.585L419.813 121.043C417.779 118.836 416.743 115.859 416.743 112.065H415.943ZM419.232 121.593C421.485 123.906 424.22 125.069 427.415 125.069V124.269C424.438 124.269 421.909 123.195 419.806 121.035L419.232 121.593ZM427.415 125.069C430.61 125.069 433.317 123.906 435.51 121.589L434.929 121.039C432.887 123.196 430.391 124.269 427.415 124.269V125.069ZM435.506 121.593C437.773 119.265 438.887 116.103 438.887 112.156H438.087C438.087 115.947 437.022 118.89 434.933 121.035L435.506 121.593ZM496.09 86.7141C501.923 86.7141 506.529 88.6126 509.951 92.386L510.544 91.8485C506.948 87.8844 502.115 85.9141 496.09 85.9141V86.7141ZM509.956 92.3908C513.438 96.1056 515.202 101.256 515.202 107.894H516.002C516.002 101.113 514.197 95.7455 510.539 91.8437L509.956 92.3908ZM515.202 107.894V137.454H516.002V107.894H515.202ZM515.602 137.054H500.174V137.854H515.602V137.054ZM500.574 137.454V109.98H499.774V137.454H500.574ZM500.574 109.98C500.574 106.526 499.678 103.787 497.834 101.818L497.25 102.365C498.915 104.143 499.774 106.663 499.774 109.98H500.574ZM497.834 101.818C495.992 99.8505 493.52 98.8804 490.463 98.8804V99.6804C493.336 99.6804 495.583 100.584 497.25 102.365L497.834 101.818ZM490.463 98.8804C487.406 98.8804 484.934 99.8505 483.092 101.818L483.676 102.365C485.343 100.584 487.59 99.6804 490.463 99.6804V98.8804ZM483.092 101.818C481.248 103.787 480.352 106.526 480.352 109.98H481.152C481.152 106.663 482.011 104.143 483.676 102.365L483.092 101.818ZM480.352 109.98V137.454H481.152V109.98H480.352ZM480.752 137.054H465.233V137.854H480.752V137.054ZM465.633 137.454V86.8582H464.833V137.454H465.633ZM465.233 87.2582H480.752V86.4582H465.233V87.2582ZM480.352 86.8582V93.568H481.152V86.8582H480.352ZM481.079 93.7981C482.61 91.6222 484.672 89.9122 487.277 88.67L486.933 87.9479C484.214 89.2445 482.041 91.0407 480.425 93.3379L481.079 93.7981ZM487.284 88.6668C489.884 87.3678 492.817 86.7141 496.09 86.7141V85.9141C492.707 85.9141 489.65 86.5904 486.926 87.9511L487.284 88.6668ZM523.701 112.065C523.701 106.917 524.659 102.415 526.564 98.5505L525.846 98.1969C523.878 102.19 522.901 106.817 522.901 112.065H523.701ZM526.561 98.5549C528.529 94.6837 531.174 91.7189 534.494 89.6456L534.07 88.9671C530.614 91.1252 527.874 94.2054 525.848 98.1925L526.561 98.5549ZM534.494 89.6456C537.816 87.5714 541.523 86.5328 545.626 86.5328V85.7328C541.38 85.7328 537.525 86.8098 534.07 88.9671L534.494 89.6456ZM545.626 86.5328C549.141 86.5328 552.189 87.2467 554.783 88.6602L555.165 87.9577C552.435 86.4697 549.251 85.7328 545.626 85.7328V86.5328ZM554.786 88.662C557.453 90.0833 559.485 91.9408 560.896 94.2312L561.577 93.8116C560.083 91.387 557.94 89.4362 555.162 87.9559L554.786 88.662ZM561.636 94.0214V86.8582H560.836V94.0214H561.636ZM561.236 87.2582H576.755V86.4582H561.236V87.2582ZM576.355 86.8582V137.454H577.155V86.8582H576.355ZM576.755 137.054H561.236V137.854H576.755V137.054ZM561.636 137.454V130.291H560.836V137.454H561.636ZM560.9 130.075C559.428 132.369 557.364 134.228 554.695 135.65L555.071 136.356C557.848 134.877 560.02 132.928 561.573 130.507L560.9 130.075ZM554.692 135.652C552.098 137.066 549.05 137.779 545.536 137.779V138.579C549.16 138.579 552.344 137.842 555.075 136.354L554.692 135.652ZM545.536 137.779C541.494 137.779 537.817 136.741 534.494 134.667L534.07 135.345C537.524 137.502 541.349 138.579 545.536 138.579V137.779ZM534.498 134.669C531.175 132.535 528.529 129.539 526.561 125.667L525.848 126.029C527.874 130.015 530.612 133.124 534.066 135.342L534.498 134.669ZM526.565 125.673C524.659 121.747 523.701 117.214 523.701 112.065H522.901C522.901 117.314 523.878 121.97 525.845 126.022L526.565 125.673ZM561.636 112.156C561.636 108.209 560.523 105.047 558.256 102.719L557.682 103.277C559.771 105.422 560.836 108.365 560.836 112.156H561.636ZM558.259 102.723C556.066 100.406 553.359 99.2431 550.164 99.2431V100.043C553.14 100.043 555.637 101.116 557.679 103.273L558.259 102.723ZM550.164 99.2431C546.969 99.2431 544.234 100.406 541.982 102.719L542.555 103.277C544.659 101.117 547.188 100.043 550.164 100.043V99.2431ZM541.982 102.719C539.773 104.989 538.692 108.122 538.692 112.065H539.492C539.492 108.271 540.529 105.36 542.555 103.277L541.982 102.719ZM538.692 112.065C538.692 116.01 539.773 119.198 541.974 121.585L542.563 121.043C540.528 118.836 539.492 115.859 539.492 112.065H538.692ZM541.982 121.593C544.234 123.906 546.969 125.069 550.164 125.069V124.269C547.188 124.269 544.659 123.195 542.555 121.035L541.982 121.593ZM550.164 125.069C553.359 125.069 556.066 123.906 558.259 121.589L557.679 121.039C555.637 123.196 553.14 124.269 550.164 124.269V125.069ZM558.256 121.593C560.523 119.265 561.636 116.103 561.636 112.156H560.836C560.836 115.947 559.771 118.89 557.682 121.035L558.256 121.593ZM607.223 86.5328C610.737 86.5328 613.785 87.2467 616.379 88.6602L616.762 87.9577C614.031 86.4697 610.847 85.7328 607.223 85.7328V86.5328ZM616.382 88.662C619.05 90.0833 621.081 91.9408 622.492 94.2312L623.173 93.8116C621.68 91.387 619.536 89.4362 616.758 87.9559L616.382 88.662ZM623.232 94.0214V86.8582H622.432V94.0214H623.232ZM622.832 87.2582H638.352V86.4582H622.832V87.2582ZM637.952 86.8582V137.363H638.752V86.8582H637.952ZM637.952 137.363C637.952 141.963 637.025 146.102 635.18 149.788L635.896 150.146C637.802 146.337 638.752 142.073 638.752 137.363H637.952ZM635.177 149.795C633.398 153.527 630.642 156.491 626.895 158.689L627.3 159.379C631.178 157.104 634.048 154.023 635.899 150.139L635.177 149.795ZM626.893 158.691C623.219 160.881 618.606 161.989 613.031 161.989V162.789C618.709 162.789 623.474 161.661 627.303 159.378L626.893 158.691ZM613.031 161.989C605.592 161.989 599.604 160.222 595.032 156.722L594.546 157.357C599.292 160.99 605.465 162.789 613.031 162.789V161.989ZM595.03 156.72C590.463 153.283 587.854 148.61 587.2 142.669L586.405 142.757C587.082 148.906 589.798 153.784 594.549 157.359L595.03 156.72ZM586.803 143.113H602.14V142.313H586.803V143.113ZM601.752 142.81C602.264 144.854 603.483 146.451 605.383 147.59L605.795 146.904C604.064 145.866 602.985 144.441 602.528 142.616L601.752 142.81ZM605.375 147.585C607.268 148.782 609.585 149.37 612.305 149.37V148.57C609.7 148.57 607.54 148.008 605.803 146.909L605.375 147.585ZM612.305 149.37C615.594 149.37 618.245 148.406 620.211 146.442L619.646 145.876C617.86 147.659 615.429 148.57 612.305 148.57V149.37ZM620.202 146.451C622.253 144.529 623.232 141.466 623.232 137.363H622.432C622.432 141.361 621.476 144.161 619.655 145.867L620.202 146.451ZM623.232 137.363V130.2H622.432V137.363H623.232ZM622.496 129.984C621.021 132.282 618.984 134.173 616.373 135.655L616.768 136.351C619.481 134.811 621.618 132.833 623.169 130.416L622.496 129.984ZM616.379 135.652C613.785 137.066 610.737 137.779 607.223 137.779V138.579C610.847 138.579 614.031 137.842 616.762 136.354L616.379 135.652ZM607.223 137.779C603.119 137.779 599.412 136.741 596.09 134.667L595.666 135.345C599.121 137.502 602.977 138.579 607.223 138.579V137.779ZM596.094 134.669C592.772 132.535 590.125 129.539 588.158 125.667L587.444 126.029C589.47 130.015 592.209 133.124 595.662 135.342L596.094 134.669ZM588.161 125.673C586.255 121.747 585.297 117.214 585.297 112.065H584.497C584.497 117.314 585.475 121.97 587.441 126.022L588.161 125.673ZM585.297 112.065C585.297 106.917 586.256 102.415 588.16 98.5505L587.442 98.1969C585.474 102.19 584.497 106.817 584.497 112.065H585.297ZM588.158 98.5549C590.125 94.6837 592.77 91.7189 596.09 89.6456L595.666 88.9671C592.21 91.1252 589.471 94.2054 587.444 98.1925L588.158 98.5549ZM596.09 89.6456C599.412 87.5714 603.119 86.5328 607.223 86.5328V85.7328C602.977 85.7328 599.121 86.8098 595.666 88.9671L596.09 89.6456ZM623.232 112.156C623.232 108.209 622.119 105.047 619.852 102.719L619.279 103.277C621.368 105.422 622.432 108.365 622.432 112.156H623.232ZM619.856 102.723C617.662 100.406 614.956 99.2431 611.76 99.2431V100.043C614.736 100.043 617.233 101.116 619.275 103.273L619.856 102.723ZM611.76 99.2431C608.565 99.2431 605.831 100.406 603.578 102.719L604.151 103.277C606.255 101.117 608.784 100.043 611.76 100.043V99.2431ZM603.578 102.719C601.369 104.989 600.288 108.122 600.288 112.065H601.088C601.088 108.271 602.125 105.36 604.151 103.277L603.578 102.719ZM600.288 112.065C600.288 116.01 601.37 119.198 603.571 121.585L604.159 121.043C602.125 118.836 601.088 115.859 601.088 112.065H600.288ZM603.578 121.593C605.831 123.906 608.565 125.069 611.76 125.069V124.269C608.784 124.269 606.255 123.195 604.151 121.035L603.578 121.593ZM611.76 125.069C614.956 125.069 617.662 123.906 619.856 121.589L619.275 121.039C617.233 123.196 614.736 124.269 611.76 124.269V125.069ZM619.852 121.593C622.119 119.265 623.232 116.103 623.232 112.156H622.432C622.432 115.947 621.368 118.89 619.279 121.035L619.852 121.593ZM696.916 111.34C696.916 112.774 696.826 114.27 696.646 115.828L697.441 115.92C697.624 114.334 697.716 112.807 697.716 111.34H696.916ZM697.044 115.474H661.922V116.274H697.044V115.474ZM661.523 115.904C661.77 119.116 662.795 121.637 664.639 123.415L665.194 122.84C663.529 121.233 662.557 118.918 662.32 115.843L661.523 115.904ZM664.649 123.425C666.543 125.128 668.848 125.976 671.542 125.976V125.176C669.032 125.176 666.92 124.392 665.184 122.83L664.649 123.425ZM671.542 125.976C673.534 125.976 675.251 125.556 676.672 124.694C678.096 123.831 679.197 122.541 679.982 120.848L679.256 120.511C678.528 122.082 677.527 123.24 676.258 124.01C674.987 124.78 673.421 125.176 671.542 125.176V125.976ZM679.619 121.079H696.136V120.279H679.619V121.079ZM695.749 120.581C694.917 123.846 693.402 126.784 691.202 129.399L691.814 129.914C694.091 127.208 695.662 124.162 696.524 120.778L695.749 120.581ZM691.198 129.403C689.061 132.012 686.359 134.061 683.084 135.548L683.414 136.277C686.794 134.742 689.598 132.62 691.817 129.91L691.198 129.403ZM683.084 135.548C679.814 137.033 676.15 137.779 672.086 137.779V138.579C676.25 138.579 680.029 137.814 683.414 136.277L683.084 135.548ZM672.086 137.779C667.183 137.779 662.834 136.735 659.028 134.655L658.644 135.357C662.582 137.509 667.066 138.579 672.086 138.579V137.779ZM659.028 134.655C655.223 132.576 652.252 129.609 650.11 125.745L649.411 126.132C651.625 130.127 654.704 133.204 658.644 135.357L659.028 134.655ZM650.11 125.745C647.97 121.884 646.893 117.359 646.893 112.156H646.093C646.093 117.471 647.194 122.134 649.411 126.132L650.11 125.745ZM646.893 112.156C646.893 106.951 647.941 102.425 650.022 98.5635L649.318 98.1839C647.163 102.181 646.093 106.843 646.093 112.156H646.893ZM650.019 98.5676C652.162 94.7035 655.132 91.7361 658.937 89.6574L658.553 88.9553C654.613 91.1081 651.534 94.1856 649.32 98.1798L650.019 98.5676ZM658.937 89.6574C662.743 87.578 667.122 86.5328 672.086 86.5328V85.7328C667.007 85.7328 662.492 86.8033 658.553 88.9553L658.937 89.6574ZM672.086 86.5328C676.929 86.5328 681.219 87.5479 684.965 89.5678L685.345 88.8636C681.467 86.7729 677.044 85.7328 672.086 85.7328V86.5328ZM684.965 89.5678C688.709 91.5866 691.618 94.4634 693.699 98.2054L694.398 97.8166C692.244 93.942 689.224 90.9554 685.345 88.8636L684.965 89.5678ZM693.702 98.2096C695.84 101.948 696.916 106.321 696.916 111.34H697.716C697.716 106.204 696.614 101.69 694.396 97.8124L693.702 98.2096ZM681.834 107.26C681.834 104.498 680.886 102.267 678.973 100.61L678.449 101.215C680.167 102.702 681.034 104.702 681.034 107.26H681.834ZM678.973 100.61C677.075 98.9671 674.71 98.1551 671.905 98.1551V98.9551C674.545 98.9551 676.717 99.7147 678.449 101.215L678.973 100.61ZM671.905 98.1551C669.22 98.1551 666.918 98.9373 665.024 100.514L665.535 101.129C667.271 99.6841 669.386 98.9551 671.905 98.9551V98.1551ZM665.018 100.519C663.177 102.105 662.052 104.346 661.617 107.199L662.408 107.32C662.82 104.613 663.873 102.561 665.541 101.125L665.018 100.519ZM662.012 107.66H681.434V106.86H662.012V107.66ZM721.357 95.5095C723.14 92.7784 725.363 90.6473 728.029 89.1088L727.629 88.4159C724.849 90.0207 722.535 92.242 720.687 95.0722L721.357 95.5095ZM728.034 89.1054C730.692 87.5124 733.645 86.7141 736.904 86.7141V85.9141C733.508 85.9141 730.411 86.748 727.623 88.4192L728.034 89.1054ZM736.504 86.3141V102.726H737.304V86.3141H736.504ZM736.904 102.326H732.639V103.126H736.904V102.326ZM732.639 102.326C728.717 102.326 725.701 103.182 723.663 104.964L724.19 105.566C726.024 103.963 728.816 103.126 732.639 103.126V102.326ZM723.668 104.959C721.598 106.705 720.622 109.755 720.622 113.97H721.422C721.422 109.842 722.383 107.089 724.184 105.571L723.668 104.959ZM720.622 113.97V137.454H721.422V113.97H720.622ZM721.022 137.054H705.503V137.854H721.022V137.054ZM705.903 137.454V86.8582H705.103V137.454H705.903ZM705.503 87.2582H721.022V86.4582H705.503V87.2582ZM720.622 86.8582V95.2908H721.422V86.8582H720.622ZM540.868 224.602C541.351 223.758 542.06 223.063 543.01 222.518L542.612 221.824C541.551 222.432 540.734 223.225 540.174 224.204L540.868 224.602ZM543.01 222.518C543.948 221.98 545.023 221.706 546.246 221.706V220.906C544.899 220.906 543.684 221.209 542.612 221.824L543.01 222.518ZM546.246 221.706C547.557 221.706 548.724 222.015 549.756 222.627L550.163 221.938C548.998 221.248 547.689 220.906 546.246 220.906V221.706ZM549.756 222.627C550.787 223.238 551.603 224.103 552.203 225.232L552.91 224.857C552.244 223.605 551.329 222.629 550.163 221.938L549.756 222.627ZM552.205 225.235C552.801 226.339 553.106 227.638 553.106 229.146H553.906C553.906 227.529 553.578 226.094 552.908 224.854L552.205 225.235ZM553.106 229.146C553.106 230.634 552.801 231.945 552.202 233.089L552.911 233.46C553.578 232.187 553.906 230.746 553.906 229.146H553.106ZM552.202 233.089C551.602 234.236 550.777 235.12 549.726 235.75L550.137 236.436C551.32 235.727 552.246 234.731 552.911 233.46L552.202 233.089ZM549.723 235.751C548.691 236.38 547.535 236.697 546.246 236.697V237.497C547.674 237.497 548.975 237.144 550.14 236.434L549.723 235.751ZM546.246 236.697C544.984 236.697 543.891 236.423 542.954 235.885L542.556 236.579C543.63 237.195 544.864 237.497 546.246 237.497V236.697ZM542.957 235.887C542.024 235.342 541.333 234.656 540.87 233.832L540.172 234.225C540.714 235.186 541.512 235.97 542.553 236.578L542.957 235.887ZM540.121 234.028V236.846H540.921V234.028H540.121ZM540.521 236.446H537.98V237.246H540.521V236.446ZM538.38 236.846V216.2H537.58V236.846H538.38ZM537.98 216.6H540.521V215.8H537.98V216.6ZM540.121 216.2V224.403H540.921V216.2H540.121ZM551.309 229.146C551.309 227.938 551.065 226.866 550.562 225.942L549.859 226.324C550.288 227.111 550.509 228.047 550.509 229.146H551.309ZM550.562 225.942C550.063 225.024 549.378 224.316 548.507 223.83L548.117 224.529C548.847 224.936 549.428 225.53 549.859 226.324L550.562 225.942ZM548.51 223.832C547.665 223.35 546.73 223.11 545.715 223.11V223.91C546.599 223.91 547.395 224.117 548.114 224.527L548.51 223.832ZM545.715 223.11C544.714 223.11 543.779 223.361 542.917 223.862L543.319 224.553C544.058 224.124 544.854 223.91 545.715 223.91V223.11ZM542.92 223.86C542.067 224.347 541.385 225.064 540.869 225.995L541.569 226.382C542.022 225.565 542.605 224.961 543.316 224.555L542.92 223.86ZM540.868 225.997C540.366 226.921 540.121 227.983 540.121 229.174H540.921C540.921 228.095 541.142 227.168 541.57 226.38L540.868 225.997ZM540.121 229.174C540.121 230.382 540.365 231.462 540.866 232.403L541.572 232.027C541.142 231.219 540.921 230.272 540.921 229.174H540.121ZM540.871 232.412C541.386 233.323 542.067 234.036 542.914 234.539L543.322 233.852C542.605 233.425 542.02 232.818 541.567 232.018L540.871 232.412ZM542.923 234.545C543.784 235.025 544.717 235.265 545.715 235.265V234.465C544.851 234.465 544.053 234.259 543.313 233.846L542.923 234.545ZM545.715 235.265C546.73 235.265 547.665 235.026 548.51 234.543L548.114 233.848C547.395 234.258 546.599 234.465 545.715 234.465V235.265ZM548.513 234.542C549.38 234.038 550.064 233.322 550.562 232.406L549.859 232.024C549.427 232.818 548.845 233.424 548.111 233.85L548.513 234.542ZM550.564 232.403C551.065 231.461 551.309 230.371 551.309 229.146H550.509C550.509 230.264 550.287 231.22 549.858 232.027L550.564 232.403ZM569.661 221.406L560.446 243.893L561.186 244.196L570.401 221.709L569.661 221.406ZM560.816 243.644H558.191V244.444H560.816V243.644ZM558.561 244.196L561.577 236.83L560.837 236.527L557.821 243.893L558.561 244.196ZM561.577 236.528L555.406 221.406L554.665 221.708L560.837 236.83L561.577 236.528ZM555.036 221.957H557.856V221.157H555.036V221.957ZM557.483 221.702L562.286 234.089L563.032 233.8L558.229 221.413L557.483 221.702ZM563.033 234.088L567.78 221.7L567.033 221.414L562.286 233.801L563.033 234.088ZM567.406 221.957H570.031V221.157H567.406V221.957ZM595.333 236.446H592.792V237.246H595.333V236.446ZM593.126 236.626L582.905 221.142L582.238 221.582L592.458 237.066L593.126 236.626ZM582.171 221.362V236.846H582.971V221.362H582.171ZM582.571 236.446H580.03V237.246H582.571V236.446ZM580.43 236.846V217.372H579.63V236.846H580.43ZM580.03 217.772H582.571V216.972H580.03V217.772ZM582.238 217.593L592.458 233.049L593.125 232.608L582.905 217.152L582.238 217.593ZM593.192 232.829V217.372H592.392V232.829H593.192ZM592.792 217.772H595.333V216.972H592.792V217.772ZM594.933 217.372V236.846H595.733V217.372H594.933ZM606.339 236.697C604.968 236.697 603.733 236.387 602.623 235.771L602.235 236.47C603.471 237.157 604.842 237.497 606.339 237.497V236.697ZM602.626 235.772C601.537 235.158 600.677 234.291 600.041 233.162L599.344 233.555C600.049 234.807 601.013 235.781 602.233 236.469L602.626 235.772ZM600.045 233.169C599.429 232.027 599.115 230.699 599.115 229.174H598.315C598.315 230.811 598.653 232.273 599.341 233.548L600.045 233.169ZM599.115 229.174C599.115 227.67 599.437 226.363 600.069 225.241L599.372 224.848C598.664 226.107 598.315 227.553 598.315 229.174H599.115ZM600.068 225.243C600.722 224.096 601.599 223.23 602.703 222.635L602.323 221.93C601.081 222.6 600.097 223.576 599.373 224.847L600.068 225.243ZM602.707 222.632C603.816 222.017 605.061 221.706 606.45 221.706V220.906C604.936 220.906 603.556 221.246 602.319 221.933L602.707 222.632ZM606.45 221.706C607.84 221.706 609.085 222.017 610.194 222.632L610.582 221.933C609.345 221.246 607.965 220.906 606.45 220.906V221.706ZM610.198 222.635C611.302 223.23 612.17 224.087 612.804 225.213L613.501 224.82C612.795 223.566 611.819 222.6 610.578 221.93L610.198 222.635ZM612.806 225.217C613.455 226.338 613.786 227.652 613.786 229.174H614.586C614.586 227.533 614.228 226.076 613.499 224.816L612.806 225.217ZM613.786 229.174C613.786 230.693 613.446 232.017 612.779 233.157L613.47 233.561C614.217 232.283 614.586 230.816 614.586 229.174H613.786ZM612.778 233.158C612.126 234.286 611.238 235.154 610.112 235.77L610.496 236.472C611.752 235.785 612.746 234.812 613.471 233.559L612.778 233.158ZM610.112 235.77C608.984 236.386 607.729 236.697 606.339 236.697V237.497C607.853 237.497 609.241 237.157 610.496 236.472L610.112 235.77ZM606.339 235.265C607.316 235.265 608.238 235.035 609.096 234.576L608.719 233.871C607.977 234.267 607.186 234.465 606.339 234.465V235.265ZM609.096 234.576C609.969 234.11 610.665 233.411 611.183 232.495L610.486 232.102C610.037 232.897 609.447 233.482 608.719 233.871L609.096 234.576ZM611.179 232.501C611.726 231.571 611.989 230.456 611.989 229.174H611.189C611.189 230.347 610.949 231.315 610.49 232.096L611.179 232.501ZM611.989 229.174C611.989 227.894 611.736 226.781 611.211 225.852L610.514 226.246C610.957 227.028 611.189 227.998 611.189 229.174H611.989ZM611.211 225.852C610.693 224.937 610.007 224.246 609.149 223.797L608.778 224.506C609.484 224.876 610.064 225.45 610.514 226.246L611.211 225.852ZM609.156 223.801C608.313 223.34 607.4 223.11 606.422 223.11V223.91C607.269 223.91 608.05 224.108 608.772 224.503L609.156 223.801ZM606.422 223.11C605.428 223.11 604.505 223.339 603.661 223.801L604.045 224.503C604.766 224.109 605.556 223.91 606.422 223.91V223.11ZM603.664 223.799C602.824 224.25 602.157 224.943 601.659 225.858L602.362 226.24C602.795 225.444 603.356 224.872 604.042 224.504L603.664 223.799ZM601.659 225.858C601.154 226.785 600.912 227.896 600.912 229.174H601.712C601.712 227.996 601.936 227.024 602.362 226.24L601.659 225.858ZM600.912 229.174C600.912 230.466 601.144 231.585 601.628 232.512L602.337 232.141C601.928 231.357 601.712 230.374 601.712 229.174H600.912ZM601.631 232.518C602.128 233.432 602.794 234.132 603.63 234.6L604.021 233.903C603.331 233.516 602.767 232.932 602.334 232.135L601.631 232.518ZM603.637 234.604C604.461 235.046 605.364 235.265 606.339 235.265V234.465C605.489 234.465 604.717 234.275 604.015 233.899L603.637 234.604ZM624.201 236.697C622.83 236.697 621.595 236.387 620.485 235.771L620.097 236.47C621.333 237.157 622.704 237.497 624.201 237.497V236.697ZM620.488 235.772C619.399 235.158 618.539 234.291 617.903 233.162L617.206 233.555C617.911 234.807 618.875 235.781 620.095 236.469L620.488 235.772ZM617.907 233.169C617.291 232.027 616.977 230.699 616.977 229.174H616.177C616.177 230.811 616.515 232.273 617.202 233.548L617.907 233.169ZM616.977 229.174C616.977 227.67 617.299 226.363 617.931 225.241L617.234 224.848C616.525 226.107 616.177 227.553 616.177 229.174H616.977ZM617.93 225.243C618.584 224.096 619.461 223.23 620.565 222.635L620.185 221.93C618.943 222.6 617.959 223.576 617.235 224.847L617.93 225.243ZM620.569 222.632C621.678 222.017 622.922 221.706 624.312 221.706V220.906C622.798 220.906 621.418 221.246 620.181 221.933L620.569 222.632ZM624.312 221.706C625.702 221.706 626.947 222.017 628.056 222.632L628.444 221.933C627.207 221.246 625.827 220.906 624.312 220.906V221.706ZM628.06 222.635C629.164 223.23 630.032 224.087 630.666 225.213L631.363 224.82C630.656 223.566 629.681 222.6 628.44 221.93L628.06 222.635ZM630.668 225.217C631.317 226.338 631.647 227.652 631.647 229.174H632.447C632.447 227.533 632.089 226.076 631.36 224.816L630.668 225.217ZM631.647 229.174C631.647 230.693 631.308 232.017 630.641 233.157L631.332 233.561C632.079 232.283 632.447 230.816 632.447 229.174H631.647ZM630.64 233.158C629.987 234.286 629.1 235.154 627.974 235.77L628.358 236.472C629.614 235.785 630.608 234.812 631.333 233.559L630.64 233.158ZM627.974 235.77C626.846 236.386 625.59 236.697 624.201 236.697V237.497C625.715 237.497 627.103 237.157 628.358 236.472L627.974 235.77ZM624.201 235.265C625.178 235.265 626.099 235.035 626.958 234.576L626.581 233.871C625.839 234.267 625.047 234.465 624.201 234.465V235.265ZM626.958 234.576C627.831 234.11 628.526 233.411 629.045 232.495L628.348 232.102C627.898 232.897 627.309 233.482 626.581 233.871L626.958 234.576ZM629.041 232.501C629.588 231.571 629.85 230.456 629.85 229.174H629.05C629.05 230.347 628.81 231.315 628.352 232.096L629.041 232.501ZM629.85 229.174C629.85 227.894 629.598 226.781 629.073 225.852L628.376 226.246C628.819 227.028 629.05 227.998 629.05 229.174H629.85ZM629.073 225.852C628.555 224.937 627.869 224.246 627.011 223.797L626.64 224.506C627.346 224.876 627.926 225.45 628.376 226.246L629.073 225.852ZM627.018 223.801C626.175 223.34 625.262 223.11 624.284 223.11V223.91C625.131 223.91 625.912 224.108 626.634 224.503L627.018 223.801ZM624.284 223.11C623.29 223.11 622.367 223.339 621.523 223.801L621.907 224.503C622.628 224.109 623.418 223.91 624.284 223.91V223.11ZM621.526 223.799C620.686 224.25 620.019 224.943 619.521 225.858L620.224 226.24C620.657 225.444 621.218 224.872 621.904 224.504L621.526 223.799ZM619.521 225.858C619.016 226.785 618.774 227.896 618.774 229.174H619.574C619.574 227.996 619.797 227.024 620.224 226.24L619.521 225.858ZM618.774 229.174C618.774 230.466 619.006 231.585 619.49 232.512L620.199 232.141C619.789 231.357 619.574 230.374 619.574 229.174H618.774ZM619.493 232.518C619.99 233.432 620.656 234.132 621.492 234.6L621.883 233.903C621.193 233.516 620.629 232.932 620.196 232.135L619.493 232.518ZM621.498 234.604C622.323 235.046 623.226 235.265 624.201 235.265V234.465C623.351 234.465 622.578 234.275 621.876 233.899L621.498 234.604ZM638.276 224.574C638.74 223.768 639.431 223.09 640.365 222.544L639.962 221.854C638.923 222.461 638.125 223.233 637.583 224.176L638.276 224.574ZM640.367 222.543C641.303 221.989 642.395 221.706 643.654 221.706V220.906C642.27 220.906 641.035 221.218 639.96 221.855L640.367 222.543ZM643.654 221.706C644.946 221.706 646.104 222.015 647.136 222.627L647.544 221.938C646.38 221.249 645.08 220.906 643.654 220.906V221.706ZM647.139 222.628C648.189 223.24 649.012 224.105 649.612 225.232L650.318 224.857C649.652 223.604 648.726 222.627 647.542 221.937L647.139 222.628ZM649.613 225.235C650.21 226.339 650.515 227.638 650.515 229.146H651.315C651.315 227.529 650.987 226.094 650.317 224.854L649.613 225.235ZM650.515 229.146C650.515 230.634 650.21 231.945 649.611 233.089L650.32 233.46C650.986 232.187 651.315 230.746 651.315 229.146H650.515ZM649.611 233.089C649.01 234.236 648.185 235.12 647.135 235.75L647.546 236.436C648.729 235.727 649.654 234.731 650.32 233.46L649.611 233.089ZM647.132 235.751C646.1 236.38 644.944 236.697 643.654 236.697V237.497C645.082 237.497 646.384 237.144 647.548 236.434L647.132 235.751ZM643.654 236.697C642.412 236.697 641.328 236.423 640.391 235.885L639.993 236.579C641.066 237.195 642.29 237.497 643.654 237.497V236.697ZM640.398 235.89C639.46 235.324 638.757 234.634 638.273 233.823L637.586 234.233C638.145 235.171 638.95 235.95 639.985 236.575L640.398 235.89ZM637.53 234.028V244.1H638.33V234.028H637.53ZM637.93 243.7H635.389V244.5H637.93V243.7ZM635.789 244.1V221.557H634.989V244.1H635.789ZM635.389 221.957H637.93V221.157H635.389V221.957ZM637.53 221.557V224.375H638.33V221.557H637.53ZM648.718 229.146C648.718 227.938 648.474 226.866 647.971 225.942L647.268 226.324C647.696 227.111 647.918 228.047 647.918 229.146H648.718ZM647.971 225.942C647.472 225.024 646.786 224.316 645.915 223.83L645.526 224.529C646.256 224.936 646.837 225.53 647.268 226.324L647.971 225.942ZM645.919 223.832C645.073 223.35 644.139 223.11 643.124 223.11V223.91C644.008 223.91 644.804 224.117 645.522 224.527L645.919 223.832ZM643.124 223.11C642.123 223.11 641.188 223.361 640.326 223.862L640.728 224.553C641.467 224.124 642.263 223.91 643.124 223.91V223.11ZM640.328 223.86C639.476 224.347 638.793 225.064 638.278 225.995L638.978 226.382C639.43 225.565 640.014 224.961 640.725 224.555L640.328 223.86ZM638.276 225.997C637.774 226.921 637.53 227.983 637.53 229.174H638.33C638.33 228.095 638.551 227.168 638.979 226.38L638.276 225.997ZM637.53 229.174C637.53 230.382 637.774 231.462 638.275 232.403L638.981 232.027C638.551 231.219 638.33 230.272 638.33 229.174H637.53ZM638.28 232.412C638.795 233.323 639.476 234.036 640.322 234.539L640.731 233.852C640.014 233.425 639.429 232.818 638.976 232.018L638.28 232.412ZM640.332 234.545C641.193 235.025 642.126 235.265 643.124 235.265V234.465C642.26 234.465 641.461 234.259 640.721 233.846L640.332 234.545ZM643.124 235.265C644.139 235.265 645.073 235.026 645.919 234.543L645.522 233.848C644.804 234.258 644.008 234.465 643.124 234.465V235.265ZM645.922 234.542C646.789 234.038 647.472 233.322 647.971 232.406L647.268 232.024C646.836 232.818 646.254 233.424 645.52 233.85L645.922 234.542ZM647.973 232.403C648.474 231.461 648.718 230.371 648.718 229.146H647.918C647.918 230.264 647.696 231.22 647.266 232.027L647.973 232.403Z" fill="white" mask="url(#path-1-outside-1_0_1)"/>
</g>
</g>
</g>
<defs>
<filter id="filter0_d_0_1" x="-1.10005" y="-0.5" width="776.506" height="246.6" filterUnits="userSpaceOnUse" color-interpolation-filters="sRGB">
<feFlood flood-opacity="0" result="BackgroundImageFix"/>
<feColorMatrix in="SourceAlpha" type="matrix" values="0 0 0 0 0 0 0 0 0 0 0 0 0 0 0 0 0 0 127 0" result="hardAlpha"/>
<feOffset dy="0.8"/>
<feGaussianBlur stdDeviation="0.4"/>
<feComposite in2="hardAlpha" operator="out"/>
<feColorMatrix type="matrix" values="0 0 0 0 0 0 0 0 0 0 0 0 0 0 0 0 0 0 0.25 0"/>
<feBlend mode="normal" in2="BackgroundImageFix" result="effect1_dropShadow_0_1"/>
<feBlend mode="normal" in="SourceGraphic" in2="effect1_dropShadow_0_1" result="shape"/>
</filter>
<filter id="filter1_d_0_1" x="-1.90005" y="-0.5" width="778.106" height="248.2" filterUnits="userSpaceOnUse" color-interpolation-filters="sRGB">
<feFlood flood-opacity="0" result="BackgroundImageFix"/>
<feColorMatrix in="SourceAlpha" type="matrix" values="0 0 0 0 0 0 0 0 0 0 0 0 0 0 0 0 0 0 127 0" result="hardAlpha"/>
<feOffset dy="1.6"/>
<feGaussianBlur stdDeviation="0.8"/>
<feComposite in2="hardAlpha" operator="out"/>
<feColorMatrix type="matrix" values="0 0 0 0 0 0 0 0 0 0 0 0 0 0 0 0 0 0 0.25 0"/>
<feBlend mode="normal" in2="BackgroundImageFix" result="effect1_dropShadow_0_1"/>
<feBlend mode="normal" in="SourceGraphic" in2="effect1_dropShadow_0_1" result="shape"/>
</filter>
<clipPath id="clip0_0_1">
<rect width="775" height="244" fill="white"/>
</clipPath>
</defs>
</svg>
