<svg enable-background="new 0 0 511.988 511.988" viewBox="0 0 511.988 511.988" xmlns="http://www.w3.org/2000/svg"><path d="m394.655 202.654h-298.667c-17.643 0-32 14.357-32 32v21.333c0 76.117 42.048 145.152 109.717 180.16 5.227 2.688 11.669.661 14.379-4.587 2.688-5.227.661-11.669-4.587-14.379-60.544-31.317-98.176-93.077-98.176-161.195v-21.333c0-5.888 4.779-10.667 10.667-10.667h298.667c5.888 0 10.667 4.779 10.667 10.667v21.333c0 68.117-37.632 129.877-98.197 161.173-5.248 2.709-7.275 9.152-4.587 14.379 1.899 3.669 5.632 5.781 9.493 5.781 1.664 0 3.328-.384 4.885-1.195 67.691-34.987 109.739-104 109.739-180.139v-21.333c0-17.641-14.358-31.998-32-31.998z"/><path d="m489.865 422.558c-1.664-3.989-5.547-6.592-9.856-6.592h-469.333c-4.309 0-8.192 2.603-9.856 6.592s-.747 8.576 2.304 11.627l23.915 23.936c14.123 14.101 32.853 21.867 52.8 21.867h330.965c19.947 0 38.699-7.765 52.843-21.867l23.915-23.936c3.05-3.051 3.967-7.638 2.303-11.627zm-41.322 20.48c-10.069 10.069-23.488 15.616-37.717 15.616h-330.987c-14.229 0-27.648-5.547-37.717-15.616l-5.717-5.717h417.855z"/><path d="m491.359 253.022c-28.736-18.475-74.645 1.579-79.787 3.904-5.355 2.453-7.744 8.768-5.291 14.144s8.747 7.744 14.144 5.291c10.283-4.672 43.264-15.744 59.392-5.355 7.275 4.672 10.837 13.739 10.837 27.648 0 42.709-86.144 68.523-119.403 74.88l-7.552 1.493c-5.781 1.131-9.536 6.741-8.405 12.523 1.003 5.077 5.461 8.597 10.453 8.597.683 0 1.365-.064 2.069-.213l7.488-1.472c5.589-1.067 136.683-26.773 136.683-95.808.001-21.461-6.953-36.8-20.628-45.632z"/><path d="m328.372 113.31c17.344-21.675 17.344-55.616 0-77.291-3.691-4.608-10.368-5.376-14.997-1.664-4.608 3.691-5.355 10.389-1.664 14.997 10.987 13.717 10.987 36.907-.021 50.667-17.365 21.675-17.365 55.616 0 77.291 2.112 2.645 5.205 4.011 8.341 4.011 2.325 0 4.693-.768 6.656-2.347 4.608-3.691 5.355-10.411 1.664-14.997-11.008-13.718-11.008-36.907.021-50.667z"/><path d="m264.287 113.31c17.365-21.675 17.365-55.616 0-77.291-3.669-4.608-10.389-5.355-14.997-1.664s-5.355 10.411-1.664 14.997c11.008 13.717 11.008 36.907-.021 50.667-17.344 21.675-17.344 55.616 0 77.291 2.112 2.645 5.205 4.011 8.341 4.011 2.325 0 4.672-.768 6.656-2.347 4.608-3.691 5.355-10.389 1.664-14.997-10.987-13.718-10.987-36.907.021-50.667z"/><path d="m200.372 113.331c17.344-21.675 17.344-55.616 0-77.291-3.669-4.608-10.368-5.376-14.997-1.664-4.587 3.669-5.333 10.389-1.664 14.976 10.987 13.717 10.987 36.907-.021 50.667-17.365 21.675-17.365 55.616 0 77.291 2.112 2.645 5.205 4.011 8.341 4.011 2.325 0 4.693-.768 6.656-2.325 4.608-3.691 5.355-10.411 1.664-14.997-11.008-13.74-11.008-36.908.021-50.668z"/></svg>