<svg height="512" viewBox="0 0 512 512" width="512" xmlns="http://www.w3.org/2000/svg"><path d="m416 440a24.0275 24.0275 0 0 0 24-24v-80a112.14283 112.14283 0 0 0 -104.20654-111.72437l12.36963-16.49263a40.05657 40.05657 0 0 0 35.83691-39.783 8.00039 8.00039 0 0 0 -8-8h-99.86719l43.12989-100.63672 15.89257-31.78516a7.99951 7.99951 0 0 0 -7.15527-11.57812h-192a7.99951 7.99951 0 0 0 -7.15527 11.57812l15.89257 31.78516 43.12989 100.63672h-107.86719a8.00039 8.00039 0 0 0 -8 8 40.05657 40.05657 0 0 0 35.83691 39.783l15.073 20.09717a24.20708 24.20708 0 0 0 -3.88159 3.15014 23.99579 23.99579 0 0 0 7.49487 39.01465l-38.05151 177.57418a40.00007 40.00007 0 0 0 39.11232 48.38086h200.832a40.00007 40.00007 0 0 0 39.1123-48.38086l-37.47923-174.90283a72.09873 72.09873 0 0 1 61.95093 71.28369v72a24.0275 24.0275 0 0 0 24 24zm-275.99976-216-12-16h199.99952l-12 16zm167.05542-176h-46.11132l-8-16h62.11132zm-72-16 8 16h-86.11132l-8-16zm-70.92285 32h135.73438l-41.14258 96h-53.44922zm-74.76172 112h277.25782a24.04166 24.04166 0 0 1 -22.62891 16h-232a24.04166 24.04166 0 0 1 -22.62891-16zm224.16191 96 22.81592 106.47412a138.09445 138.09445 0 0 1 -101.94556-.52881l-10.51953-4.208a154.69283 154.69283 0 0 0 -102.24805-4.52392l20.83122-97.21339zm33.54712 199.08789a23.89383 23.89383 0 0 1 -18.66412 8.91211h-200.832a24.00114 24.00114 0 0 1 -23.46777-29.0293l13.62354-63.57617a138.78669 138.78669 0 0 1 100.20166 1.19824l10.51953 4.208a153.96577 153.96577 0 0 0 111.28147 1.51023l12.14136 56.65966a23.89557 23.89557 0 0 1 -4.80371 20.11723zm-27.08012-215.08789h-183.998a8 8 0 1 1 -.0039-16h192.0019a96.10874 96.10874 0 0 1 96 96v80a8 8 0 0 1 -16 0v-72a88.09957 88.09957 0 0 0 -88-88z"/><path d="m232 352a24.0275 24.0275 0 0 0 24-24c0-10.22754-12.18066-28.96484-17.418-36.54688a7.9996 7.9996 0 0 0 -13.16406 0c-5.23728 7.58204-17.41794 26.31934-17.41794 36.54688a24.0275 24.0275 0 0 0 24 24zm.00195-41.17285c4.6045 7.75586 7.92969 14.72461 7.99805 17.17871a8 8 0 0 1 -16 .00293c.06543-2.44531 3.39258-9.41699 8.002-17.18164z"/></svg>