<svg height="642" viewBox="0 0 350.3 90" width="2500" xmlns="http://www.w3.org/2000/svg"><path d="m119.3 58v-26c0-1.6 1.3-2.9 2.9-2.9s2.9 1.3 2.9 2.9v26c0 1.6-1.3 2.9-2.9 2.9-1.5 0-2.9-1.3-2.9-2.9zm33.2 1.1-12.6-20.1v19c0 1.6-1.3 2.9-2.9 2.9s-2.9-1.3-2.9-2.9v-25.2c0-2.1 1.7-3.9 3.9-3.9h.2c1.3 0 2.6.7 3.3 1.8l12.5 19.8v-18.7c0-1.6 1.3-2.9 2.9-2.9s2.9 1.3 2.9 2.9v25.2c0 2.1-1.7 3.9-3.9 3.9-1.4 0-2.7-.6-3.4-1.8zm27.5-24.6v23.8c0 1.5-1.2 2.7-2.7 2.7h-.4c-1.5 0-2.7-1.2-2.7-2.7v-23.8h-6.7c-1.5 0-2.7-1.2-2.7-2.7s1.2-2.7 2.7-2.7h19.3c1.5 0 2.7 1.2 2.7 2.7s-1.2 2.7-2.7 2.7zm14.1 23.8v-26.7c0-1.4 1.2-2.6 2.6-2.6h17.5c1.4 0 2.6 1.2 2.6 2.6s-1.2 2.6-2.6 2.6h-14.3v7.4h12.3c1.4 0 2.6 1.2 2.6 2.6s-1.2 2.6-2.6 2.6h-12.3v8.7h14.3c1.4 0 2.6 1.2 2.6 2.6s-1.2 2.6-2.6 2.6h-17.5c-1.4.2-2.6-.9-2.6-2.4zm47.2.9-4.6-10.3h-7.1v9.2c0 1.6-1.3 2.9-2.9 2.9h-.1c-1.6 0-2.9-1.3-2.9-2.9v-26.1c0-1.6 1.3-2.9 2.9-2.9h10.6c7.6 0 11.1 4.8 11.1 9.9 0 4.3-2.3 7.6-5.8 8.9l4 9c.8 1.9-.5 4-2.6 4-1.1 0-2.2-.6-2.6-1.7zm-4-25.1h-7.6v9.5h7.7c3.3 0 5.2-1.7 5.2-4.7-.1-2.5-2-4.8-5.3-4.8zm38.6 23.6c-2.4 2.4-5.7 3.8-9.1 3.8s-6.6-1.1-9-3.6c-3.5-3.5-4-7.7-4-12.9s.5-9.5 4-12.9c2.4-2.4 5.6-3.6 9-3.6s6.7 1.3 9.1 3.7c.8.9 1.5 1.8 2 2.9.9 1.9-.5 4-2.6 4-1.2 0-2.2-.7-2.7-1.8-.2-.6-.6-1.1-1-1.6-1-1.3-2.8-2-4.8-2-1.8 0-3.6.8-4.9 2.1-2.2 2.3-2.2 6.2-2.2 9.2 0 2.9 0 6.9 2.2 9.2 1.3 1.3 3.1 2.1 4.9 2.1 2 0 3.8-.7 4.8-2 .4-.5.8-1.1 1-1.7.4-1.1 1.5-1.8 2.7-1.8 2.1 0 3.5 2.1 2.6 4-.5 1.1-1.2 2.1-2 2.9zm31.1.2c-2.4 2.4-5.8 3.6-9.2 3.6s-6.7-1.2-9.2-3.6c-3.5-3.5-4-7.7-4-12.9s.6-9.5 4-12.9c2.4-2.4 5.8-3.6 9.2-3.6s6.7 1.2 9.2 3.6c3.5 3.5 4 7.7 4 12.9.1 5.2-.5 9.5-4 12.9zm-4.1-22c-1.3-1.3-3.2-2.1-5-2.1s-3.8.8-5 2.1c-2.2 2.3-2.3 6.2-2.3 9.2 0 2.9.1 6.8 2.3 9.1 1.3 1.3 3.2 2.1 5 2.1s3.8-.8 5-2.1c2.2-2.3 2.3-6.2 2.3-9.1 0-3-.1-7-2.3-9.2zm41.8 22.2v-19.9l-7.5 20.3c-.4 1.2-1.6 2-2.9 2s-2.4-.8-2.9-2l-7.5-20.6v20.2c0 1.6-1.3 2.8-2.8 2.8-1.6 0-2.8-1.3-2.8-2.8v-24.7c0-2.4 2-4.4 4.4-4.4h.4c1.8 0 3.5 1.1 4.1 2.9l7.3 19.8 7.4-19.8c.6-1.7 2.3-2.9 4.1-2.9 2.4 0 4.4 2 4.4 4.4v24.7c0 1.6-1.3 2.8-2.8 2.8-1.7 0-2.9-1.2-2.9-2.8zm-265.9-58.1h-67.5c-6.3 0-11.3 5-11.3 11.2v67.5c0 6.3 5 11.3 11.3 11.3h67.5c6.2 0 11.2-5 11.2-11.2v-67.5c0-6.3-5-11.3-11.2-11.3zm-21.8 16.5c0-1.7 1.3-3 3-3s3 1.3 3 3v40.1c0 1.7-1.3 3-3 3s-3-1.3-3-3zm-15-1.5c0-1.7 1.3-3 3-3s3 1.3 3 3v43.5c0 1.7-1.3 3-3 3s-3-1.3-3-3zm-15 1.5c0-1.7 1.3-3 3-3s3 1.3 3 3v40.1c0 1.7-1.3 3-3 3s-3-1.3-3-3zm-15 6c0-1.7 1.3-3 3-3s3 1.3 3 3v27c0 1.7-1.3 3-3 3s-3-1.3-3-3zm65 45.8c-.5.4-11.6 9.7-32 9.7s-31.5-9.3-32-9.7c-1.3-1.1-1.4-3-.3-4.2 1.1-1.3 3-1.4 4.2-.3.2 0 10.1 8.2 28.1 8.2 18.2 0 28-8.2 28-8.3 1.3-1.1 3.2-.9 4.2.3 1.2 1.3 1 3.2-.2 4.3zm1-18.8c0 1.7-1.3 3-3 3s-3-1.3-3-3v-27c0-1.7 1.3-3 3-3s3 1.3 3 3z" fill="#1f8ded"/></svg>