<svg height="136" viewBox="0 0 600 136" width="600" xmlns="http://www.w3.org/2000/svg"><g fill="#2b71ff" fill-rule="evenodd"><path d="m246.644295 38.2814815h-12.080537v66.4888885h12.080537z"/><path d="m353.73159 66.1298793c12.453639 2.9256719 19.642325 7.0619667 21.36356 15.2336709.295647 1.3589242.431321 2.7471051.404996 4.1362948 0 12.4088842-8.707422 20.277933-22.882296 20.277933-10.815429-.089788-21.251173-3.983958-29.463488-10.9964911l7.188686-8.3734748c6.479943 5.5486881 14.174874 9.0796714 22.578549 9.0796714 8.403676 0 10.732405-3.7327538 10.732405-8.8779009s-2.733726-7.3646224-15.288614-10.189409c-14.377372-3.3292129-22.679798-8.0708191-22.679798-20.3788181s8.606173-18.7646542 21.971054-18.7646542c9.310867-.1039118 18.391899 2.877247 25.81852 8.47436l-6.378693 8.7770157c-6.074946-4.4389505-12.959884-7.4655076-19.136079-7.4655076s-10.428658 3.5309833-10.428658 7.9699338c0 4.4389504 3.341221 8.070819 16.199856 11.0973761z"/><path d="m466.824451 38.2814815-16.191862 49.0077676-16.594144-49.0077676h-9.956487l-16.594144 49.0077676-16.191862-49.0077676h-12.772462l23.533513 66.4888885h10.258199l16.594144-47.3910162 16.594144 47.3910162h10.157627l23.533514-66.4888885z"/><g fill-rule="nonzero"><path d="m573.329523 48.8914106h-16.833837v23.3418439h16.833837c9.02537 0 14.602847-3.4355961 14.602847-12.0245863s-5.678885-11.3172576-14.602847-11.3172576zm-.405635 33.7496791h-16.428202v22.1292803h-11.864814v-66.4888885h29.712737c15.718342 0 25.656391 7.9827085 25.656391 21.421952 0 14.9549477-11.053544 22.9376562-27.076112 22.9376562z"/><path d="m290.791066 48.8914106h-17.145267v23.240797h17.246122c8.471779 0 13.917922-4.9513002 13.917922-11.7214455 0-6.7701452-5.244434-11.5193515-14.018777-11.5193515zm12.304251 55.8789594-14.724759-22.3313742h-14.724759v22.3313742h-11.900833v-66.4888885h30.054645c15.430741 0 25.011919 9.1952718 25.011919 22.1292806 0 10.9130699-6.656397 17.4811213-16.136722 20.1083418l16.439286 24.2512661z"/><path d="m190.27148 52.1249128 9.621198 25.2617359c-7.311098-.0121257-14.536112 1.5743113-21.166637 4.6481594zm-34.231212 52.6454572h12.45692s9.013544-19.097872 35.446521-16.9758862l7.089304 16.9758862h12.45692l-27.54701-66.4888885h-11.646714z"/><path d="m514.932131 82.0348081c-6.622606-3.0677852-13.835776-4.6542223-21.134902-4.6481594l9.606774-25.2617359zm-5.561816-43.7533266h-11.629253l-27.606834 66.4888885h12.438244l7.1798-16.9758862c26.292223-2.1219858 35.292253 16.9758862 35.292253 16.9758862h12.539368z"/></g><path d="m102.431022 101.748148-34.5837474 34.251852-17.1388481-16.974369c18.4824114-1.117479 36.3323176-7.079726 51.7225955-17.277483z"/><path d="m134.786318 66.9489346-4.246831-4.2539414-62.5901954-62.6949932-62.59019569 62.6949932-5.35909591 5.3680689 1.92118533 1.7218334c2.22453038 1.8231178 4.44906076 3.5449512 6.77470615 5.1655003 16.98732292 11.9140744 37.15673542 18.439823 57.89239192 18.7284834 20.7356566.2886603 41.0789866-5.6719219 58.3898776-17.1079343 2.426761-1.6205491 4.853521-3.4436668 7.179167-5.2667846 2.325645-1.8231177 2.527875-2.1269707 3.741255-3.2410982zm-50.3552786 15.6990694c-18.6729102-11.4826032-40.1740075-17.5150972-62.0846206-17.4209028 28.6155499-12.4579712 63.6013458-14.1798046 95.7559212 4.3552257-10.273286 6.497389-21.7093941 10.9356679-33.6713006 13.0656771z" fill-rule="nonzero"/></g></svg>