<svg fill="none" height="120" viewBox="0 0 120 120" width="120" xmlns="http://www.w3.org/2000/svg"><path clip-rule="evenodd" d="m29.5194 83.6441c-2.1838-1.2632-3.5194-3.5132-3.5194-5.9291v-13.4905c0-.5164.1462-1.0143.4192-1.4569.8482-1.3832 2.7297-1.8535 4.1921-1.042l32.1911 17.7506c1.8816 1.042 3.0417 2.9415 3.0417 5.0071v13.9792c0 .6362-.1852 1.2725-.5362 1.8165-1.0626 1.641-3.3244 2.158-5.0597 1.153zm47.9845-25.6162c1.8815 1.042 3.0416 2.9415 3.0416 5.0071v28.3641c0 .8391-.4777 1.6137-1.2478 2.0194l-7.0485 3.753c-.0878.0461-.1853.083-.2828.1107v-15.7497c0-2.0379-1.1308-3.9282-2.9831-4.9794l-28.2721-15.9986v-17.7783c0-.5164.1462-1.0143.4192-1.457.8482-1.3831 2.7297-1.8534 4.1921-1.0419zm14.0872-20.9504c1.8913 1.0328 3.0515 2.9508 3.0515 5.0163v41.4305c0 .8483-.4972 1.6321-1.2869 2.0378l-6.678 3.4118v-28.8436c0-2.0379-1.1309-3.919-2.9735-4.9702l-28.896-16.3951v-16.8654c0-.5164.1463-1.0144.4095-1.457.8482-1.3831 2.7297-1.8534 4.1921-1.0512z" fill="#00d395" fill-rule="evenodd"/></svg>