<svg enable-background="new 0 0 538 232.6" viewBox="0 0 538 232.6" xmlns="http://www.w3.org/2000/svg" xmlns:xlink="http://www.w3.org/1999/xlink"><linearGradient id="a" gradientUnits="userSpaceOnUse" x1="74.8532" x2="74.8532" y1="65.561" y2="167.9371"><stop offset="0" stop-color="#184799"/><stop offset="1" stop-color="#28388a"/></linearGradient><linearGradient id="b" gradientUnits="userSpaceOnUse" x1="92.9892" x2="92.9892" y1="64.8405" y2="116.7222"><stop offset="0" stop-color="#44c1c3"/><stop offset="1" stop-color="#007cb6"/></linearGradient><linearGradient id="c" gradientUnits="userSpaceOnUse" x1="56.5322" x2="129.5198" y1="154.9864" y2="154.9864"><stop offset="0" stop-color="#0671b9"/><stop offset="1" stop-color="#00a7e0"/></linearGradient><linearGradient id="d" gradientUnits="userSpaceOnUse" x1="118.9256" x2="137.2" y1="72.4268" y2="141.7909"><stop offset="0" stop-color="#68cbe2"/><stop offset=".4914" stop-color="#0cbff1"/><stop offset=".6075" stop-color="#1bb8ec"/><stop offset=".814" stop-color="#2ca6de"/><stop offset="1" stop-color="#3893d0"/></linearGradient><linearGradient id="e" gradientUnits="userSpaceOnUse" x1="111.4975" x2="167.8611" y1="141.9109" y2="141.9109"><stop offset="0" stop-color="#3ec3da"/><stop offset="1" stop-color="#64cadd"/></linearGradient><path d="m56.5 65.2 36.7 51.4-36.7 51.1z" fill="url(#a)"/><path d="m129.4 65-36.2 51.6-36.7-51.4z" fill="url(#b)"/><path d="m56.5 167.7 55-25.4 18 25.2z" fill="url(#c)"/><path d="m129.4 65c2.1 2.4 38.4 51.3 38.4 51.3l-56.4 26-18.3-25.7z" fill="url(#d)"/><path d="m167.9 116.3-38.4 51.2-18-25.2z" fill="url(#e)"/><path d="m93.2 116.6-36.7 51.1 55-25.4z" fill="#3467b1"/><path d="m228.1 146.3h-34.8c-1 0-1.8-.8-1.8-1.8v-56.2c0-1 .8-1.8 1.8-1.8h35.4c16.3 0 29.6 13.1 29.9 29.4.2 16.8-13.8 30.4-30.5 30.4zm-25.2-11.4h25.8c10.2 0 18.4-8.3 18.4-18.4s-8.3-18.5-18.4-18.5h-25.8z"/><path d="m302.2 146.3h-34.8c-1 0-1.8-.8-1.8-1.8v-56.2c0-1 .8-1.8 1.8-1.8h35.4c16.3 0 29.6 13.1 29.9 29.4.3 16.8-13.8 30.4-30.5 30.4zm-25.2-11.4h25.8c10.2 0 18.4-8.3 18.4-18.4s-8.2-18.5-18.4-18.5h-25.8z"/><path d="m405.3 146.1h-34.9c-16.7 0-30.7-13.7-30.5-30.4.3-16.2 13.6-29.4 29.9-29.4h35.5c1 0 1.8.8 1.8 1.8v7.9c0 1-.8 1.8-1.8 1.8h-35.1c-10 0-18.5 7.8-18.9 17.7-.4 10.5 8 19.2 18.4 19.2h35.5c1 0 1.8.8 1.8 1.8v7.9c0 .9-.8 1.7-1.7 1.7z"/><path d="m405.8 122.2h-34.3c-3.2 0-5.7-2.6-5.7-5.7 0-3.2 2.6-5.7 5.7-5.7h34.3c1 0 1.8.8 1.8 1.8v7.9c0 .9-.8 1.7-1.8 1.7z"/><path d="m456.5 116.5 24.5-27c1-1.1.2-2.9-1.3-2.9h-10.7c-.5 0-1 .2-1.3.6l-18.9 20.8-18.9-20.8c-.3-.4-.8-.6-1.3-.6h-10.6c-1.5 0-2.3 1.8-1.3 2.9l24.4 26.9-24.4 26.9c-1 1.1-.2 2.9 1.3 2.9h10.7c.5 0 1-.2 1.3-.6l18.9-20.8 18.9 20.8c.3.4.8.6 1.3.6h10.7c1.5 0 2.3-1.8 1.3-2.9z"/></svg>