<svg fill="none" height="120" viewBox="0 0 120 120" width="120" xmlns="http://www.w3.org/2000/svg"><path clip-rule="evenodd" d="m73.6542 32.4448-25.5595 54.0523h-1.893l25.5595-54.0523zm3.3144 17.891c0-1.5141.5686-2.7453 1.7037-3.692 1.1678-.9463 2.6664-1.4197 4.4967-1.4197 1.1999 0 2.3518.1262 3.4556.3786 1.1364.2523 2.4612.7411 3.9761 1.4677l-.8515 1.6089c-1.3883-.6944-2.5719-1.1832-3.5499-1.4673-.9789-.2524-1.9729-.3785-2.9822-.3785-1.357 0-2.4149.3158-3.1719.9467-.7884.6308-1.1832 1.4672-1.1832 2.5084 0 1.0098.315 1.8775.9467 2.6032.6626.6944 2.1299 1.7038 4.4023 3.029 2.0513 1.1995 3.5341 2.2247 4.4495 3.0766.9467.8836 1.6406 1.8303 2.0826 2.8401.4094 1.0098.615 2.2247.615 3.6448 0 2.8084-.7729 5.0327-2.3187 6.6738-1.5467 1.6093-3.7092 2.4136-6.4849 2.4136-2.6823 0-4.8289-.773-6.4382-2.3183-1.578-1.5154-2.3668-3.55-2.3668-6.1073 0-2.3981.6785-4.3538 2.0359-5.8682 1.3248-1.5463 3.4547-2.6981 6.3897-3.4556-1.9561-1.1042-3.3131-2.1458-4.0701-3.1242-.7583-1.0094-1.1364-2.1295-1.1364-3.3603zm21.1109-3.171 7.2895 11.5489 7.385-11.5489h2.035l-8.378 12.9214 9.04 14.1045h-2.13l-7.999-12.5896-8.142 12.5896h-2.0818l9.0878-14.1045-8.2364-12.9214zm-18.4124 12.0223c-.9467.4733-1.7046 1.0415-2.2724 1.7037-.5686.6313-.9947 1.3892-1.2784 2.272-.3154.8836-.4734 1.8775-.4734 2.9813 0 2.0522.6313 3.6924 1.8934 4.9236 1.2618 1.2296 2.9509 1.8454 5.0649 1.8454 2.1771 0 3.8663-.6304 5.0645-1.8934 1.1999-1.2944 1.799-3.1552 1.799-5.5846 0-1.6411-.4421-3.0607-1.3257-4.2598-.8514-1.199-2.3187-2.3196-4.4014-3.3611-1.799.442-3.1551.8995-4.0705 1.3729zm-61.2041-13.5844c1.1359.2523 2.4607.7411 3.9761 1.4677l-.8523 1.6089c-1.3888-.6944-2.572-1.1832-3.55-1.4673-.978-.2524-1.9724-.3785-2.9822-.3785-1.3565 0-2.414.3158-3.171.9467-.7897.6308-1.1832 1.4672-1.1832 2.5084 0 1.0098.315 1.8775.9467 2.6032.6622.6944 2.1299 1.7038 4.4018 3.029 2.051 1.1995 3.5341 2.2247 4.4486 3.0766.9472.8836 1.6416 1.8303 2.0832 2.8401.4102 1.0098.6154 2.2247.6154 3.6448 0 2.8084-.7734 5.0327-2.3192 6.6738-1.5462 1.6093-3.7083 2.4136-6.4849 2.4136-2.6822 0-4.82799-.773-6.43733-2.3183-1.578-1.5154-2.36678-3.55-2.36678-6.1073 0-2.3981.6785-4.3538 2.03547-5.8682 1.32523-1.5463 3.45514-2.6981 6.39014-3.4556-1.9566-1.1042-3.3131-2.1458-4.071-3.1242-.75745-1.0094-1.13596-2.1295-1.13596-3.3603 0-1.5141.56819-2.7453 1.70416-3.692 1.1677-.9463 2.6663-1.4197 4.4967-1.4197 1.1991 0 2.3509.1262 3.4556.3786zm-6.9583 13.5844c-.9467.4733-1.70377 1.0415-2.27241 1.7037-.56777.6313-.99391 1.3892-1.27758 2.272-.31585.8836-.47336 1.8775-.47336 2.9813 0 2.0522.63085 3.6924 1.89342 4.9236 1.26173 1.2296 2.95043 1.8454 5.06483 1.8454 2.1771 0 3.8654-.6304 5.0645-1.8934 1.199-1.2944 1.799-3.1552 1.799-5.5846 0-1.6411-.4421-3.0607-1.3257-4.2598-.8518-1.199-2.3195-2.3196-4.4018-3.3611-1.7986.442-3.156.8995-4.0709 1.3729zm35.5952-12.0223-8.9929 16.5666v10.4593h-1.9415v-10.3181l-9.0401-16.7078h2.1771l7.8578 14.7676 7.9042-14.7676z" fill="#231f20" fill-rule="evenodd"/></svg>