<svg fill="none" height="120" viewBox="0 0 120 120" width="120" xmlns="http://www.w3.org/2000/svg"><path d="m60 105c24.8528 0 45-20.1472 45-45s-20.1472-45-45-45-45 20.1472-45 45 20.1472 45 45 45z" fill="#1aab9b"/><g fill="#fff"><path d="m54.7836 81.1125c-1.3875 0-2.475-1.05-2.475-2.3625v-18.8625l-20.3625-14.0625v32.925c0 1.3125-1.0875 2.3625-2.475 2.3625s-2.475-1.05-2.475-2.3625v-37.5c0-1.3125 1.0875-2.3625 2.475-2.3625.525 0 1.0125.15 1.425.45l25.3125 17.5125c.6375.4125 1.05 1.125 1.05 1.9125v20.0625c0 1.2375-1.125 2.2875-2.475 2.2875z"/><path d="m65.2094 81.1125c-1.3875 0-2.475-1.05-2.475-2.3625v-20.025c0-.75.4125-1.5 1.05-1.9125l25.275-17.475c.4125-.3.9-.45 1.425-.45 1.2 0 2.475.9 2.475 2.3625v37.5c0 1.3125-1.0875 2.3625-2.475 2.3625s-2.475-1.05-2.475-2.3625v-32.925l-20.325 14.0625v18.8625c0 1.3125-1.125 2.3625-2.475 2.3625z"/></g></svg>