<svg viewBox="0 0 1559 682" xmlns="http://www.w3.org/2000/svg" xmlns:xlink="http://www.w3.org/1999/xlink"><linearGradient id="a" gradientUnits="userSpaceOnUse" x1="238" x2="704" y1="1099.75" y2="1099.75"><stop offset="0" stop-color="#85b8f7"/><stop offset="1" stop-color="#88acf7"/></linearGradient><linearGradient id="b" gradientUnits="userSpaceOnUse" x1="785" x2="1251" y1="1099.75" y2="1099.75"><stop offset="0" stop-color="#88a8f7"/><stop offset="1" stop-color="#8b97f7"/></linearGradient><linearGradient id="c" gradientUnits="userSpaceOnUse" x1="1315" x2="1797" y1="1100" y2="1100"><stop offset="0" stop-color="#8c94f7"/><stop offset="1" stop-color="#8f87f7"/></linearGradient><linearGradient id="d" gradientUnits="userSpaceOnUse" x1="531" x2="664" y1="66.5" y2="66.5"><stop offset=".01" stop-color="#89a4f7"/><stop offset="1" stop-color="#8aa0f7"/></linearGradient><linearGradient id="e" gradientUnits="userSpaceOnUse" x1="892" x2="1025" y1="66.5" y2="66.5"><stop offset=".01" stop-color="#8c96f7"/><stop offset="1" stop-color="#8c92f7"/></linearGradient><path d="m703.07 1105.09q.42-7 .43-14.09c0-128.41-104.09-232.5-232.5-232.5s-232.5 104.09-232.5 232.5q0 7.17.43 14.24l-.93 179.76a56 56 0 0 0 112 0v-194a121 121 0 0 1 242 0v198.57l.19-.12a56 56 0 0 0 111.81-4.45z" fill="url(#a)" transform="translate(-238 -659)"/><path d="m1250.07 1094.41q.42 7 .43 14.09c0 128.41-104.09 232.5-232.5 232.5s-232.5-104.09-232.5-232.5q0-7.17.43-14.24l-.93-179.76a56 56 0 0 1 112 0v194a121 121 0 0 0 242 0v-198.57l.19.12a56 56 0 0 1 111.81 4.45z" fill="url(#b)" transform="translate(-238 -659)"/><path d="m1556 859c-133.1 0-241 107.9-241 241s107.9 241 241 241 241-107.9 241-241-107.9-241-241-241zm0 371a130 130 0 1 1 130-130 130 130 0 0 1 -130 130z" fill="url(#c)" transform="translate(-238 -659)"/><circle cx="597.5" cy="66.5" fill="url(#d)" r="66.5"/><circle cx="958.5" cy="66.5" fill="url(#e)" r="66.5"/></svg>