<svg height="162" viewBox="0 0 125 162" width="125" xmlns="http://www.w3.org/2000/svg"><path d="m62.9407786 0c34.2743616-0 62.0592214 27.7848598 62.0592214 62.0592214v37.8815572c0 34.2743614-27.7848598 62.0592214-62.0592214 62.0592214h-.8815572c-34.2743616 0-62.0592214-27.78486-62.0592214-62.0592214v-37.8815572c-0-34.2743616 27.7848598-62.0592214 62.0592214-62.0592214zm-.7363686 37.2413793c-14.4168674 0-26.1040476 11.6963593-26.1040476 26.1245497l-.0007107 3.9184503-.03.0002321v57.4740096l.3407638-.002906c10.65545-.181856 19.237272-8.876297 19.237272-19.57513l.0005995-1.499303c2.0949061.542298 4.291848.830813 6.556123.830813 14.4168675 0 26.1040477-11.6963596 26.1040477-26.12455v-15.021616c0-14.4281904-11.6871802-26.1245497-26.1040477-26.1245497zm0 19.5934123c3.6042169 0 6.526012 2.9240898 6.526012 6.5311374v15.021616c0 3.6070476-2.9217951 6.5311374-6.526012 6.5311374-3.6042168 0-6.5260119-2.9240898-6.5260119-6.5311374v-15.021616c0-3.6070476 2.9217951-6.5311374 6.5260119-6.5311374z" fill="#8840fa" fill-rule="evenodd"/></svg>