<svg height="44" viewBox="0 0 90 44" width="90" xmlns="http://www.w3.org/2000/svg" xmlns:xlink="http://www.w3.org/1999/xlink"><linearGradient id="a" x1="50%" x2="50%" y1="0%" y2="100%"><stop offset="0" stop-color="#3100ff"/><stop offset="1" stop-color="#3100ff" stop-opacity="0"/></linearGradient><g fill="none" fill-rule="evenodd"><g fill="url(#a)" transform="translate(.223589 .164535)"><ellipse cx="14.832708" cy="14.255783" rx="14.832708" ry="14.227446" transform="matrix(0 -1 1 0 2.066618 30.200993)"/><ellipse cx="14.832708" cy="14.255783" rx="14.832708" ry="14.227446" transform="matrix(-0 1 -1 -0 29.981025 14.037061)"/></g><path d="m51.0165589 35.3475309c-3.9064096 0-7.0803675-.9068451-9.5916308-2.3368701l2.1973554-6.6618236h.1743933c1.220753 4.8830121 5.0225267 7.3942754 8.5452711 7.3942754 1.9880835 0 3.4529871-1.1509957 3.4529871-2.9995645 0-1.1161171-.4534226-2.1624768-2.4763847-3.0693219l-5.7898572-2.650778c-3.4181084-1.6044182-5.1969199-4.4644681-5.1969199-7.53379 0-3.8017737 2.4066273-7.95233391 9.3823588-7.95233391 3.1390792 0 6.7664596 1.01148111 8.8243004 2.16247681l-2.5112633 5.7200998h-.1743933c-1.3951463-4.2900749-4.4993468-6.3479157-7.5337901-6.3479157-2.546142 0-3.4529871 1.2905104-3.4529871 2.4415061s.5929372 2.232234 2.4415061 3.1390791l5.9642504 2.8251713c3.8366523 1.7788115 4.987648 3.976167 4.987648 7.0106102 0 4.9527693-3.6971377 8.859179-9.2428442 8.859179zm20.9133538-5.3713133c1.7439329 0 3.0344432-.5231799 3.976167-1.8485688l.2790292.0697573c-.9417237 5.3713132-4.5691041 6.9757315-7.3593967 6.9757315-4.0110456 0-7.9523339-3.2088365-7.9523339-9.3126016 0-5.8596144 3.4529871-10.0450533 8.1964845-10.0450533 2.9646859 0 7.1850034 1.5695395 7.1850034 8.1964845h-10.0450533c.5231798 3.9412883 2.6158993 5.9642504 5.7200998 5.9642504zm-3.6273804-13.0097392c-1.4300249 0-2.2322341 1.8485688-2.2322341 4.987648 0 .3487866 0 .6626945.0348787.9766024h4.3249535c0-4.6039828-.7324518-5.9642504-2.1275981-5.9642504zm21.1226258 12.9399819.3139079.104636c-.7673305 2.5810206-2.8600499 5.1620413-6.4874303 5.1620413-3.3134725 0-4.7783761-2.1275981-4.7783761-5.0225267v-12.835346h-1.7090542v-.1743933c2.6856566-2.3019914 5.5457065-4.4295895 8.3011205-6.8362168h.0348786v6.103765h3.2088365v.8719665h-3.2088365v11.9285008c0 1.4997823.6626945 2.4763847 1.8834475 2.4763847 1.3602677 0 2.1275982-.9068451 2.4415061-1.7788115z" fill="#0f0835"/></g></svg>