<svg fill="none" height="120" viewBox="0 0 120 120" width="120" xmlns="http://www.w3.org/2000/svg" xmlns:xlink="http://www.w3.org/1999/xlink"><filter id="a" color-interpolation-filters="sRGB" filterUnits="userSpaceOnUse" height="92.1265" width="120.095" x="-5.58008" y="8.35543"><feFlood flood-opacity="0" result="BackgroundImageFix"/><feColorMatrix in="SourceAlpha" type="matrix" values="0 0 0 0 0 0 0 0 0 0 0 0 0 0 0 0 0 0 127 0"/><feOffset dy="6"/><feGaussianBlur stdDeviation="12"/><feColorMatrix type="matrix" values="0 0 0 0 0 0 0 0 0 0 0 0 0 0 0 0 0 0 0.13 0"/><feBlend in2="BackgroundImageFix" mode="normal" result="effect1_dropShadow"/><feBlend in="SourceGraphic" in2="effect1_dropShadow" mode="normal" result="shape"/></filter><filter id="b" color-interpolation-filters="sRGB" filterUnits="userSpaceOnUse" height="92.1264" width="120.095" x="5.17383" y="31.207"><feFlood flood-opacity="0" result="BackgroundImageFix"/><feColorMatrix in="SourceAlpha" type="matrix" values="0 0 0 0 0 0 0 0 0 0 0 0 0 0 0 0 0 0 127 0"/><feOffset dy="6"/><feGaussianBlur stdDeviation="12"/><feColorMatrix type="matrix" values="0 0 0 0 0 0 0 0 0 0 0 0 0 0 0 0 0 0 0.13 0"/><feBlend in2="BackgroundImageFix" mode="normal" result="effect1_dropShadow"/><feBlend in="SourceGraphic" in2="effect1_dropShadow" mode="normal" result="shape"/></filter><linearGradient id="c"><stop offset="0" stop-color="#dc6be5"/><stop offset="1" stop-color="#dc6be5" stop-opacity="0"/></linearGradient><linearGradient id="d" gradientUnits="userSpaceOnUse" x1="32.4688" x2="120.556" xlink:href="#c" y1="71.7659" y2="4.05567"/><linearGradient id="e" gradientUnits="userSpaceOnUse" x1="87.2199" x2="-.867698" xlink:href="#c" y1="47.9227" y2="115.633"/><clipPath id="f"><path d="m0 0h119.688v120h-119.688z"/></clipPath><g clip-path="url(#f)"><g filter="url(#a)"><path clip-rule="evenodd" d="m89.3238 42.5698c-1.5344 1.4153-3.9625 1.3574-5.4233-.1291l-3.9672-4.0373c-5.8432-5.9461-15.5554-6.1776-21.6929-.5168l-26.6322 24.5623 25.2552.6016c2.1179.0505 3.7926 1.7548 3.7405 3.8066-.052 2.0519-1.8112 3.6742-3.9291 3.6237l-34.5132-.8222c-2.1179-.0505-3.7926-1.7548-3.7405-3.8067l.8488-33.4357c.052-2.0519 1.8112-3.6743 3.9291-3.6239 2.1179.0505 3.7925 1.7547 3.7405 3.8065l-.6211 24.467 26.632-24.5623c9.2067-8.4911 23.775-8.144 32.5394.7751l3.9674 4.0373c1.4606 1.4865 1.4011 3.8388-.1334 5.2539z" fill="url(#d)" fill-rule="evenodd"/></g><g filter="url(#b)"><path clip-rule="evenodd" d="m30.3649 77.1189c1.5344-1.4151 3.9625-1.3571 5.423.1293l3.9675 4.0373c5.8429 5.9461 15.5554 6.1774 21.6929.5168l26.6322-24.5623-25.2552-.6019c-2.1179-.0502-3.7926-1.7545-3.7405-3.8063.052-2.0519 1.8112-3.6742 3.9291-3.6237l34.5132.8222c2.118.0505 3.7929 1.7548 3.7399 3.8064l-.848 33.436c-.052 2.0519-1.8115 3.6742-3.9295 3.6237-2.1176-.0505-3.7923-1.7545-3.7402-3.8063l.6209-24.4669-26.6319 24.5622c-9.2067 8.4911-23.775 8.1438-32.5394-.7751l-3.9674-4.0373c-1.4608-1.4868-1.401-3.8388.1334-5.2541z" fill="url(#e)" fill-rule="evenodd"/></g></g></svg>