<svg enable-background="new 0 0 652 652" viewBox="0 0 652 652" xmlns="http://www.w3.org/2000/svg"><path d="m49.3 333.5c-2.5 3.8-5 7.5-7.6 11.2-.2.2 0 .2 0 .2h24.6c.2 0 .3.1.5.2l11.2 10.3c.1.1.2.3.2.5 0 .4-.3.7-.7.7h-55c-1 0-1.9-.8-1.9-1.9 0 0-.3-1.6.5-3 .2-.2 5.7-8.3 12.4-18.1zm0-23 7.7-11.2c.3-.4 0-.4 0-.4l-15.1-.1h-10.3c-.2 0-.4-.1-.5-.2l-10.3-10.2c-.3-.3-.3-.7 0-.9.1-.1.3-.2.5-.2h55.1c1 0 1.9.9 1.9 1.9 0 0 .2 1-.5 2-.3.4-6.2 9.2-13.1 19.5zm239.3 22 13.7 23.2c.3.4-.1 1-.6 1h-12.1c-.2 0-.5-.1-.6-.3l-19.9-33.4c-.3-.4.1-1 .6-1l9.4.1c3.2 0 6-1.1 8.3-3.4 2.3-2.1 3.6-5.1 3.6-8.2s-1.2-5.8-3.6-8c-2.2-2.2-5.2-3.4-8.3-3.4h-23.5c-.9 0-1.6-1.2-1.6-1.2s-.1-.1-.1-.1l-5.5-9.2c-.3-.4.1-1 .6-1h30.1c6.5 0 12.1 2.2 16.8 6.7 4.6 4.6 7 10 7 16.3 0 4.8-1.3 9.2-4.2 13.1-2.6 3.7-5.9 6.3-9.7 8-.4-0-.6.4-.4.8 0-.1 0 0 0 0zm91 10.9-11.4 10.1c-.5.4-1.3.1-1.3-.5v-64.8c0-.6.8-.9 1.3-.5l11.4 9.9c.1.1.2.3.2.5v44.8c.1.2 0 .4-.2.5zm73.4-37.6c-4.6 4.5-6.8 10-6.8 16.3s2.2 11.9 6.8 16.4 10.2 6.7 16.7 6.7c6.4 0 12-2.2 16.6-6.7 4.7-4.6 6.9-10 6.9-16.4 0-6.3-2.3-11.8-6.9-16.3s-10.1-6.8-16.6-6.8-12 2.2-16.7 6.8zm41.5-8.1c7 6.7 10.5 14.9 10.5 24.4 0 9.6-3.5 17.7-10.5 24.4-6.9 6.7-15.1 10.2-24.8 10.2-9.8 0-18-3.5-24.9-10.2-6.9-6.8-10.4-14.8-10.4-24.4 0-9.5 3.5-17.7 10.4-24.4 6.8-6.7 15.1-10.2 24.9-10.2 9.7-.1 17.9 3.4 24.8 10.2zm125.3-10.3c.4 0 .7.3.7.7v68.6l-57.5-51.6c-.1-.1-.2-.3-.2-.5v-15.7c0-.6.7-.9 1.1-.5l44 39.5c.4.4 1.1.1 1.1-.5v-39.3c0-.4.3-.7.7-.7zm-465.1 57.7h35.2c.4 0 .7.3.7.7v10.2c0 .4-.3.7-.7.7h-46.8c-.4 0-.7-.3-.7-.7 0-.2.1-.4.2-.5l11.6-10.3c.2-.1.3-.1.5-.1zm-.6-28.7h26.8c.4 0 .7.3.7.7v10.2c0 .4-.3.7-.7.7h-26.8.3v-11.5zm36.4-28.3v10.3c0 .4-.3.7-.7.7h-35.1c-.2 0-.4-.1-.5-.2l-10.6-10.3c-.4-.4-.1-1.1.5-1.1h45.8c.3-.1.7.2.6.6z" fill="#21205d"/></svg>