<svg fill="none" height="1164" viewBox="0 0 1500 1164" width="1500" xmlns="http://www.w3.org/2000/svg"><path d="m397.859 1072.15h778.411" stroke="#ced5e5" stroke-linecap="round" stroke-linejoin="round" stroke-width="3"/><path d="m113.645 442.861c78.232-163.902 294.518-239.949 408.364-180.412 91.536 47.929 53.821 150.593 154.862 233.144 130.252 106.467 270.108-1 430.469 74.847 216.29 102.364 300.72 458.28 222.89 520.72-70.13 56.34-212.68-173.604-539.314-212.728-278.311-33.321-391.957 107.566-541.116 17.01-127.951-77.548-215.8865-285.377-136.155-452.581z" fill="#f2f2f2"/><path d="m1351.89 284.263-8.27-8.279-29.01 29.01 8.28 8.278z" fill="#4a6ad6"/><path d="m1157.32 118.21-9 7.486 26.22 31.544 9-7.485z" fill="#4a6ad6"/><path d="m223.11 131.383-9.275 7.141 25.02 32.509 9.275-7.142z" fill="#4a6ad6"/><path d="m551.529 116.5-10.931 4.186 14.668 38.314 10.931-4.187z" fill="#4a6ad6"/><path d="m114.246 167.69h-11.705v41.025h11.705z" fill="#ffa26b"/><path d="m679.476 9.27687-7.14-9.27687-32.501 25.0256 7.139 9.2768z" fill="#ffa26b"/><path d="m787.327 461.272-7.14-9.276-32.501 25.025 7.139 9.277z" fill="#ffa26b"/><path d="m161.915 351.92-10.654 4.85 16.993 37.342 10.654-4.851z" fill="#4a6ad6"/><path d="m377.039 154.013-10.566-5.038-17.649 37.034 10.566 5.038z" fill="#ffa26b"/><path d="m50.1989 484.193-10.5658-5.038-17.6494 37.034 10.5658 5.037z" fill="#ffa26b"/><path d="m1448.61 203.74-11.06 3.828 13.41 38.769 11.06-3.828z" fill="#ffa26b"/><path d="m1478.11 456.371-11.06 3.828 13.41 38.769 11.06-3.828z" fill="#ffa26b"/><path d="m1112.21 13.6296-11.69-.4389-1.54 40.9968 11.7.4389z" fill="#ffa26b"/><path d="m11.0044 269.453c6.0776 0 11.0044-4.928 11.0044-11.007s-4.9268-11.007-11.0044-11.007c-6.07756 0-11.0044 4.928-11.0044 11.007s4.92684 11.007 11.0044 11.007z" fill="#4a6ad6"/><path d="m1270.11 188.203c4.75 0 8.6-3.853 8.6-8.606 0-4.752-3.85-8.605-8.6-8.605s-8.61 3.853-8.61 8.605c0 4.753 3.86 8.606 8.61 8.606z" fill="#ffa26b"/><path d="m802.321 82.4368c4.751 0 8.603-3.8528 8.603-8.6054s-3.852-8.6053-8.603-8.6053c-4.752 0-8.604 3.8527-8.604 8.6053s3.852 8.6054 8.604 8.6054z" fill="#ffa26b"/><path d="m1491.4 86.139c4.75 0 8.6-3.8527 8.6-8.6053s-3.85-8.6054-8.6-8.6054-8.61 3.8528-8.61 8.6054 3.86 8.6053 8.61 8.6053z" fill="#ffa26b"/><g fill="#4a6ad6"><path d="m1321.03 69.0284c6.79 0 12.3-5.5103 12.3-12.3077 0-6.7973-5.51-12.3076-12.3-12.3076-6.8 0-12.31 5.5103-12.31 12.3076 0 6.7974 5.51 12.3077 12.31 12.3077z"/><path d="m995.598 117.859c6.792 0 12.302-5.511 12.302-12.308 0-6.7973-5.51-12.3076-12.302-12.3076-6.796 0-12.305 5.5103-12.305 12.3076 0 6.797 5.509 12.308 12.305 12.308z"/><path d="m1295.52 434.255c6.79 0 12.3-5.51 12.3-12.307 0-6.798-5.51-12.308-12.3-12.308-6.8 0-12.31 5.51-12.31 12.308 0 6.797 5.51 12.307 12.31 12.307z"/><path d="m276.511 44.4131c5.801 0 10.504-4.7039 10.504-10.5065s-4.703-10.5066-10.504-10.5066c-5.802 0-10.505 4.704-10.505 10.5066s4.703 10.5065 10.505 10.5065z"/><path d="m697.579 96.6455c5.801 0 10.504-4.7039 10.504-10.5065s-4.703-10.5066-10.504-10.5066-10.504 4.704-10.504 10.5066 4.703 10.5065 10.504 10.5065z"/><path d="m720.989 401.235c5.801 0 10.504-4.704 10.504-10.507 0-5.802-4.703-10.506-10.504-10.506-5.802 0-10.505 4.704-10.505 10.506 0 5.803 4.703 10.507 10.505 10.507z"/></g><path d="m230.892 274.256c5.802 0 10.505-4.704 10.505-10.507 0-5.802-4.703-10.506-10.505-10.506-5.801 0-10.504 4.704-10.504 10.506 0 5.803 4.703 10.507 10.504 10.507z" fill="#ffa26b"/><path d="m238.596 510.703c5.801 0 10.504-4.704 10.504-10.507 0-5.802-4.703-10.506-10.504-10.506-5.802 0-10.505 4.704-10.505 10.506 0 5.803 4.703 10.507 10.505 10.507z" fill="#ffa26b"/><path d="m954 1071s7.962-26.78 65.18-46.18c0 0 15.3 9.19 33.96-1.72l2.26 38.7z" fill="#1a051d"/><path d="m1019.18 1024.82-.86-34.361 33.02 1.92 1.8 30.721c-18.58 10.91-33.96 1.72-33.96 1.72z" fill="#ffdfd7"/><path d="m1334 858.684s-21.62-6.265-44.96-76.599c0 0 4.76-21.019-6.33-43.251l29.28-8.691z" fill="#1a051d"/><path d="m1288.96 782.085-26.15 6.266-3.44-42.544 23.27-6.872c11.08 22.232 6.32 43.15 6.32 43.15z" fill="#ffdfd7"/><path d="m1028.94 611.505s-37.315 134.605-43.95 180.484c-6.635 45.878 24.36 213.731 24.36 213.731l50.42-9.197-21.23-189.073 43.4-139.253 15.3-51.639z" fill="#1a051d"/><path d="m1118.52 617.973 34.97 134.099 108.89-13.743 12.41 70.435s-137.15 30.922-151.82 27.487c-14.6-3.436-49.26-126.622-54.02-155.22-4.84-28.599 9.83-65.989 9.83-65.989z" fill="#1a051d"/><path d="m977.486 319.453-103.8-47.4-59.2-102.8s5.8-20.4 6.3-31.8-10.1-40.7-18.6-50.7-7.1 82.9-7.1 82.9 32.2 103.3 39.3 115.6 132.2 73.5 132.2 73.5z" fill="#ffdfd7"/><path d="m1367.29 507.553-108.5-48.8-91.2-68.6-29.4 28.3s96.6 65.8 109.2 72.3c11.4 5.9 109.2 33.6 109.2 33.6s23.4 17.7 41 41.6c14.7 20 27.2-10.2 10.5-30.9-20.4-25.5-40.8-27.5-40.8-27.5z" fill="#ffdfd7"/><path d="m1004.09 635.458c-1.7-.104 13-221.897 39.1-292.61 26.1-70.712 44.8-41.846 51.6-29.385 6.8 12.356 41.4 201.961 47.6 309.016.1 0-61.2 20.04-138.3 12.979z" fill="#ffa26b"/><path d="m1095.69 314.853 90.2 75.8s-18.5 18.1-30.6 62.4l-64.6-70.7z" fill="#ffa26b"/><path d="m972.086 300.353s-13.3 25.8-24.7 67.5l87.904 10.8 32.9-66.9z" fill="#ffa26b"/><path d="m1061.08 307 3.18-37.718 17.84-6.762 5.7 40.782z" fill="#ffdfd7"/><path d="m1042.75 174.512s-10.12 60.539-7.23 86.846c2.89 26.308 40.8 9.509 51.79 2.536 11-6.973 33.86-33.28 26.62-71.632-7.23-38.352-59.6-47.861-71.18-17.75z" fill="#ffdfd7"/><path d="m1042.75 174.512s-12.44-9.509-3.37-25.251c9.16-15.742 19-15.425 27.78-9.086 0 0 1.92-6.973 15.52-11.939 14.28-5.177 23.15 6.868 23.44 18.278 0 0 12.92-3.381 21.99 10.037 11.19 16.482 1.16 32.541 1.16 32.541s14.37 5.283 15.62 23.349c1.35 18.067-10.41 25.674-16.49 27.153 0 0 18.23 29.16-10.9 36.027-29.13 6.762-51.02-4.649-47.16-27.469 0 0 .29-11.517 7.52-18.384 0 0-11.28-12.361-1.54-27.364 0 0-10.03-8.769-8.49-23.983 0 .106-14.85 4.649-25.08-3.909z" fill="#1a051d"/><path d="m557 1071s-9.126-26.57-74.712-45.81c0 0-17.537 9.12-38.921-1.71l-2.595 38.4z" fill="#f2c94c"/><path d="m482.288 1025.08.985-34.08-37.848 1.904-2.058 30.476c21.295 10.93 38.921 1.7 38.921 1.7z" fill="#ffdfd7"/><path d="m244.733 1061.19s11.631-24.36-17.269-90.623c0 0-17.09-8.621-23.622-33.183l-26.842 22.156z" fill="#f2c94c"/><path d="m227.374 970.668 22.995-20.752-25.231-29.975-21.385 17.644c6.532 24.361 23.621 33.083 23.621 33.083z" fill="#ffdfd7"/><path d="m388.877 644.15-48.764 180.352-89.654 141.254-39.816-57.144 76.322-127.82 30.035-169.792 71.877 6.382z" fill="#1a051d"/><path d="m431.33 621.041s50.692 153.158 57.755 185.836c7.063 32.677 0 189.212 0 189.212s-39.516 0-57.755-6.754l-5.096-180.77-60.973-137.961-22.761-57.074z" fill="#1a051d"/><path d="m363.753 288.934c33.947-14.16 54.001 12.575 64.869 37.724 10.755 25.149 32.378 294.392 32.378 294.392s-47.167 3.064-100.944 3.91c-53.778.845-74.056-11.941-74.056-11.941l18.374-173.085c-.224 0 25.432-136.84 59.379-151z" fill="#4a6ad6"/><path d="m307.257 421.205s-25.528 54.719-27.445 66.402c-1.918 11.683-5.752 159.266-5.752 159.266s-16.044 31.653-9.485 61.509c6.458 29.856 31.28 0 31.986-20.37.707-20.37-2.32-43.736-2.32-43.736s10.695-123.218 14.328-137.198c3.632-13.979 40.967-68.399 40.967-68.399z" fill="#ffdfd7"/><path d="m630.349 85.6978c-5.146 21.4682-3.935 35.2482-3.935 35.2482s-75.274 110.238-85.364 120.623c-10.091 10.384-69.825 39.442-69.825 39.442l28.152 35.847s49.543-35.049 57.111-44.235c7.467-9.187 84.657-135.601 84.657-135.601s12.916-8.687 21.291-63.007c0 0 3.027-30.1556-4.944-32.8517-8.173-2.696-23.309 28.6579-27.143 44.5345z" fill="#ffdfd7"/><path d="m338.281 322.649-53.579 95.56 67.806 30.555 28.051-63.107z" fill="#4a6ad6"/><path d="m400.895 300.682 78.503-38.644s20.887 40.741 36.123 58.315l-91.721 63.706z" fill="#4a6ad6"/><path d="m396.169 172.203s21.606 50.665 20.81 64.234-10.576 24.502-44.349 19.719-66.523-63.062-37.185-89.225c29.452-26.162 53.674-12.3 60.724 5.272z" fill="#ffdfd7"/><path d="m362.282 282.318 8.642-30.262 21.72 3.709 11.599 37.487s-9.439 7.907-27.292 5.173c-17.967-2.831-14.669-16.107-14.669-16.107z" fill="#ffdfd7"/><path d="m354.208 248.444s-32.181-14.252-42.188-39.341c-10.007-25.088-5.231-53.007 15.92-63.746 21.037-10.835 62.088-10.835 85.741-26.357 0 0 8.756 29.481-4.776 45.1-.114.098-.228.196-.228.293-6.254 7.127-15.237 12.105-25.244 14.35l-23.084 4.979 16.488 32.41-14.896 6.345s-2.161-18.06-13.191-20.598-17.739 2.538-13.305 15.522c4.435 12.983 18.081 16.791 18.081 16.791z" fill="#1a051d"/><path d="m771.866 1071h-31.651c-24.392 0-44.215-20.47-44.215-45.84v-50.16h120v50.16c.081 25.37-19.742 45.84-44.134 45.84z" fill="#e0e0e0"/><path d="m740.702 896.237s-26.624-31.188-34.895-67.964 6.695-39.948 19.692-32.623c7.798 4.38 28.199 40.099 32.847 122.185z" fill="#00c48c"/><path d="m765.908 919.269s9.61-39.268 35.052-67.888c25.443-28.62 37.1-19.181 38.991-4.833 1.103 8.609-16.069 45.838-81.29 99.227z" fill="#00c48c"/><path d="m764.254 834.843s7.404-30.055 26.86-52.03c19.535-21.975 28.436-14.65 29.853-3.7.867 6.569-12.288 35.114-62.306 76.044z" fill="#00c48c"/><path d="m752.753 766.803s-7.404-30.055-26.86-52.03c-19.535-21.975-28.436-14.65-29.853-3.7-.867 6.57 12.287 35.115 62.306 76.044z" fill="#00c48c"/><path d="m774.494 747.094s23.788-20.842 34.343-47.877c10.476-27.034-.473-30.961-11.185-26.808-6.38 2.492-25.994 27.412-38.991 89.184z" fill="#00c48c"/><path d="m758.267 975v-233.117" stroke="#7ddfc3" stroke-linecap="round" stroke-linejoin="round" stroke-width="3"/></svg>