<svg fill="none" height="1140" viewBox="0 0 1350 1140" width="1350" xmlns="http://www.w3.org/2000/svg"><path d="m1064.4 1137.6h283.4" stroke="#ced5e5" stroke-linecap="round" stroke-linejoin="round" stroke-width="3"/><path d="m481.3 1127.4h250" stroke="#ced5e5" stroke-linecap="round" stroke-linejoin="round" stroke-width="3"/><path d="m308.5 1038.3v-125.7h-48.3v125.7l-133.2 34.7v18.5l157.4-18.5 157.3 18.5v-18.5z" fill="#bdbdbd"/><path d="m477.6 1003-13.2 43.4s5.5 23.4 26.4 23.2 17.6-7.7 17.6-7.7l21.3-52.8z" fill="#ffdfd7"/><path d="m466.6 1039.5s-3.5.1-6.3 7.2-13.9 32.5-13.9 32.5l65.2 40.2 68.1 6.2s11.6-6.1 3.4-18.7c-8.2-12.5-49.2-25.4-49.2-25.4l-21.5-26.4s-13.4 2.6-27.6-2.4c-14.3-4.9-18.2-13.2-18.2-13.2z" fill="#1a051d"/><path d="m1219.1 939.3h-26l6.2-219.8h13.6z" fill="#e0e0e0"/><path d="m695.3 1073.8h-20.7-20.7l-107.4 30.2v10.2h128.1 128.1v-10.2z" fill="#bdbdbd"/><path d="m317.1 458.4s15.5-49.3 15.7-50.2c.3-.9-17.3-43.1-6.4-66.2 10.8-23.2 35.2-20.8 44.8-20.5 9.7.3 42.2 8.2 40.7 28.7s-9.1 60.7-16.7 70.9-41.9-2.6-41.9-2.6l-.5 35.5z" fill="#ffdfd7"/><path d="m505.9 1023.1-.3 39.9s13 20.8 22 21c8.9.1 27.5 4.2 31.7-19.1 4.1-23.3 7.5-40.3 7.5-40.3z" fill="#ffdfd7"/><path d="m121.8 844s-24-117.5-27.5-180.8 3.5-130.1 45.7-132.8c42.2-2.6 73 68.6 78.3 96.7 5.2 28.2 23.4 154.2-96.5 216.9z" fill="#e0e0e0"/><path d="m144 862.8s-17.6-.4-16.7 16.3 7.9 33.4 68.6 36.9 193.9-5.3 219.8-12.7c25.9-7.5 41.3-22.9 16.3-48.8-25.1-25.9-154.3-10.1-184.6-7-30.5 3-103.4 15.3-103.4 15.3z" fill="#e0e0e0"/><g fill="#bdbdbd"><path d="m435.6 1135.1c10.217 0 18.5-8.28 18.5-18.5s-8.283-18.5-18.5-18.5-18.5 8.28-18.5 18.5 8.283 18.5 18.5 18.5z"/><path d="m137.3 1135.1c10.217 0 18.5-8.28 18.5-18.5s-8.283-18.5-18.5-18.5-18.5 8.28-18.5 18.5 8.283 18.5 18.5 18.5z"/><path d="m709.1 698.4h-69c-3.9 0-7.1-3.2-7.1-7.1v-26.3h83.1v26.3c0 3.9-3.1 7.1-7 7.1z"/><path d="m695.2 698.4h-41.3v375.4h41.3z"/></g><path d="m889.1 665h-429v-15l429-16.7z" fill="#e0e0e0"/><path d="m412.2 744.1s114.3 4.4 141.3 10.8 42 21 40.7 48.3-79.3 209-79.3 209l-46.3-6.4 21.1-142.4z" fill="#6d8bf0"/><path d="m465.6 983.2 50.6 7.9-4.4 25.6-50.2-7.7z" fill="#6d8bf0"/><path d="m505.6 1063s-7.2 2.8-6.6 10.8 2.3 43.1 2.3 43.1-1.3 10.7 23.7 10.6c25.1-.1 131.6-1.2 131.6-1.2s8.2-12.6-4.1-22-93-41.3-93-41.3-9 7.9-28 8.1c-19 .1-25.9-8.1-25.9-8.1z" fill="#1a051d"/><path d="m332 410.9s-16.6-22.3-14.9-51.6 3.1-48.9 17.5-53.6 20.2 4.1 20.2 4.1 12.9-9.7 27.5-8.5c14.7 1.2 17.6 20 17.6 20s9.1-8.3 19.9-5.1 3.3 24-7.9 23.2c0 0-20.3-2.1-43.7 2.1l-5.9 26.7-8.5-1.5s3.5-14.7-4.7-16.4c-8.2-1.8-15.5 7.9-11.1 19.6s2.6 30.7-6 41z" fill="#fe8163"/><path d="m643.476 643.209c-2.662.104-4.876-2.025-4.876-4.689 0-2.482 1.934-4.536 4.412-4.684l158.129-9.446c2.704-.161 5.045 1.861 5.279 4.56l.228 2.628c.246 2.843-1.934 5.315-4.786 5.427z" fill="#4f4f4f"/><path d="m793 632.9 62.6-152.9 5.914 2.502c2.496 1.056 3.697 3.909 2.706 6.432l-56.679 144.375c-1.014 2.585-3.94 3.848-6.517 2.813z" fill="#4f4f4f"/><path d="m808.07 192.67-9.971-9.97-34.789 34.79 9.97 9.97z" fill="#4a6ad6"/><path d="m170.924 135.665-11.172 8.601 30.012 38.986 11.172-8.601z" fill="#ffc933"/><path d="m79.452 391.654-12.7281-6.067-21.1707 44.413 12.7281 6.067z" fill="#ffc933"/><path d="m951.924 195.984-14.091-.529-1.844 49.166 14.09.529z" fill="#ffc933"/><path d="m13.4 261.4c7.2902 0 13.2-5.91 13.2-13.2s-5.9098-13.2-13.2-13.2c-7.29015 0-13.199988 5.91-13.199988 13.2s5.909838 13.2 13.199988 13.2z" fill="#4a6ad6"/><path d="m777.3 85.2c5.689 0 10.3-4.6115 10.3-10.3s-4.611-10.3-10.3-10.3-10.3 4.6115-10.3 10.3 4.611 10.3 10.3 10.3z" fill="#ffc933"/><path d="m639.2 42.9c8.119 0 14.7-6.5814 14.7-14.7s-6.581-14.7-14.7-14.7-14.7 6.5814-14.7 14.7 6.581 14.7 14.7 14.7z" fill="#4a6ad6"/><path d="m1296 1136.2h-179.8l-31-203.1h241.8z" fill="#bdbdbd"/><path d="m1206.1 734.1c61.19 0 110.8-49.607 110.8-110.8s-49.61-110.8-110.8-110.8-110.8 49.607-110.8 110.8 49.61 110.8 110.8 110.8z" fill="#52cb96"/><path d="m235.1 31.2c6.959 0 12.6-5.6412 12.6-12.6s-5.641-12.6-12.6-12.6-12.6 5.6412-12.6 12.6 5.641 12.6 12.6 12.6z" fill="#4a6ad6"/><path d="m236.8 729.1s-7.5 13.2-5.5 43.5 19.1 76.9 116.5 86.6 159.4 8.8 159.4 8.8v161.3h64.2s10.6-56.7 13.2-75.2 21.1-98.9 13.2-139.4c-7.9-40.4-46.6-46.6-74.7-51.9s-137.2-23.3-137.2-23.3z" fill="#4a6ad6"/><path d="m505.8 1033.5-.2 29.5" stroke="#fff" stroke-linecap="round" stroke-linejoin="round" stroke-width="3"/><path d="m578.2 1033.5h-79.8v-30.5l84.9 1.2z" fill="#4a6ad6"/><path d="m694.7 626.4c-15.1-7.9-40.3-4.5-48.7-3.2s-21.2 1.5-21.2 1.5l-131.1-12.8-53.3-58.7c-42.2 9.7-24.5 42.2-24.5 42.2l57.7 53.8 153.5-5.2c20.8.7 47.2-8.2 51.3-8.9 4.2-.8 31.4-.8 16.3-8.7z" fill="#ffdfd7"/><path d="m230.1 727.4s41.3 11.9 69.5 9.7c28.1-2.2 86.2 2.6 86.2 2.6v-172.8l36 46.5s19.3-41.3 38.2-56.3c0 0-71.2-82.1-97.6-98.3-26.4-16.3-47.9-4-53.2 10.6-5.2 14.4-79.1 258-79.1 258z" fill="#1a051d"/></svg>