<svg viewBox="0 0 460.14 500" xmlns="http://www.w3.org/2000/svg"><path d="m305.54 350.25-50.15-29c-3.61-2.08-3.16-5.73 1-8.14l32.48-18.76 63.24 36.51-32.49 18.76c-4.15 2.45-10.47 2.71-14.08.63z" fill="#d6d8e5" opacity=".4"/><path d="m310.06 347.59-50.14-28.95c-3.62-2.09-3.16-5.73 1-8.14l32.49-18.76 63.24 36.51-32.48 18.75c-4.17 2.42-10.49 2.68-14.11.59z" fill="#b1b4c4"/><path d="m356.66 328.25v-1.91l-2.92 1.68z" fill="#b1b4c4"/><path d="m257.48 315.19v-1.94l3 1.24z" fill="#b1b4c4"/><path d="m310.06 345.68-50.14-28.95c-3.62-2.09-3.16-5.74 1-8.15l32.49-18.75 63.24 36.51-32.49 18.75c-4.16 2.41-10.48 2.68-14.1.59z" fill="#d6d8e5"/><path d="m293.59 289.91-7.83-25.96 63.93 36.66 6.97 25.73z" fill="#9ea1af"/><path d="m354.8 327.41 1.86-1.07-2.76-2.2z" fill="#9ea1af"/><path d="m291.57 290.89-7.82-25.97 63.93 36.67 7.12 25.82z" fill="#b1b4c4"/><path d="m453.85 371.17-247.45-142.87c-3.47-2-6.28-7.38-6.28-12v-191.42c0-4.63 2.81-6.76 6.28-4.75l247.45 142.87c3.48 2 6.29 7.38 6.29 12v191.42c-0 4.63-2.81 6.75-6.29 4.75z" fill="#b1b4c4"/><path d="m455.13 373.14 2.74-1.58-1.18-8.13z" fill="#b1b4c4"/><path d="m199.67 21.31 2.7-1.56 3.88 2.25s-4.13.63-4.23.61-2.35-1.3-2.35-1.3z" fill="#b1b4c4"/><path d="m451.59 372.48-247.46-142.87c-3.47-2-6.28-7.38-6.28-12v-191.42c0-4.63 2.81-6.76 6.28-4.75l247.46 142.87c3.47 2 6.28 7.38 6.28 12v191.42c0 4.63-2.81 6.75-6.28 4.75z" fill="#e4e7f2"/><path d="m457.44 176.56v191.44c0 4.64-2.82 6.77-6.29 4.75l-247.46-142.89c-3.47-2-6.28-7.38-6.28-12v-191.42c0-4.63 2.81-6.75 6.28-4.75l247.46 142.87c3.47 2 6.29 7.38 6.29 12z" fill="#d6d8e5"/><path d="m454 361.09-253.45-146.35.14-187.53c0-1.93 1.34-2.7 3-1.74l247.46 142.86a6.67 6.67 0 0 1 3 5.22z" fill="#fff"/><path d="m438.34 198.06-224.69-129.73a6.09 6.09 0 0 1 -2.56-4.88v-16.22c0-1.88 1.14-2.75 2.56-1.93l224.69 129.7a6.15 6.15 0 0 1 2.56 4.89v16.22c0 1.89-1.15 2.77-2.56 1.95z" fill="#e9eaf2"/><ellipse cx="221.38" cy="61.21" fill="#dadce5" rx="4.02" ry="6.96" transform="matrix(.8660254 -.5 .5 .8660254 -.94 118.9)"/><path d="m338.2 130.8-19.43-11.23a1.51 1.51 0 0 1 -.64-1.22v-2.57c0-.48.28-.69.64-.49l19.43 11.23a1.51 1.51 0 0 1 .64 1.22v2.57c0 .47-.28.69-.64.49z" fill="#dadce5"/><path d="m369.66 149-19.43-11.22a1.52 1.52 0 0 1 -.64-1.22v-2.58c0-.47.28-.69.64-.48l19.43 11.22a1.51 1.51 0 0 1 .64 1.22v2.58c0 .48-.3.64-.64.48z" fill="#dadce5"/><path d="m400.61 166.83-19.44-11.22a1.57 1.57 0 0 1 -.64-1.23v-2.57c0-.47.29-.69.64-.49l19.44 11.23a1.51 1.51 0 0 1 .64 1.22v2.57c0 .48-.25.66-.64.49z" fill="#dadce5"/><path d="m432.07 185-19.44-11.22a1.55 1.55 0 0 1 -.64-1.22v-2.56c0-.47.29-.69.64-.48l19.44 11.22a1.53 1.53 0 0 1 .64 1.22v2.58c0 .46-.29.66-.64.46z" fill="#dadce5"/><path d="m421.33 238.33-52.82-30.5a6.11 6.11 0 0 1 -2.51-4.83v-34.14c0-1.88 1.14-2.74 2.55-1.93l52.82 30.49a6.15 6.15 0 0 1 2.56 4.89v34.08c-.04 1.89-1.19 2.75-2.6 1.94z" fill="#e9eaf2"/><path d="m351.76 249.4-132.49-76.5a3.07 3.07 0 0 1 -1.28-2.44v-5.87c0-.94.58-1.37 1.28-1l132.49 76.49a3.05 3.05 0 0 1 1.28 2.44v5.87c-.04.98-.57 1.41-1.28 1.01z" fill="#e9eaf2"/><path d="m338.72 255.75-119.06-68.75a3.05 3.05 0 0 1 -1.28-2.44v-2.92c0-.94.57-1.38 1.28-1l119.06 68.74a3.08 3.08 0 0 1 1.28 2.44v2.92c0 .98-.58 1.42-1.28 1.01z" fill="#e9eaf2"/><path d="m338.72 266.82-119.06-68.73a3.07 3.07 0 0 1 -1.28-2.45v-2.92c0-.94.57-1.37 1.28-1l119.06 68.73a3.1 3.1 0 0 1 1.28 2.45v2.92c0 .98-.58 1.41-1.28 1z" fill="#e9eaf2"/><path d="m308.28 260.33-88.62-51.17a3.05 3.05 0 0 1 -1.28-2.44v-2.92c0-.94.57-1.38 1.28-1l88.62 51.2a3 3 0 0 1 1.28 2.44v2.92c0 .94-.56 1.37-1.28.97z" fill="#e9eaf2"/><path d="m422.61 252.5-55.37-32a3.05 3.05 0 0 1 -1.28-2.44v-2.92c0-.94.57-1.38 1.28-1l55.37 32a3.06 3.06 0 0 1 1.28 2.45v2.92c0 .97-.57 1.4-1.28.99z" fill="#e9eaf2"/><path d="m422.61 263.58-55.37-32a3.06 3.06 0 0 1 -1.28-2.45v-2.92c0-.94.57-1.37 1.28-1l55.37 32a3.05 3.05 0 0 1 1.28 2.44v2.92c0 .98-.57 1.43-1.28 1.01z" fill="#e9eaf2"/><path d="m408.11 266.28-40.87-23.6a3.05 3.05 0 0 1 -1.28-2.44v-2.92c0-.94.57-1.38 1.28-1l40.87 23.68a3.06 3.06 0 0 1 1.28 2.45v2.91c0 .9-.57 1.33-1.28.92z" fill="#e9eaf2"/><path d="m421.33 323.68-52.82-30.5a6.11 6.11 0 0 1 -2.51-4.88v-34.09c0-1.88 1.14-2.75 2.55-1.93l52.82 30.49a6.15 6.15 0 0 1 2.56 4.89v34.08c-.04 1.89-1.19 2.75-2.6 1.94z" fill="#e9eaf2"/><path d="m422.61 337.85-55.37-32a3.05 3.05 0 0 1 -1.28-2.44v-2.92c0-.94.57-1.38 1.28-1l55.37 32a3.06 3.06 0 0 1 1.28 2.45v2.92c0 .97-.57 1.4-1.28.99z" fill="#e9eaf2"/><path d="m383.92 201.63-3.71-9.55-6.75 9.6 7.41 4.28 6.09 3.52 13.58 7.84-9.83-25.35z" fill="#dadce5"/><ellipse cx="411.28" cy="202.07" fill="#dadce5" rx="3.61" ry="6.26" transform="matrix(.8660254 -.5 .5 .8660254 -45.93 232.72)"/><path d="m384.3 288.24-3.7-9.55-6.75 9.6 7.41 4.28 6.09 3.51 13.58 7.84-9.84-25.34z" fill="#dadce5"/><ellipse cx="411.66" cy="288.67" fill="#dadce5" rx="3.61" ry="6.26" transform="matrix(.87 -.5 .5 .87 -89.18 244.52)"/><path d="m350.23 224.61-128.36-73.74a5.48 5.48 0 0 1 -2.3-4.38v-59.81c0-1.68 1-2.46 2.3-1.73l128.36 73.74a5.5 5.5 0 0 1 2.29 4.38v59.81c-0 1.69-1.03 2.47-2.29 1.73z" fill="#e9eaf2"/><path d="m257.53 149.3-6.34-16.33-11.54 16.42 12.67 7.31 10.41 6.01 23.22 13.41-16.82-43.34z" fill="#dadce5"/><ellipse cx="327.9" cy="167.05" fill="#dadce5" rx="6.18" ry="10.7" transform="matrix(.8660254 -.5 .5 .8660254 -39.6 186.34)"/><path d="m226.48 129v89.6c0 3.34-2 4.88-4.54 3.43l-24.53-14.13v-101.7l24.53 14.15c2.5 1.45 4.54 5.34 4.54 8.65z" opacity=".05"/><path d="m203.06 98.65-75.36-43.51a3 3 0 0 0 -2.67-.37 2.35 2.35 0 0 0 -.57.33l-2.36 1.37 1.1 1.47v.63 89.6c0 3.34 2 7.22 4.54 8.67l73.93 42.69.94 3 3.23-1.81a2.4 2.4 0 0 0 .46-.27 4.28 4.28 0 0 0 1.33-3.52v-89.6c-.03-3.33-2.06-7.23-4.57-8.68z" fill="#d6d8e5"/><path d="m199.92 202.13-75.37-43.51c-2.5-1.45-4.54-5.33-4.54-8.68v-89.59c0-3.34 2-4.88 4.54-3.43l75.37 43.51c2.51 1.45 4.54 5.33 4.54 8.68v89.59c0 3.3-2.03 4.88-4.54 3.43z" fill="#f5f7fc"/><path d="m131.82 153.38 1.81 1.05v-79.69l-1.81-1.05z" fill="#dadce5"/><path d="m132.73 111.61a7.59 7.59 0 0 1 -3.18-6.07v-9.35c0-2.34 1.42-3.41 3.18-2.4a7.61 7.61 0 0 1 3.17 6.07v9.35c0 2.34-1.42 3.42-3.17 2.4z" fill="#f9cb07"/><path d="m151.26 164.32 1.82 1.05v-79.68l-1.82-1.05z" fill="#dadce5"/><path d="m152.17 148.77a7.65 7.65 0 0 1 -3.18-6.08v-9.35c0-2.34 1.43-3.41 3.18-2.4a7.61 7.61 0 0 1 3.18 6.07v9.35c0 2.34-1.42 3.42-3.18 2.41z" fill="#f9cb07"/><path d="m170.71 175.55 1.82 1.05v-79.69l-1.82-1.05z" fill="#dadce5"/><path d="m171.62 123.3a7.61 7.61 0 0 1 -3.18-6.07v-9.35c0-2.34 1.42-3.42 3.18-2.41a7.65 7.65 0 0 1 3.18 6.08v9.35c0 2.34-1.43 3.41-3.18 2.4z" fill="#f9cb07"/><path d="m190.16 186.78 1.81 1.04v-79.68l-1.81-1.05z" fill="#dadce5"/><path d="m191.07 155.49a7.59 7.59 0 0 1 -3.18-6.07v-9.35c0-2.34 1.42-3.41 3.18-2.4a7.61 7.61 0 0 1 3.17 6.07v9.35c0 2.34-1.42 3.42-3.17 2.4z" fill="#f9cb07"/><ellipse cx="155.24" cy="285.96" fill="#d6d8e5" opacity=".3" rx="27.8" ry="16.05"/><ellipse cx="162.12" cy="281.83" fill="#dd990e" rx="27.8" ry="16.05"/><path d="m134.33 282.07v-7.31l5.49 4.89z" fill="#dd990e"/><path d="m189.92 274.95v6.88l-2.81 2.98-1.37-7.87z" fill="#dd990e"/><ellipse cx="162.12" cy="274.95" fill="#f9cb07" rx="27.8" ry="16.05"/><path d="m182 275.45c-.28 2.7-2.21 5.37-5.79 7.44-7.78 4.48-20.38 4.48-28.15 0-3.59-2.07-5.51-4.74-5.79-7.44-.33-3.16 1.6-6.4 5.79-8.81 7.77-4.49 20.37-4.49 28.15 0 4.18 2.41 6.11 5.65 5.79 8.81z" fill="#cc8b09"/><path d="m182 275.45c-.28 2.7-2.21 5.37-5.79 7.44-7.78 4.48-20.38 4.48-28.15 0-3.59-2.07-5.51-4.74-5.79-7.44.28-2.7 2.2-5.37 5.79-7.44 7.77-4.49 20.37-4.49 28.15 0 3.57 2.07 5.5 4.74 5.79 7.44z" fill="#e8a30a"/><path d="m161.83 271.69a3.78 3.78 0 0 0 -.73.06c-.33 0-.69.11-1.1.2s-.83.19-1.27.32a8.38 8.38 0 0 0 -1.24.48l3.19 1.84.58-.2c.81-.27 1.58-.5 2.3-.69a10.62 10.62 0 0 1 2.07-.34 7 7 0 0 1 1.9.13 5.87 5.87 0 0 1 1.82.71 3.59 3.59 0 0 1 1.38 1.21 1.65 1.65 0 0 1 .2 1.25 2.73 2.73 0 0 1 -.75 1.23 7.74 7.74 0 0 1 -1.46 1.15l2 1.17-1.1.64-2.06-1.18a16.54 16.54 0 0 1 -3 1.15 19.42 19.42 0 0 1 -3.37.63l-1.07-1.92a7.69 7.69 0 0 0 .9-.07 11.8 11.8 0 0 0 1.34-.23c.49-.1 1-.24 1.56-.4a10.69 10.69 0 0 0 1.56-.58l-3.18-1.83-.41.14-.44.13a21.66 21.66 0 0 1 -2.2.62 10 10 0 0 1 -1.87.25 6.38 6.38 0 0 1 -1.66-.15 5.66 5.66 0 0 1 -1.53-.62 4 4 0 0 1 -1.33-1.14 2 2 0 0 1 -.36-1.24 2.3 2.3 0 0 1 .52-1.24 6 6 0 0 1 1.3-1.17l-1.89-1.09 1.11-.64 1.87 1.08a13.24 13.24 0 0 1 2.74-1 21.1 21.1 0 0 1 2.75-.5zm-5.43 3.31a2.34 2.34 0 0 0 1.38.3 9.16 9.16 0 0 0 1.91-.43l-3-1.73c-1.09.76-1.19 1.38-.29 1.86zm10.49.87a2.36 2.36 0 0 0 -1.49-.26 11.14 11.14 0 0 0 -2.09.46l3 1.71c1.24-.73 1.44-1.37.58-1.87z" fill="#cc8b09"/><path d="m160.11 279.53c0-.08 0-1.08 0-1.08l1.22.79-.53.81z" fill="#cc8b09"/><path d="m170.75 280.21v-1.08l-2.64.21 1.52 1.03z" fill="#cc8b09"/><path d="m170.98 276.26v-1.09l-1.98.71z" fill="#cc8b09"/><path d="m162.78 276.2.66-.63 2.32 1.6-.14.48s-1.74-.73-1.8-.78z" fill="#cc8b09"/><path d="m156.7 272.8 3.08 1.75.63-.46s-.38-.44-.41-.49a4.31 4.31 0 0 0 -1-.8c-.23 0-1.69-.7-1.69-.7z" fill="#cc8b09"/><path d="m161.83 271.69v-1.08l-1.42-.46-.3.85.08.38z" fill="#cc8b09"/><path d="m152.42 270.91v-1.08l1.64.18-.53 1.04z" fill="#cc8b09"/><path d="m152.48 274.57v-1.12h1.89l-.46 1-.82.9z" fill="#cc8b09"/><path d="m161.83 270.61a3.78 3.78 0 0 0 -.73.06c-.33.05-.69.11-1.1.2s-.83.19-1.27.32a8.38 8.38 0 0 0 -1.24.48l3.19 1.84.58-.2c.81-.27 1.58-.5 2.3-.69a10.62 10.62 0 0 1 2.07-.34 7 7 0 0 1 1.9.13 5.87 5.87 0 0 1 1.82.71 3.59 3.59 0 0 1 1.38 1.21 1.65 1.65 0 0 1 .2 1.25 2.73 2.73 0 0 1 -.75 1.23 7.74 7.74 0 0 1 -1.46 1.15l2 1.18-1.1.64-2.06-1.19a16.54 16.54 0 0 1 -3 1.15 19.42 19.42 0 0 1 -3.37.63l-1.07-1.92a7.69 7.69 0 0 0 .9-.07 11.8 11.8 0 0 0 1.34-.23c.49-.1 1-.24 1.56-.4a10.69 10.69 0 0 0 1.56-.58l-3.18-1.83-.41.14-.44.13a21.66 21.66 0 0 1 -2.2.62 9.27 9.27 0 0 1 -1.87.25 6.38 6.38 0 0 1 -1.66-.15 5.66 5.66 0 0 1 -1.53-.62 3.86 3.86 0 0 1 -1.33-1.14 2 2 0 0 1 -.36-1.23 2.32 2.32 0 0 1 .52-1.25 6 6 0 0 1 1.3-1.17l-1.89-1.09 1.11-.64 1.87 1.08a13.84 13.84 0 0 1 2.74-1 19.47 19.47 0 0 1 2.75-.49zm-5.43 3.39a2.34 2.34 0 0 0 1.38.3 9.16 9.16 0 0 0 1.91-.43l-3-1.73c-1.09.68-1.19 1.3-.29 1.86zm10.49.88a2.36 2.36 0 0 0 -1.49-.27 12 12 0 0 0 -2.09.46l3 1.72c1.24-.79 1.44-1.46.58-1.95z" fill="#f9ca06"/><ellipse cx="164.39" cy="273.27" fill="#dd990e" rx="27.8" ry="16.05"/><path d="m136.6 273.51v-7.31l5.49 4.89z" fill="#dd990e"/><path d="m192.19 266.39v6.88l-2.81 2.98-1.37-7.87z" fill="#dd990e"/><ellipse cx="164.39" cy="266.39" fill="#f9cb07" rx="27.8" ry="16.05"/><path d="m184.26 266.89c-.28 2.7-2.21 5.37-5.79 7.44-7.78 4.48-20.38 4.48-28.15 0-3.59-2.07-5.51-4.74-5.79-7.44-.33-3.16 1.6-6.4 5.79-8.81 7.77-4.49 20.37-4.49 28.15 0 4.19 2.41 6.12 5.65 5.79 8.81z" fill="#cc8b09"/><path d="m184.26 266.89c-.28 2.7-2.21 5.37-5.79 7.44-7.78 4.48-20.38 4.48-28.15 0-3.59-2.07-5.51-4.74-5.79-7.44.28-2.7 2.2-5.37 5.79-7.44 7.77-4.49 20.37-4.49 28.15 0 3.58 2.07 5.53 4.74 5.79 7.44z" fill="#e8a30a"/><path d="m164.1 263.13a3.78 3.78 0 0 0 -.73.06c-.33 0-.69.11-1.1.2s-.83.19-1.26.32a8.1 8.1 0 0 0 -1.25.48l3.24 1.81.57-.2c.81-.27 1.58-.5 2.3-.69a10.62 10.62 0 0 1 2.07-.34 7 7 0 0 1 1.9.13 5.87 5.87 0 0 1 1.82.71 3.59 3.59 0 0 1 1.38 1.21 1.6 1.6 0 0 1 .2 1.25 2.73 2.73 0 0 1 -.75 1.23 7.74 7.74 0 0 1 -1.46 1.15l2 1.17-1.11.64-2-1.18a16.64 16.64 0 0 1 -3.05 1.15 19.42 19.42 0 0 1 -3.37.63l-1.12-1.86a7.69 7.69 0 0 0 .9-.07 11.44 11.44 0 0 0 1.34-.23c.49-.1 1-.24 1.56-.4a10.69 10.69 0 0 0 1.56-.58l-3.18-1.83-.41.14-.44.13a21.66 21.66 0 0 1 -2.2.62 9.27 9.27 0 0 1 -1.87.25 6.38 6.38 0 0 1 -1.66-.15 5.79 5.79 0 0 1 -1.53-.62 4 4 0 0 1 -1.33-1.14 2 2 0 0 1 -.36-1.23 2.34 2.34 0 0 1 .53-1.25 5.71 5.71 0 0 1 1.29-1.17l-1.88-1.09 1.1-.64 1.87 1.08a13.24 13.24 0 0 1 2.74-1 21.1 21.1 0 0 1 2.75-.5zm-5.43 3.35a2.34 2.34 0 0 0 1.38.3 9.16 9.16 0 0 0 1.91-.43l-3-1.73c-1.09.72-1.19 1.38-.29 1.86zm10.49.87a2.33 2.33 0 0 0 -1.49-.26 11.14 11.14 0 0 0 -2.09.46l3 1.71c1.24-.77 1.42-1.41.58-1.91z" fill="#cc8b09"/><path d="m162.38 271c0-.08 0-1.08 0-1.08l1.22.79-.53.81z" fill="#cc8b09"/><path d="m173.03 271.65v-1.07l-2.65.2 1.52 1.03z" fill="#cc8b09"/><path d="m173.25 267.7v-1.09l-1.98.71z" fill="#cc8b09"/><path d="m165.05 267.64.66-.63 2.32 1.6-.14.48s-1.74-.73-1.79-.78z" fill="#cc8b09"/><path d="m159 264.24 3.09 1.75.63-.46-.42-.48a4.07 4.07 0 0 0 -1-.81c-.23 0-1.69-.69-1.69-.69z" fill="#cc8b09"/><path d="m164.1 263.13v-1.08l-1.41-.46-.31.85.08.38z" fill="#cc8b09"/><path d="m154.69 262.35v-1.08l1.65.18-.53 1.05z" fill="#cc8b09"/><path d="m154.76 266v-1.12h1.88l-.46 1-.82.9z" fill="#cc8b09"/><path d="m164.1 262.05a3.78 3.78 0 0 0 -.73.06c-.33.05-.69.11-1.1.2s-.83.19-1.26.32a8.1 8.1 0 0 0 -1.25.48l3.24 1.89.57-.2c.81-.27 1.58-.5 2.3-.69a10.62 10.62 0 0 1 2.07-.34 7 7 0 0 1 1.9.13 5.87 5.87 0 0 1 1.82.71 3.59 3.59 0 0 1 1.38 1.21 1.61 1.61 0 0 1 .2 1.25 2.73 2.73 0 0 1 -.75 1.23 7.35 7.35 0 0 1 -1.49 1.1l2 1.18-1.11.64-2-1.19a16.64 16.64 0 0 1 -3.05 1.15 19.42 19.42 0 0 1 -3.37.63l-1.07-1.92a7.69 7.69 0 0 0 .9-.07 11.44 11.44 0 0 0 1.34-.23c.49-.1 1-.24 1.56-.4a10.69 10.69 0 0 0 1.56-.58l-3.18-1.83-.41.14-.44.14c-.8.26-1.53.46-2.2.61a10.1 10.1 0 0 1 -1.87.26 6.83 6.83 0 0 1 -1.66-.16 5.79 5.79 0 0 1 -1.53-.62 3.76 3.76 0 0 1 -1.33-1.14 2 2 0 0 1 -.36-1.23 2.34 2.34 0 0 1 .53-1.25 5.71 5.71 0 0 1 1.29-1.17l-1.88-1.09 1.1-.64 1.87 1.08a13.84 13.84 0 0 1 2.74-1 19.47 19.47 0 0 1 2.75-.49zm-5.43 3.35a2.34 2.34 0 0 0 1.38.3 8.56 8.56 0 0 0 1.91-.43l-3-1.72c-1.09.71-1.19 1.33-.29 1.85zm10.49.88a2.34 2.34 0 0 0 -1.49-.27 12 12 0 0 0 -2.09.46l3 1.72c1.24-.78 1.42-1.42.58-1.91z" fill="#f9ca06"/><ellipse cx="162.69" cy="265.03" fill="#dd990e" rx="27.8" ry="16.05"/><path d="m134.89 265.27v-7.31l5.5 4.89z" fill="#dd990e"/><path d="m190.49 258.15v6.88l-2.81 2.98-1.38-7.87z" fill="#dd990e"/><ellipse cx="162.69" cy="258.15" fill="#f9cb07" rx="27.8" ry="16.05"/><path d="m182.55 258.65c-.28 2.7-2.2 5.37-5.79 7.44-7.77 4.48-20.37 4.48-28.15 0-3.58-2.07-5.51-4.74-5.78-7.44-.34-3.16 1.59-6.4 5.78-8.81 7.78-4.49 20.38-4.49 28.15 0 4.24 2.41 6.12 5.65 5.79 8.81z" fill="#cc8b09"/><path d="m182.55 258.65c-.28 2.7-2.2 5.37-5.79 7.44-7.77 4.48-20.37 4.48-28.15 0-3.58-2.07-5.51-4.74-5.78-7.44.27-2.7 2.2-5.37 5.78-7.44 7.78-4.49 20.38-4.49 28.15 0 3.59 2.07 5.51 4.79 5.79 7.44z" fill="#e8a30a"/><path d="m162.4 254.89a3.73 3.73 0 0 0 -.73.06c-.33 0-.7.11-1.1.2s-.83.19-1.27.32a8.51 8.51 0 0 0 -1.25.48l3.2 1.84.57-.2c.82-.27 1.58-.5 2.3-.69a10.62 10.62 0 0 1 2.07-.34 7.09 7.09 0 0 1 1.91.13 6 6 0 0 1 1.82.71 3.63 3.63 0 0 1 1.37 1.21 1.65 1.65 0 0 1 .21 1.25 2.92 2.92 0 0 1 -.75 1.23 8.07 8.07 0 0 1 -1.46 1.15l2 1.17-1.11.64-2.05-1.18a16.37 16.37 0 0 1 -3 1.15 19.49 19.49 0 0 1 -3.36.63l-1.07-1.92a7.71 7.71 0 0 0 .89-.07 11.44 11.44 0 0 0 1.34-.23c.5-.1 1-.24 1.56-.4a11.27 11.27 0 0 0 1.57-.58l-3.18-1.83-.42.14-.43.13a22.41 22.41 0 0 1 -2.2.62 10.14 10.14 0 0 1 -1.88.25 6.34 6.34 0 0 1 -1.65-.15 5.53 5.53 0 0 1 -1.53-.62 4 4 0 0 1 -1.33-1.14 1.9 1.9 0 0 1 -.37-1.23 2.39 2.39 0 0 1 .53-1.25 5.71 5.71 0 0 1 1.29-1.17l-1.89-1.09 1.11-.64 1.87 1.08a13 13 0 0 1 2.74-1 21 21 0 0 1 2.74-.5zm-5.4 3.35a2.36 2.36 0 0 0 1.39.3 9.09 9.09 0 0 0 1.9-.43l-3-1.73q-1.68 1.08-.29 1.86zm10.5.87a2.38 2.38 0 0 0 -1.5-.26 11.31 11.31 0 0 0 -2.09.46l3 1.71c1.21-.77 1.41-1.41.55-1.91z" fill="#cc8b09"/><path d="m160.68 262.73c0-.08 0-1.08 0-1.08l1.22.79-.53.81z" fill="#cc8b09"/><path d="m171.32 263.41v-1.08l-2.64.21 1.51 1.03z" fill="#cc8b09"/><path d="m171.54 259.46v-1.09l-1.98.71z" fill="#cc8b09"/><path d="m163.34 259.4.66-.63 2.33 1.6-.15.48s-1.73-.73-1.79-.78z" fill="#cc8b09"/><path d="m157.27 256 3.08 1.75.63-.46-.42-.48a3.87 3.87 0 0 0 -1-.81c-.22 0-1.69-.7-1.69-.7z" fill="#cc8b09"/><path d="m162.4 254.89v-1.08l-1.42-.46-.3.85.07.38z" fill="#cc8b09"/><path d="m152.99 254.11v-1.08l1.64.18-.53 1.04z" fill="#cc8b09"/><path d="m153.05 257.77v-1.12h1.88l-.46 1-.81.9z" fill="#cc8b09"/><path d="m162.4 253.81a3.73 3.73 0 0 0 -.73.06c-.33 0-.7.11-1.1.2s-.83.19-1.27.32a8.51 8.51 0 0 0 -1.25.48l3.2 1.84.57-.2c.82-.27 1.58-.5 2.3-.69a10.62 10.62 0 0 1 2.07-.34 7.09 7.09 0 0 1 1.91.13 6 6 0 0 1 1.82.71 3.63 3.63 0 0 1 1.37 1.21 1.66 1.66 0 0 1 .21 1.25 2.92 2.92 0 0 1 -.75 1.23 7.66 7.66 0 0 1 -1.46 1.15l2 1.18-1.11.64-2.05-1.19a16.37 16.37 0 0 1 -3 1.15 19.49 19.49 0 0 1 -3.36.63l-1.07-1.92a7.71 7.71 0 0 0 .89-.07 11.44 11.44 0 0 0 1.34-.23c.5-.1 1-.24 1.56-.4a11.27 11.27 0 0 0 1.57-.58l-3.18-1.83-.42.14-.43.13a22.41 22.41 0 0 1 -2.2.62 9.36 9.36 0 0 1 -1.88.25 6.34 6.34 0 0 1 -1.65-.15 5.53 5.53 0 0 1 -1.53-.62 3.86 3.86 0 0 1 -1.33-1.14 1.9 1.9 0 0 1 -.37-1.23 2.42 2.42 0 0 1 .53-1.25 5.71 5.71 0 0 1 1.29-1.17l-1.89-1.12 1.11-.64 1.87 1.08a13.61 13.61 0 0 1 2.74-1 19.34 19.34 0 0 1 2.74-.49zm-5.4 3.35a2.36 2.36 0 0 0 1.39.3 9.09 9.09 0 0 0 1.9-.43l-3-1.73q-1.68 1.08-.29 1.86zm10.5.88a2.38 2.38 0 0 0 -1.5-.27 12.2 12.2 0 0 0 -2.09.46l3 1.72c1.21-.78 1.41-1.42.55-1.95z" fill="#f9ca06"/><path d="m430.3 442.08-58.3-33.65a3.28 3.28 0 0 1 0-5.67 3.26 3.26 0 0 1 3.28 0l58.29 33.65a3.28 3.28 0 0 1 -.38 5.86 3.29 3.29 0 0 1 -2.89-.19z" fill="#d6d8e5" opacity=".4"/><path d="m405.13 421.73c-20.86-12.05-37.83-41.44-37.83-65.53s17-33.89 37.83-21.84 37.87 41.44 37.87 65.53-17 33.88-37.87 21.84zm0-79.55c-17.12-9.89-31.06-1.85-31.06 17.93s13.93 43.89 31.06 53.8 31.07 1.84 31.07-17.91-13.94-43.94-31.07-53.82z" fill="#d33d3d"/><path d="m373.2 334.63 6.94-3.78-1.04 4.75z" fill="#d33d3d"/><path d="m425.44 427.86c.17-.08 7.58-4.22 7.58-4.22l-5.73-.92z" fill="#d33d3d"/><ellipse cx="400.31" cy="380.72" fill="#f4f4f4" rx="28.13" ry="48.72" transform="matrix(.8660254 -.5 .5 .8660254 -136.73 251.17)"/><path d="m400.31 424.41c-20.86-12.05-37.84-41.44-37.84-65.53s17-33.89 37.84-21.84 37.83 41.44 37.83 65.53-16.97 33.88-37.83 21.84zm0-79.55c-17.13-9.89-31.06-1.85-31.06 17.93s13.93 43.91 31.06 53.8 31.06 1.84 31.06-17.93-13.93-43.92-31.06-53.8z" fill="#ff4d4d"/><path d="m400.31 407.79c-12.93-7.47-23.44-25.68-23.44-40.6s10.51-21 23.44-13.53 23.44 25.67 23.44 40.59-10.52 21-23.44 13.54zm0-46.31c-9.19-5.31-16.67-1-16.67 9.62s7.48 23.56 16.67 28.87 16.69 1.03 16.69-9.63-7.5-23.56-16.69-28.86z" fill="#ff4d4d"/><path d="m400.31 391.43c-5.11-3-9.27-10.16-9.27-16.06s4.16-8.3 9.27-5.35 9.27 10.15 9.27 16.05-4.16 8.31-9.27 5.36zm0-13.59c-1.38-.8-2.5-.15-2.5 1.44a5.54 5.54 0 0 0 2.5 4.33c1.38.79 2.5.15 2.5-1.45a5.51 5.51 0 0 0 -2.5-4.32z" fill="#ff4d4d"/><path d="m335.85 417.4-3.47.04 11.26-4.78-6.53 4.06z" fill="#2b303f"/><ellipse cx="336.73" cy="417.91" fill="#e8a30a" rx=".72" ry="1.25" transform="matrix(.8660254 -.5 .5 .8660254 -163.85 224.37)"/><ellipse cx="400.47" cy="381.04" fill="#e8a30a" rx=".72" ry="1.25" transform="matrix(.8660254 -.5 .5 .8660254 -136.87 251.3)"/><path d="m338.22 422.42-.83-3.45 9.06-5.78-.39.82z" fill="#2b303f"/><path d="m337.39 419c.08-.07 63.71-36.85 63.71-36.85l-1.17-2.2-63.83 36.88z" fill="#e8a30a"/><path d="m278.66 1.33c.85-1.33 7.34-2.27 9.51 3.25.82 2.1.69 7.45 1.37 10.81s2.28 5.27 2.86 8-.36 7.3-6.94 8.11-11.63-1.5-13.19-3.6-1.58-6.55 0-8.94 2.84-4.34 2.8-7.46z" fill="#4f46e5"/><path d="m283 .38s-4.95-1.38-7.93 1.23a7.31 7.31 0 0 0 -2.07 7.28c.39 1.55 1.19 3.66 2.42 3.78s7.58-12.29 7.58-12.29z" fill="#4f46e5"/><path d="m284.84 13.76s-.33 5.47-.23 5.88 2.15.79 2.73 1.27-3 6-4.78 6.84-7.4-1.27-7.78-4.05c-.36-2.56 1.6-4.55 2.35-5.25a14.68 14.68 0 0 1 1.54 0l.16-2.65c2.45-.8 6.01-2.04 6.01-2.04z" fill="#ffcea9"/><path d="m268.74 43a28.69 28.69 0 0 1 -5.45 5.67 26.9 26.9 0 0 0 -1.86 2.15 8.22 8.22 0 0 1 -3.66 2.43c-1.24.32-1.76.24-2 0s-.11-.58.42-.79a6.94 6.94 0 0 0 2.4-1.3s-1.15.54-1.87.79a7.39 7.39 0 0 1 -2 .4c-.68 0-1.39-.79-.85-1s1-.26 2.09-.65a6.77 6.77 0 0 0 1.59-.81 14.78 14.78 0 0 1 -2.26.46 3.44 3.44 0 0 1 -1.88-.22c-.32-.13-.59-.71.12-.9a10.75 10.75 0 0 0 2.71-.63c.84-.38 1.36-.78 1.18-.86s-.66.18-1.5.12-1.62-.6-1.61-1 .18-.2 1-.27a18.64 18.64 0 0 1 2.69-.59 8.4 8.4 0 0 0 2.6-.31c.9-.27 2.89-2.67 4.43-4.87a32.1 32.1 0 0 0 3.92-7.94c.92-3 2-8.7 2.8-10.67s2.13-2.87 3.42-2.91c1.51 0 2.15 1.94 1.75 3.65-.73 3.05-4.08 14.63-8.18 20.05z" fill="#ffcea9"/><path d="m285.59 20.17c1.53.23 3.29 1.06 3.53 1.9a18.19 18.19 0 0 1 -.44 9.13c-1.33 3.52-2.83 9.87-3.6 11.39a17.91 17.91 0 0 1 -11.45-2.24s-.32-6.12-.35-8.14c-4.94-4.32-.71-9.64 3.48-13.78a9.53 9.53 0 0 1 1.51 0s-3.74 4.43-1.14 6.94c5.57-1.7 6.68-4.21 8.46-5.2z" fill="#f4f4f4"/><path d="m274.62 7c.55-3.51 3.09-6.16 6.71-5.95a7 7 0 0 1 3.51 12.73 7.08 7.08 0 0 1 -.56 1.54c-1.29 1.5-4.7 2.44-5.82 2.46s-1.81-.9-2.73-2.41c-1.9-3.16-1.42-6.65-1.11-8.37z" fill="#ffcea9"/><path d="m282.46 1.09c2.54.5 4.63 1.21 5.32 3.71.47 1.72 1.09 5 .5 6.38l-.36 1-3.08 1.58s-1.44-1.19-1-4.7a2.49 2.49 0 0 0 -.43-1.33 3.57 3.57 0 0 1 -.41-1.06 4 4 0 0 0 -2-2.16 6.83 6.83 0 0 0 -6.11.29 6.68 6.68 0 0 1 7.57-3.71z" fill="#4f46e5"/><path d="m268.46 85.22c-1.29 1-3.29.32-3.39.42a55.26 55.26 0 0 1 -4.71 3.6c-.8.63-2.05 1.47-1.83 2.69.41 2.16 3.88 1.5 5.19.83s2.38-1.76 3.62-2.53c.88-.55 1.75-.83 1.89-2a7.13 7.13 0 0 0 -.77-3.01z" fill="#1d3892"/><path d="m269.21 87.83c-.17 1.07-1 1.36-1.91 1.91-1.25.78-2.36 1.91-3.67 2.57s-4.23 1.22-5.08-.32c.46 2.09 3.87 1.43 5.17.77s2.38-1.76 3.62-2.53c.88-.55 1.75-.83 1.89-2a2.52 2.52 0 0 0 -.02-.4z" fill="#9c73ff"/><path d="m262.19 81.7c-1.18 1-3 .42-3.05.51a46.14 46.14 0 0 1 -4.31 3.28c-.73.58-1.88 1.36-1.67 2.47.37 2 3.55 1.37 4.75.76s2.18-1.61 3.31-2.32c.81-.5 1.61-.76 1.74-1.78a7 7 0 0 0 -.77-2.92z" fill="#1d3892"/><path d="m262.94 84.21c-.15 1-.94 1.25-1.74 1.74-1.16.72-2.17 1.75-3.37 2.36s-3.87 1.12-4.65-.3c.42 1.92 3.54 1.31 4.73.71s2.18-1.61 3.31-2.32c.81-.5 1.61-.76 1.74-1.78a2.08 2.08 0 0 0 -.02-.41z" fill="#9c73ff"/><path d="m280 43.94a19.14 19.14 0 0 1 -10.26-1.48c.06 1.08.12 2 .12 2-4.17 3-12.55 7.92-13.09 11.34.54 10.82 2.19 26.28 2.66 26.51 1.31.62 2.22.52 2.84-.11 0 0 2.63-9.17 1.86-22.62 0 0 14.6-6.46 15.55-10a11.08 11.08 0 0 0 .4-4.4c-0-.38-.03-.81-.08-1.24z" fill="#ffcea9"/><path d="m284.85 42.53a15.6 15.6 0 0 1 -8.85 1.18c0 1.45.2 4.17.2 4.17-4.17 2.95-12.54 7.92-13.09 11.34.55 10.83 1.56 26.5 2 26.7a3.54 3.54 0 0 0 3.46-.41s2.63-9.05 1.87-22.5c0-.26 12.51-6.42 14.09-8s1.9-4.05 1.86-6.35a15.49 15.49 0 0 0 -1.54-6.13z" fill="#ffcea9"/><path d="m287.92 44.83s4.62 8.19-3.09 12.4c-8.14 4.45-13.09 5.49-13.09 5.49l-1.22.29a31.5 31.5 0 0 1 0 8.51s-5.81 2-13.21-4.49l-2.45-7.9-.31-2.13a4.4 4.4 0 0 1 1.23-4c1.78-1.61 7.41-5.73 10.91-8.09s6.3-4.62 6.3-4.62l.61-.57s4.15 3.31 11.74 2.2a12.22 12.22 0 0 1 2.58 2.91z" fill="#4f46e5"/><path d="m283.33 57a22 22 0 0 1 2.24-1.77 8.9 8.9 0 0 0 2.25-1.61c.71-.71 1.76-3.68 2.31-6.58a28.91 28.91 0 0 0 -.17-9.78 68 68 0 0 0 -3.87-11.26c-1-2.18-.45-3.5.49-4.47 1.1-1.13 2.25-1.1 3.56 1.94a62.1 62.1 0 0 1 4.07 13.24 29.25 29.25 0 0 1 -.14 10 36.54 36.54 0 0 1 -2.65 8.37c-.34.78-.4 1.44-.87 3a10.14 10.14 0 0 1 -2.39 4.2c-1 .93-1.51 1.11-1.79 1s-.32-.51.09-1a8.53 8.53 0 0 0 1.68-2.45s-.84 1.09-1.4 1.7a8 8 0 0 1 -1.7 1.4c-.61.37-1.57-.06-1.17-.55s.84-.77 1.66-1.68a8 8 0 0 0 1.13-1.59 15.08 15.08 0 0 1 -1.88 1.59 3.46 3.46 0 0 1 -1.8.74c-.34 0-.81-.4-.24-.94a12.27 12.27 0 0 0 2.23-2c.62-.79.94-1.43.74-1.42s-.53.51-1.32.87-1.71.24-1.87-.2.09-.28.81-.75z" fill="#ffcea9"/><path d="m292.16 27.56s-2.8 2.49-5.92 2l-1.24-5.24s-.82-2.75 1.53-3.79 4.62 1.69 5.63 7.03z" fill="#ededed"/><path d="m276.76 18.43s-3-.92-6.26 5.8l1.2.73a50.65 50.65 0 0 1 5.06-6.53z" fill="#ededed"/><path d="m255.79 47.45 10.82-6.24a.62.62 0 0 1 .62 0l19 10.95-11.13 6.43z" fill="#f4f4f4"/><g fill="#4f46e5"><path d="m275.36 56.12.83.47c.07 0 .06.11 0 .16l-.79.45a.27.27 0 0 1 -.26 0l-.83-.48c-.07 0-.06-.1 0-.15l.79-.45a.27.27 0 0 1 .26 0z"/><path d="m274.19 55.44.83.48c.07 0 .06.1 0 .15l-.79.46a.3.3 0 0 1 -.26 0l-.83-.48c-.07 0-.06-.11 0-.15l.79-.46a.3.3 0 0 1 .26 0z"/><path d="m273 54.76.82.47c.07 0 .06.11 0 .16l-.79.45a.27.27 0 0 1 -.26 0l-.83-.48c-.06 0-.06-.1 0-.15l.79-.45a.29.29 0 0 1 .27 0z"/><path d="m271.85 54.09.83.48c.06 0 .05.1 0 .15l-.79.45a.29.29 0 0 1 -.27 0l-.82-.47c-.07 0-.06-.11 0-.16l.79-.45a.29.29 0 0 1 .26 0z"/><path d="m270.68 53.41.82.48c.07 0 .06.11 0 .15l-.79.46a.32.32 0 0 1 -.27 0l-.84-.5c-.06 0-.05-.11 0-.15l.79-.46a.32.32 0 0 1 .29.02z"/><path d="m269.51 52.74.82.47c.07 0 .06.11 0 .15l-.79.46a.27.27 0 0 1 -.26 0l-.83-.48c-.06 0-.06-.1 0-.15l.79-.45a.29.29 0 0 1 .27 0z"/><path d="m268.33 52.06.83.48c.07 0 .06.1 0 .15l-.79.45a.3.3 0 0 1 -.26 0l-.83-.48c-.06 0-.06-.11 0-.15l.79-.46a.27.27 0 0 1 .26.01z"/><path d="m267.16 51.38.83.48c.07 0 .06.11 0 .15l-.79.46a.3.3 0 0 1 -.26 0l-.83-.48c-.07 0-.06-.11 0-.15l.79-.46a.3.3 0 0 1 .26 0z"/><path d="m266 50.71.83.47c.07 0 .06.11 0 .16l-.79.45a.27.27 0 0 1 -.26 0l-.83-.47c-.07 0-.06-.11 0-.16l.79-.45a.27.27 0 0 1 .26 0z"/><path d="m264.82 50 .83.48c.07 0 .06.11 0 .15l-.79.46a.3.3 0 0 1 -.26 0l-.83-.48c-.07 0-.06-.11 0-.15l.79-.46a.3.3 0 0 1 .26 0z"/><path d="m263.65 49.35.83.48c.06 0 .06.11 0 .15l-.79.46a.3.3 0 0 1 -.26 0l-.83-.48c-.07 0-.06-.1 0-.15l.79-.45a.3.3 0 0 1 .26-.01z"/><path d="m262.48 48.68.83.48c.06 0 .05.1 0 .15l-.79.45a.29.29 0 0 1 -.27 0l-.82-.47c-.07 0-.06-.11 0-.16l.78-.45a.29.29 0 0 1 .27 0z"/><path d="m261.31 48 .82.48c.07 0 .06.11 0 .15l-.79.46a.32.32 0 0 1 -.27 0l-.82-.48c-.07 0-.06-.11 0-.15l.75-.46a.32.32 0 0 1 .31 0z"/><path d="m259.57 47 1.39.8c.07 0 .06.11 0 .16l-.79.45a.27.27 0 0 1 -.26 0l-1.39-.8c-.07 0-.06-.11 0-.15l.79-.46a.3.3 0 0 1 .26 0z"/><path d="m274.76 54.46.83.48c.06 0 .06.1 0 .15l-.79.45a.29.29 0 0 1 -.27 0l-.82-.47c-.07 0-.06-.11 0-.16l.79-.45a.27.27 0 0 1 .26 0z"/><path d="m273.59 53.78.82.48c.07 0 .06.1 0 .15l-.79.46a.3.3 0 0 1 -.26 0l-.83-.48c-.06 0-.05-.11 0-.15l.79-.46a.32.32 0 0 1 .27 0z"/><path d="m272.41 53.1.83.48c.07 0 .06.11 0 .15l-.79.46a.3.3 0 0 1 -.26 0l-.83-.48c-.07 0-.06-.11 0-.15l.79-.46a.3.3 0 0 1 .26 0z"/><path d="m271.24 52.43.83.47c.06 0 .06.11 0 .16l-.79.45a.27.27 0 0 1 -.26 0l-.83-.48c-.07 0-.06-.1 0-.15l.79-.45a.27.27 0 0 1 .26 0z"/><path d="m270.08 51.75.82.48c.07 0 .06.11 0 .15l-.79.46a.3.3 0 0 1 -.26 0l-.83-.48c-.06 0-.05-.1 0-.15l.79-.46a.32.32 0 0 1 .27 0z"/><path d="m268.9 51.08.83.47c.07 0 .06.11 0 .16l-.79.45a.27.27 0 0 1 -.26 0l-.83-.47c-.07 0-.06-.11 0-.16l.79-.45a.27.27 0 0 1 .26 0z"/><path d="m267.73 50.4.83.48c.06 0 .06.1 0 .15l-.79.45a.3.3 0 0 1 -.26 0l-.83-.48c-.07 0-.06-.11 0-.15l.79-.46a.27.27 0 0 1 .26.01z"/><path d="m266.56 49.72.82.48c.07 0 .06.11 0 .15l-.78.46a.32.32 0 0 1 -.27 0l-.83-.48c-.06 0-.05-.11 0-.15l.79-.46a.32.32 0 0 1 .27 0z"/><path d="m265.38 49 .83.48c.07 0 .06.11 0 .15l-.79.46a.3.3 0 0 1 -.26 0l-.83-.48c-.07 0-.06-.1 0-.15l.79-.45a.3.3 0 0 1 .26-.01z"/><path d="m264.21 48.37.83.47c.06 0 .06.11 0 .16l-.79.45a.27.27 0 0 1 -.26 0l-.83-.47c-.07 0-.06-.11 0-.16l.79-.45a.27.27 0 0 1 .26 0z"/><path d="m263 47.69.82.48c.07 0 .06.1 0 .15l-.78.46a.36.36 0 0 1 -.27 0l-.83-.48c-.06 0 0-.11 0-.15l.79-.46a.32.32 0 0 1 .27 0z"/><path d="m261.86 47 .83.48c.07 0 .06.11 0 .15l-.79.46a.3.3 0 0 1 -.26 0l-.83-.48c-.07 0-.06-.11 0-.15l.79-.46a.3.3 0 0 1 .26 0z"/><path d="m275.93 55.13 1.39.81c.07 0 .06.11 0 .15l-.78.46a.32.32 0 0 1 -.27 0l-1.39-.81c-.07 0-.06-.1 0-.15l.79-.45a.3.3 0 0 1 .26-.01z"/><path d="m259.63 47 .83.47a.25.25 0 0 0 .24 0l.84-.48a.08.08 0 0 0 0-.14h-.07c-.06 0-.06-.09 0-.13l.88-.51c.07 0 .07-.1 0-.14l-.52-.3a.28.28 0 0 0 -.25 0l-.82.47-.17.1-.13.07-.12.07-.71.41a.08.08 0 0 0 0 .11z"/><path d="m279.9 53.49.82.48c.07 0 .06.11 0 .15l-.79.46a.32.32 0 0 1 -.27 0l-.82-.48c-.07 0-.06-.11 0-.15l.79-.46a.32.32 0 0 1 .27 0z"/><path d="m278.73 52.82.83.48c.06 0 .06.1 0 .15l-.79.45a.27.27 0 0 1 -.26 0l-.83-.47c-.07 0-.06-.11 0-.16l.79-.45a.27.27 0 0 1 .26 0z"/><path d="m277.56 52.14.83.48c.07 0 .06.11 0 .15l-.79.46a.3.3 0 0 1 -.26 0l-.83-.48c-.07 0-.06-.11 0-.15l.79-.46a.3.3 0 0 1 .26 0z"/><path d="m267.62 46.4.82.48c.07 0 .06.11 0 .15l-.78.46a.32.32 0 0 1 -.27 0l-.83-.48c-.06 0-.05-.11 0-.15l.79-.46a.32.32 0 0 1 .27 0z"/><path d="m266.45 45.73.83.47c.06 0 .05.11 0 .16l-.79.45a.29.29 0 0 1 -.27 0l-.82-.47c-.07 0-.06-.11 0-.16l.78-.45a.29.29 0 0 1 .27 0z"/><path d="m265.28 45.05.83.48c.07 0 .06.11 0 .15l-.79.46a.3.3 0 0 1 -.26 0l-.83-.48c-.07 0-.06-.11 0-.15l.79-.46a.3.3 0 0 1 .26 0z"/><path d="m264.11 44.38.83.48c.07 0 .06.1 0 .15l-.79.45a.27.27 0 0 1 -.26 0l-.89-.46c-.07 0-.06-.11 0-.15l.79-.46a.27.27 0 0 1 .32-.01z"/><path d="m276.09 51.3 1.13.65c.07 0 .06.1 0 .15l-.79.45a.3.3 0 0 1 -.26 0l-1.17-.64c-.07 0-.06-.1 0-.15l.79-.45a.27.27 0 0 1 .3-.01z"/><path d="m268.78 47.08 1.13.65c.07 0 .06.1 0 .15l-.79.45a.3.3 0 0 1 -.26 0l-1.13-.66c-.07 0-.06-.1 0-.15l.79-.45a.27.27 0 0 1 .26.01z"/><path d="m270.25 47.92 5.5 3.18c.07 0 .06.11 0 .15l-.79.46a.3.3 0 0 1 -.26 0l-5.5-3.18c-.07 0-.06-.1 0-.15l.79-.46a.3.3 0 0 1 .26 0z"/><path d="m275.58 53.62.82.48c.07 0 .06.1 0 .15l-.79.45a.27.27 0 0 1 -.26 0l-.83-.47c-.06 0-.05-.11 0-.16l.79-.45a.29.29 0 0 1 .27 0z"/><path d="m274.41 52.94.82.48c.07 0 .06.11 0 .15l-.79.46a.3.3 0 0 1 -.26 0l-.83-.48c-.06 0-.05-.11 0-.15l.79-.46a.32.32 0 0 1 .27 0z"/><path d="m273.24 52.27.82.48c.07 0 .06.1 0 .15l-.79.45a.27.27 0 0 1 -.26 0l-.83-.47c-.06 0-.05-.11 0-.16l.79-.45a.29.29 0 0 1 .27 0z"/><path d="m272.07 51.59.82.48c.07 0 .06.11 0 .15l-.78.46a.32.32 0 0 1 -.27 0l-.83-.48c-.06 0-.05-.11 0-.15l.79-.46a.32.32 0 0 1 .27 0z"/><path d="m270.9 50.92.82.47c.07 0 .06.11 0 .16l-.78.45a.29.29 0 0 1 -.27 0l-.83-.47c-.06 0-.05-.11 0-.16l.79-.45a.29.29 0 0 1 .27 0z"/><path d="m269.73 50.24.82.48c.07 0 .06.11 0 .15l-.78.46a.32.32 0 0 1 -.27 0l-.83-.48c-.06 0 0-.11 0-.15l.79-.46a.32.32 0 0 1 .27 0z"/><path d="m268.56 49.57.82.47c.07 0 .06.11 0 .16l-.78.45a.29.29 0 0 1 -.27 0l-.83-.48c-.06 0-.05-.1 0-.15l.79-.45a.29.29 0 0 1 .27 0z"/><path d="m267.39 48.89.82.48c.07 0 .06.1 0 .15l-.79.46a.32.32 0 0 1 -.27 0l-.83-.48c-.06 0-.05-.11 0-.15l.79-.46a.32.32 0 0 1 .28 0z"/><path d="m266.22 48.21.82.48c.07 0 .06.11 0 .15l-.79.46a.29.29 0 0 1 -.27 0l-.82-.48c-.07 0-.06-.1 0-.15l.79-.45a.32.32 0 0 1 .27-.01z"/><path d="m265.05 47.54.82.48c.07 0 .06.1 0 .15l-.79.45a.32.32 0 0 1 -.27 0l-.82-.48c-.07 0-.06-.11 0-.15l.79-.46a.32.32 0 0 1 .27.01z"/><path d="m263.88 46.86.82.48c.07 0 .06.11 0 .15l-.79.46a.32.32 0 0 1 -.27 0l-.82-.48c-.07 0-.06-.1 0-.15l.79-.46a.32.32 0 0 1 .27 0z"/><path d="m262.71 46.19.82.48c.07 0 .06.1 0 .15l-.79.45a.29.29 0 0 1 -.27 0l-.82-.47c-.07 0-.06-.11 0-.15l.79-.46a.29.29 0 0 1 .27 0z"/><path d="m276.75 54.29 1.71 1c.06 0 .06.11 0 .15l-.79.46a.32.32 0 0 1 -.27 0l-1.71-1c-.06 0-.06-.1 0-.15l.79-.46a.32.32 0 0 1 .27 0z"/><path d="m277.29 53.3.83.48c.07 0 .06.1 0 .15l-.79.45a.27.27 0 0 1 -.26 0l-.83-.47c-.07 0-.06-.11 0-.16l.79-.45a.27.27 0 0 1 .26 0z"/><path d="m276.12 52.62.83.48c.07 0 .06.11 0 .15l-.79.46a.3.3 0 0 1 -.26 0l-.83-.48c-.07 0-.06-.11 0-.15l.79-.46a.3.3 0 0 1 .26 0z"/><path d="m275 52 .83.48c.07 0 .06.1 0 .15l-.83.37a.27.27 0 0 1 -.26 0l-.83-.47c-.07 0-.06-.11 0-.16l.79-.45a.27.27 0 0 1 .3.08z"/><path d="m273.78 51.27.83.48c.07 0 .06.11 0 .15l-.79.46a.3.3 0 0 1 -.26 0l-.83-.48c-.07 0-.06-.11 0-.15l.79-.46a.3.3 0 0 1 .26 0z"/><path d="m272.61 50.6.83.47c.07 0 .06.11 0 .16l-.79.45a.27.27 0 0 1 -.26 0l-.83-.47c-.07 0-.06-.11 0-.16l.79-.45a.27.27 0 0 1 .26 0z"/><path d="m271.44 49.92.83.48c.07 0 .06.11 0 .15l-.79.46a.3.3 0 0 1 -.26 0l-.83-.48c-.07 0-.06-.11 0-.15l.79-.46a.3.3 0 0 1 .26 0z"/><path d="m270.27 49.25.83.47c.07 0 .06.11 0 .16l-.79.45a.27.27 0 0 1 -.26 0l-.83-.48c-.07 0-.06-.1 0-.15l.79-.45a.27.27 0 0 1 .26 0z"/><path d="m269.1 48.57.83.48c.07 0 .06.11 0 .15l-.79.46a.3.3 0 0 1 -.26 0l-.83-.48c-.07 0-.06-.11 0-.15l.79-.46a.3.3 0 0 1 .26 0z"/><path d="m267.93 47.9.83.47c.07 0 .06.11 0 .16l-.76.47a.27.27 0 0 1 -.26 0l-.83-.48c-.07 0-.06-.1 0-.15l.79-.45a.27.27 0 0 1 .23-.02z"/><path d="m266.76 47.22.83.48c.07 0 .06.1 0 .15l-.79.46a.3.3 0 0 1 -.26 0l-.83-.48c-.06 0-.06-.11 0-.15l.79-.46a.3.3 0 0 1 .26 0z"/><path d="m265.59 46.54.83.48c.07 0 .06.11 0 .15l-.79.46a.27.27 0 0 1 -.26 0l-.83-.48c-.06 0-.06-.1 0-.15l.79-.45a.3.3 0 0 1 .26-.01z"/><path d="m263 45 2.27 1.32c.07 0 .06.1 0 .15l-.79.46a.3.3 0 0 1 -.26 0l-2.27-1.32c-.07 0-.06-.1 0-.15l.79-.46a.32.32 0 0 1 .26 0z"/><path d="m278.46 54 1.13.65c.07 0 .06.11 0 .16l-.79.45a.27.27 0 0 1 -.26 0l-1.13-.65c-.07 0-.06-.1 0-.15l.79-.46a.3.3 0 0 1 .26 0z"/><path d="m258.4 47.68 16.6 9.59c.07 0 .06.11 0 .15l-.39.23a.32.32 0 0 1 -.27 0l-16.61-9.59c-.07 0-.06-.11 0-.15l.39-.23a.29.29 0 0 1 .28-0z"/></g><path d="m278.05 48.31-.11.06-2.86 1.65-5.08-2.93-.11-.07 2.97-1.71z" fill="#bfbfbf"/><path d="m277.94 48.37-2.86 1.65-5.08-2.93 2.86-1.66z" fill="#e5e5e5"/><path d="m286.21 52.16v.26a1 1 0 0 1 -.52.9l-10.09 5.82a1 1 0 0 1 -1 0l-18.28-10.53a1 1 0 0 1 -.53-.9v-.26l19.29 11.14z" fill="#e5e5e5"/><path d="m275.08 58.59v.69a1.07 1.07 0 0 1 -.52-.14l-18.24-10.53a1 1 0 0 1 -.53-.9v-.26z" fill="#e5e5e5"/><path d="m274.79 58.74a1.26 1.26 0 0 1 -1.07-.08l-18.16-10.49a1.22 1.22 0 0 1 -.6-.86l-2-11.86a1.5 1.5 0 0 1 0-.2 1.22 1.22 0 0 1 .37-.88l18.87 10.9a.93.93 0 0 1 .45.64z" fill="#f4f4f4"/><path d="m275.08 58.59-.12.07-.17.08-2.15-12.83a.93.93 0 0 0 -.45-.64l-18.87-10.9a.92.92 0 0 1 .25-.19l18.91 10.92a.91.91 0 0 1 .45.64z" fill="#e5e5e5"/><path d="m46.21 364.33-20.26-11.7 20.26-11.7 20.26 11.7z" fill="#d6d8e5" opacity=".3"/><path d="m78.32 345.58-20.26-11.69 20.26-11.7 20.26 11.7z" fill="#d6d8e5" opacity=".3"/><path d="m90.35 263.34-20.26-11.7 20.26-11.7 20.26 11.7z" fill="#3e7eff"/><path d="m90.35 338.81-20.26-11.7v-75.47l20.26 11.7z" fill="#3e7eff"/><path d="m90.35 338.81-20.26-11.7v-75.47l20.26 11.7z" opacity=".1"/><path d="m110.61 327.11-20.26 11.7v-75.47l20.26-11.7z" fill="#3e7eff"/><path d="m110.61 327.11-20.26 11.7v-75.47l20.26-11.7z" opacity=".15"/><path d="m59.96 301.76-20.26-11.7 20.26-11.69 20.26 11.69z" fill="#ff4d4d"/><path d="m59.96 356.26-20.26-11.7v-54.5l20.26 11.7z" fill="#ff4d4d"/><path d="m59.96 356.26-20.26-11.7v-54.5l20.26 11.7z" opacity=".1"/><path d="m80.22 344.56-20.26 11.7v-54.5l20.26-11.7z" fill="#ff4d4d"/><path d="m80.22 344.56-20.26 11.7v-54.5l20.26-11.7z" opacity=".15"/><path d="m20.26 379.66-20.26-11.7 20.26-11.7 20.26 11.7z" fill="#d6d8e5" opacity=".3"/><path d="m27.6 341.71-20.26-11.7 20.26-11.69 20.26 11.69z" fill="#b7e200"/><path d="m27.6 375.24-20.26-11.69v-33.54l20.26 11.7z" fill="#b7e200"/><path d="m27.6 375.24-20.26-11.69v-33.54l20.26 11.7z" opacity=".1"/><path d="m47.86 363.55-20.26 11.69v-33.53l20.26-11.7z" fill="#b7e200"/><path d="m47.86 363.55-20.26 11.69v-33.53l20.26-11.7z" opacity=".15"/><path d="m236.3 453.74-13-18.72-6.3-2.82a65.37 65.37 0 0 0 -14.58-1.68c-5.87 5.92-42.89 7.5-57.59.2-16.67-8.28-25.41-18.39-28.13-24.58-4.84-11 4.39-23.93 4.39-23.93-25.22 14.56-25.22 38.26 0 52.82 23.64 13.65 61.18 14.5 86.56 2.56z" fill="#d6d8e5" opacity=".4"/><path d="m307.55 500-87.3-50.4 14.83-8.56 87.3 50.4z" fill="#d6d8e5" opacity=".4"/><path d="m124.21 430.42c-25.22-14.56-25.22-38.25 0-52.81s66.26-14.56 91.48 0 25.22 38.25 0 52.81-66.26 14.58-91.48 0zm80.32-46.37c-19.07-11-50.1-11-69.16 0s-19.07 28.95 0 39.95 50.09 11 69.16 0 19.07-28.94 0-39.95z" fill="#b1b4c4"/><path d="m105.33 405.13v-11.19l11.34 5.59z" fill="#b1b4c4"/><path d="m137.44 423.58c.46.57 2.08 11.53 34.38 11.53s30.92-12.95 30.92-12.95-30.46 4.19-30.92 4.19-34.38-2.77-34.38-2.77z" fill="#b1b4c4"/><path d="m234.6 393.94v10.07l-9.3-5.93z" fill="#b1b4c4"/><path d="m140.55 369.58a83.11 83.11 0 0 1 29.4-5.65 70.55 70.55 0 0 1 28.41 6.07l-2.05 3.41h-54z" fill="#b1b4c4"/><ellipse cx="169.96" cy="397.81" fill="#3e7eff" opacity=".1" rx="48.15" ry="27.8"/><path d="m124.21 420.35c-25.22-14.56-25.22-38.26 0-52.82s66.26-14.56 91.48 0 25.22 38.26 0 52.82-66.26 14.56-91.48 0zm80.32-46.35c-19.07-11-50.1-11-69.16 0s-19.07 28.93 0 39.94 50.09 11 69.16 0 19.07-28.94 0-39.94z" fill="#d6d8e5"/><path d="m230.79 436.31-21.88-12.73 12.71-7.33 21.88 12.72z" fill="#d6d8e5"/><path d="m230.79 446.45-21.86-12.65v-10.21l21.86 12.65z" fill="#b1b4c4"/><path d="m310.32 498.24-87.29-50.4v-17.12l87.29 50.4z" fill="#2b303f"/><path d="m310.33 481.13-87.3-50.4 14.83-8.56 87.3 50.39z" fill="#394051"/><path d="m310.32 498.24c.9-.1 14.84-8.35 14.84-8.35v-17.33l-14.83 8.57z" fill="#232733"/><path d="m61.78 272.5a36.55 36.55 0 0 0 5.32 7.25c.58.67 5-1 4.08-1.5s-3.83-4.52-5.28-7.21a91.19 91.19 0 0 1 -3.1-9.85c-.91-3.3-1.7-8.14-2.36-10.42a4.47 4.47 0 0 0 -3.39-3.45c-1.6-.37-2.63.07-2.34 2 .51 3.38 3.16 16.53 7.07 23.18z" fill="#ffcea9"/><path d="m59.24 324c1.37 1.12 3.4.1 3.5.2a60.16 60.16 0 0 0 5.06 4.22c.86.67 2.2 1.57 2 2.87-.43 2.31-4.13 1.6-5.53.89s-2.54-1.88-3.86-2.7c-.94-.59-1.87-.89-2-2.08-.16-.71.59-3.4.83-3.4z" fill="#1d3892"/><path d="m58.36 326.93c.18 1.14 1.1 1.45 2 2 1.35.83 2.53 2 3.93 2.74s4.51 1.31 5.41-.35c-.49 2.23-4.13 1.53-5.51.83s-2.54-1.88-3.86-2.7c-.94-.59-1.87-.89-2-2.08a2.07 2.07 0 0 1 .03-.44z" fill="#9c73ff"/><path d="m73.16 316c1.38 1.12 3.78-.1 3.88 0a54.81 54.81 0 0 0 4.53 4.09c.85.67 2.19 1.57 2 2.86-.43 2.32-4.14 1.61-5.54.9s-2.54-1.88-3.86-2.7c-.94-.59-1.87-.89-2-2.08a6.41 6.41 0 0 1 .99-3.07z" fill="#1d3892"/><path d="m72.14 318.74c.19 1.14 1.1 1.45 2 2 1.34.83 2.53 2 3.92 2.74s4.52 1.31 5.42-.35c-.48 2.27-4.09 1.57-5.48.87s-2.54-1.88-3.86-2.7c-1-.59-1.88-.89-2-2.08a2 2 0 0 1 0-.48z" fill="#9c73ff"/><path d="m40.88 280c-1.52 9.51 2.7 13.05 8.19 15.08 3.94 1.45 9.59 3.68 9.59 3.68s-.08 2.09-.12 6.77c0 4.13.5 19.18.5 19.18a4.59 4.59 0 0 0 4.2 0s2.22-11.54 2.69-16.74c.63-7.05 1.72-11.67 1.36-13.19-.32-1.34-8-5.13-10.48-7.16l16.19 5.38a28.14 28.14 0 0 0 -.47 5.31c.15 5.6.45 17.71.45 17.71s2.22 1.6 4.11 0c0 0 4.06-24 3.57-27.16-.47-3-14.7-9.17-17.21-11.29a4 4 0 0 0 -3.16-.86z" fill="#4f46e5"/><path d="m79.61 284-10.85-6.27a.64.64 0 0 0 -.63 0l-19 11 11.17 6.44z" fill="#f4f4f4"/><path d="m59.75 292.83-.82.48c-.07 0-.06.1 0 .15l.79.45a.29.29 0 0 0 .27 0l.82-.47c.07 0 .06-.11 0-.16l-.79-.45a.29.29 0 0 0 -.27 0z" fill="#4f46e5"/><path d="m60.92 292.15-.82.48c-.07 0-.06.11 0 .15l.79.46a.3.3 0 0 0 .26 0l.83-.48c.06 0 0-.11 0-.15l-.79-.46a.32.32 0 0 0 -.27 0z" fill="#4f46e5"/><path d="m62.11 291.47-.83.48c-.07 0-.06.1 0 .15l.79.45a.27.27 0 0 0 .26 0l.83-.47c.07 0 .06-.11 0-.16l-.79-.45a.27.27 0 0 0 -.26 0z" fill="#4f46e5"/><path d="m63.27 290.8-.83.48c-.07 0-.06.1 0 .15l.79.45a.3.3 0 0 0 .26 0l.83-.48c.07 0 .06-.11 0-.15l-.79-.46a.3.3 0 0 0 -.26.01z" fill="#4f46e5"/><path d="m64.44 290.12-.83.48c-.07 0-.06.11 0 .15l.79.46a.3.3 0 0 0 .26 0l.83-.48c.07 0 .06-.11 0-.15l-.79-.46a.3.3 0 0 0 -.26 0z" fill="#4f46e5"/><path d="m65.61 289.45-.83.47c-.07 0-.06.11 0 .16l.79.45a.27.27 0 0 0 .26 0l.83-.47c.07 0 .06-.11 0-.16l-.79-.45a.27.27 0 0 0 -.26 0z" fill="#4f46e5"/><path d="m66.78 288.77-.83.48c-.06 0-.06.11 0 .15l.79.46a.3.3 0 0 0 .26 0l.83-.48c.07 0 .06-.11 0-.15l-.79-.46a.3.3 0 0 0 -.26 0z" fill="#4f46e5"/><path d="m68 288.09-.83.48c-.06 0-.06.11 0 .15l.79.46a.29.29 0 0 0 .27 0l.82-.48c.07 0 .06-.1 0-.15l-.79-.45a.3.3 0 0 0 -.26-.01z" fill="#4f46e5"/><path d="m69.12 287.42-.82.48c-.07 0-.06.1 0 .15l.79.45a.29.29 0 0 0 .27 0l.82-.47c.07 0 .06-.11 0-.15l-.79-.46a.29.29 0 0 0 -.27 0z" fill="#4f46e5"/><path d="m70.29 286.74-.82.48c-.07 0-.06.11 0 .15l.78.46a.32.32 0 0 0 .27 0l.83-.48c.06 0 0-.11 0-.15l-.79-.46a.32.32 0 0 0 -.27 0z" fill="#4f46e5"/><path d="m71.46 286.07-.82.47c-.07 0-.06.11 0 .16l.79.45a.27.27 0 0 0 .26 0l.83-.48c.06 0 .06-.1 0-.15l-.79-.45a.29.29 0 0 0 -.27-0z" fill="#4f46e5"/><path d="m72.64 285.39-.83.48c-.07 0-.06.1 0 .15l.79.46a.3.3 0 0 0 .26 0l.83-.48c.07 0 .06-.11 0-.15l-.79-.46a.3.3 0 0 0 -.26 0z" fill="#4f46e5"/><path d="m73.81 284.71-.83.48c-.07 0-.06.11 0 .15l.79.46a.3.3 0 0 0 .26 0l.83-.48c.07 0 .06-.1 0-.15l-.79-.46a.3.3 0 0 0 -.26 0z" fill="#4f46e5"/><path d="m75.54 283.71-1.39.81c-.07 0-.06.1 0 .15l.79.45a.27.27 0 0 0 .26 0l1.39-.8c.07 0 .06-.11 0-.15l-.79-.46a.32.32 0 0 0 -.26 0z" fill="#4f46e5"/><path d="m60.36 291.17-.83.48c-.07 0-.06.1 0 .15l.79.46a.34.34 0 0 0 .26 0l.83-.48c.06 0 .06-.11 0-.15l-.79-.46a.3.3 0 0 0 -.26 0z" fill="#4f46e5"/><path d="m61.53 290.49-.83.48c-.07 0-.06.11 0 .15l.79.46a.3.3 0 0 0 .26 0l.83-.48c.07 0 .06-.11 0-.15l-.79-.46a.3.3 0 0 0 -.26 0z" fill="#4f46e5"/><path d="m62.7 289.81-.83.48c-.06 0 0 .11 0 .15l.79.46a.29.29 0 0 0 .27 0l.82-.48c.07 0 .06-.1 0-.15l-.79-.45a.3.3 0 0 0 -.26-.01z" fill="#4f46e5"/><path d="m63.87 289.14-.82.48c-.07 0-.06.1 0 .15l.79.45a.27.27 0 0 0 .26 0l.83-.47c.06 0 .06-.11 0-.16l-.79-.45a.29.29 0 0 0 -.27 0z" fill="#4f46e5"/><path d="m65 288.47-.83.47c-.07 0-.06.11 0 .16l.79.45a.27.27 0 0 0 .26 0l.83-.48c.07 0 .06-.1 0-.15l-.79-.45a.27.27 0 0 0 -.26-0z" fill="#4f46e5"/><path d="m66.21 287.79-.83.48c-.06 0 0 .1 0 .15l.79.45a.29.29 0 0 0 .27 0l.82-.47c.07 0 .06-.11 0-.16l-.78-.45a.29.29 0 0 0 -.27 0z" fill="#4f46e5"/><path d="m67.38 287.11-.82.48c-.07 0-.06.11 0 .15l.79.46a.3.3 0 0 0 .26 0l.83-.48c.06 0 .06-.11 0-.15l-.79-.46a.32.32 0 0 0 -.27 0z" fill="#4f46e5"/><path d="m68.56 286.43-.83.48c-.07 0-.06.11 0 .15l.79.46a.3.3 0 0 0 .26 0l.83-.48c.07 0 .06-.1 0-.15l-.79-.46a.3.3 0 0 0 -.26 0z" fill="#4f46e5"/><path d="m69.73 285.76-.83.47c-.06 0-.05.11 0 .16l.79.45a.29.29 0 0 0 .27 0l.82-.48c.07 0 .06-.1 0-.15l-.79-.45a.27.27 0 0 0 -.26-0z" fill="#4f46e5"/><path d="m70.9 285.08-.82.48c-.07 0-.06.1 0 .15l.79.45a.3.3 0 0 0 .26 0l.83-.48c.06 0 .06-.11 0-.15l-.79-.46a.29.29 0 0 0 -.27.01z" fill="#4f46e5"/><path d="m72.08 284.4-.83.48c-.07 0-.06.11 0 .15l.79.46a.3.3 0 0 0 .26 0l.83-.48c.07 0 .06-.11 0-.15l-.79-.46a.3.3 0 0 0 -.26 0z" fill="#4f46e5"/><path d="m73.25 283.72-.83.48c-.06 0-.06.11 0 .15l.79.46a.32.32 0 0 0 .27 0l.82-.48c.07 0 .06-.1 0-.15l-.79-.46a.34.34 0 0 0 -.26 0z" fill="#4f46e5"/><path d="m59.18 291.85-1.39.8c-.07 0-.06.11 0 .15l.79.46a.3.3 0 0 0 .26 0l1.39-.8c.07 0 .06-.11 0-.16l-.78-.45a.29.29 0 0 0 -.27 0z" fill="#4f46e5"/><path d="m75.49 283.67-.83.48a.31.31 0 0 1 -.25 0l-.83-.49c-.07 0-.07-.1 0-.14h.06c.07 0 .07-.09 0-.13l-.88-.51c-.07 0-.07-.1 0-.14l.53-.3a.25.25 0 0 1 .24 0l.83.48.17.09.12.07.12.08.72.41a.08.08 0 0 1 -0 .1z" fill="#4f46e5"/><path d="m55.22 290.2-.83.48c-.07 0-.06.11 0 .15l.79.46a.3.3 0 0 0 .26 0l.83-.48c.07 0 .06-.1 0-.15l-.79-.46a.3.3 0 0 0 -.26 0z" fill="#4f46e5"/><path d="m56.38 289.53-.82.48c-.07 0-.06.1 0 .15l.79.45a.3.3 0 0 0 .26 0l.83-.48c.06 0 .06-.11 0-.15l-.79-.46a.32.32 0 0 0 -.27.01z" fill="#4f46e5"/><path d="m57.55 288.86-.82.47c-.07 0-.06.11 0 .15l.79.46a.29.29 0 0 0 .27 0l.82-.48c.07 0 .06-.1 0-.15l-.79-.45a.29.29 0 0 0 -.27 0z" fill="#4f46e5"/><path d="m67.5 283.11-.83.48c-.07 0-.06.11 0 .15l.79.46a.3.3 0 0 0 .26 0l.83-.48c.07 0 .06-.11 0-.15l-.79-.46a.3.3 0 0 0 -.26 0z" fill="#4f46e5"/><path d="m68.67 282.44-.83.48c-.07 0-.06.1 0 .15l.79.45a.3.3 0 0 0 .26 0l.83-.48c.07 0 .06-.11 0-.15l-.79-.46a.27.27 0 0 0 -.26.01z" fill="#4f46e5"/><path d="m69.83 281.76-.82.48c-.07 0-.06.11 0 .15l.79.46a.3.3 0 0 0 .26 0l.83-.48c.06 0 0-.1 0-.15l-.79-.45a.32.32 0 0 0 -.27-.01z" fill="#4f46e5"/><path d="m71 281.09-.83.48c-.06 0 0 .1 0 .15l.79.46a.32.32 0 0 0 .27 0l.82-.48c.07 0 .06-.11 0-.15l-.78-.46a.32.32 0 0 0 -.27 0z" fill="#4f46e5"/><path d="m59 288-1.13.65c-.06 0-.06.11 0 .15l.79.46a.3.3 0 0 0 .26 0l1.13-.65c.07 0 .06-.11 0-.16l-.79-.45a.27.27 0 0 0 -.26 0z" fill="#4f46e5"/><path d="m66.33 283.79-1.13.65c-.07 0-.06.11 0 .15l.79.46a.3.3 0 0 0 .26 0l1.13-.65c.07 0 .06-.11 0-.16l-.79-.45a.27.27 0 0 0 -.26 0z" fill="#4f46e5"/><path d="m64.86 284.64-5.5 3.17c-.07 0-.06.11 0 .15l.79.46a.3.3 0 0 0 .26 0l5.5-3.18c.07 0 .06-.1 0-.15l-.78-.45a.29.29 0 0 0 -.27 0z" fill="#4f46e5"/><path d="m59.54 290.33-.83.48c-.07 0-.06.1 0 .15l.79.46a.3.3 0 0 0 .26 0l.83-.48c.07 0 .06-.11 0-.15l-.79-.46a.3.3 0 0 0 -.26 0z" fill="#4f46e5"/><path d="m60.71 289.65-.83.48c-.07 0-.06.11 0 .15l.79.46a.27.27 0 0 0 .26 0l.83-.48c.07 0 .06-.1 0-.15l-.79-.45a.3.3 0 0 0 -.26-.01z" fill="#4f46e5"/><path d="m61.88 289-.83.48c-.07 0-.06.1 0 .15l.79.45a.3.3 0 0 0 .26 0l.83-.48c.07 0 .06-.11 0-.15l-.79-.46a.3.3 0 0 0 -.26.01z" fill="#4f46e5"/><path d="m63.05 288.3-.83.48c-.07 0-.06.11 0 .15l.79.46a.3.3 0 0 0 .26 0l.83-.48c.07 0 .06-.1 0-.15l-.79-.46a.3.3 0 0 0 -.26 0z" fill="#4f46e5"/><path d="m64.22 287.63-.83.48c-.07 0-.06.1 0 .15l.79.45a.27.27 0 0 0 .26 0l.83-.47c.07 0 .06-.11 0-.15l-.79-.46a.27.27 0 0 0 -.26 0z" fill="#4f46e5"/><path d="m65.39 287-.83.48c-.07 0-.06.11 0 .15l.79.46a.3.3 0 0 0 .26 0l.83-.48c.07 0 .06-.11 0-.15l-.79-.46a.3.3 0 0 0 -.26 0z" fill="#4f46e5"/><path d="m66.56 286.28-.83.48c-.07 0-.06.1 0 .15l.79.45a.27.27 0 0 0 .26 0l.83-.47c.07 0 .06-.11 0-.16l-.79-.45a.27.27 0 0 0 -.26 0z" fill="#4f46e5"/><path d="m67.73 285.6-.83.48c-.07 0-.06.11 0 .15l.79.46a.3.3 0 0 0 .26 0l.83-.48c.07 0 .06-.11 0-.15l-.79-.46a.3.3 0 0 0 -.26 0z" fill="#4f46e5"/><path d="m68.9 284.93-.83.47c-.07 0-.06.11 0 .16l.79.45a.27.27 0 0 0 .26 0l.83-.47c.07 0 .06-.11 0-.16l-.79-.45a.27.27 0 0 0 -.26 0z" fill="#4f46e5"/><path d="m70.07 284.25-.83.48c-.07 0-.06.11 0 .15l.79.46a.3.3 0 0 0 .26 0l.83-.48c.07 0 .06-.11 0-.15l-.79-.46a.3.3 0 0 0 -.26 0z" fill="#4f46e5"/><path d="m71.24 283.58-.83.47c-.07 0-.06.11 0 .16l.79.45a.27.27 0 0 0 .26 0l.83-.48c.07 0 .06-.1 0-.15l-.79-.45a.27.27 0 0 0 -.26-0z" fill="#4f46e5"/><path d="m72.41 282.9-.83.48c-.07 0-.06.11 0 .15l.79.46a.3.3 0 0 0 .26 0l.83-.48c.07 0 .06-.11 0-.15l-.79-.46a.3.3 0 0 0 -.26 0z" fill="#4f46e5"/><path d="m58.37 291-1.71 1c-.07 0-.06.11 0 .16l.79.45a.27.27 0 0 0 .26 0l1.71-1c.07 0 .06-.1 0-.15l-.79-.45a.27.27 0 0 0 -.26-.01z" fill="#4f46e5"/><path d="m57.82 290-.82.48c-.07 0-.06.1 0 .15l.79.46a.32.32 0 0 0 .27 0l.82-.48c.07 0 .06-.11 0-.15l-.79-.46a.32.32 0 0 0 -.27 0z" fill="#4f46e5"/><path d="m59 289.33-.82.48c-.07 0-.06.11 0 .15l.79.46a.29.29 0 0 0 .27 0l.82-.48c.07 0 .06-.1 0-.15l-.79-.45a.32.32 0 0 0 -.27-.01z" fill="#4f46e5"/><path d="m60.16 288.66-.83.48c-.06 0 0 .1 0 .15l.79.45a.32.32 0 0 0 .27 0l.82-.48c.07 0 .06-.11 0-.15l-.78-.46a.32.32 0 0 0 -.27.01z" fill="#4f46e5"/><path d="m61.33 288-.83.48c-.06 0 0 .11 0 .15l.79.46a.32.32 0 0 0 .27 0l.82-.48c.07 0 .06-.1 0-.15l-.78-.46a.36.36 0 0 0 -.27 0z" fill="#4f46e5"/><path d="m62.5 287.31-.83.48c-.06 0-.05.1 0 .15l.79.45a.32.32 0 0 0 .27 0l.82-.48c.07 0 .06-.11 0-.15l-.79-.46a.27.27 0 0 0 -.26.01z" fill="#4f46e5"/><path d="m63.67 286.63-.83.48c-.06 0-.06.11 0 .15l.79.46a.32.32 0 0 0 .27 0l.82-.48c.07 0 .06-.1 0-.15l-.79-.46a.3.3 0 0 0 -.26 0z" fill="#4f46e5"/><path d="m64.84 286-.83.48c-.06 0-.06.1 0 .15l.79.45a.29.29 0 0 0 .27 0l.82-.47c.07 0 .06-.11 0-.16l-.79-.45a.27.27 0 0 0 -.26 0z" fill="#4f46e5"/><path d="m66 285.28-.83.48c-.06 0-.06.11 0 .15l.79.46a.3.3 0 0 0 .26 0l.83-.48c.07 0 .06-.11 0-.15l-.79-.46a.3.3 0 0 0 -.26 0z" fill="#4f46e5"/><path d="m67.18 284.61-.83.48c-.06 0-.06.1 0 .15l.79.45a.27.27 0 0 0 .26 0l.83-.47c.07 0 .06-.11 0-.16l-.79-.45a.27.27 0 0 0 -.26 0z" fill="#4f46e5"/><path d="m68.35 283.93-.83.48c-.06 0-.06.11 0 .15l.79.46a.3.3 0 0 0 .26 0l.83-.48c.07 0 .06-.11 0-.15l-.79-.46a.3.3 0 0 0 -.26 0z" fill="#4f46e5"/><path d="m69.52 283.26-.83.47c-.07 0-.06.11 0 .16l.79.45a.27.27 0 0 0 .26 0l.83-.47c.07 0 .06-.11 0-.16l-.79-.45a.27.27 0 0 0 -.26 0z" fill="#4f46e5"/><path d="m72.14 281.75-2.28 1.31c-.07 0-.06.11 0 .15l.79.46a.3.3 0 0 0 .26 0l2.28-1.32c.07 0 .06-.1 0-.15l-.79-.45a.27.27 0 0 0 -.26 0z" fill="#4f46e5"/><path d="m56.65 290.69-1.13.65c-.06 0-.05.1 0 .15l.79.45a.32.32 0 0 0 .27 0l1.12-.66c.07 0 .06-.1 0-.15l-.79-.45a.29.29 0 0 0 -.26.01z" fill="#4f46e5"/><path d="m76.72 284.39-16.61 9.61c-.07 0-.06.11 0 .15l.4.23a.27.27 0 0 0 .26 0l16.61-9.59c.07 0 .06-.11 0-.15l-.4-.23a.3.3 0 0 0 -.26-.02z" fill="#4f46e5"/><path d="m57.28 284.82.11.06 2.87 1.66 5.1-2.95.11-.06-2.98-1.72z" fill="#bfbfbf"/><path d="m57.39 284.88 2.87 1.66 5.1-2.95-2.87-1.65z" fill="#e5e5e5"/><path d="m49.09 288.69v.25a1 1 0 0 0 .53.91l10.11 5.84a1.1 1.1 0 0 0 .53.14 1.07 1.07 0 0 0 .52-.14l18.31-10.57a1.05 1.05 0 0 0 .52-.91v-.21l-19.35 11.13z" fill="#e5e5e5"/><path d="m60.55 295.29a1.26 1.26 0 0 0 1.07-.08l18.23-10.53a1.22 1.22 0 0 0 .6-.87l2-11.89a1.48 1.48 0 0 0 0-.21 1.25 1.25 0 0 0 -.36-.88l-18.94 10.94a1 1 0 0 0 -.44.64z" fill="#f4f4f4"/><path d="m60.26 295.13.12.08.17.08 2.16-12.88a1 1 0 0 1 .44-.64l18.95-10.94a1.24 1.24 0 0 0 -.26-.19l-19 11a.9.9 0 0 0 -.44.64z" fill="#e5e5e5"/><path d="m46.5 244.21s.23 4.53.13 4.93-2.08 1.73-2.65 2.2 3.13 4.13 4.93 5 7.51-1.35 7.61-4.16-1-5.16-1.85-5.28-8.17-2.69-8.17-2.69z" fill="#ffcea9"/><path d="m46 249.92s3.29 4.9 7.87 5.36c1.45-1.43 1.58-6.5-.42-8.12 0 0 1.84-1.48 3.1-1.19a6.47 6.47 0 0 1 2.83 3.61 29.63 29.63 0 0 1 1.62 10.48c-.07 4.8 0 16.95 0 16.95a10.35 10.35 0 0 1 -4.84 6.99 15 15 0 0 1 -10.88 1.5c-2.32-.54-3.19-1.84-4-3.53.21-3.36 1.54-10.29 1-14.53s-1.45-7.39-1.69-10.82.46-3.35 2.17-4.57a27.46 27.46 0 0 1 3.24-2.13z" fill="#f4f4f4"/><path d="m51.26 288.94a22.67 22.67 0 0 0 -2.57-1.47 5.33 5.33 0 0 1 -2.2-1.34c-.81-.79-2.13-3.77-3.07-6.68a29.88 29.88 0 0 1 -1.11-10.11c.4-4.08 1.87-9.79 2.24-12.14s-.38-3.29-1.47-4.15c-1.29-1-3.06-.57-4 2.72a63.31 63.31 0 0 0 -2.08 13.94 31.82 31.82 0 0 0 1.56 10.29 37.57 37.57 0 0 0 3.93 8.09c.45.76.6 1.43 1.28 3a10.49 10.49 0 0 0 3 4c1.15.83 1.7 1 2 .79s.27-.57-.21-1a8.54 8.54 0 0 1 -2.06-2.3s1 1 1.67 1.56a8.8 8.8 0 0 0 1.92 1.23c.68.3 1.61-.27 1.13-.73s-1-.67-1.92-1.51a8.17 8.17 0 0 1 -1.37-1.48 15.44 15.44 0 0 0 2.12 1.35 3.59 3.59 0 0 0 1.94.53c.36 0 .79-.51.12-1a13.25 13.25 0 0 1 -2.54-1.74c-.74-.73-1.16-1.35-1-1.36s.61.44 1.47.71 1.79 0 1.9-.44.13-.36-.68-.76z" fill="#ffcea9"/><path d="m56.75 237.46c-.54-3.52-3.08-6.18-6.7-6a7 7 0 0 0 -3.55 12.73 6.86 6.86 0 0 0 .56 1.53c1.28 1.5 5.16 2.43 6.27 2.27a3.32 3.32 0 0 0 2.89-2.36c1.2-2.74.78-6.43.53-8.17z" fill="#ffcea9"/><path d="m46.5 244.21.33-3.07s-2.5-6.49 3.42-5.24c3.9.82 4.88 1.18 6.07-1.44s-3-5-8-4.33a6.89 6.89 0 0 0 -6.16 7c.15 1.92.66 5.87 4.34 7.08z" fill="#4f46e5"/><path d="m36.37 261.81s3.23 3.21 7.05 2.29c.55-.37 1.86-7.88 1.86-7.88s0-4.17-3.19-4.06-5.72 9.65-5.72 9.65z" fill="#ededed"/><path d="m60.76 255.58a3.56 3.56 0 0 0 2.39-1.07c-.13-1.68-2.28-8.07-6.61-8.54a7.94 7.94 0 0 1 2.7 3.26 42.12 42.12 0 0 1 1.52 6.35z" fill="#ededed"/></svg>