<svg viewBox="0 0 500 500" xmlns="http://www.w3.org/2000/svg"><path d="m205.63 68-95.19 123.67 256-63.64-142.59-64.6a15.09 15.09 0 0 0 -18.22 4.57z" fill="#ebebeb"/><path d="m109.09 192.55 96.12-124.86a15.55 15.55 0 0 1 18.86-4.69l144 65.23zm108.5-130a14.49 14.49 0 0 0 -11.54 5.74l-94.27 122.51 253.06-62.91-141.2-64a14.6 14.6 0 0 0 -6.05-1.29z" fill="#e0e0e0"/><path d="m125.12 157.47h264.72a0 0 0 0 1 0 0v143.47a10.71 10.71 0 0 1 -10.71 10.71h-243.3a10.71 10.71 0 0 1 -10.71-10.71v-143.47a0 0 0 0 1 0 0z" fill="#f0f0f0" transform="matrix(.97046438 -.24124444 .24124444 .97046438 -48.98 69.04)"/><path d="m351.52 135.44-89 90.93-134.52-30.28-15.39-71.35a14.4 14.4 0 0 1 10.55-17.22l194.6-48.37a14.38 14.38 0 0 1 17.44 10.5z" fill="#fff"/><path d="m250.3 219.22-105.69 110.44a11.78 11.78 0 0 0 14.28 8.59l234.3-58.25a11.78 11.78 0 0 0 8.59-14.27l-.22-.88-138.2-48.75a12.36 12.36 0 0 0 -13.06 3.12z" fill="#e0e0e0"/><path d="m140.21 127.42h78.45v8.01h-78.45z" fill="#e0e0e0" transform="matrix(.97042226 -.24141382 .24141382 .97042226 -26.42 47.19)"/><path d="m143.82 135.57h174.06v9.05h-174.06z" fill="#e0e0e0" transform="matrix(.97042226 -.24141382 .24141382 .97042226 -26.99 59.86)"/><path d="m149.16 157.03h174.06v9.05h-174.06z" fill="#e0e0e0" transform="matrix(.97042226 -.24141382 .24141382 .97042226 -32.01 61.78)"/><path d="m323.11 164.57-5.29 5.29-141.8 37.07-18.53-4.33-.7-2.01 168.37-41.88.73 2.91z" fill="#e0e0e0"/><path d="m286.84 201.52-63.88 15.88-19.53-4.46 95.47-23.75z" fill="#e0e0e0"/><path d="m246.44 223.24s-.07.11-.24.3l-.76.83-2.94 3.15-10.89 11.53c-9.22 9.71-22 23.13-36.15 37.84s-27.15 27.91-36.63 37.37c-4.74 4.73-8.6 8.55-11.28 11.16l-3.09 3-.82.77a1.49 1.49 0 0 1 -.29.25 2 2 0 0 1 .25-.29l.78-.81 3-3.07 11.17-11.27c9.41-9.53 22.34-22.76 36.52-37.48s27-28 36.25-37.73l11-11.41 3-3.08.8-.79c.22-.19.32-.27.32-.27z" fill="#fafafa"/><path d="m401.56 264.83c-.05.14-29.52-10.09-65.82-22.85s-65.69-23.22-65.64-23.36 29.52 10.08 65.82 22.84 65.69 23.22 65.64 23.37z" fill="#fafafa"/><path d="m355.75 131.06a1.67 1.67 0 0 1 -.19.25l-.56.69-2.37 2.63-8.83 9.59c-7.48 8.07-17.9 19.13-29.58 31.2s-22.46 22.84-30.28 30.58l-9.31 9.12-2.56 2.45-.67.63c-.16.14-.24.21-.25.2a2 2 0 0 1 .21-.24l.63-.67 2.49-2.52 9.18-9.24c7.76-7.81 18.43-18.63 30.11-30.69s22.14-23.04 29.7-31.04l8.95-9.47 2.45-2.56.65-.66a1.38 1.38 0 0 1 .23-.25z" fill="#fafafa"/><path d="m246.44 223.24a1.56 1.56 0 0 1 -.35-.06l-1-.24-4-1c-3.42-.86-8.39-2.07-14.54-3.51-12.29-2.91-29.34-6.66-48.18-10.74s-35.88-7.89-48.15-10.9c-6.14-1.5-11.1-2.76-14.51-3.68l-3.93-1.07-1-.29a1.38 1.38 0 0 1 -.34-.12l.35.07 1 .23 4 1c3.43.86 8.4 2.06 14.55 3.51 12.29 2.91 29.33 6.66 48.18 10.74s35.88 7.89 48.15 10.9c6.14 1.5 11.1 2.75 14.51 3.68l3.92 1.07 1 .29z" fill="#fafafa"/><path d="m351.52 135.44s-.1-.33-.27-1l-.73-2.83c-.64-2.51-1.57-6.18-2.77-10.91l-10.07-40.12q-.8-3.18-1.63-6.51c-.27-1.1-.55-2.23-.84-3.36-.14-.57-.28-1.14-.46-1.69a11.14 11.14 0 0 0 -.6-1.64 14.11 14.11 0 0 0 -11.25-8.31 13.9 13.9 0 0 0 -3.81 0c-1.26.22-2.54.57-3.83.88l-7.85 2-16.41 4.05-72.91 18.2-73 18.12-16.39 4.06-4 1a22.33 22.33 0 0 0 -3.8 1.15 14.21 14.21 0 0 0 -5.92 4.79 14.62 14.62 0 0 0 -1.76 3.31 15.42 15.42 0 0 0 -.81 3.59c-.29 2.45.39 4.81.87 7.14q1.5 7 2.87 13.41c3.65 17.09 6.6 30.91 8.64 40.48 1 4.78 1.79 8.48 2.33 11 .25 1.25.45 2.21.59 2.87s.18 1 .18 1-.09-.33-.24-1-.36-1.61-.64-2.85c-.56-2.53-1.37-6.23-2.42-11-2.09-9.56-5.1-23.38-8.82-40.44-.92-4.27-1.9-8.74-2.91-13.41-.48-2.3-1.18-4.74-.88-7.27a15 15 0 0 1 .82-3.71 15.37 15.37 0 0 1 1.81-3.42 14.05 14.05 0 0 1 2.69-2.87 13.61 13.61 0 0 1 3.41-2.08 22.13 22.13 0 0 1 3.87-1.18l4-1 16.42-4.06 73-18.16 73-18.12 16.39-4.06 7.85-1.94c1.29-.32 2.55-.66 3.87-.89a14.66 14.66 0 0 1 11 2.8 14.55 14.55 0 0 1 4.54 5.75 11.41 11.41 0 0 1 .62 1.69c.18.57.32 1.14.46 1.71.28 1.13.55 2.26.83 3.37.55 2.22 1.08 4.39 1.61 6.51l9.9 40.19c1.15 4.74 2.05 8.42 2.66 10.93.3 1.25.53 2.2.68 2.85s.11.98.11.98z" fill="#e0e0e0"/><path d="m452 449c0 .15-90.44.27-202 .27s-202-.11-202-.27 90.43-.28 202-.28 202 .14 202 .28z" fill="#263238"/><path d="m239.71 82.66-9.89 7.53.48 14.38-9.05-7.19-5 4.28-19-23.46z" fill="#4f46e5"/><path d="m226.1 93.25c0 .44 4.2 11.32 4.2 11.32l-9.05-7.19z" fill="#4f46e5"/><path d="m226.1 93.25c0 .44 4.2 11.32 4.2 11.32l-9.05-7.19z" opacity=".3"/><path d="m197.25 78.2 28.85 15.05 4.2 11.32-.48-14.38z" fill="#4f46e5"/><path d="m197.25 78.2 28.85 15.05 4.2 11.32-.48-14.38z" opacity=".1"/><path d="m277.25 272.22a12.91 12.91 0 0 1 -5.13-1.25 12.91 12.91 0 0 1 5.13 1.25z" fill="#263238"/><path d="m285.43 274.22c0 .15-.75.1-1.59-.1s-1.5-.5-1.47-.65.75-.1 1.6.11 1.5.49 1.46.64z" fill="#263238"/><path d="m251.67 102.69a7.79 7.79 0 0 1 -2.61-.41 7.31 7.31 0 0 1 -2.52-.79 5.88 5.88 0 0 1 2.65.26 5.57 5.57 0 0 1 2.48.94z" fill="#263238"/><path d="m261.35 106.84a17.93 17.93 0 0 1 -4.71-2.36 5.69 5.69 0 0 1 2.51.86c1.31.66 2.28 1.37 2.2 1.5z" fill="#263238"/><path d="m269.74 113.2c-.11.11-1-.64-2.12-1.58s-2-1.74-1.87-1.87a5.8 5.8 0 0 1 2.25 1.45c1.09.96 1.85 1.9 1.74 2z" fill="#263238"/><path d="m276.14 121.55c-.14.07-.8-.9-1.6-2.1a7.85 7.85 0 0 1 -1.3-2.3c.11-.09.95.77 1.76 2a5.68 5.68 0 0 1 1.14 2.4z" fill="#263238"/><path d="m279.77 131.42a8 8 0 0 1 -.88-2.49 7.56 7.56 0 0 1 -.55-2.59 5.83 5.83 0 0 1 1.07 2.44 5.46 5.46 0 0 1 .36 2.64z" fill="#263238"/><path d="m280.31 141.92a8.24 8.24 0 0 1 -.11-2.64 7.54 7.54 0 0 1 .24-2.63 5.83 5.83 0 0 1 .31 2.64 5.71 5.71 0 0 1 -.44 2.63z" fill="#263238"/><path d="m277.58 152.06a8.14 8.14 0 0 1 .74-2.53 8.4 8.4 0 0 1 1-2.43 5.29 5.29 0 0 1 -.53 2.61 5.43 5.43 0 0 1 -1.21 2.35z" fill="#263238"/><path d="m271.47 160.6c-.1-.12.68-1 1.63-2.08s1.71-2 1.84-1.89a5.47 5.47 0 0 1 -1.43 2.25c-.97 1.12-1.94 1.83-2.04 1.72z" fill="#263238"/><path d="m262.65 166.28a8.26 8.26 0 0 1 2.26-1.36 8.08 8.08 0 0 1 2.41-1.08 5.53 5.53 0 0 1 -2.16 1.57 5.45 5.45 0 0 1 -2.51.87z" fill="#263238"/><path d="m252.39 168.49a8 8 0 0 1 2.61-.49 8.23 8.23 0 0 1 2.64-.17 5.47 5.47 0 0 1 -2.57.71 5.34 5.34 0 0 1 -2.68-.05z" fill="#263238"/><path d="m242.09 166.54a28.56 28.56 0 0 1 5 1.53 5.19 5.19 0 0 1 -2.64-.36 5.09 5.09 0 0 1 -2.36-1.17z" fill="#263238"/><path d="m234.79 159.3c.15-.05.61 1 1.43 2.18s1.61 2 1.5 2.15-1.09-.6-1.95-1.83a4 4 0 0 1 -.98-2.5z" fill="#263238"/><path d="m239.23 151.11c0 .16-1.09.51-2.23 1.32s-1.75 1.82-1.89 1.74.3-1.28 1.57-2.18a3.66 3.66 0 0 1 2.55-.88z" fill="#263238"/><path d="m248.27 154.86c-.14.08-.78-.9-1.82-1.86s-2.1-1.44-2-1.59a3.65 3.65 0 0 1 2.42 1.19 3.88 3.88 0 0 1 1.4 2.26z" fill="#263238"/><path d="m248.61 165.07a12.67 12.67 0 0 1 .49-2.57 12.85 12.85 0 0 1 .49-2.58 4.56 4.56 0 0 1 0 2.68 4.47 4.47 0 0 1 -.98 2.47z" fill="#263238"/><path d="m241.76 172.92c-.09-.13.82-.88 1.91-1.81s2-1.73 2.07-1.63-.58 1.08-1.71 2-2.19 1.57-2.27 1.44z" fill="#263238"/><path d="m232.41 177.78a6.64 6.64 0 0 1 2.28-1.35 6.47 6.47 0 0 1 2.51-.85 12.76 12.76 0 0 1 -4.79 2.2z" fill="#263238"/><path d="m223 182.56c-.08-.13.87-.84 2.13-1.6a6 6 0 0 1 2.46-1c.08.15-.94.76-2.19 1.48a6.46 6.46 0 0 1 -2.4 1.12z" fill="#263238"/><path d="m215 189.44c-.11-.1.58-1.08 1.63-2.11a5.87 5.87 0 0 1 2.13-1.59c.1.12-.71 1-1.74 2s-1.86 1.8-2.02 1.7z" fill="#263238"/><path d="m209 198.06a5.82 5.82 0 0 1 1.08-2.43c.77-1.25 1.56-2.15 1.68-2.06a7.42 7.42 0 0 1 -1.21 2.35c-.76 1.23-1.41 2.21-1.55 2.14z" fill="#263238"/><path d="m205.16 207.86a5.61 5.61 0 0 1 .48-2.61 5.69 5.69 0 0 1 1.15-2.4 17.8 17.8 0 0 1 -1.63 5z" fill="#263238"/><path d="m203.78 218.3a9.8 9.8 0 0 1 .36-5.26 7.69 7.69 0 0 1 0 2.64 7.57 7.57 0 0 1 -.36 2.62z" fill="#263238"/><path d="m205.16 228.73a6.43 6.43 0 0 1 -.83-2.52 5.38 5.38 0 0 1 -.22-2.65 8.33 8.33 0 0 1 .76 2.54 6.46 6.46 0 0 1 .29 2.63z" fill="#263238"/><path d="m209.23 238.43c-.13.08-.84-.88-1.49-2.2a5.58 5.58 0 0 1 -.85-2.52 7.62 7.62 0 0 1 1.34 2.28 7.54 7.54 0 0 1 1 2.44z" fill="#263238"/><path d="m215.55 246.86c-.1.1-1-.66-2-1.78a5.92 5.92 0 0 1 -1.44-2.24c.13-.1.92.78 1.86 1.88s1.69 2.03 1.58 2.14z" fill="#263238"/><path d="m223.67 253.56a5.72 5.72 0 0 1 -2.34-1.27c-1.18-.86-2-1.72-1.92-1.84a7.66 7.66 0 0 1 2.25 1.4c1.16.85 2.09 1.58 2.01 1.71z" fill="#263238"/><path d="m233.17 258.1a5.59 5.59 0 0 1 -2.58-.65 5.45 5.45 0 0 1 -2.31-1.32 8 8 0 0 1 2.51.81 8.36 8.36 0 0 1 2.38 1.16z" fill="#263238"/><path d="m238.46 259.45c0 .14-.09.26-.14.25s-.07-.14 0-.29.09-.26.14-.25.03.14 0 .29z" fill="#263238"/><path d="m218.45 231.3h11.51v7.16h-11.51z" fill="#4f46e5" transform="matrix(.95008102 .3120033 -.3120033 .95008102 84.5 -58.24)"/><path d="m218.45 231.3h11.51v7.16h-11.51z" opacity=".3" transform="matrix(.95008102 .3120033 -.3120033 .95008102 84.5 -58.24)"/><path d="m230.79 233.28a45.37 45.37 0 0 1 -6.34 2.6l-.19.07-.12-.16-.19-.24a44.91 44.91 0 0 1 -4.09-5.87 47.07 47.07 0 0 1 4.53 5.54l.18.24-.31-.09a42.57 42.57 0 0 1 6.53-2.09z" fill="#4f46e5"/><path d="m230.79 233.28a45.37 45.37 0 0 1 -6.34 2.6l-.19.07-.12-.16-.19-.24a44.91 44.91 0 0 1 -4.09-5.87 47.07 47.07 0 0 1 4.53 5.54l.18.24-.31-.09a42.57 42.57 0 0 1 6.53-2.09z" opacity=".1"/><path d="m223 233.85a8.22 8.22 0 0 1 -2.57 1.57 8.79 8.79 0 0 1 -2.82 1.07 8.5 8.5 0 0 1 2.58-1.57 8.87 8.87 0 0 1 2.81-1.07z" fill="#4f46e5"/><path d="m223 233.85a8.22 8.22 0 0 1 -2.57 1.57 8.79 8.79 0 0 1 -2.82 1.07 8.5 8.5 0 0 1 2.58-1.57 8.87 8.87 0 0 1 2.81-1.07z" opacity=".1"/><path d="m228.75 240.14a8.24 8.24 0 0 1 -1.4-2.53c-.66-1.49-1.1-2.77-.9-2.75a8.36 8.36 0 0 1 1.41 2.53 7.78 7.78 0 0 1 .89 2.75z" fill="#4f46e5"/><path d="m228.75 240.14a8.24 8.24 0 0 1 -1.4-2.53c-.66-1.49-1.1-2.77-.9-2.75a8.36 8.36 0 0 1 1.41 2.53 7.78 7.78 0 0 1 .89 2.75z" opacity=".1"/><path d="m243.64 254.85h29.6v18.42h-29.6z" fill="#4f46e5" transform="matrix(.95008102 .3120033 -.3120033 .95008102 95.32 -67.47)"/><path d="m275.38 259.93a7.18 7.18 0 0 1 -1.26.57l-3.5 1.37c-3 1.13-7.09 2.67-11.7 4.36l-.19.07-.12-.16-.47-.62c-3.06-4-5.82-7.73-7.79-10.42l-2.35-3.19a8 8 0 0 1 -.79-1.22 7.9 7.9 0 0 1 1 1.09l2.45 3.09c2.05 2.62 4.85 6.27 7.92 10.32l.47.61-.31-.09c4.6-1.68 8.75-3.16 11.75-4.2l3.56-1.21a7.38 7.38 0 0 1 1.33-.37z" fill="#4f46e5"/><path d="m275.38 259.93a7.18 7.18 0 0 1 -1.26.57l-3.5 1.37c-3 1.13-7.09 2.67-11.7 4.36l-.19.07-.12-.16-.47-.62c-3.06-4-5.82-7.73-7.79-10.42l-2.35-3.19a8 8 0 0 1 -.79-1.22 7.9 7.9 0 0 1 1 1.09l2.45 3.09c2.05 2.62 4.85 6.27 7.92 10.32l.47.61-.31-.09c4.6-1.68 8.75-3.16 11.75-4.2l3.56-1.21a7.38 7.38 0 0 1 1.33-.37z" opacity=".2"/><path d="m255.38 261.42a55.72 55.72 0 0 1 -6.82 3.63 56.22 56.22 0 0 1 -7.05 3.14 52.78 52.78 0 0 1 6.81-3.64 52.67 52.67 0 0 1 7.06-3.13z" fill="#4f46e5"/><path d="m255.38 261.42a55.72 55.72 0 0 1 -6.82 3.63 56.22 56.22 0 0 1 -7.05 3.14 52.78 52.78 0 0 1 6.81-3.64 52.67 52.67 0 0 1 7.06-3.13z" opacity=".2"/><path d="m270.14 277.59a51 51 0 0 1 -3.21-6.68 50.44 50.44 0 0 1 -2.7-6.91 50.76 50.76 0 0 1 3.21 6.69 50.06 50.06 0 0 1 2.7 6.9z" fill="#4f46e5"/><path d="m270.14 277.59a51 51 0 0 1 -3.21-6.68 50.44 50.44 0 0 1 -2.7-6.91 50.76 50.76 0 0 1 3.21 6.69 50.06 50.06 0 0 1 2.7 6.9z" opacity=".2"/><path d="m248.8 255a4.39 4.39 0 1 1 .94-6.14 4.39 4.39 0 0 1 -.94 6.14z" fill="#263238"/><path d="m249 250.65a20.07 20.07 0 0 1 -2.95 1.82l-.7.39-.13.07-.07-.12a14.19 14.19 0 0 1 -1.2-2.37 13.19 13.19 0 0 1 1.45 2.23l-.19-.06.7-.4a19.86 19.86 0 0 1 3.09-1.56z" fill="#fff"/><path d="m240.69 233.68h15.51v9.65h-15.51z" fill="#4f46e5" transform="matrix(.95008102 .3120033 -.3120033 .95008102 86.84 -65.62)"/><path d="m240.69 233.68h15.51v9.65h-15.51z" opacity=".2" transform="matrix(.95008102 .3120033 -.3120033 .95008102 86.84 -65.62)"/><path d="m257.31 236.34a3.34 3.34 0 0 1 -.65.3l-1.84.72c-1.55.59-3.71 1.4-6.13 2.28h-.1l-.06-.09-.24-.32c-1.61-2.12-3-4.05-4.09-5.46l-1.2-1.63a4.4 4.4 0 0 1 -.41-.64 3.78 3.78 0 0 1 .5.57l1.29 1.62c1.07 1.37 2.54 3.28 4.14 5.4l.25.33h-.16c2.41-.88 4.58-1.66 6.16-2.2l1.86-.63a3.22 3.22 0 0 1 .68-.25z" fill="#4f46e5"/><path d="m257.31 236.34a3.34 3.34 0 0 1 -.65.3l-1.84.72c-1.55.59-3.71 1.4-6.13 2.28h-.1l-.06-.09-.24-.32c-1.61-2.12-3-4.05-4.09-5.46l-1.2-1.63a4.4 4.4 0 0 1 -.41-.64 3.78 3.78 0 0 1 .5.57l1.29 1.62c1.07 1.37 2.54 3.28 4.14 5.4l.25.33h-.16c2.41-.88 4.58-1.66 6.16-2.2l1.86-.63a3.22 3.22 0 0 1 .68-.25z" fill="#4f46e5" opacity=".2"/><path d="m246.84 237.12a30.14 30.14 0 0 1 -3.57 1.9 29.76 29.76 0 0 1 -3.7 1.65 27.53 27.53 0 0 1 3.57-1.91 28.07 28.07 0 0 1 3.7-1.64z" fill="#4f46e5"/><path d="m246.84 237.12a30.14 30.14 0 0 1 -3.57 1.9 29.76 29.76 0 0 1 -3.7 1.65 27.53 27.53 0 0 1 3.57-1.91 28.07 28.07 0 0 1 3.7-1.64z" fill="#4f46e5" opacity=".2"/><path d="m254.57 245.59a26.4 26.4 0 0 1 -1.68-3.5 28.28 28.28 0 0 1 -1.42-3.62 50.9 50.9 0 0 1 3.1 7.12z" fill="#4f46e5"/><path d="m254.57 245.59a26.4 26.4 0 0 1 -1.68-3.5 28.28 28.28 0 0 1 -1.42-3.62 50.9 50.9 0 0 1 3.1 7.12z" fill="#4f46e5" opacity=".2"/><path d="m139 121.57a20.88 20.88 0 1 1 -15.1-25.38 20.89 20.89 0 0 1 15.1 25.38z" fill="#263238"/><path d="m126.47 105.11c.37.15-2 7.14-5.3 15.62-.49 1.23-1 2.41-1.41 3.57l-.25.63-.63-.24c-6.77-2.61-11.72-4.76-11.6-5.07s5.26 1.31 12.08 3.78l-.88.4c.44-1.16.9-2.35 1.37-3.58 3.29-8.49 6.26-15.22 6.62-15.11z" fill="#fff"/><path d="m395.65 417.09a19.33 19.33 0 0 1 12-1.46c2.18.36 4.45 1 5.94 2.64s1.76 4.52.06 5.93a5.77 5.77 0 0 1 -3.74.95c-3.18 0-6.7-.6-9.24 1.31-1.45 1.09-2.41 2.9-4.14 3.44a4.11 4.11 0 0 1 -4.5-2 7 7 0 0 1 -.51-5.16 7.86 7.86 0 0 1 4.13-5.65z" fill="#4f46e5"/><path d="m395.65 417.09a19.33 19.33 0 0 1 12-1.46c2.18.36 4.45 1 5.94 2.64s1.76 4.52.06 5.93a5.77 5.77 0 0 1 -3.74.95c-3.18 0-6.7-.6-9.24 1.31-1.45 1.09-2.41 2.9-4.14 3.44a4.11 4.11 0 0 1 -4.5-2 7 7 0 0 1 -.51-5.16 7.86 7.86 0 0 1 4.13-5.65z" fill="#fff" opacity=".2"/><path d="m387.28 400.93c2.24 3.19 6.58 2.13 8.59.18s2.87-4.77 3.64-7.46c1.77-6.15 3.55-12.6 2.24-18.86a10.61 10.61 0 0 0 -2.41-5.13 5.48 5.48 0 0 0 -5.19-1.73c-2.19.58-3.55 2.73-4.53 4.77a45.06 45.06 0 0 0 -4.45 19.3c0 3.11.36 6.37 2.11 8.94" fill="#4f46e5"/><path d="m381.15 405.51c2.42-2.88 2.88-7.08 1.8-10.69a20.65 20.65 0 0 0 -6.32-9.18 34.18 34.18 0 0 0 -11.33-6.64 12.12 12.12 0 0 0 -5.1-.87 5.37 5.37 0 0 0 -4.28 2.59c-1.19 2.27-.05 5 1.19 7.28a86.83 86.83 0 0 0 7.44 11.34c2.23 2.87 4.79 5.71 8.19 7s6.93 1.15 8.73-1.21" fill="#4f46e5"/><path d="m381.15 405.51c2.42-2.88 2.88-7.08 1.8-10.69a20.65 20.65 0 0 0 -6.32-9.18 34.18 34.18 0 0 0 -11.33-6.64 12.12 12.12 0 0 0 -5.1-.87 5.37 5.37 0 0 0 -4.28 2.59c-1.19 2.27-.05 5 1.19 7.28a86.83 86.83 0 0 0 7.44 11.34c2.23 2.87 4.79 5.71 8.19 7s6.93 1.15 8.73-1.21" opacity=".1"/><path d="m387.13 449.06a7.15 7.15 0 0 0 .2-1.45c.11-1.06.23-2.38.39-4a56.48 56.48 0 0 1 .89-5.8 44.23 44.23 0 0 1 2.11-6.85 25.25 25.25 0 0 1 3.5-6.2 13 13 0 0 1 4.42-3.68 12.6 12.6 0 0 1 3.72-1.16 7 7 0 0 0 1.44-.2 6 6 0 0 0 -1.46 0 11.41 11.41 0 0 0 -3.89 1 13.13 13.13 0 0 0 -4.66 3.71 24.78 24.78 0 0 0 -3.63 6.32 42.19 42.19 0 0 0 -2.09 7 48.28 48.28 0 0 0 -.77 5.87c-.13 1.68-.18 3-.2 4a7.1 7.1 0 0 0 .03 1.44z" fill="#263238"/><path d="m387.4 446a2.49 2.49 0 0 0 0-.67v-1.92c0-1.67 0-4.09.08-7.07.15-6 .66-14.21 1.66-23.26s2.32-17.2 3.53-23c.28-1.46.57-2.78.84-3.93s.48-2.16.69-3 .33-1.38.45-1.87a2.71 2.71 0 0 0 .12-.67 2.83 2.83 0 0 0 -.23.63l-.56 1.85c-.25.8-.5 1.79-.79 2.94s-.62 2.46-.94 3.93a219.26 219.26 0 0 0 -3.67 23.04c-1 9.07-1.44 17.33-1.48 23.31 0 3 0 5.41.1 7.08q.07 1.17.12 1.92a3.59 3.59 0 0 0 .08.69z" fill="#263238"/><path d="m387.44 430.08a12.35 12.35 0 0 0 0-2 52.73 52.73 0 0 0 -.62-5.44 75.45 75.45 0 0 0 -5.08-17.32 49.92 49.92 0 0 0 -9.74-15.18 23.94 23.94 0 0 0 -2.29-2.13c-.35-.3-.66-.59-1-.83l-.88-.61a13.4 13.4 0 0 0 -1.7-1.09 60.92 60.92 0 0 1 5.55 4.95 52.73 52.73 0 0 1 9.5 15.12 75.14 75.14 0 0 1 3.33 9.3c.87 2.91 1.45 5.59 1.89 7.85s.65 4.11.8 5.39a14 14 0 0 0 .24 1.99z" fill="#263238"/><path d="m235.35 298.25h41.87l16.58-46.32h-2.32l-16.44 44.06-39.69.23z" fill="#455a64"/><path d="m216.85 304.1 1.55 145.09h4.26l-1.73-146.16z" fill="#263238"/><path d="m306.47 302.69c-.57 2.77 3.84 146.83 3.84 146.83h4l-3.25-146.83z" fill="#263238"/><path d="m355.42 298.25h-178.03v7.34h14.69l-9.56 143.13 4.18.23 9.57-143.36h144.17l6.99 143.42h4.19l-6.99-143.42h10.79z" fill="#263238"/><path d="m255 443.73v-11l-20.61-.21-.23 16.1 1.28.09c5.68.38 28.92 1.5 32.73.39 4.24-1.24-13.17-5.37-13.17-5.37z" fill="#4f46e5"/><path d="m241.62 448.53a7.13 7.13 0 0 0 -2.58-4.42 7 7 0 0 0 -4.8-1.55l-.06 5.76z" fill="#f5f5f5"/><path d="m263.48 446.05s6.12 1.84 5.34 2.84-24.3.75-34.67-.27v-.46l27.44.53s.69-2.6 1.89-2.64z" fill="#f5f5f5"/><path d="m233.87 448.14h.35l1 .08 3.74.2c3.16.15 7.53.29 12.36.35s9.21 0 12.37-.07l3.75-.11 1-.05h.35a1.35 1.35 0 0 0 -.35 0h-1-3.75c-3.16 0-7.54 0-12.36 0s-9.2-.18-12.36-.28l-3.75-.12h-1z" fill="#263238"/><path d="m261.62 449a8.23 8.23 0 0 1 .72-1.78 8.09 8.09 0 0 1 1.29-1.42 3.32 3.32 0 0 0 -2 3.2z" fill="#263238"/><path d="m255.57 445.86c.06 0 .36-.32.66-.79s.51-.88.45-.92-.35.32-.66.79a2.38 2.38 0 0 0 -.45.92z" fill="#263238"/><path d="m253.91 445c.05.05.38-.16.74-.48s.61-.61.56-.66-.37.16-.73.47-.61.58-.57.67z" fill="#263238"/><path d="m252.88 443a2.35 2.35 0 0 0 1.07.15 2.46 2.46 0 0 0 1.08-.1 2.35 2.35 0 0 0 -1.07-.15 2.49 2.49 0 0 0 -1.08.1z" fill="#263238"/><path d="m252.53 441.63a3.06 3.06 0 0 0 2.44.21 150.5 150.5 0 0 1 -2.44-.21z" fill="#263238"/><path d="m256.29 444.07a3.9 3.9 0 0 0 1.33 0 7.38 7.38 0 0 0 1.41-.29 3.84 3.84 0 0 0 .81-.33.67.67 0 0 0 .33-.4.54.54 0 0 0 -.19-.54 2.44 2.44 0 0 0 -3 .68 2.35 2.35 0 0 0 -.45.88v.36a3.47 3.47 0 0 1 .61-1.12 2.35 2.35 0 0 1 1.14-.73 2.07 2.07 0 0 1 1.58.13c.21.16.12.4-.11.54a4.09 4.09 0 0 1 -.75.31 9.08 9.08 0 0 1 -1.37.34c-.83.1-1.34.1-1.34.17z" fill="#263238"/><path d="m256.63 444.14a1.32 1.32 0 0 0 .17-.92 2.29 2.29 0 0 0 -.35-1 1.34 1.34 0 0 0 -1.1-.69.52.52 0 0 0 -.41.61 1.48 1.48 0 0 0 .21.59 4.75 4.75 0 0 0 .62.81 1.83 1.83 0 0 0 .75.54s-.26-.24-.62-.66a4.44 4.44 0 0 1 -.54-.8c-.18-.28-.3-.79 0-.84s.67.3.87.57a2.3 2.3 0 0 1 .36.86 4 4 0 0 1 .04.93z" fill="#263238"/><path d="m234.35 442.51s.59-.05 1.52.07a6.65 6.65 0 0 1 3.31 1.4 6.71 6.71 0 0 1 2 3c.3.88.33 1.48.37 1.47s0-.15 0-.41a6 6 0 0 0 -.21-1.12 6.29 6.29 0 0 0 -5.5-4.48 5.1 5.1 0 0 0 -1.14 0 .94.94 0 0 0 -.35.07z" fill="#263238"/><path d="m236.58 434a68.94 68.94 0 0 0 -.2 8.46 35.07 35.07 0 0 0 .22-4.23 37.71 37.71 0 0 0 -.02-4.23z" fill="#263238"/><path d="m244.24 446.55a11.32 11.32 0 0 0 3 .33 11.19 11.19 0 0 0 3-.21c0-.07-1.35 0-3 0s-2.99-.19-3-.12z" fill="#263238"/><path d="m240.2 446.5c0 .05.11.29.24.6s.21.58.28.58.11-.33-.05-.68-.42-.55-.47-.5z" fill="#263238"/><path d="m238.7 444.59c0 .05.08.26.29.48s.42.36.47.31-.08-.26-.29-.48-.42-.36-.47-.31z" fill="#263238"/><path d="m236.53 443.7c0 .07.29.07.59.18s.52.28.57.23-.11-.33-.49-.46-.69-.01-.67.05z" fill="#263238"/><path d="m235 443.28c0 .06.09.17.26.24s.33.07.35 0-.09-.17-.26-.24-.35-.07-.35 0z" fill="#263238"/><path d="m295.52 432.63-4.52-10.05-18.87 8.29 6.41 14.76 1.2-.44c5.34-2 27-10.53 30-13.11 3.39-2.88-14.22.55-14.22.55z" fill="#4f46e5"/><path d="m285.35 442.48a7.15 7.15 0 0 0 -4.18-3 7 7 0 0 0 -5 .57l2.31 5.27z" fill="#f5f5f5"/><path d="m304.25 431.23s6.33-.85 6 .39-21.84 10.68-31.71 14l-.15-.43 25.22-10.81s-.44-2.62.64-3.15z" fill="#f5f5f5"/><path d="m278.11 445.32.34-.11 1-.35 3.5-1.36c2.94-1.17 7-2.83 11.41-4.77s8.39-3.77 11.24-5.15l3.37-1.64.91-.47a1.46 1.46 0 0 0 .31-.17l-.33.13-.93.42-3.4 1.58c-2.87 1.32-6.85 3.14-11.27 5.07s-8.46 3.63-11.38 4.84l-3.46 1.43-.94.39z" fill="#263238"/><path d="m303.77 434.69a7.87 7.87 0 0 1 -.08-1.92 9.15 9.15 0 0 1 .59-1.83 2.77 2.77 0 0 0 -.84 1.79 2.8 2.8 0 0 0 .33 1.96z" fill="#263238"/><path d="m297 434.3c.07 0 .19-.43.28-1s.1-1 0-1-.19.43-.28 1a2.06 2.06 0 0 0 0 1z" fill="#263238"/><path d="m295.08 434.17c.06 0 .27-.31.47-.74s.3-.81.24-.84-.27.3-.47.74-.32.81-.24.84z" fill="#263238"/><path d="m293.33 432.81a2.58 2.58 0 0 0 1-.31c.55-.23 1-.47.94-.53s-.49.07-1 .3-.97.47-.94.54z" fill="#263238"/><path d="m292.45 431.7a2.13 2.13 0 0 0 1.24-.17 2.08 2.08 0 0 0 1.06-.64 6.69 6.69 0 0 0 -1.15.41 6.39 6.39 0 0 0 -1.15.4z" fill="#263238"/><path d="m296.88 432.38a4 4 0 0 0 1.21-.54 8 8 0 0 0 1.16-.85 4.08 4.08 0 0 0 .61-.63.73.73 0 0 0 .13-.51.5.5 0 0 0 -.39-.4 2.44 2.44 0 0 0 -2.51 2.83.88.88 0 0 0 .11.35 4 4 0 0 1 .1-1.28 2.36 2.36 0 0 1 .74-1.13 2.09 2.09 0 0 1 1.49-.53c.26.05.28.31.12.54a4.33 4.33 0 0 1 -.55.59 10.4 10.4 0 0 1 -1.11.87c-.67.45-1.13.65-1.11.69z" fill="#263238"/><path d="m297.22 432.3a1.36 1.36 0 0 0 -.23-.9 2.31 2.31 0 0 0 -.72-.75 1.34 1.34 0 0 0 -1.28-.17.52.52 0 0 0 -.13.72 1.35 1.35 0 0 0 .44.45 4.29 4.29 0 0 0 .9.49 1.88 1.88 0 0 0 .91.18s-.34-.11-.84-.35a4.25 4.25 0 0 1 -.83-.5c-.28-.18-.59-.59-.31-.78a1.18 1.18 0 0 1 1 .16 2.15 2.15 0 0 1 .69.64 5.38 5.38 0 0 1 .4.81z" fill="#263238"/><path d="m276.24 440s.51-.29 1.41-.56a6.46 6.46 0 0 1 6.67 1.77c.64.69.91 1.22.95 1.19a1.47 1.47 0 0 0 -.17-.38 5.18 5.18 0 0 0 -.65-.92 6.34 6.34 0 0 0 -3.14-2 6.44 6.44 0 0 0 -3.71.15 5.28 5.28 0 0 0 -1 .49c-.26.14-.37.26-.36.26z" fill="#263238"/><path d="m274.75 431.27a33.54 33.54 0 0 0 1.53 4 38.4 38.4 0 0 0 1.77 3.85 35.66 35.66 0 0 0 -1.54-3.95 38.43 38.43 0 0 0 -1.76-3.9z" fill="#263238"/><path d="m286.91 439.6a12 12 0 0 0 2.88-.94 11.08 11.08 0 0 0 2.66-1.43c0-.06-1.23.55-2.76 1.2s-2.8 1.1-2.78 1.17z" fill="#263238"/><path d="m283.21 441.21c0 .07.22.22.47.45s.43.45.49.41 0-.34-.32-.6-.62-.32-.64-.26z" fill="#263238"/><path d="m281.06 440.09c0 .07.18.21.46.32s.53.15.56.09-.18-.21-.46-.32-.54-.18-.56-.09z" fill="#263238"/><path d="m278.72 440.17c0 .06.29-.05.61-.07s.58 0 .61 0-.24-.26-.63-.22-.64.24-.59.29z" fill="#263238"/><path d="m277.13 440.42c0 .07.16.12.34.11s.33-.07.33-.14-.16-.12-.34-.11-.33.07-.33.14z" fill="#263238"/><path d="m108.51 359.12-14.88-111.19a4.69 4.69 0 0 1 5-5.3l35.87 3a6.78 6.78 0 0 1 6.19 6.21l8.74 105.27z" fill="#4f46e5"/><path d="m108.51 359.12-14.88-111.19a4.69 4.69 0 0 1 5-5.3l35.87 3a6.78 6.78 0 0 1 6.19 6.21l8.74 105.27z" opacity=".2"/><path d="m143.11 195.71c-.3-4.24-1.41-8.37-2-12.57s-.71-8.62.95-12.53a18.27 18.27 0 0 1 10.34-9.46 31.68 31.68 0 0 1 14.18-1.62 6.71 6.71 0 0 1 2.51.57 2.49 2.49 0 0 1 1.43 2 1.55 1.55 0 0 1 -1.59 1.62 25.2 25.2 0 0 1 5.37 1.15 3.15 3.15 0 0 1 1.74 1.25 2.39 2.39 0 0 1 -.24 2.36 7 7 0 0 1 -1.81 1.7 1.66 1.66 0 0 1 1.95 1.31 3.16 3.16 0 0 1 -.69 2.47c-.51.72-1.17 1.31-1.7 2-2.16 2.87-1.74 6.86-1.22 10.42" fill="#263238"/><path d="m143.5 220.55 20.21-.36c.27-2.34.66-11.44.66-11.44s8.45-.78 9.07-9.14.36-27.66.36-27.66a29.13 29.13 0 0 0 -29.44 1.87l-1.3.88z" fill="#b78876"/><path d="m171 186.45a1.22 1.22 0 1 1 1.73 0 1.21 1.21 0 0 1 -1.73 0z" fill="#263238"/><path d="m173.13 184.42c-.14.14-.92-.54-2.07-.62s-2 .47-2.15.31.09-.32.47-.58a2.88 2.88 0 0 1 3.37.25c.34.31.45.58.38.64z" fill="#263238"/><path d="m159.79 184.61a1.22 1.22 0 1 1 -1.69.29 1.21 1.21 0 0 1 1.69-.29z" fill="#263238"/><path d="m160.55 184.67c-.14.13-.92-.55-2.07-.63s-2 .47-2.14.32.08-.33.47-.58a2.83 2.83 0 0 1 3.36.25c.34.3.45.58.38.64z" fill="#263238"/><path d="m164.59 194.46a5.58 5.58 0 0 1 1.88-.28c.31 0 .55-.07.58-.23a1.71 1.71 0 0 0 -.16-.88c-.25-.78-.51-1.57-.77-2.4-1.05-3.41-1.77-6.22-1.59-6.27s1.16 2.67 2.22 6.08c.25.83.48 1.63.72 2.41a2 2 0 0 1 .08 1.27.79.79 0 0 1 -.55.45 2.38 2.38 0 0 1 -.51 0 5.65 5.65 0 0 1 -1.9-.15z" fill="#263238"/><path d="m160.76 195.5c-1.15-.79 3.2 2 5.55 2a3.17 3.17 0 0 1 -3.83 1c-2.48-1.05-1.72-3-1.72-3z" fill="#fff"/><path d="m164.4 208.63a19.45 19.45 0 0 1 -10.72-3.77s2.21 6.18 10.6 5.94z" fill="#a36957"/><path d="m142.79 181 .43 10.85s3.81-1.16 4.06-1.27-.07-13.29-.07-13.29-.53-5 2.71-6.15c3.41-1.23 4.89 1.24 9.72 2 15.93 2.69 14.84-2.2 14.84-2.2s2-2.15-2.09-4.51-14.32-3.16-19.92-1.23c-11 3.79-11.66 7.56-11.66 10.89-0 4.75 1.98 4.91 1.98 4.91z" fill="#263238"/><path d="m144.66 182.12c-.18-.07-6.2-.85-5.63 6.26s7.56 4.19 7.56 4-1.93-10.26-1.93-10.26z" fill="#b78876"/><path d="m144.21 190s-.12.1-.32.21a1.25 1.25 0 0 1 -.93.09 3 3 0 0 1 -1.63-2.63 4.12 4.12 0 0 1 .2-1.81 1.44 1.44 0 0 1 .86-1 .64.64 0 0 1 .76.28c.11.19.07.34.11.35s.14-.14.06-.42a.77.77 0 0 0 -.31-.43 1 1 0 0 0 -.7-.12 1.74 1.74 0 0 0 -1.21 1.2 4.18 4.18 0 0 0 -.27 2c.16 1.43 1 2.71 2 2.93a1.34 1.34 0 0 0 1.12-.28c.26-.15.28-.32.26-.37z" fill="#a36957"/><path d="m224.08 278s10-.48 12 .43c3.46 1.51 13.76 17.66 13.24 17.66-1.56 0-4.77 0-4.77 0l-16-6.07-3.77.95z" fill="#b78876"/><path d="m267.08 324.37s29.92 103.63 29.99 103.12-26.82 12.93-26.82 12.93l-18.14-74.94z" fill="#263238"/><path d="m269.66 441.05 28.34-13.83-1.23-3.79-28.56 13.85z" fill="#455a64"/><path d="m265.94 402.93c-.15 0-.46-.61-.71-1.44s-.33-1.56-.18-1.6.46.6.71 1.44.32 1.55.18 1.6z" fill="#455a64"/><path d="m267.79 409c-.15 0-.48-.6-.73-1.43s-.35-1.55-.21-1.6.47.6.73 1.43.35 1.53.21 1.6z" fill="#455a64"/><path d="m269.72 415c-.15.05-.48-.59-.75-1.42s-.37-1.54-.23-1.59.48.59.75 1.42.37 1.59.23 1.59z" fill="#455a64"/><path d="m271.74 421c-.15.05-.49-.58-.77-1.41s-.4-1.54-.25-1.59.49.58.77 1.41.39 1.59.25 1.59z" fill="#455a64"/><path d="m273.84 427c-.14 0-.5-.58-.79-1.4s-.42-1.53-.27-1.58.49.57.79 1.4.43 1.5.27 1.58z" fill="#455a64"/><path d="m276 432.91c-.15 0-.51-.57-.81-1.39s-.44-1.53-.3-1.58.51.57.81 1.39.47 1.53.3 1.58z" fill="#455a64"/><path d="m274.43 435.4a4.72 4.72 0 0 1 -.6-1.08c-.35-.72-.83-1.77-1.38-3.08-1.11-2.62-2.48-6.31-3.86-10.42s-2.54-7.87-3.36-10.59c-.38-1.28-.7-2.36-1-3.23a4.84 4.84 0 0 1 -.28-1.21 6.51 6.51 0 0 1 .48 1.14c.28.75.66 1.83 1.12 3.18l3.51 10.53c1.37 4.11 2.68 7.81 3.7 10.46l1.22 3.13a5.89 5.89 0 0 1 .45 1.17z" fill="#455a64"/><path d="m127.49 317.17c.25-5.49-2.87 30.13 24.51 31.07s83.32.53 83.32.53l-6.55 90.33h32.85l6.86-96.1s3.5-27.84-15.55-31.39c-11.92-2.23-86.05-2.94-86.05-2.94z" fill="#263238"/><path d="m228.02 439.29h34.59v-5.38l-34.59.05z" fill="#455a64"/><path d="m173.91 344a1.39 1.39 0 0 1 .35 0l1-.06 4-.18 14.85-.57 50.09-1.72h.32v.32c-.45 3.68-.83 7.57-1.15 11.52-.44 5.65-.86 11.16-1.27 16.48s-1 10.44-1.51 15.32c-1 9.74-1.94 18.52-2.72 25.91s-1.43 13.31-1.88 17.46c-.23 2-.41 3.64-.54 4.75q-.09.78-.15 1.23a2.78 2.78 0 0 1 -.07.42 1.9 1.9 0 0 1 0-.42c0-.31.06-.72.1-1.24.1-1.12.25-2.72.44-4.76.4-4.15 1-10.12 1.71-17.48s1.62-16.17 2.6-25.93c.48-4.88 1-10 1.47-15.31s.83-10.83 1.26-16.47c.32-4 .7-7.85 1.16-11.55l.28.31-50.1 1.53-14.85.41-4 .08h-1a1.29 1.29 0 0 1 -.39-.05z" fill="#455a64"/><path d="m177.07 340.09c0 .15-.7.29-1.58.31s-1.58-.08-1.58-.23.7-.3 1.57-.32 1.59.09 1.59.24z" fill="#455a64"/><path d="m183.4 339.94c0 .15-.7.29-1.58.31s-1.58-.08-1.59-.23.71-.29 1.58-.32 1.59.09 1.59.24z" fill="#455a64"/><path d="m189.73 339.79c0 .16-.7.29-1.58.32s-1.58-.09-1.59-.24.71-.29 1.58-.31 1.59.08 1.59.23z" fill="#455a64"/><path d="m196.06 339.64c0 .16-.7.3-1.58.32s-1.58-.09-1.59-.24.71-.29 1.58-.31 1.59.08 1.59.23z" fill="#455a64"/><path d="m202.39 339.5c0 .15-.7.29-1.58.31s-1.58-.09-1.59-.24.71-.29 1.58-.31 1.59.08 1.59.24z" fill="#455a64"/><path d="m208.72 339.35c0 .15-.7.29-1.58.31s-1.58-.09-1.59-.24.71-.29 1.58-.31 1.58.09 1.59.24z" fill="#455a64"/><path d="m215.05 339.2c0 .15-.7.29-1.58.31s-1.58-.09-1.59-.24.7-.29 1.58-.31 1.54.09 1.59.24z" fill="#455a64"/><path d="m221.38 339.05c0 .15-.7.29-1.58.31s-1.58-.08-1.59-.24.7-.29 1.58-.31 1.58.09 1.59.24z" fill="#455a64"/><path d="m227.71 338.9c0 .15-.7.29-1.58.31s-1.58-.08-1.59-.23.7-.3 1.58-.32 1.58.09 1.59.24z" fill="#455a64"/><path d="m234 338.75c0 .15-.71.29-1.58.31s-1.58-.08-1.59-.23.7-.3 1.58-.32 1.59.09 1.59.24z" fill="#455a64"/><path d="m240.37 338.6c0 .15-.71.29-1.58.31s-1.58-.08-1.59-.23.7-.29 1.58-.31 1.58.08 1.59.23z" fill="#455a64"/><path d="m246.7 338.45c0 .16-.71.3-1.58.32s-1.59-.09-1.59-.24.7-.29 1.58-.31 1.58.08 1.59.23z" fill="#455a64"/><path d="m246.69 344.19c-.16 0-.21-.73-.12-1.6s.27-1.56.42-1.55.21.73.12 1.6-.27 1.57-.42 1.55z" fill="#455a64"/><path d="m246.07 350.49c-.15 0-.21-.73-.12-1.6s.28-1.56.43-1.55.2.73.12 1.6-.28 1.57-.43 1.55z" fill="#455a64"/><path d="m245.45 356.79c-.15 0-.21-.73-.12-1.6s.28-1.56.43-1.55.2.74.12 1.61-.28 1.56-.43 1.54z" fill="#455a64"/><path d="m244.83 363.09c-.15 0-.2-.73-.12-1.6s.28-1.56.43-1.55.2.74.12 1.61-.26 1.56-.43 1.54z" fill="#455a64"/><path d="m244.21 369.4c-.15 0-.2-.74-.12-1.61s.28-1.56.43-1.54.21.73.12 1.6-.28 1.56-.43 1.55z" fill="#455a64"/><path d="m243.59 375.7c-.15 0-.2-.74-.11-1.61s.27-1.56.42-1.54.21.73.12 1.6-.27 1.56-.43 1.55z" fill="#455a64"/><path d="m243 382c-.16 0-.21-.73-.12-1.6s.27-1.57.43-1.55.2.73.11 1.6-.29 1.55-.42 1.55z" fill="#455a64"/><path d="m242.36 388.3c-.15 0-.21-.73-.12-1.6s.28-1.57.43-1.55.2.73.12 1.6-.28 1.56-.43 1.55z" fill="#455a64"/><path d="m241.74 394.6c-.15 0-.2-.73-.12-1.6s.28-1.56.43-1.55.2.73.12 1.6-.28 1.57-.43 1.55z" fill="#455a64"/><path d="m241.12 400.9c-.15 0-.2-.73-.12-1.6s.28-1.56.43-1.55.2.73.12 1.6-.28 1.57-.43 1.55z" fill="#455a64"/><path d="m240.5 407.2c-.15 0-.2-.73-.12-1.6s.28-1.56.43-1.55.21.73.12 1.6-.28 1.57-.43 1.55z" fill="#455a64"/><path d="m239.89 413.5c-.16 0-.21-.73-.12-1.6s.27-1.56.42-1.55.21.74.12 1.61-.31 1.56-.42 1.54z" fill="#455a64"/><path d="m239.27 419.8c-.15 0-.21-.73-.12-1.6s.27-1.56.43-1.55.2.74.11 1.61-.27 1.56-.42 1.54z" fill="#455a64"/><path d="m238.65 426.11c-.15 0-.21-.74-.12-1.61s.28-1.56.43-1.54.2.73.12 1.6-.28 1.56-.43 1.55z" fill="#455a64"/><path d="m238 432.41c-.15 0-.2-.73-.12-1.6s.28-1.57.43-1.55.2.73.12 1.6-.25 1.56-.43 1.55z" fill="#455a64"/><path d="m237.7 435.75c-.15 0-.27-.07-.26-.12s.13-.09.28-.07.27.07.27.12-.14.08-.29.07z" fill="#455a64"/><path d="m239.8 344.56a9.2 9.2 0 0 1 -2.15 2.35 9.6 9.6 0 0 1 -2.53 1.94 18.61 18.61 0 0 1 4.68-4.29z" fill="#263238"/><path d="m242.07 345.78a15 15 0 0 1 -3.53 1.89 14.69 14.69 0 0 1 -3.76 1.38 15 15 0 0 1 3.53-1.89 14.83 14.83 0 0 1 3.76-1.38z" fill="#263238"/><path d="m175.27 274.1s-3.35-35.89-9.3-51.6l1.18-.89-1.77-6.19-22.26-2.7.34 4.83a15.87 15.87 0 0 0 -7.61 7.24c-8 16.94-4 36.72-8.29 73.37 0 0-5 17.19.16 22.57l48.57-11.32-2.29-11.08c21.2-.4 56.06-4.3 56.06-4.3l-1-20.06s-52.09.31-53.79.13" fill="#455a64"/><path d="m165.34 215.39a16.81 16.81 0 0 1 1.61 4 7 7 0 0 1 .44 1.7 1.2 1.2 0 0 1 -.28.83 1.44 1.44 0 0 1 -.6.42c-.84.26-1.32.08-1.32 0s.52-.09 1.15-.39a.93.93 0 0 0 .55-.88 10.57 10.57 0 0 0 -.46-1.55 17.14 17.14 0 0 1 -1.09-4.13z" fill="#e0e0e0"/><g fill="#263238"><path d="m170.65 242.11c0 .16-9 .28-20 .28s-20-.12-20-.28 9-.27 20-.27 20 .16 20 .27z"/><path d="m168.56 232c0 .15-7.94.28-17.72.28s-17.72-.13-17.72-.28 7.93-.27 17.72-.27 17.72.12 17.72.27z"/><path d="m165.64 223.11c0 .15-6.56.27-14.66.27s-14.65-.12-14.65-.27 6.56-.28 14.65-.28 14.66.17 14.66.28z"/><path d="m165.35 216.83a111 111 0 0 1 -11.23.28 111 111 0 0 1 -11.23-.28c0-.15 5-.27 11.23-.27s11.23.12 11.23.27z"/><path d="m172.06 251.84c0 .15-9.47.27-21.15.27s-21.15-.12-21.15-.27 9.47-.28 21.15-.28 21.15.12 21.15.28z"/><path d="m173.78 261.61c0 .15-9.85.27-22 .27s-22-.12-22-.27 9.85-.28 22-.28 22 .13 22 .28z"/><path d="m174.86 270.61c0 .16-10.1.28-22.55.28s-22.55-.12-22.55-.28 10.1-.27 22.55-.27 22.55.12 22.55.27z"/><path d="m224.08 280.46c0 .15-21.3.27-47.57.27s-47.58-.12-47.58-.27 21.3-.28 47.58-.28 47.57.13 47.57.28z"/><path d="m224.45 288.34c0 .16-21.46.28-47.93.28s-47.94-.12-47.94-.28 21.46-.27 47.94-.27 47.93.12 47.93.27z"/><path d="m173.24 298.06c0 .16-10.25.28-22.9.28s-22.91-.12-22.91-.28 10.25-.27 22.91-.27 22.9.12 22.9.27z"/><path d="m175.57 307.08c0 .15-11.15.28-24.9.28s-24.9-.13-24.9-.28 11.15-.27 24.9-.27 24.9.12 24.9.27z"/><path d="m133.17 309.47c-.16 0-.28-17.49-.28-39.06s.12-39.06.28-39.06.27 17.49.27 39.06-.12 39.06-.27 39.06z"/><path d="m145.18 308.51c-.15 0-.27-21.38-.27-47.75s.09-47.76.27-47.76.28 21.37.28 47.75-.12 47.76-.28 47.76z"/><path d="m158.45 307.08c-.15 0-.27-20.61-.27-46s.12-46 .27-46 .28 20.61.28 46-.12 46-.28 46z"/><path d="m169.6 309.44c-.15 0-.27-16.18-.27-36.13s.12-36.14.27-36.14.28 16.18.28 36.14-.13 36.13-.28 36.13z"/><path d="m181.41 274.05a22.17 22.17 0 0 1 .11 3.52c0 2.17 0 5.16-.12 8.46s-.18 6.3-.28 8.46a24.55 24.55 0 0 1 -.28 3.51 21.88 21.88 0 0 1 -.11-3.51c0-2.17 0-5.16.12-8.47s.18-6.3.28-8.47a21.31 21.31 0 0 1 .28-3.5z"/><path d="m194 274.47a20.86 20.86 0 0 1 .11 3.3c0 2 0 4.83-.1 7.92s-.18 5.9-.27 7.93a18.66 18.66 0 0 1 -.28 3.28 20.48 20.48 0 0 1 -.11-3.28c0-2 0-4.84.11-7.94s.17-5.9.27-7.93a18.2 18.2 0 0 1 .27-3.28z"/><path d="m206.52 274.25a17.58 17.58 0 0 1 .12 3.19c0 2 0 4.69-.1 7.69s-.17 5.72-.27 7.68a17.1 17.1 0 0 1 -.27 3.19 19.78 19.78 0 0 1 -.12-3.18c0-2 0-4.69.11-7.69s.17-5.73.26-7.69a19.57 19.57 0 0 1 .27-3.19z"/><path d="m219.09 273.9a16.32 16.32 0 0 1 .12 3.09c0 1.91 0 4.55-.1 7.46s-.16 5.55-.26 7.45a18 18 0 0 1 -.26 3.09 16.74 16.74 0 0 1 -.13-3.09c0-1.91 0-4.55.1-7.46s.17-5.56.26-7.46a17 17 0 0 1 .27-3.08z"/><path d="m170.91 278.57a10.39 10.39 0 0 1 4.66-5.21 27.12 27.12 0 0 1 -2.37 2.57 28 28 0 0 1 -2.29 2.64z"/><path d="m173.78 278.81a5.49 5.49 0 0 1 2-5.45c.12.11-.72 1.13-1.26 2.63s-.52 2.82-.74 2.82z"/><path d="m225 293.92a85.52 85.52 0 0 1 -1.14-9.59 86.34 86.34 0 0 1 -.6-9.65 81.41 81.41 0 0 1 1.15 9.6 84.55 84.55 0 0 1 .59 9.64z"/><path d="m225.63 278.46c0 .07-.28.27-.32.77a1 1 0 0 0 .25.73.75.75 0 0 0 .84.11.78.78 0 0 0 .5-.69 1 1 0 0 0 -.37-.68c-.39-.31-.76-.21-.78-.29s.37-.36 1 0a1.26 1.26 0 0 1 .66 1 1.24 1.24 0 0 1 -.78 1.22 1.26 1.26 0 0 1 -1.44-.26 1.28 1.28 0 0 1 -.25-1.15c.18-.73.7-.83.69-.76z"/><path d="m175.21 274h.25l.73.06c.65.07 1.61.13 2.87.17 2.52.1 6.22.15 10.93.11 9.41-.06 22.86-.41 39-1h.23v.23c.32 6.23.66 13 1 20.18v.23h-.21c-2.56.48-5.15.68-7.8.95l-8.08.7c-5.49.45-11.14.87-16.89 1.28l-21.14 1.42c-6.13-.39-12.08-2.59-16.24-6.63a19.86 19.86 0 0 1 -4.71-6.93 49.4 49.4 0 0 1 -2.37-7.62c-2.47-10-4-19.11-5.25-26.67-.6-3.78-1.11-7.19-1.54-10.17a62.06 62.06 0 0 1 -.89-7.67 9.43 9.43 0 0 1 1-4.72 4.76 4.76 0 0 1 1-1.33 9.36 9.36 0 0 0 -.93 1.38 9.55 9.55 0 0 0 -.88 4.67 64.3 64.3 0 0 0 1 7.63c.47 3 1 6.38 1.62 10.16 1.26 7.54 2.86 16.59 5.35 26.6a50.22 50.22 0 0 0 2.37 7.55 19.34 19.34 0 0 0 4.62 6.75c4 3.93 9.89 6.08 15.91 6.47l21.13-1.44 16.88-1.27 8.08-.69c2.63-.27 5.27-.47 7.72-.93l-.2.27c-.34-7.15-.66-13.95-1-20.19l.25.23c-16.13.59-29.58.87-39 .85-4.71 0-8.41-.09-10.93-.24-1.26-.07-2.23-.15-2.88-.25l-.73-.09a1 1 0 0 1 -.27-.05z"/><path d="m175.21 274a9.13 9.13 0 0 1 -.52-1.57c-.29-1-.69-2.5-1.17-4.34-1-3.67-2.15-8.78-3.43-14.42s-2.45-10.75-3.33-14.44l-1-4.37a8.41 8.41 0 0 1 -.31-1.62 10.39 10.39 0 0 1 .52 1.57c.31 1 .71 2.49 1.2 4.33 1 3.66 2.22 8.76 3.5 14.41s2.33 10.66 3.23 14.45c.4 1.78.74 3.25 1 4.38a11 11 0 0 1 .31 1.62z"/><path d="m165.41 215.81a4.48 4.48 0 0 1 -.11 1.1c-.1.71-.26 1.72-.48 3a16.53 16.53 0 0 1 -.42 2.07 1.49 1.49 0 0 1 -.9 1 2.63 2.63 0 0 1 -1.34 0c-1.65-.34-3.45-.78-5.33-1.29-3.75-1-7.09-2.11-9.52-2.86l-2.87-.9a4.32 4.32 0 0 1 -1-.39 4.12 4.12 0 0 1 1.09.18c.7.16 1.7.4 2.93.74 2.46.65 5.82 1.67 9.56 2.7 1.87.51 3.65 1 5.29 1.33a2.2 2.2 0 0 0 1.09.07 1 1 0 0 0 .62-.67c.22-.64.31-1.38.46-2 .26-1.24.49-2.24.65-2.94a4.07 4.07 0 0 1 .28-1.14z"/><path d="m147.91 354.25 6.99 94.87 2.92-.68-1.09-92.19z"/><path d="m118.29 357.55-21.23 91.46h3.84l30.39-91.46z"/><path d="m174.44 357.55 28.96 91.46h3.1l-23.01-91.46z"/><path d="m178.32 363.69-64.9 42.41v2.32l66.71-44.73z"/><path d="m123.25 363.69 70.32 47.32v-3.62l-68.26-45.77z"/></g><path d="m108.59 359.12 83.62-1.51a5.35 5.35 0 0 0 5.21-6 5.33 5.33 0 0 0 -5.39-4.72l-84.81 1.36z" fill="#4f46e5"/><path d="m108.59 359.12 83.62-1.51a5.35 5.35 0 0 0 5.21-6 5.33 5.33 0 0 0 -5.39-4.72l-84.81 1.36z" opacity=".2"/><path d="m100.07 294.48 8.44 64.64 65.93-1.57-.17-39.26a11 11 0 0 0 -12-11.12l-50.27 4.54-6.62-68.51-6.68-.57a4.7 4.7 0 0 0 -5 5.32z" fill="#4f46e5"/></svg>